<svg width="185" height="51" viewBox="0 0 185 51" xmlns="http://www.w3.org/2000/svg" xmlns:xlink="http://www.w3.org/1999/xlink">
    <defs>
        <path id="4l42z8poqa" d="M0 50.613h183.5V0H0z"/>
    </defs>
    <g fill="none" fill-rule="evenodd">
        <path fill="#333" d="M62.705 10.475H65.9l2.504 4.542 2.54-4.542h3.04l-4.301 7.133v5.112h-2.729v-5.112z"/>
        <g transform="translate(.718 .018)">
            <path d="M78.453 16.708a3.55 3.55 0 0 0-.83-.086c-1.053 0-2.003.621-2.003 2.33v3.75h-2.625v-8.585h2.539v1.158c.449-.968 1.537-1.244 2.228-1.244.259 0 .518.035.69.086v2.591zM84.663 17.727l3.42 4.974H84.87l-2.02-3.023-.847.916v2.107H79.38V10.197h2.624v6.804l2.609-2.884h3.402z" fill="#333"/>
            <path d="M93.948 17.382c-.035-.657-.484-1.451-1.728-1.451-1.105 0-1.657.811-1.71 1.45h3.438zm2.383 2.849c-.415 1.486-1.779 2.729-3.955 2.729-2.366 0-4.473-1.692-4.473-4.577 0-2.763 2.055-4.525 4.283-4.525 2.66 0 4.3 1.641 4.3 4.405 0 .362-.034.759-.052.811H90.46c.052.967.933 1.658 1.952 1.658.95 0 1.485-.45 1.727-1.122l2.193.621zM99.417 19.869c.035.586.45 1.156 1.347 1.156.674 0 1.002-.362 1.002-.742 0-.31-.207-.57-.846-.708l-.984-.225c-1.831-.397-2.556-1.433-2.556-2.642 0-1.572 1.381-2.85 3.298-2.85 2.487 0 3.35 1.555 3.437 2.556l-2.176.398c-.07-.57-.432-1.054-1.226-1.054-.5 0-.933.294-.933.743 0 .362.293.57.674.639l1.14.224c1.779.363 2.642 1.434 2.642 2.695 0 1.468-1.123 2.9-3.42 2.9-2.694 0-3.557-1.743-3.627-2.693l2.228-.397zM111.014 21.837c-.449.743-1.433 1.054-2.296 1.054-2.09 0-3.265-1.52-3.265-3.351v-5.423h2.626v4.87c0 .83.449 1.486 1.381 1.486.881 0 1.433-.604 1.433-1.468v-4.888h2.626v7.047c0 .777.068 1.399.086 1.537h-2.521a6.215 6.215 0 0 1-.07-.864M118.542 14.117h1.676v2.298h-1.676v3.212c0 .708.38.898.95.898.277 0 .536-.052.692-.086v2.175c-.104.052-.536.242-1.365.242-1.78 0-2.867-1.053-2.867-2.763v-3.678h-1.52v-2.298h.432c.898 0 1.33-.604 1.33-1.398v-1.106h2.348v2.504zM126.145 16.276c-1.019 0-1.952.673-1.952 2.124 0 1.417.933 2.142 1.952 2.142s1.935-.708 1.935-2.142c0-1.45-.916-2.124-1.935-2.124zm-4.49 6.425V10.197h2.573v4.732c.363-.535 1.312-1.019 2.487-1.019 2.487 0 3.99 1.9 3.99 4.473 0 2.625-1.693 4.508-4.093 4.508-1.14 0-2.021-.501-2.419-1.158v.968h-2.539z" fill="#333"/>
            <mask id="7qmv21agsb" fill="#fff">
                <use xlink:href="#4l42z8poqa"/>
            </mask>
            <path d="M131.98 22.7h2.626v-8.583h-2.625V22.7zm1.296-12.745c.864 0 1.554.691 1.554 1.537 0 .847-.69 1.538-1.554 1.538-.83 0-1.52-.691-1.52-1.538 0-.846.69-1.537 1.52-1.537zM136.38 22.701h2.626V10.197h-2.625zM144.864 20.542c1.02 0 1.935-.725 1.935-2.142 0-1.433-.916-2.124-1.935-2.124-1.019 0-1.934.691-1.934 2.124 0 1.417.915 2.142 1.934 2.142zm4.491.622c0 .777.052 1.347.069 1.537h-2.522a5.938 5.938 0 0 1-.07-.829c-.396.587-1.26 1.019-2.296 1.019-2.418 0-4.249-1.865-4.249-4.508 0-2.556 1.728-4.473 4.163-4.473 1.468 0 2.107.553 2.314.88v-4.593h2.591v10.967zM153.81 22.7h-2.625v-8.582h2.54v.984c.465-.812 1.519-1.21 2.4-1.21 2.158 0 3.126 1.538 3.126 3.42v5.389h-2.626v-4.94c0-.845-.449-1.485-1.398-1.485-.864 0-1.417.64-1.417 1.503V22.7zM160.97 22.7h2.626v-8.583h-2.625V22.7zm1.296-12.745c.863 0 1.554.691 1.554 1.537 0 .847-.69 1.538-1.554 1.538-.83 0-1.52-.691-1.52-1.538 0-.846.69-1.537 1.52-1.537zM168.005 22.7h-2.626v-8.582h2.54v.984c.466-.812 1.52-1.21 2.4-1.21 2.159 0 3.126 1.538 3.126 3.42v5.389h-2.625v-4.94c0-.845-.45-1.485-1.399-1.485-.863 0-1.416.64-1.416 1.503V22.7zM180.927 18.159c0-1.175-.847-1.9-1.831-1.9s-1.848.725-1.848 1.9c0 1.174.794 1.9 1.848 1.9 1.07 0 1.83-.726 1.83-1.9zm-3.99 4.37c.173.828.864 1.433 1.848 1.433 1.313 0 2.125-.64 2.125-2.194v-.397c-.311.467-1.054.967-2.298.967-2.28 0-3.989-1.796-3.989-4.18 0-2.262 1.64-4.196 3.99-4.196 1.398 0 2.141.622 2.383 1.07v-.915h2.504v7.513c0 2.47-1.382 4.611-4.594 4.611-2.47 0-4.041-1.52-4.283-3.056l2.314-.657zM74.335 40.503v-8.118l-3.195 8.118h-2.21l-3.195-8.014v8.014h-2.591V28.257h3.558l3.368 8.273 3.195-8.273h3.747v12.246zM79.109 40.502h2.625V31.92H79.11v8.583zm1.295-12.745c.864 0 1.554.691 1.554 1.537s-.69 1.537-1.554 1.537c-.828 0-1.52-.691-1.52-1.537s.692-1.537 1.52-1.537zM86.715 31.92h1.675v2.296h-1.675v3.213c0 .707.38.898.95.898.276 0 .535-.053.69-.087v2.176c-.103.052-.535.242-1.364.242-1.779 0-2.867-1.054-2.867-2.763v-3.679h-1.52V31.92h.432c.898 0 1.33-.604 1.33-1.399v-1.105h2.349v2.504zM93.115 31.92h1.675v2.296h-1.675v3.213c0 .707.38.898.95.898.276 0 .536-.053.69-.087v2.176c-.103.052-.535.242-1.363.242-1.78 0-2.868-1.054-2.868-2.763v-3.679h-1.52V31.92h.432c.899 0 1.33-.604 1.33-1.399v-1.105h2.349v2.504z" fill="#333" mask="url(#7qmv21agsb)"/>
            <path d="M24.684 0v.008C10.995.338 0 11.538 0 25.306c0 13.976 11.33 25.306 25.306 25.307 13.769 0 24.97-10.995 25.3-24.683h.008V0h-25.93z" fill="#27A36C" mask="url(#7qmv21agsb)"/>
            <path d="M35.32 15.348c-1.76 0-3.359.484-4.58 1.425a.703.703 0 0 1-.854 0c-1.221-.941-2.82-1.425-4.58-1.425-3.865 0-6.963 2.33-6.963 6.742V25.229c0 2.132-1.19 3.198-3.049 3.198s-3.049-1.066-3.049-3.197v-5.327a.713.713 0 0 0-.712-.713h-2.49a.713.713 0 0 0-.713.713v5.65c0 3.42 1.864 5.588 4.503 6.39.3.09.503.367.503.68v3.584c0 .394.32.712.713.712h2.49a.712.712 0 0 0 .712-.712v-3.584a.71.71 0 0 1 .504-.68c2.64-.802 4.503-2.97 4.503-6.39v.034-3.175c0-2.131 1.19-3.197 3.049-3.197 1.858 0 3.048 1.066 3.048 3.197v8.542l.001.021c.012.383.324.69.71.691h2.494c.386 0 .7-.307.711-.691l.001-.022v-8.542h-.001c0-2.13 1.19-3.196 3.049-3.196 1.858 0 3.048 1.066 3.048 3.197v8.542c0 .394.32.712.713.712h2.49a.712.712 0 0 0 .713-.712v-8.865c0-4.41-3.098-6.74-6.964-6.74" fill="#FEFEFE" mask="url(#7qmv21agsb)"/>
        </g>
    </g>
</svg>
