<svg width="184" height="51" viewBox="0 0 184 51" fill="none" xmlns="http://www.w3.org/2000/svg">
<path fill-rule="evenodd" clip-rule="evenodd" d="M78.4531 16.7082C78.1596 16.6389 77.8832 16.622 77.6236 16.622C76.5708 16.622 75.6205 17.2435 75.6205 18.9532V22.7014H72.9951V14.1175H75.5342V15.275C75.9832 14.3077 77.0714 14.0312 77.7623 14.0312C78.021 14.0312 78.2805 14.0659 78.4531 14.1175V16.7082Z" fill="white"/>
<path fill-rule="evenodd" clip-rule="evenodd" d="M84.6636 17.7269L88.083 22.7005H84.8708L82.8499 19.6785L82.0036 20.5941V22.7005H79.3789V10.1973H82.0036V17.0015L84.612 14.1173H88.0145L84.6636 17.7269Z" fill="white"/>
<path fill-rule="evenodd" clip-rule="evenodd" d="M61.9863 10.4561H65.1809L67.6854 14.9983L70.2245 10.4561H73.2642L68.9638 17.5891V22.7012H66.2352V17.5891L61.9863 10.4561Z" fill="white"/>
<path fill-rule="evenodd" clip-rule="evenodd" d="M93.9481 17.3818C93.9135 16.7256 93.4645 15.9308 92.2207 15.9308C91.1156 15.9308 90.5634 16.7426 90.511 17.3818H93.9481ZM96.3317 20.2313C95.9166 21.7169 94.5527 22.9599 92.3763 22.9599C90.0104 22.9599 87.9033 21.2679 87.9033 18.3837C87.9033 15.6205 89.9588 13.8584 92.1868 13.8584C94.8461 13.8584 96.4865 15.4995 96.4865 18.2628C96.4865 18.6255 96.4526 19.0222 96.4349 19.0745H90.4594C90.511 20.0411 91.392 20.7319 92.4109 20.7319C93.3605 20.7319 93.8965 20.2829 94.1383 19.6098L96.3317 20.2313Z" fill="white"/>
<path fill-rule="evenodd" clip-rule="evenodd" d="M99.4175 19.8686C99.4521 20.4554 99.8665 21.0253 100.764 21.0253C101.438 21.0253 101.766 20.6626 101.766 20.2829C101.766 19.9725 101.559 19.713 100.92 19.5751L99.9358 19.3503C98.1051 18.9529 97.3797 17.917 97.3797 16.7079C97.3797 15.1361 98.7613 13.8584 100.678 13.8584C103.165 13.8584 104.029 15.4125 104.115 16.4145L101.939 16.8119C101.87 16.242 101.508 15.7583 100.713 15.7583C100.212 15.7583 99.7802 16.0518 99.7802 16.5007C99.7802 16.8635 100.074 17.0706 100.454 17.14L101.594 17.3641C103.373 17.7268 104.236 18.7981 104.236 20.0588C104.236 21.5267 103.113 22.9599 100.817 22.9599C98.1221 22.9599 97.2588 21.2155 97.1895 20.2659L99.4175 19.8686Z" fill="white"/>
<path fill-rule="evenodd" clip-rule="evenodd" d="M111.014 21.8371C110.565 22.5795 109.581 22.8906 108.718 22.8906C106.628 22.8906 105.453 21.3711 105.453 19.5397V14.1172H108.079V18.9875C108.079 19.8162 108.528 20.4724 109.46 20.4724C110.341 20.4724 110.893 19.8686 110.893 19.0045V14.1172H113.519V21.1639C113.519 21.941 113.587 22.5625 113.605 22.7004H111.084C111.049 22.5456 111.014 22.0619 111.014 21.8371" fill="white"/>
<path fill-rule="evenodd" clip-rule="evenodd" d="M118.543 14.1178H120.218V16.4151H118.543V19.6273C118.543 20.3351 118.923 20.5253 119.492 20.5253C119.769 20.5253 120.028 20.4737 120.184 20.439V22.6147C120.08 22.6663 119.648 22.8565 118.819 22.8565C117.04 22.8565 115.952 21.803 115.952 20.0933V16.4151H114.433V14.1178H114.864C115.763 14.1178 116.194 13.5132 116.194 12.7192V11.6133H118.543V14.1178Z" fill="white"/>
<path fill-rule="evenodd" clip-rule="evenodd" d="M126.145 16.2757C125.126 16.2757 124.193 16.9489 124.193 18.3998C124.193 19.8161 125.126 20.5415 126.145 20.5415C127.164 20.5415 128.08 19.8338 128.08 18.3998C128.08 16.9489 127.164 16.2757 126.145 16.2757V16.2757ZM121.654 22.7002V10.1963H124.228V14.9288C124.591 14.3935 125.54 13.9099 126.715 13.9099C129.202 13.9099 130.704 15.8098 130.704 18.3828C130.704 21.0075 129.012 22.8905 126.612 22.8905C125.472 22.8905 124.591 22.3891 124.193 21.733V22.7002H121.654Z" fill="white"/>
<mask id="mask0_2470_35184" style="mask-type:luminance" maskUnits="userSpaceOnUse" x="0" y="0" width="184" height="51">
<path fill-rule="evenodd" clip-rule="evenodd" d="M0 50.613H183.5V0H0V50.613Z" fill="white"/>
</mask>
<g mask="url(#mask0_2470_35184)">
<path fill-rule="evenodd" clip-rule="evenodd" d="M131.981 22.7001H134.606V14.1169H131.981V22.7001ZM133.275 9.95508C134.139 9.95508 134.83 10.6459 134.83 11.4923C134.83 12.3386 134.139 13.0295 133.275 13.0295C132.447 13.0295 131.756 12.3386 131.756 11.4923C131.756 10.6459 132.447 9.95508 133.275 9.95508V9.95508Z" fill="white"/>
<path fill-rule="evenodd" clip-rule="evenodd" d="M136.381 22.7012H139.006V10.1973H136.381V22.7012Z" fill="white"/>
<path fill-rule="evenodd" clip-rule="evenodd" d="M144.864 20.5415C145.883 20.5415 146.799 19.8161 146.799 18.3998C146.799 16.9666 145.883 16.2757 144.864 16.2757C143.845 16.2757 142.93 16.9666 142.93 18.3998C142.93 19.8161 143.845 20.5415 144.864 20.5415V20.5415ZM149.355 21.1631C149.355 21.9401 149.406 22.5108 149.423 22.7002H146.902C146.885 22.597 146.833 22.2166 146.833 21.8716C146.436 22.4584 145.572 22.8905 144.536 22.8905C142.118 22.8905 140.287 21.0252 140.287 18.3828C140.287 15.8268 142.015 13.9099 144.45 13.9099C145.918 13.9099 146.557 14.4621 146.764 14.7902V10.1963H149.355V21.1631Z" fill="white"/>
<path fill-rule="evenodd" clip-rule="evenodd" d="M153.81 22.7006H151.185V14.1174H153.724V15.1017C154.19 14.29 155.243 13.8926 156.124 13.8926C158.283 13.8926 159.25 15.4298 159.25 17.312V22.7006H156.625V17.761C156.625 16.9154 156.176 16.2761 155.226 16.2761C154.363 16.2761 153.81 16.9154 153.81 17.7787V22.7006Z" fill="white"/>
<path fill-rule="evenodd" clip-rule="evenodd" d="M160.971 22.7001H163.596V14.1169H160.971V22.7001ZM162.266 9.95508C163.13 9.95508 163.82 10.6459 163.82 11.4923C163.82 12.3386 163.13 13.0295 162.266 13.0295C161.437 13.0295 160.746 12.3386 160.746 11.4923C160.746 10.6459 161.437 9.95508 162.266 9.95508V9.95508Z" fill="white"/>
<path fill-rule="evenodd" clip-rule="evenodd" d="M168.005 22.7006H165.38V14.1174H167.919V15.1017C168.385 14.29 169.439 13.8926 170.32 13.8926C172.478 13.8926 173.446 15.4298 173.446 17.312V22.7006H170.82V17.761C170.82 16.9154 170.371 16.2761 169.422 16.2761C168.558 16.2761 168.005 16.9154 168.005 17.7787V22.7006Z" fill="white"/>
<path fill-rule="evenodd" clip-rule="evenodd" d="M180.927 18.1584C180.927 16.9839 180.08 16.2585 179.096 16.2585C178.112 16.2585 177.248 16.9839 177.248 18.1584C177.248 19.3329 178.043 20.0583 179.096 20.0583C180.167 20.0583 180.927 19.3329 180.927 18.1584V18.1584ZM176.937 22.5282C177.11 23.3568 177.801 23.9614 178.785 23.9614C180.098 23.9614 180.91 23.3222 180.91 21.768V21.3707C180.599 21.8373 179.856 22.3379 178.612 22.3379C176.333 22.3379 174.623 20.542 174.623 18.1584C174.623 15.8958 176.263 13.9619 178.612 13.9619C180.011 13.9619 180.754 14.5834 180.996 15.0324V14.1167H183.5V21.6302C183.5 24.0993 182.118 26.241 178.906 26.241C176.436 26.241 174.865 24.7215 174.623 23.1843L176.937 22.5282Z" fill="white"/>
<path fill-rule="evenodd" clip-rule="evenodd" d="M74.3352 40.503V32.3857L71.1399 40.503H68.9296L65.7343 32.4897V40.503H63.1436V28.2578H66.7016L70.0694 36.5306L73.2647 28.2578H77.0122V40.503H74.3352Z" fill="white"/>
<path fill-rule="evenodd" clip-rule="evenodd" d="M79.1089 40.5019H81.7343V31.9187H79.1089V40.5019ZM80.4043 27.7568C81.2676 27.7568 81.9584 28.4477 81.9584 29.294C81.9584 30.1397 81.2676 30.8305 80.4043 30.8305C79.5756 30.8305 78.8848 30.1397 78.8848 29.294C78.8848 28.4477 79.5756 27.7568 80.4043 27.7568V27.7568Z" fill="white"/>
<path fill-rule="evenodd" clip-rule="evenodd" d="M86.7147 31.9195H88.3898V34.2168H86.7147V37.4291C86.7147 38.1368 87.0944 38.3271 87.6643 38.3271C87.9408 38.3271 88.2003 38.2747 88.3559 38.2408V40.4165C88.2519 40.4681 87.8199 40.6583 86.9912 40.6583C85.2122 40.6583 84.124 39.6047 84.124 37.895V34.2168H82.6045V31.9195H83.0358C83.9345 31.9195 84.3658 31.315 84.3658 30.5209V29.415H86.7147V31.9195Z" fill="white"/>
<path fill-rule="evenodd" clip-rule="evenodd" d="M93.1151 31.9195H94.7902V34.2168H93.1151V37.4291C93.1151 38.1368 93.4948 38.3271 94.0647 38.3271C94.3412 38.3271 94.6007 38.2747 94.7555 38.2408V40.4165C94.6523 40.4681 94.2203 40.6583 93.3916 40.6583C91.6126 40.6583 90.5244 39.6047 90.5244 37.895V34.2168H89.0049V31.9195H89.4362C90.3349 31.9195 90.7662 31.315 90.7662 30.5209V29.415H93.1151V31.9195Z" fill="white"/>
<path fill-rule="evenodd" clip-rule="evenodd" d="M24.6843 0V0.00810988C10.9955 0.338403 0 11.5381 0 25.3058C0 39.282 11.3302 50.6123 25.3065 50.613C39.0749 50.613 50.2753 39.6182 50.6056 25.9295H50.6138V0.000737262L24.6843 0Z" fill="#27A36C"/>
<path fill-rule="evenodd" clip-rule="evenodd" d="M35.3198 15.3486C33.5606 15.3486 31.9615 15.8323 30.7399 16.7738C30.49 16.9662 30.1368 16.9662 29.8861 16.7738C28.6652 15.8323 27.0661 15.3486 25.307 15.3486C21.4408 15.3486 18.3428 17.6784 18.3428 22.0902V23.4792V23.4792V25.2302C18.3428 27.3616 17.1529 28.4277 15.2943 28.4277C13.4356 28.4277 12.2457 27.3616 12.2457 25.2302V19.9034C12.2457 19.5097 11.9264 19.1905 11.5327 19.1905H9.04301C8.64931 19.1905 8.33008 19.5097 8.33008 19.9034V25.5531C8.33008 28.974 10.1939 31.1415 12.8333 31.9429C13.1326 32.0336 13.3361 32.3108 13.3361 32.6234V36.2072C13.3361 36.6009 13.6553 36.9194 14.049 36.9194H16.5395C16.9332 36.9194 17.2517 36.6009 17.2517 36.2072V32.6234C17.2517 32.3108 17.4559 32.0336 17.7552 31.9429C20.3946 31.1415 22.2584 28.974 22.2584 25.5531V25.587V25.587V22.4123C22.2584 20.2809 23.4484 19.2148 25.307 19.2148C27.1656 19.2148 28.3556 20.2809 28.3556 22.4123V30.9543C28.3556 30.9609 28.3563 30.9683 28.3563 30.9756C28.3681 31.3583 28.68 31.665 29.0656 31.6664H31.5597C31.946 31.6664 32.2601 31.359 32.2712 30.9749C32.2712 30.9683 32.2726 30.9609 32.2726 30.9535V22.4116H32.2712C32.2712 20.2809 33.4611 19.2148 35.3198 19.2148C37.1784 19.2148 38.3683 20.2809 38.3683 22.4123V30.9543C38.3683 31.3479 38.6876 31.6664 39.0813 31.6664H41.571C41.9647 31.6664 42.2839 31.3479 42.2839 30.9543V22.0894C42.2839 17.6784 39.186 15.3486 35.3198 15.3486" fill="#FEFEFE"/>
</g>
</svg>
