<svg width="171" height="131" viewBox="0 0 171 131" fill="none" xmlns="http://www.w3.org/2000/svg">
<path fill-rule="evenodd" clip-rule="evenodd" d="M11.532 83.0684L7.97871 89.4268L4.47286 83.0684H0L5.94765 93.0534V100.21H9.76723V93.0534L15.7871 83.0684H11.532Z" fill="white"/>
<path fill-rule="evenodd" clip-rule="evenodd" d="M23.0504 91.8196C22.6396 91.7226 22.2526 91.6989 21.8893 91.6989C20.4156 91.6989 19.0853 92.5689 19.0853 94.9622V100.209H15.4102V88.193H18.9645V89.8133C19.593 88.4593 21.1163 88.0723 22.0833 88.0723C22.4456 88.0723 22.8089 88.1208 23.0504 88.193V91.8196Z" fill="white"/>
<path fill-rule="evenodd" clip-rule="evenodd" d="M31.7443 93.2463L36.531 100.208H32.0343L29.2055 95.9781L28.0207 97.2599V100.208H24.3467V82.7061H28.0207V92.2308L31.6721 88.1934H36.435L31.7443 93.2463Z" fill="white"/>
<path fill-rule="evenodd" clip-rule="evenodd" d="M44.741 92.7632C44.6925 91.8447 44.064 90.7321 42.3229 90.7321C40.7759 90.7321 40.0029 91.8684 39.9296 92.7632H44.741ZM48.0776 96.752C47.4965 98.8316 45.5873 100.572 42.5407 100.572C39.2289 100.572 36.2793 98.2031 36.2793 94.1657C36.2793 90.2976 39.1566 87.8311 42.2755 87.8311C45.998 87.8311 48.2943 90.1284 48.2943 93.9965C48.2943 94.5042 48.2468 95.0595 48.2221 95.1327H39.8574C39.9296 96.4857 41.1629 97.4528 42.5892 97.4528C43.9185 97.4528 44.6688 96.8243 45.0073 95.882L48.0776 96.752Z" fill="white"/>
<path fill-rule="evenodd" clip-rule="evenodd" d="M52.3971 96.2442C52.4457 97.0658 53.0257 97.8635 54.2827 97.8635C55.226 97.8635 55.6852 97.3558 55.6852 96.8243C55.6852 96.3898 55.3952 96.0265 54.5004 95.8335L53.1227 95.5187C50.5601 94.9625 49.5446 93.5124 49.5446 91.8199C49.5446 89.6196 51.4786 87.8311 54.1619 87.8311C57.643 87.8311 58.8526 90.0066 58.9733 91.4091L55.9267 91.9654C55.8297 91.1676 55.323 90.4906 54.2104 90.4906C53.5097 90.4906 52.9049 90.9014 52.9049 91.5299C52.9049 92.0377 53.3157 92.3277 53.8482 92.4247L55.4437 92.7384C57.934 93.2462 59.1426 94.7457 59.1426 96.5105C59.1426 98.5653 57.5708 100.572 54.356 100.572C50.5839 100.572 49.3753 98.1298 49.2783 96.8005L52.3971 96.2442Z" fill="white"/>
<path fill-rule="evenodd" clip-rule="evenodd" d="M68.6314 98.9999C68.0028 100.039 66.6251 100.475 65.4166 100.475C62.4907 100.475 60.8467 98.3476 60.8467 95.784V88.1934H64.5218V95.011C64.5218 96.171 65.1503 97.0895 66.4558 97.0895C67.6891 97.0895 68.4621 96.2443 68.4621 95.0348V88.1934H72.1372V98.0576C72.1372 99.1454 72.2332 100.015 72.258 100.208H68.7284C68.6799 99.9916 68.6314 99.3146 68.6314 98.9999" fill="white"/>
<path fill-rule="evenodd" clip-rule="evenodd" d="M79.1687 88.1933H81.5135V91.4092H79.1687V95.9058C79.1687 96.8965 79.7002 97.1628 80.4979 97.1628C80.8849 97.1628 81.2482 97.0906 81.466 97.0421V100.088C81.3205 100.16 80.7157 100.426 79.5557 100.426C77.0654 100.426 75.5421 98.9513 75.5421 96.558V91.4092H73.415V88.1933H74.0188C75.2768 88.1933 75.8806 87.3471 75.8806 86.2356V84.6875H79.1687V88.1933Z" fill="white"/>
<path fill-rule="evenodd" clip-rule="evenodd" d="M89.8115 91.2153C88.3853 91.2153 87.0797 92.1575 87.0797 94.1886C87.0797 96.1711 88.3853 97.1867 89.8115 97.1867C91.2378 97.1867 92.5196 96.1959 92.5196 94.1886C92.5196 92.1575 91.2378 91.2153 89.8115 91.2153V91.2153ZM83.5254 100.208V82.7051H87.1282V89.3297C87.636 88.5805 88.9653 87.9035 90.6093 87.9035C94.0904 87.9035 96.1937 90.563 96.1937 94.1649C96.1937 97.8389 93.8252 100.475 90.4648 100.475C88.8693 100.475 87.636 99.773 87.0797 98.8544V100.208H83.5254Z" fill="white"/>
<mask id="mask0_2470_35259" style="mask-type:luminance" maskUnits="userSpaceOnUse" x="0" y="0" width="171" height="131">
<path fill-rule="evenodd" clip-rule="evenodd" d="M0.000976562 131H170.099V0H0.000976562V131Z" fill="white"/>
</mask>
<g mask="url(#mask0_2470_35259)">
<path fill-rule="evenodd" clip-rule="evenodd" d="M97.9798 100.209H101.655V88.1941H97.9798V100.209ZM99.7931 82.3672C101.003 82.3672 101.969 83.3342 101.969 84.519C101.969 85.7038 101.003 86.6708 99.7931 86.6708C98.633 86.6708 97.666 85.7038 97.666 84.519C97.666 83.3342 98.633 82.3672 99.7931 82.3672V82.3672Z" fill="white"/>
<path fill-rule="evenodd" clip-rule="evenodd" d="M104.14 100.209H107.815V82.7061H104.14V100.209Z" fill="white"/>
<path fill-rule="evenodd" clip-rule="evenodd" d="M116.015 97.1867C117.442 97.1867 118.723 96.1711 118.723 94.1886C118.723 92.1823 117.442 91.2153 116.015 91.2153C114.589 91.2153 113.308 92.1823 113.308 94.1886C113.308 96.1711 114.589 97.1867 116.015 97.1867V97.1867ZM122.301 98.0567C122.301 99.1445 122.374 99.9433 122.397 100.208H118.868C118.844 100.064 118.771 99.5315 118.771 99.0485C118.216 99.87 117.006 100.475 115.556 100.475C112.171 100.475 109.608 97.8637 109.608 94.1649C109.608 90.5868 112.026 87.9035 115.435 87.9035C117.49 87.9035 118.385 88.6765 118.675 89.1357V82.7051H122.301V98.0567Z" fill="white"/>
<path fill-rule="evenodd" clip-rule="evenodd" d="M128.538 100.209H124.863V88.1937H128.418V89.5715C129.07 88.4352 130.545 87.8789 131.778 87.8789C134.8 87.8789 136.154 90.0307 136.154 92.6655V100.209H132.479V93.294C132.479 92.1103 131.85 91.2155 130.521 91.2155C129.312 91.2155 128.538 92.1103 128.538 93.3188V100.209Z" fill="white"/>
<path fill-rule="evenodd" clip-rule="evenodd" d="M138.562 100.209H142.237V88.1941H138.562V100.209ZM140.375 82.3672C141.584 82.3672 142.551 83.3342 142.551 84.519C142.551 85.7038 141.584 86.6708 140.375 86.6708C139.214 86.6708 138.247 85.7038 138.247 84.519C138.247 83.3342 139.214 82.3672 140.375 82.3672V82.3672Z" fill="white"/>
<path fill-rule="evenodd" clip-rule="evenodd" d="M148.408 100.209H144.732V88.1937H148.287V89.5715C148.939 88.4352 150.414 87.8789 151.647 87.8789C154.669 87.8789 156.023 90.0307 156.023 92.6655V100.209H152.348V93.294C152.348 92.1103 151.719 91.2155 150.39 91.2155C149.182 91.2155 148.408 92.1103 148.408 93.3188V100.209Z" fill="white"/>
<path fill-rule="evenodd" clip-rule="evenodd" d="M166.496 93.8509C166.496 92.2069 165.311 91.1914 163.933 91.1914C162.555 91.1914 161.346 92.2069 161.346 93.8509C161.346 95.495 162.458 96.5105 163.933 96.5105C165.432 96.5105 166.496 95.495 166.496 93.8509V93.8509ZM160.911 99.9678C161.153 101.128 162.12 101.974 163.498 101.974C165.336 101.974 166.472 101.079 166.472 98.9038V98.3475C166.037 99.0008 164.997 99.7016 163.256 99.7016C160.065 99.7016 157.672 97.1875 157.672 93.8509C157.672 90.6836 159.968 87.9766 163.256 87.9766C165.214 87.9766 166.254 88.8466 166.593 89.4751V88.1933H170.098V98.7108C170.098 102.167 168.164 105.165 163.667 105.165C160.21 105.165 158.01 103.038 157.672 100.886L160.911 99.9678Z" fill="white"/>
<path fill-rule="evenodd" clip-rule="evenodd" d="M84.1778 0V0.0113524C65.0159 0.473707 49.624 16.1514 49.624 35.4238C49.624 54.9882 65.4844 70.8485 85.0488 70.8496C104.322 70.8496 120.001 55.4588 120.463 36.2969H120.475V0.00103204L84.1778 0Z" fill="#27A36C"/>
<path fill-rule="evenodd" clip-rule="evenodd" d="M99.0661 21.4854C96.6036 21.4854 94.3652 22.1624 92.6551 23.4803C92.3052 23.7496 91.8109 23.7496 91.46 23.4803C89.7509 22.1624 87.5124 21.4854 85.05 21.4854C79.6379 21.4854 75.3013 24.7466 75.3013 30.9223V32.8667V32.8667V35.3178C75.3013 38.3014 73.6356 39.7938 71.0338 39.7938C68.432 39.7938 66.7663 38.3014 66.7663 35.3178V27.8613C66.7663 27.3102 66.3194 26.8633 65.7683 26.8633H62.2831C61.732 26.8633 61.2852 27.3102 61.2852 27.8613V35.7698C61.2852 40.5585 63.8942 43.5927 67.5889 44.7145C68.0079 44.8415 68.2927 45.2295 68.2927 45.6671V50.6838C68.2927 51.235 68.7396 51.6808 69.2907 51.6808H72.7769C73.328 51.6808 73.7739 51.235 73.7739 50.6838V45.6671C73.7739 45.2295 74.0598 44.8415 74.4788 44.7145C78.1735 43.5927 80.7825 40.5585 80.7825 35.7698V35.8173V35.8173V31.3733C80.7825 28.3897 82.4482 26.8974 85.05 26.8974C87.6517 26.8974 89.3174 28.3897 89.3174 31.3733V43.3306C89.3174 43.3398 89.3185 43.3502 89.3185 43.3605C89.335 43.8961 89.7715 44.3254 90.3113 44.3275H93.8027C94.3435 44.3275 94.7831 43.8971 94.7986 43.3595C94.7986 43.3502 94.8007 43.3398 94.8007 43.3295V31.3723H94.7986C94.7986 28.3897 96.4643 26.8974 99.0661 26.8974C101.668 26.8974 103.334 28.3897 103.334 31.3733V43.3306C103.334 43.8817 103.78 44.3275 104.332 44.3275H107.817C108.368 44.3275 108.815 43.8817 108.815 43.3306V30.9213C108.815 24.7466 104.478 21.4854 99.0661 21.4854" fill="#FEFEFE"/>
<path fill-rule="evenodd" clip-rule="evenodd" d="M78.5658 130.783V119.42L74.0929 130.783H70.9989L66.526 119.566V130.783H62.8994V113.642H67.88L72.5944 125.222L77.0673 113.642H82.3131V130.783H78.5658Z" fill="white"/>
<path fill-rule="evenodd" clip-rule="evenodd" d="M85.2473 130.782H88.9224V118.767H85.2473V130.782ZM87.0606 112.94C88.2702 112.94 89.2372 113.907 89.2372 115.092C89.2372 116.277 88.2702 117.244 87.0606 117.244C85.9006 117.244 84.9336 116.277 84.9336 115.092C84.9336 113.907 85.9006 112.94 87.0606 112.94V112.94Z" fill="white"/>
<path fill-rule="evenodd" clip-rule="evenodd" d="M95.8943 118.767H98.239V121.982H95.8943V126.479C95.8943 127.47 96.4258 127.736 97.2235 127.736C97.6105 127.736 97.9738 127.664 98.1916 127.615V130.661C98.0461 130.733 97.4413 130.999 96.2813 130.999C93.791 130.999 92.2677 129.525 92.2677 127.131V121.982H90.1406V118.767H90.7444C92.0024 118.767 92.6062 117.92 92.6062 116.809V115.261H95.8943V118.767Z" fill="white"/>
<path fill-rule="evenodd" clip-rule="evenodd" d="M104.854 118.767H107.199V121.982H104.854V126.479C104.854 127.47 105.386 127.736 106.183 127.736C106.57 127.736 106.934 127.664 107.151 127.615V130.661C107.006 130.733 106.401 130.999 105.241 130.999C102.751 130.999 101.228 129.525 101.228 127.131V121.982H99.1006V118.767H99.7043C100.962 118.767 101.566 117.92 101.566 116.809V115.261H104.854V118.767Z" fill="white"/>
</g>
</svg>
