<svg width="172" height="132" viewBox="0 0 172 132" xmlns="http://www.w3.org/2000/svg" xmlns:xlink="http://www.w3.org/1999/xlink">
    <defs>
        <path id="1p14bd8nya" d="M0 131.055h170.098V0H0z"/>
    </defs>
    <g fill="none" fill-rule="evenodd">
        <path fill="#333" d="M12.483 83.146 8.93 89.507l-3.506-6.36H.95l5.947 9.989v7.159h3.82v-7.16l6.02-9.989z"/>
        <g transform="translate(.951 .043)">
            <path d="M23.05 91.859a4.968 4.968 0 0 0-1.162-.121c-1.474 0-2.804.87-2.804 3.264v5.25h-3.675V88.23h3.554v1.621c.629-1.354 2.152-1.741 3.12-1.741.361 0 .725.048.966.12v3.629zM31.743 93.286l4.786 6.965h-4.496l-2.829-4.233-1.185 1.283v2.95h-3.674V82.74h3.674v9.529l3.652-4.04h4.763z" fill="#333"/>
            <path d="M44.74 92.802c-.049-.92-.677-2.032-2.418-2.032-1.548 0-2.32 1.137-2.394 2.032h4.812zm3.336 3.99c-.58 2.08-2.49 3.822-5.537 3.822-3.312 0-6.261-2.37-6.261-6.41 0-3.869 2.877-6.336 5.996-6.336 3.723 0 6.019 2.298 6.019 6.168 0 .508-.048 1.063-.072 1.136h-8.365c.072 1.354 1.305 2.321 2.732 2.321 1.329 0 2.08-.628 2.418-1.571l3.07.87zM52.396 96.285c.048.821.628 1.62 1.886 1.62.943 0 1.402-.508 1.402-1.04 0-.435-.29-.798-1.185-.991l-1.378-.315c-2.562-.557-3.578-2.007-3.578-3.7 0-2.202 1.934-3.991 4.618-3.991 3.48 0 4.69 2.176 4.811 3.58l-3.046.556c-.097-.798-.604-1.475-1.717-1.475-.7 0-1.305.41-1.305 1.04 0 .507.41.797.943.894l1.596.314c2.49.508 3.698 2.008 3.698 3.774 0 2.056-1.571 4.063-4.786 4.063-3.772 0-4.98-2.443-5.078-3.773l3.119-.556zM68.63 99.042c-.629 1.04-2.006 1.475-3.215 1.475-2.926 0-4.57-2.128-4.57-4.693v-7.593h3.675v6.82c0 1.16.629 2.08 1.934 2.08 1.234 0 2.007-.846 2.007-2.056V88.23h3.675v9.868c0 1.088.096 1.959.12 2.152h-3.529c-.049-.217-.097-.894-.097-1.21M79.168 88.23h2.345v3.218h-2.345v4.498c0 .991.532 1.258 1.33 1.258.386 0 .75-.072.967-.12v3.046c-.145.072-.75.339-1.91.339-2.49 0-4.014-1.476-4.014-3.87v-5.151h-2.127V88.23h.604c1.258 0 1.862-.847 1.862-1.959v-1.549h3.288v3.508zM89.81 91.254c-1.426 0-2.732.943-2.732 2.974 0 1.984 1.306 3 2.732 3 1.427 0 2.708-.991 2.708-3 0-2.031-1.281-2.974-2.708-2.974zm-6.286 8.997V82.74h3.603v6.627c.508-.75 1.837-1.427 3.481-1.427 3.481 0 5.584 2.66 5.584 6.264 0 3.675-2.368 6.312-5.728 6.312-1.596 0-2.83-.702-3.386-1.62v1.354h-3.554z" fill="#333"/>
            <mask id="tigbei76xb" fill="#fff">
                <use xlink:href="#1p14bd8nya"/>
            </mask>
            <path d="M97.979 100.251h3.675v-12.02h-3.675v12.02zm1.813-17.85c1.21 0 2.176.968 2.176 2.153a2.161 2.161 0 0 1-2.176 2.153c-1.16 0-2.127-.967-2.127-2.153 0-1.185.967-2.152 2.127-2.152zM104.14 100.251h3.674v-17.51h-3.675zM116.014 97.228c1.426 0 2.708-1.016 2.708-3 0-2.007-1.282-2.974-2.708-2.974-1.426 0-2.707.967-2.707 2.974 0 1.984 1.28 3 2.707 3zm6.286.87c0 1.088.073 1.887.096 2.153h-3.53a8.32 8.32 0 0 1-.096-1.16c-.556.821-1.765 1.426-3.215 1.426-3.385 0-5.948-2.612-5.948-6.312 0-3.58 2.418-6.264 5.827-6.264 2.055 0 2.95.773 3.24 1.232V82.74h3.626v15.358zM128.537 100.251h-3.675v-12.02h3.554v1.378c.653-1.136 2.127-1.693 3.36-1.693 3.023 0 4.377 2.153 4.377 4.789v7.546h-3.676v-6.918c0-1.184-.628-2.079-1.957-2.079-1.209 0-1.983.895-1.983 2.104v6.893zM138.56 100.251h3.676v-12.02h-3.675v12.02zm1.814-17.85c1.209 0 2.176.968 2.176 2.153a2.162 2.162 0 0 1-2.176 2.153c-1.161 0-2.128-.967-2.128-2.153 0-1.185.967-2.152 2.128-2.152zM148.407 100.251h-3.675v-12.02h3.554v1.378c.652-1.136 2.127-1.693 3.36-1.693 3.022 0 4.376 2.153 4.376 4.789v7.546h-3.675v-6.918c0-1.184-.628-2.079-1.958-2.079-1.208 0-1.982.895-1.982 2.104v6.893zM166.495 93.89c0-1.645-1.185-2.66-2.562-2.66-1.378 0-2.588 1.015-2.588 2.66 0 1.645 1.113 2.66 2.588 2.66 1.498 0 2.562-1.015 2.562-2.66zm-5.584 6.12c.241 1.16 1.208 2.007 2.586 2.007 1.838 0 2.974-.895 2.974-3.072v-.556c-.435.653-1.474 1.354-3.215 1.354-3.191 0-5.585-2.515-5.585-5.853 0-3.169 2.297-5.877 5.585-5.877 1.957 0 2.998.87 3.336 1.5V88.23h3.505v10.522c0 3.458-1.934 6.457-6.43 6.457-3.458 0-5.657-2.128-5.996-4.28l3.24-.92z" fill="#333" mask="url(#tigbei76xb)"/>
            <path d="M84.177 0v.012C65.015.474 49.623 16.159 49.623 35.439c0 19.573 15.86 35.44 35.425 35.44 19.273 0 34.952-15.397 35.415-34.566h.01V0H84.178z" fill="#27A36C" mask="url(#tigbei76xb)"/>
            <path d="M99.065 21.494c-2.462 0-4.701.678-6.411 1.996a.984.984 0 0 1-1.195 0c-1.71-1.318-3.948-1.996-6.41-1.996-5.412 0-9.749 3.263-9.749 9.441v4.397c0 2.985-1.666 4.478-4.267 4.478-2.602 0-4.268-1.493-4.268-4.478v-7.46a.998.998 0 0 0-.998-.998h-3.485a.998.998 0 0 0-.998.999v7.912c0 4.79 2.609 7.826 6.304 8.948a.995.995 0 0 1 .704.953v5.019c0 .551.446.997.998.997h3.486a.997.997 0 0 0 .997-.997v-5.019c0-.438.286-.826.705-.953 3.694-1.122 6.303-4.158 6.303-8.948v.047-4.446c0-2.985 1.666-4.477 4.268-4.477s4.267 1.492 4.267 4.477V43.35l.001.03a.997.997 0 0 0 .993.967h3.492c.54 0 .98-.43.995-.968l.003-.03V31.385h-.003c0-2.984 1.666-4.476 4.268-4.476s4.267 1.492 4.267 4.477V43.35c0 .55.447.997.998.997h3.486a.997.997 0 0 0 .998-.997V30.934c0-6.177-4.337-9.44-9.749-9.44" fill="#FEFEFE" mask="url(#tigbei76xb)"/>
            <path fill="#333" mask="url(#tigbei76xb)" d="M78.565 130.837V119.47l-4.473 11.367h-3.094l-4.473-11.222v11.222H62.9V113.69h4.98l4.715 11.585 4.472-11.585h5.246v17.148zM85.247 130.837h3.675v-12.02h-3.675v12.02zm1.813-17.85c1.21 0 2.176.968 2.176 2.153a2.162 2.162 0 0 1-2.176 2.153c-1.16 0-2.127-.967-2.127-2.153 0-1.185.967-2.152 2.127-2.152zM95.894 118.817h2.344v3.217h-2.344v4.499c0 .99.531 1.257 1.329 1.257.387 0 .75-.072.968-.12v3.046c-.145.072-.75.339-1.91.339-2.49 0-4.014-1.476-4.014-3.87v-5.151H90.14v-3.217h.604c1.258 0 1.862-.847 1.862-1.959v-1.548h3.288v3.507zM104.853 118.817h2.345v3.217h-2.345v4.499c0 .99.532 1.257 1.33 1.257.386 0 .75-.072.966-.12v3.046c-.144.072-.749.339-1.909.339-2.49 0-4.013-1.476-4.013-3.87v-5.151H99.1v-3.217h.603c1.258 0 1.862-.847 1.862-1.959v-1.548h3.288v3.507z"/>
        </g>
    </g>
</svg>
