<svg viewBox="0 0 168 67" fill="none" xmlns="http://www.w3.org/2000/svg">
    <g clip-path="url(#clip0_852_27143)">
        <path
            d="M24.3717 42.3673L18.7793 50.0596C20.8139 51.2347 23.0987 51.9963 25.5359 52.2574H25.5468V42.7372H25.5359C25.1333 42.6393 24.7416 42.5088 24.3608 42.3564L24.3717 42.3673Z"
            fill="white" />
        <path
            d="M21.3252 40.1478C21.0532 39.8432 20.8138 39.5059 20.6071 39.1577L11.5439 42.0954C12.534 44.2823 13.9593 46.2407 15.711 47.8401L15.7328 47.8618L21.3252 40.1696V40.1478Z"
            fill="white" />
        <path
            d="M20.6071 30.7474C20.8247 30.4102 21.0641 30.0729 21.3252 29.7682L15.7328 22.0542L15.711 22.0868C13.9593 23.6862 12.534 25.6338 11.5439 27.8207L20.6071 30.7583V30.7474Z"
            fill="white" />
        <path
            d="M30.4866 27.5488L36.0899 19.8456H36.0681C34.0335 18.6814 31.7487 17.9198 29.3115 17.6587V27.1571C29.7141 27.2659 30.1058 27.3964 30.4866 27.5488Z"
            fill="white" />
        <path
            d="M33.5327 29.7681C33.8047 30.0836 34.0441 30.41 34.2617 30.7691L43.314 27.8314C42.3239 25.6228 40.8877 23.6752 39.1251 22.0649L33.5327 29.7681Z"
            fill="white" />
        <path
            d="M25.5469 27.1678V17.6477H25.5251C23.0989 17.9088 20.814 18.6813 18.7903 19.8455H18.7686L24.361 27.5486C24.7418 27.3963 25.1334 27.2658 25.536 27.1678H25.5469Z"
            fill="white" />
        <path
            d="M19.4431 35.589C19.4213 35.3823 19.4213 35.1756 19.4213 34.958C19.4213 34.7621 19.4213 34.5554 19.4431 34.3487L10.3908 31.4001C10.1514 32.5534 10.0317 33.7394 10.0317 34.958C10.0317 36.1765 10.1623 37.3734 10.4017 38.5266L19.4431 35.589Z"
            fill="white" />
        <path
            d="M54.488 6.86548H0.370117L0.5986 52.2466C0.370117 58.2851 3.36216 58.1328 4.95066 58.9379C5.74491 59.2317 27.4291 67.011 27.4291 67.011H27.4508C27.4508 67.011 49.1241 59.2317 49.9292 58.9379C51.5177 58.1437 54.5098 58.296 54.2813 52.2466L54.5098 6.86548H54.488ZM27.4291 57.8825C14.7646 57.8825 4.50458 47.6117 4.50458 34.9472C4.50458 22.2827 14.7646 12.0336 27.4291 12.0336C40.0936 12.0336 50.3535 22.2935 50.3535 34.958C50.3535 47.6225 40.0827 57.8934 27.4291 57.8934V57.8825Z"
            fill="white" />
        <path
            d="M30.4754 34.9579C30.4754 33.2933 29.1154 31.9224 27.4399 31.9224C25.7643 31.9224 24.4043 33.2824 24.4043 34.9579C24.4043 36.6335 25.7643 38.0044 27.4399 38.0044C29.1154 38.0044 30.4754 36.6444 30.4754 34.9579Z"
            fill="white" />
        <path
            d="M35.415 34.3487C35.4259 34.5554 35.4368 34.7621 35.4368 34.958C35.4368 35.1756 35.4368 35.3823 35.415 35.5781L44.4564 38.5158H44.4673C44.7067 37.3625 44.8264 36.1765 44.8264 34.958C44.8264 33.7394 44.6958 32.5534 44.4564 31.4001L35.415 34.3378V34.3487Z"
            fill="white" />
        <path
            d="M30.4866 42.3674C30.1058 42.5198 29.7141 42.6503 29.3115 42.7374V52.2575C31.7487 51.9855 34.0335 51.2239 36.0681 50.0597L30.4866 42.3674Z"
            fill="white" />
        <path
            d="M34.2509 39.1577C34.0333 39.5059 33.794 39.8432 33.522 40.1587L39.1035 47.8401C40.8661 46.2516 42.3023 44.2931 43.2924 42.0954L34.2401 39.1577H34.2509Z"
            fill="white" />
        <path
            d="M80.7743 27.5486C80.709 27.5486 80.6546 27.505 80.6437 27.4506L78.4894 21.4013C78.4677 21.3469 78.4133 21.3033 78.3589 21.3033H70.993C70.9277 21.3033 70.8733 21.336 70.8625 21.4013L68.6538 27.4506C68.632 27.505 68.5776 27.5486 68.5232 27.5486H65.64C65.64 27.5486 65.5529 27.5268 65.5203 27.4833C65.4985 27.4398 65.4877 27.3962 65.5094 27.3527L73.2779 6.9633C73.2996 6.9089 73.354 6.86538 73.4084 6.86538H76.2373C76.3025 6.86538 76.3569 6.9089 76.3678 6.9633L83.7881 27.3527C83.7881 27.3527 83.7881 27.4506 83.7663 27.4833C83.7446 27.5268 83.6902 27.5486 83.6466 27.5486H80.7852H80.7743ZM74.7684 11.1086C74.7031 11.1086 74.6596 11.1413 74.6379 11.2066L71.9396 18.5507C71.9396 18.5507 71.9396 18.6486 71.9614 18.6812C71.9831 18.7247 72.0375 18.7465 72.081 18.7465H77.3579C77.3579 18.7465 77.445 18.7247 77.4776 18.6812C77.4994 18.6486 77.5102 18.5942 77.4994 18.5507L74.9208 11.2066C74.899 11.1522 74.8446 11.1086 74.7902 11.1086H74.7684ZM74.7684 5.79912C73.1799 5.79912 71.8852 4.4935 71.8852 2.88324C71.8852 1.27298 73.1799 0 74.7684 0C76.3569 0 77.6843 1.29474 77.6843 2.88324C77.6843 4.47174 76.4005 5.79912 74.7684 5.79912ZM74.8011 1.55586C74.0612 1.55586 73.4737 2.14339 73.4737 2.88324C73.4737 3.62309 74.0612 4.21062 74.8011 4.21062C75.5083 4.21062 76.0958 3.60133 76.0958 2.88324C76.0958 2.16515 75.4974 1.55586 74.8011 1.55586Z"
            fill="white" />
        <path
            d="M94.8425 27.5485C94.7664 27.5485 94.7011 27.4832 94.7011 27.4071V19.6713C94.7011 18.3113 94.7011 17.9087 94.5596 17.4626C94.1571 16.157 92.8623 15.6891 91.7852 15.6891C90.7733 15.6891 89.9573 16.0155 89.2937 16.6901C88.3253 17.6584 88.3253 18.6268 88.3253 19.6495V27.4179C88.3253 27.4941 88.26 27.5594 88.1839 27.5594H85.8773C85.8011 27.5594 85.7358 27.4941 85.7358 27.4179V13.8178C85.7358 13.7416 85.8011 13.6763 85.8773 13.6763H88.1839C88.26 13.6763 88.3253 13.7416 88.3253 13.8178V14.8949C88.3253 14.9602 88.358 15.0146 88.4232 15.0255C88.4341 15.0255 88.4559 15.0255 88.4668 15.0255C88.5103 15.0255 88.5538 15.0037 88.5756 14.971C89.8812 13.4043 91.6982 13.2302 92.4271 13.2302C94.1136 13.2302 96.344 14.0789 97.0403 16.4508C97.2797 17.2776 97.2797 18.1263 97.2797 19.2905V27.4071C97.2797 27.4832 97.2144 27.5485 97.1382 27.5485H94.8534H94.8425Z"
            fill="white" />
        <path
            d="M107.083 34.1637C105.429 34.1637 103.884 33.7285 102.84 32.9778C101.099 31.7266 100.827 29.8226 100.707 29.0066V28.9522C100.707 28.9522 100.707 28.8651 100.729 28.8325C100.761 28.7998 100.794 28.7781 100.838 28.7781H103.438C103.438 28.7781 103.514 28.789 103.536 28.8216C103.558 28.8542 103.579 28.8869 103.579 28.9304C103.579 29.5179 103.699 30.3448 104.352 31.0194C104.983 31.6613 105.951 31.9877 107.213 31.9877C108.737 31.9877 109.574 31.4764 109.999 31.052C110.782 30.2143 110.793 29.3003 110.826 27.0916V26.9937V26.2321C110.826 26.1777 110.793 26.1233 110.739 26.1016C110.717 26.1016 110.706 26.1016 110.684 26.1016C110.641 26.1016 110.608 26.1233 110.575 26.1451C109.498 27.331 108.084 27.9621 106.495 27.9621C103.286 27.9621 100.054 25.7099 100.054 20.6832C100.054 18.1917 100.805 16.1789 102.219 14.8732C103.34 13.8396 104.907 13.2412 106.517 13.2412C108.029 13.2412 109.4 13.8287 110.575 15.0038C110.608 15.0364 110.641 15.0473 110.673 15.0473C110.695 15.0473 110.706 15.0473 110.728 15.0364C110.782 15.0147 110.815 14.9603 110.815 14.9059V13.8287C110.815 13.7526 110.88 13.6873 110.956 13.6873H113.35C113.426 13.6873 113.491 13.7526 113.491 13.8287V26.8196C113.491 28.332 113.491 30.0511 112.632 31.4872C111.652 33.2063 109.618 34.1855 107.05 34.1855L107.083 34.1637ZM106.745 15.5913C104.308 15.624 102.731 17.5824 102.731 20.5853C102.731 21.1293 102.731 22.794 103.656 24.0561C104.624 25.3399 105.951 25.6119 106.887 25.6119C108.301 25.6119 109.346 25.0679 110.086 23.9473C110.651 23.0986 110.956 21.8583 110.956 20.3895C110.956 15.9395 107.736 15.5913 106.745 15.5913Z"
            fill="white" />
        <path
            d="M123.055 27.9511C118.855 27.9511 116.244 25.0896 116.244 20.4764C116.244 15.4933 119.736 13.2302 122.968 13.2302C125.361 13.2302 128.234 14.525 129.082 18.1589C129.343 19.334 129.343 20.3894 129.343 20.966C129.343 21.0422 129.278 21.1075 129.202 21.1075H119.149C119.149 21.1075 119.072 21.1183 119.051 21.151C119.029 21.1836 119.007 21.2163 119.007 21.2598C119.04 22.6524 119.529 23.9472 120.345 24.785C121.085 25.5466 122.065 25.9274 123.25 25.9274C125.677 25.9274 126.46 24.0125 126.721 22.8592C126.732 22.7939 126.797 22.7504 126.863 22.7504C126.863 22.7504 126.874 22.7504 126.884 22.7504L129.224 23.0659C129.224 23.0659 129.3 23.0985 129.332 23.1312C129.354 23.1638 129.365 23.2182 129.343 23.2508V23.2835C128.016 27.1351 125.187 27.9402 123.055 27.9402V27.9511ZM122.794 15.2757C120.846 15.2757 119.432 16.7119 119.105 19.0076C119.105 19.0511 119.105 19.0946 119.138 19.1164C119.17 19.149 119.203 19.1708 119.247 19.1708H126.384C126.384 19.1708 126.46 19.149 126.493 19.1273C126.525 19.0946 126.536 19.062 126.525 19.0185C126.166 15.4607 123.359 15.2757 122.794 15.2757Z"
            fill="white" />
        <path
            d="M86.3993 56.2614C84.1906 56.2614 82.3845 55.478 81.1768 53.9983C80.1323 52.7253 79.5557 50.9519 79.5557 49.0152C79.5557 45.5662 81.3727 41.5405 86.4863 41.5405C88.3795 41.5405 89.9897 42.1607 91.1648 43.3466C92.4922 44.6849 93.2103 46.6542 93.1885 48.9064C93.1559 53.3129 90.4358 56.2723 86.3993 56.2723V56.2614ZM86.5407 43.673C84.974 43.673 82.3519 44.3694 82.3519 49.0478C82.3519 53.7263 85.1589 54.1289 86.3666 54.1289C88.151 54.1289 90.2835 53.2258 90.3814 48.8955C90.4141 48.0251 90.3161 47.3941 90.24 47.0241C89.6742 44.1082 87.6831 43.673 86.5407 43.673Z"
            fill="white" />
        <path
            d="M95.952 55.8588C95.8758 55.8588 95.8105 55.7936 95.8105 55.7174V42.1172C95.8105 42.041 95.8758 41.9758 95.952 41.9758H98.2042C98.2803 41.9758 98.3456 42.041 98.3456 42.1172V43.1943C98.3456 43.2487 98.3783 43.3031 98.4327 43.3249C98.4544 43.3249 98.4653 43.3249 98.4871 43.3249C98.5197 43.3249 98.5632 43.314 98.585 43.2814C99.7492 42.0954 100.957 41.5297 102.262 41.5297C104.243 41.5297 105.178 42.6177 105.896 43.7928C105.918 43.8254 105.962 43.858 106.005 43.858C106.005 43.858 106.016 43.858 106.027 43.858C106.06 43.858 106.103 43.8472 106.125 43.8145C107.3 42.6503 108.595 41.5188 110.499 41.5188C112.174 41.5188 113.763 42.5307 114.361 43.9777C114.72 44.8481 114.753 45.7947 114.753 47.1547V55.6739C114.753 55.75 114.688 55.8153 114.611 55.8153H112.359C112.283 55.8153 112.218 55.75 112.218 55.6739V47.6987C112.218 46.4693 112.218 46.0123 112.109 45.5662C111.706 44.13 110.423 43.9777 109.879 43.9777C108.976 43.9777 107.975 44.4129 107.322 45.0875C106.615 45.8273 106.549 46.4149 106.549 48.0469V55.6739C106.549 55.75 106.484 55.8153 106.408 55.8153H104.156C104.079 55.8153 104.014 55.75 104.014 55.6739V46.9262C104.014 46.4258 104.014 45.5009 103.525 44.8481C103.372 44.6414 102.796 43.9777 101.653 43.9777C100.815 43.9777 99.9015 44.3368 99.2052 44.9569C98.3565 45.7185 98.3565 46.4366 98.3565 47.6226V55.7065C98.3565 55.7827 98.2912 55.848 98.2151 55.848H95.9629L95.952 55.8588Z"
            fill="white" />
        <path
            d="M118.224 55.8588C118.148 55.8588 118.083 55.7936 118.083 55.7174V42.1172C118.083 42.041 118.148 41.9758 118.224 41.9758H120.476C120.552 41.9758 120.618 42.041 120.618 42.1172V43.1943C120.618 43.2487 120.65 43.3031 120.705 43.3249C120.726 43.3249 120.737 43.3249 120.759 43.3249C120.792 43.3249 120.835 43.314 120.857 43.2814C122.021 42.0954 123.229 41.5297 124.534 41.5297C126.515 41.5297 127.45 42.6177 128.168 43.7928C128.19 43.8254 128.234 43.858 128.277 43.858C128.277 43.858 128.288 43.858 128.299 43.858C128.332 43.858 128.375 43.8472 128.397 43.8145C129.572 42.6503 130.867 41.5188 132.771 41.5188C134.446 41.5188 136.035 42.5307 136.633 43.9777C136.992 44.8481 137.025 45.7947 137.025 47.1547V55.6739C137.025 55.75 136.96 55.8153 136.883 55.8153H134.631C134.555 55.8153 134.49 55.75 134.49 55.6739V47.6987C134.49 46.4693 134.49 46.0123 134.381 45.5662C133.978 44.13 132.695 43.9777 132.151 43.9777C131.248 43.9777 130.247 44.4129 129.594 45.0875C128.887 45.8273 128.821 46.4149 128.821 48.0469V55.6739C128.821 55.75 128.756 55.8153 128.68 55.8153H126.428C126.351 55.8153 126.286 55.75 126.286 55.6739V46.9262C126.286 46.4258 126.286 45.5009 125.797 44.8481C125.644 44.6414 125.068 43.9777 123.925 43.9777C123.087 43.9777 122.173 44.3368 121.477 44.9569C120.628 45.7185 120.628 46.4366 120.628 47.6226V55.7065C120.628 55.7827 120.563 55.848 120.487 55.848H118.235L118.224 55.8588Z"
            fill="white" />
        <path
            d="M144.902 56.2069C143.052 56.2069 142.019 55.4236 141.475 54.7708C140.463 53.6066 140.463 52.3554 140.463 50.0923V42.128C140.463 42.0519 140.528 41.9866 140.604 41.9866H142.889C142.965 41.9866 143.031 42.0519 143.031 42.128V49.8964C143.031 51.3 143.031 51.4197 143.085 51.7461C143.205 52.66 143.749 53.7589 145.653 53.7589C146.871 53.7589 147.981 53.2911 148.601 52.5186C149.406 51.572 149.406 50.5819 149.406 48.939V42.128C149.406 42.0519 149.472 41.9866 149.548 41.9866H151.833C151.909 41.9866 151.974 42.0519 151.974 42.128V55.7282C151.974 55.8044 151.909 55.8696 151.833 55.8696H149.548C149.472 55.8696 149.406 55.8044 149.406 55.7282V54.4444C149.406 54.39 149.374 54.3355 149.319 54.3138C149.298 54.3138 149.287 54.3138 149.265 54.3138C149.221 54.3138 149.189 54.3247 149.156 54.3573C148.003 55.5976 146.567 56.2287 144.902 56.2287V56.2069Z"
            fill="white" />
        <path
            d="M164.628 55.8587C164.552 55.8587 164.486 55.7934 164.486 55.7173V47.9815C164.486 46.6215 164.486 46.208 164.345 45.7728C163.942 44.4672 162.647 43.9993 161.57 43.9993C160.559 43.9993 159.742 44.3257 159.079 45.0003C158.11 45.9686 158.11 46.937 158.11 47.9597V55.7281C158.11 55.8043 158.045 55.8696 157.969 55.8696H155.662C155.586 55.8696 155.521 55.8043 155.521 55.7281V42.128C155.521 42.0518 155.586 41.9865 155.662 41.9865H157.969C158.045 41.9865 158.11 42.0518 158.11 42.128V43.1942C158.11 43.2595 158.143 43.3139 158.208 43.3248C158.219 43.3248 158.241 43.3248 158.252 43.3248C158.295 43.3248 158.339 43.303 158.361 43.2704C159.666 41.7036 161.483 41.5295 162.201 41.5295C163.888 41.5295 166.118 42.3782 166.815 44.7501C167.054 45.577 167.054 46.4256 167.054 47.5898V55.7064C167.054 55.7825 166.989 55.8478 166.913 55.8478H164.628V55.8587Z"
            fill="white" />
        <path
            d="M78.9356 55.5976L72.4075 46.8173C72.364 46.7629 72.3749 46.6868 72.4184 46.6324L76.9881 42.0844C76.9881 42.0844 77.0425 41.9865 77.0207 41.9321C76.9989 41.8777 76.9445 41.8451 76.8901 41.8451H74.0069C74.0069 41.8451 73.9307 41.856 73.8981 41.8886L68.3057 47.5136C68.3057 47.5136 68.2404 47.5572 68.2078 47.5572C68.186 47.5572 68.1751 47.5572 68.1534 47.5572C68.099 47.5354 68.0663 47.481 68.0663 47.4266V35.1429C68.0663 35.0667 68.001 35.0015 67.9249 35.0015H65.6727C65.5965 35.0015 65.5312 35.0667 65.5312 35.1429V55.6629C65.5312 55.739 65.5965 55.8043 65.6727 55.8043H67.9249C68.001 55.8043 68.0663 55.739 68.0663 55.6629V51.0497C68.0663 51.0497 68.0772 50.9735 68.1098 50.9518L70.4708 48.6017C70.4708 48.6017 70.5361 48.5581 70.5688 48.5581C70.5688 48.5581 70.5688 48.5581 70.5796 48.5581C70.6232 48.5581 70.6558 48.5799 70.6884 48.6125L76.0197 55.7826C76.0197 55.7826 76.0959 55.8478 76.1394 55.8478H78.8377C78.8377 55.8478 78.9465 55.8152 78.9682 55.7717C78.99 55.7282 78.99 55.6629 78.9574 55.6194L78.9356 55.5976Z"
            fill="white" />
    </g>
    <defs>
        <clipPath id="clip0_852_27143">
            <rect width="166.684" height="67" fill="white" transform="translate(0.370117)" />
        </clipPath>
    </defs>
</svg>