<svg viewBox="0 0 194 67" fill="none" xmlns="http://www.w3.org/2000/svg">
    <g clip-path="url(#clip0_852_23604)">
        <path
            d="M39.9958 2.14269H41.002V0.174561H39.7904V1.04696H38.7842V0.174561H37.3262V1.04696H36.2721V0.174561H35.0605V2.14269H39.9958Z"
            fill="#FFE000" stroke="black" stroke-width="0.5" />
        <path d="M38.3803 3.72705H37.7231V5.59049H38.3803V3.72705Z" fill="#FFE000" stroke="black"
            stroke-width="0.5" />
        <path d="M37.7297 3.72685H38.3868V5.59029H39.9954V2.14258H36.1211V5.59029H37.7297V3.72685Z"
            fill="#FFE000" stroke="black" stroke-width="0.5" stroke-miterlimit="1" />
        <path d="M38.3799 5.59033H36.1143L38.0309 7.72596L39.9954 5.59033H38.3868H38.3799Z"
            fill="#FFE000" stroke="black" stroke-width="0.5" stroke-miterlimit="1" />
        <path d="M36.1146 5.59039V3.83862H31.4326V5.59039H36.1146Z" fill="#FFE000" stroke="black"
            stroke-width="0.5" />
        <path
            d="M32.4385 2.14269V0.174561H31.2269V1.04696H30.2207V0.174561H28.7628V1.04696H27.7086V0.174561H26.5039V2.14269H32.4454H32.4385Z"
            fill="#FFE000" stroke="black" stroke-width="0.5" />
        <path d="M38.0309 9.63837V7.72607H29.4678V9.63837H38.0309Z" fill="#FFE000" stroke="black"
            stroke-width="0.5" />
        <path d="M38.0309 7.72596L36.1143 5.59033H31.4323L29.4678 7.72596H38.0309Z" fill="#FFE000"
            stroke="black" stroke-width="0.5" stroke-miterlimit="1" />
        <path d="M27.5513 5.59029H29.1598V3.72685H29.817V5.59029H31.4255V2.14258H27.5513V5.59029Z"
            fill="#FFE000" stroke="black" stroke-width="0.5" />
        <path d="M29.1667 5.59033H27.5581L29.4679 7.72596L31.4324 5.59033H29.1667Z" fill="#FFE000"
            stroke="black" stroke-width="0.5" />
        <path d="M27.5516 5.59039V3.83862H22.8696V5.59039H27.5516Z" fill="#FFE000" stroke="black"
            stroke-width="0.5" />
        <path d="M29.167 3.72705V5.59049H29.8241V3.72705H29.167Z" fill="#FFE000" stroke="black"
            stroke-width="0.5" />
        <path
            d="M22.6707 0.174561V1.04696H21.6645V0.174561H20.2065V1.04696H19.1524V0.174561H17.9956V2.14269H23.8891V0.174561H22.6844H22.6707Z"
            fill="#FFE000" stroke="black" stroke-width="0.5" />
        <path
            d="M22.8694 5.59029V2.14258H18.9883V5.59029H20.5969V3.72685H21.254V5.59029H22.8625H22.8694Z"
            fill="#FFE000" stroke="black" stroke-width="0.5" />
        <path
            d="M29.468 9.63825V7.72596H20.9049L22.8694 5.59033H18.9883L20.9049 7.72596V9.63825H29.468Z"
            fill="#FFE000" />
        <path
            d="M20.9049 7.72596H29.468V9.63825H20.9049V7.72596ZM20.9049 7.72596L22.8694 5.59033H18.9883L20.9049 7.72596Z"
            stroke="black" stroke-width="0.5" />
        <path d="M29.4679 7.72596L27.5581 5.59033H22.8761L20.9116 7.72596H29.4747H29.4679Z"
            fill="#FFE000" stroke="black" stroke-width="0.5" />
        <path d="M18.995 5.59039V3.83862H14.2583V5.59039H18.995Z" fill="#FFE000" stroke="black"
            stroke-width="0.5" />
        <path d="M20.6035 5.59049H21.2606V3.72705H20.6035V5.59049Z" fill="#FFE000" stroke="black"
            stroke-width="0.5" />
        <path
            d="M14.1078 0.174561V1.04696H13.1016V0.174561H11.6436V1.04696H10.5895V0.174561H9.37793V2.14269H15.3194V0.174561H14.1078Z"
            fill="#FFE000" stroke="black" stroke-width="0.5" />
        <path d="M12.6978 5.59033H10.4321L12.3419 7.72596L14.2585 5.59033H12.6978Z" fill="#FFE000"
            stroke="black" stroke-width="0.5" />
        <path d="M12.0474 5.59049H12.7045V3.72705H12.0474V5.59049Z" fill="#FFE000" stroke="black"
            stroke-width="0.5" />
        <path d="M12.6978 3.72685V5.59029H14.2585V2.14258H10.4321V5.59029H12.0407V3.72685H12.6978Z"
            fill="#FFE000" stroke="black" stroke-width="0.5" />
        <path d="M12.3486 7.72596H20.9117L18.9951 5.59033H14.2584L12.3418 7.72596H12.3486Z"
            fill="#FFE000" stroke="black" stroke-width="0.5" />
        <path d="M12.3486 7.72607V9.63837H20.9117V7.72607H12.3486Z" fill="#FFE000" stroke="black"
            stroke-width="0.5" />
        <path d="M10.432 5.59039V3.83862H5.70215V5.59039H10.432Z" fill="#FFE000" stroke="black"
            stroke-width="0.5" />
        <path
            d="M6.75633 2.14269V0.174561H5.54476V1.04696H4.53855V0.174561H3.08057V1.04696H2.02644V0.174561H0.862793V2.14269H6.75633Z"
            fill="#FFE000" stroke="black" stroke-width="0.5" />
        <path d="M3.48455 5.59033H1.87598L3.79257 7.72596L5.70917 5.59033H3.49139H3.48455Z"
            fill="#FFE000" stroke="black" stroke-width="0.5" stroke-miterlimit="1" />
        <path d="M1.87598 5.59029H3.48455V3.72685H4.14167V5.59029H5.70232V2.14258H1.87598V5.59029Z"
            fill="#FFE000" stroke="black" stroke-width="0.5" stroke-miterlimit="1" />
        <path d="M3.48438 3.72705V5.59049H4.14149V3.72705H3.48438Z" fill="#FFE000" stroke="black"
            stroke-width="0.5" />
        <path d="M3.78564 7.72596H12.3487L10.439 5.59033H5.70909L3.79249 7.72596H3.78564Z"
            fill="#FFE000" stroke="black" stroke-width="0.5" stroke-miterlimit="1" />
        <path d="M20.9048 7.72607V9.63837" stroke="black" stroke-width="0.5" stroke-linecap="round"
            stroke-linejoin="round" />
        <path d="M37.7231 5.59049V3.72705H38.3803V5.59049" fill="#FFE000" />
        <path d="M37.7231 5.59049V3.72705H38.3803V5.59049" stroke="black" stroke-width="0.5" />
        <path d="M38.3804 5.59033H39.9958" stroke="black" stroke-width="0.5" stroke-linecap="round"
            stroke-linejoin="round" />
        <path d="M39.9956 2.14258V5.59029" stroke="black" stroke-width="0.5" stroke-linecap="round"
            stroke-linejoin="round" />
        <path d="M36.1143 5.59039V3.83862" stroke="black" stroke-width="0.5" stroke-linecap="round"
            stroke-linejoin="round" />
        <path d="M36.1143 3.83852V2.14258" stroke="black" stroke-width="0.5" stroke-linecap="round"
            stroke-linejoin="round" />
        <path
            d="M27.5512 2.14269H26.4971V0.174561H27.7018V1.04696H28.7628V0.174561H30.2207V1.04696H31.227V0.174561H32.4385V2.14269H31.4323"
            fill="#FFE000" />
        <path
            d="M27.5512 2.14269H26.4971V0.174561H27.7018V1.04696H28.7628V0.174561H30.2207V1.04696H31.227V0.174561H32.4385V2.14269H31.4323"
            stroke="black" stroke-width="0.5" stroke-linecap="round" stroke-linejoin="round" />
        <path d="M38.0312 7.72607V9.63837" stroke="black" stroke-width="0.5" stroke-linecap="round"
            stroke-linejoin="round" />
        <path d="M39.9958 5.59033L38.0312 7.72596" stroke="black" stroke-width="0.5"
            stroke-linecap="round" stroke-linejoin="round" />
        <path d="M36.1143 5.59033L38.0309 7.72596" stroke="black" stroke-width="0.5"
            stroke-linecap="round" stroke-linejoin="round" />
        <path d="M37.7228 5.59033H36.1143" stroke="black" stroke-width="0.5" stroke-linecap="round"
            stroke-linejoin="round" />
        <path d="M39.9954 2.14258H36.1143" stroke="black" stroke-width="0.5" stroke-linecap="round"
            stroke-linejoin="round" />
        <path d="M29.1667 5.59033H27.5513" stroke="black" stroke-width="0.5" stroke-linecap="round"
            stroke-linejoin="round" />
        <path d="M27.5513 5.59039V3.83862" stroke="black" stroke-width="0.5" stroke-linecap="round"
            stroke-linejoin="round" />
        <path d="M29.8173 5.59049V3.72705H29.167V5.59049" fill="#FFE000" />
        <path d="M29.8173 5.59049V3.72705H29.167V5.59049" stroke="black" stroke-width="0.5" />
        <path d="M31.4326 3.83862V5.59039" stroke="black" stroke-width="0.5" stroke-linecap="round"
            stroke-linejoin="round" />
        <path d="M31.4323 5.59033H29.8169" stroke="black" stroke-width="0.5" stroke-linecap="round"
            stroke-linejoin="round" />
        <path d="M27.5513 3.83852V2.14258" stroke="black" stroke-width="0.5" stroke-linecap="round"
            stroke-linejoin="round" />
        <path d="M31.4326 2.14258V3.83852" stroke="black" stroke-width="0.5" stroke-linecap="round"
            stroke-linejoin="round" />
        <path d="M31.4324 2.14258H27.5513" stroke="black" stroke-width="0.5" stroke-linecap="round"
            stroke-linejoin="round" />
        <path
            d="M18.995 2.14269H17.9888V0.174561H19.1456V1.04696H20.1997V0.174561H21.6645V1.04696H22.6707V0.174561H23.8755V2.14269H22.8692"
            fill="#FFE000" />
        <path
            d="M18.995 2.14269H17.9888V0.174561H19.1456V1.04696H20.1997V0.174561H21.6645V1.04696H22.6707V0.174561H23.8755V2.14269H22.8692"
            stroke="black" stroke-width="0.5" stroke-linecap="round" stroke-linejoin="round" />
        <path d="M22.8696 3.83862V5.59039" stroke="black" stroke-width="0.5" stroke-linecap="round"
            stroke-linejoin="round" />
        <path d="M22.8696 2.14258V3.83852" stroke="black" stroke-width="0.5" stroke-linecap="round"
            stroke-linejoin="round" />
        <path d="M29.4678 9.63837V7.72607" stroke="black" stroke-width="0.5" stroke-linecap="round"
            stroke-linejoin="round" />
        <path d="M22.8696 3.83862H27.5516" stroke="black" stroke-width="0.5" stroke-linecap="round"
            stroke-linejoin="round" />
        <path d="M22.7529 5.59033H27.5513" stroke="black" stroke-width="0.5" stroke-linecap="round"
            stroke-linejoin="round" />
        <path d="M27.5513 5.59033L29.4679 7.72596" stroke="black" stroke-width="0.5"
            stroke-linecap="round" stroke-linejoin="round" />
        <path d="M29.4678 7.72596L31.4323 5.59033" stroke="black" stroke-width="0.5"
            stroke-linecap="round" stroke-linejoin="round" />
        <path d="M18.9951 5.59039V3.83862" stroke="black" stroke-width="0.5" stroke-linecap="round"
            stroke-linejoin="round" />
        <path d="M21.2606 5.59033H20.6035" stroke="black" stroke-width="0.5" stroke-linecap="round"
            stroke-linejoin="round" />
        <path d="M21.2606 5.59049V3.72705H20.6035V5.59049" fill="#FFE000" />
        <path d="M21.2606 5.59049V3.72705H20.6035V5.59049" stroke="black" stroke-width="0.5" />
        <path d="M20.6037 5.59033H18.9951" stroke="black" stroke-width="0.5" stroke-linecap="round"
            stroke-linejoin="round" />
        <path d="M18.9951 3.83852V2.14258" stroke="black" stroke-width="0.5" stroke-linecap="round"
            stroke-linejoin="round" />
        <path
            d="M14.2584 2.14269H15.3194V0.174561H14.1078V1.04696H13.1016V0.174561H11.6436V1.04696H10.5826V0.174561H9.37793V2.14269H10.4321"
            fill="#FFE000" />
        <path
            d="M14.2584 2.14269H15.3194V0.174561H14.1078V1.04696H13.1016V0.174561H11.6436V1.04696H10.5826V0.174561H9.37793V2.14269H10.4321"
            stroke="black" stroke-width="0.5" stroke-linecap="round" stroke-linejoin="round" />
        <path d="M12.0474 5.59033H12.6976" stroke="black" stroke-width="0.5" stroke-linecap="round"
            stroke-linejoin="round" />
        <path d="M12.6976 5.59049V3.72705H12.0474V5.59049" fill="#FFE000" />
        <path d="M12.6976 5.59049V3.72705H12.0474V5.59049" stroke="black" stroke-width="0.5" />
        <path d="M14.2583 3.83862V5.59039" stroke="black" stroke-width="0.5" stroke-linecap="round"
            stroke-linejoin="round" />
        <path d="M14.2584 5.59033H12.6978" stroke="black" stroke-width="0.5" stroke-linecap="round"
            stroke-linejoin="round" />
        <path d="M14.2583 3.83852V2.14258" stroke="black" stroke-width="0.5" stroke-linecap="round"
            stroke-linejoin="round" />
        <ellipse cx="12.3489" cy="7.72599" rx="0.171125" ry="0.174479" fill="black" />
        <path d="M12.3486 9.63837V7.72607" stroke="black" stroke-width="0.5" stroke-linecap="round"
            stroke-linejoin="round" />
        <path
            d="M36.1147 2.14269H35.0605V0.174561H36.2653V1.04696H37.3262V0.174561H38.7842V1.04696H39.7904V0.174561H41.002V2.14269H39.9958"
            fill="#FFE000" />
        <path
            d="M36.1147 2.14269H35.0605V0.174561H36.2653V1.04696H37.3262V0.174561H38.7842V1.04696H39.7904V0.174561H41.002V2.14269H39.9958"
            stroke="black" stroke-width="0.5" stroke-linecap="round" stroke-linejoin="round" />
        <path d="M14.2583 5.59033H18.995" stroke="black" stroke-width="0.5" stroke-linecap="round"
            stroke-linejoin="round" />
        <path d="M18.9951 5.59033L20.9049 7.72596" stroke="black" stroke-width="0.5"
            stroke-linecap="round" stroke-linejoin="round" />
        <path d="M12.3486 7.72607H20.9049" stroke="black" stroke-width="0.5" stroke-linecap="round"
            stroke-linejoin="round" />
        <path d="M14.2584 5.59033L12.3486 7.72596" stroke="black" stroke-width="0.5"
            stroke-linecap="round" stroke-linejoin="round" />
        <path d="M18.995 3.83862H14.2583" stroke="black" stroke-width="0.5" stroke-linecap="round"
            stroke-linejoin="round" />
        <path d="M29.4679 7.72596H20.9048L22.8693 5.59033" fill="#FFE000" />
        <path d="M29.4679 7.72596H20.9048L22.8693 5.59033" stroke="black" stroke-width="0.5"
            stroke-linecap="round" stroke-linejoin="round" />
        <path d="M23.2047 5.59033H21.2607" stroke="black" stroke-width="0.5" stroke-linecap="round"
            stroke-linejoin="round" />
        <path d="M18.9951 2.14258H22.8694" stroke="black" stroke-width="0.5" stroke-linecap="round"
            stroke-linejoin="round" />
        <path d="M10.4321 3.83862V5.59039" stroke="black" stroke-width="0.5" stroke-linecap="round"
            stroke-linejoin="round" />
        <path d="M10.4321 2.14258V3.83852" stroke="black" stroke-width="0.5" stroke-linecap="round"
            stroke-linejoin="round" />
        <path
            d="M5.7022 2.14269H6.75633V0.174561H5.55161V1.04696H4.53855V0.174561H3.08057V1.04696H2.02644V0.174561H0.862793V2.14269H1.87585"
            fill="#FFE000" />
        <path
            d="M5.7022 2.14269H6.75633V0.174561H5.55161V1.04696H4.53855V0.174561H3.08057V1.04696H2.02644V0.174561H0.862793V2.14269H1.87585"
            stroke="black" stroke-width="0.5" stroke-linecap="round" stroke-linejoin="round" />
        <path d="M1.87598 5.59033H3.48455" stroke="black" stroke-width="0.5" stroke-linecap="round"
            stroke-linejoin="round" />
        <path d="M4.14149 5.59049V3.72705H3.48438V5.59049" fill="#FFE000" />
        <path d="M4.14149 5.59049V3.72705H3.48438V5.59049" stroke="black" stroke-width="0.5" />
        <path d="M5.70226 5.59033H4.1416" stroke="black" stroke-width="0.5" stroke-linecap="round"
            stroke-linejoin="round" />
        <path d="M5.70215 5.59039V3.83862" stroke="black" stroke-width="0.5" stroke-linecap="round"
            stroke-linejoin="round" />
        <path d="M1.87598 2.14258H5.70232" stroke="black" stroke-width="0.5" stroke-linecap="round"
            stroke-linejoin="round" />
        <path d="M1.87598 2.14258V5.59029" stroke="black" stroke-width="0.5" stroke-linecap="round"
            stroke-linejoin="round" />
        <path d="M5.70215 3.83852V2.14258" stroke="black" stroke-width="0.5" stroke-linecap="round"
            stroke-linejoin="round" />
        <ellipse cx="3.78538" cy="7.72599" rx="0.171125" ry="0.174479" fill="black" />
        <path d="M39.6807 5.59033H2.00586" stroke="black" stroke-width="0.5" stroke-linecap="round"
            stroke-linejoin="round" />
        <path d="M10.432 3.83862H5.70215" stroke="black" stroke-width="0.5" stroke-linecap="round"
            stroke-linejoin="round" />
        <path d="M1.87598 5.59033L3.78573 7.72596" stroke="black" stroke-width="0.5"
            stroke-linecap="round" stroke-linejoin="round" />
        <path d="M10.4321 2.14258H14.2585" stroke="black" stroke-width="0.5" stroke-linecap="round"
            stroke-linejoin="round" />
        <path d="M12.3487 7.72596L10.4321 5.59033" stroke="black" stroke-width="0.5"
            stroke-linecap="round" stroke-linejoin="round" />
        <path d="M10.4321 5.59033H12.0475" stroke="black" stroke-width="0.5" stroke-linecap="round"
            stroke-linejoin="round" />
        <path d="M31.4326 3.83862H36.1146" stroke="black" stroke-width="0.5" stroke-linecap="round"
            stroke-linejoin="round" />
        <path d="M38.0309 7.72607H29.4678" stroke="black" stroke-width="0.5" stroke-linecap="round"
            stroke-linejoin="round" />
        <path d="M31.4326 5.59033H36.1146" stroke="black" stroke-width="0.5" stroke-linecap="round"
            stroke-linejoin="round" />
        <path d="M40.0364 2.14966H36.1279" stroke="black" stroke-width="0.5" stroke-linecap="round"
            stroke-linejoin="round" />
        <path d="M12.3145 7.73291H3.79248V9.65218H12.3145V7.73291Z" fill="#FFE000" stroke="black"
            stroke-width="0.5" />
        <path d="M38.0312 9.68018H34.0405V11.5994H38.0312V9.68018Z" fill="#FFE000" stroke="black"
            stroke-width="0.5" />
        <path d="M34.1089 9.68018H25.2036V11.5994H34.1089V9.68018Z" fill="#FFE000" stroke="black"
            stroke-width="0.5" />
        <path d="M25.3609 9.68018H16.4556V11.5994H25.3609V9.68018Z" fill="#FFE000" stroke="black"
            stroke-width="0.5" />
        <path d="M16.5308 9.68018H7.62549V11.5994H16.5308V9.68018Z" fill="#FFE000" stroke="black"
            stroke-width="0.5" />
        <path d="M7.78994 9.68018H3.79932V11.5994H7.78994V9.68018Z" fill="#FFE000" stroke="black"
            stroke-width="0.5" />
        <path d="M39.9064 13.449H2.14941V15.4939H39.9064V13.449Z" fill="#FFE000" stroke="black"
            stroke-width="0.5" />
        <path
            d="M41.337 15.4589H41.3164L2.34792 15.4519H0.670898L0.698278 48.5541V55.8543C0.800953 57.7875 1.42385 59.8673 3.26515 60.7118C5.87993 62.0448 8.91911 62.4008 11.7803 63.0568C13.6969 63.3988 15.723 63.8315 17.6807 64.2223C19.1866 64.4108 20.3297 65.6182 21.1785 66.7069C21.5413 66.1835 21.9451 65.6461 22.4174 65.2203C23.4989 64.1386 25.0322 64.1595 26.3944 63.7687C30.5561 62.7776 34.8137 62.2961 38.6537 60.5094C40.5293 59.7487 41.2617 57.7666 41.3301 55.8543V55.6031C41.3301 55.5682 41.3301 55.5263 41.3301 55.4914V52.4624V15.4589H41.337Z"
            fill="#CBCBCB" stroke="#1D1D1B" stroke-width="0.5" />
        <path
            d="M33.9172 52.8183C33.9309 52.916 33.7803 52.937 33.7256 52.9579C33.5818 52.9998 33.4449 52.9509 33.3012 52.93C33.1711 52.9091 33.0274 52.8253 32.9452 52.7136C32.9179 52.6718 32.8699 52.6299 32.8494 52.595C32.8083 52.5112 32.9247 52.5043 32.9863 52.5043C33.1095 52.5043 33.2327 52.5392 33.3422 52.5392C33.3833 52.5392 33.3902 52.5392 33.4038 52.5043C33.4381 52.4484 33.4586 52.3507 33.4791 52.2809C33.4928 52.2321 33.486 52.1623 33.5065 52.1204C33.5271 52.0855 33.5613 52.0436 33.5887 52.0227C33.6503 52.1414 33.794 52.1553 33.8214 52.3019C33.8488 52.4275 33.9172 52.5461 33.9241 52.6718C33.9241 52.6997 33.9241 52.7416 33.9241 52.7695C33.9241 52.7974 33.9035 52.8183 33.9035 52.8532"
            fill="white" />
        <path
            d="M9.15194 18.104C9.05611 18.4739 9.09033 18.9345 9.1314 19.3253C9.17932 19.3393 9.22723 19.43 9.2683 19.3463C9.43258 18.9764 9.31622 18.5158 9.2683 18.1249C9.41889 18.0551 9.57633 18.1598 9.68585 18.2645C9.87066 19.1788 10.1787 20.0512 10.5278 20.8956C10.6989 21.1888 10.4251 21.5028 10.5483 21.775H10.6031V22.7521C10.1034 22.8498 9.67216 23.122 9.24092 23.3802C9.02873 23.6524 9.04242 24.0223 9.00819 24.3783C9.14509 24.4969 8.98766 24.6784 9.04242 24.804C9.07664 25.3414 9.02873 25.9974 9.4052 26.4301L10.2677 27.3095C10.2334 28.0214 10.2334 28.7821 10.2677 29.3893C10.2334 29.6266 10.2471 29.9337 10.1582 30.1849C9.74061 31.504 9.5421 33.1929 10.5415 34.3026L10.5962 34.6516C10.3156 34.6027 10.0281 34.2817 9.69954 34.184C9.28199 34.0444 8.91921 34.2328 8.50166 34.184C8.30316 34.3375 8.00882 34.3375 7.85824 34.5678C7.85824 33.7234 8.60434 33.0813 8.63856 32.1879L8.53589 31.1062C8.21417 30.3594 7.93353 29.6056 7.9746 28.7193L7.87877 28.6006C7.57759 28.8379 7.52968 29.3404 7.09844 29.4591C6.83833 29.0822 6.8178 28.5797 6.93416 28.1121C7.19427 27.6166 7.62551 27.2816 7.99513 26.8279C7.84455 26.1161 8.19364 25.3623 7.913 24.7481C7.72818 24.7272 7.68027 24.9157 7.57759 25.0064C7.5639 25.1948 7.35855 25.2437 7.24219 25.3763C7.17374 25.1599 6.91363 25.1948 6.85887 24.9436C6.72197 24.1479 7.44069 23.6454 7.86508 23.0522C8.17995 22.2705 8.02936 21.2237 8.42637 20.442C8.77546 20.4629 8.91921 21.0073 9.04242 21.3423C9.10402 21.6703 9.32306 21.9984 9.62424 22.1728C9.85697 22.2705 10.1582 22.2496 10.3635 22.0891C10.4593 22.0053 10.5141 21.9076 10.5278 21.8029C10.3293 21.6703 10.1787 22.0053 9.94596 21.9704C9.24777 21.8588 9.35044 21.0073 9.01504 20.5397C8.87814 20.3722 8.796 20.121 8.59749 20.0302C8.78231 19.423 8.83022 18.767 8.87814 18.1179C8.94659 18.0551 9.09033 17.9784 9.15878 18.097L9.15194 18.104Z"
            fill="black" />
        <path
            d="M9.91168 20.9236C9.94591 21.0631 9.86377 21.1539 9.80901 21.2446C9.69265 21.1957 9.54206 21.2237 9.49414 21.0631L9.55574 20.8119C9.69264 20.7979 9.83639 20.7979 9.91853 20.9166L9.91168 20.9236Z"
            fill="white" />
        <path d="M5.00411 42.3914C4.94935 42.4332 4.90143 42.4681 4.85352 42.51V42.3914H5.00411Z"
            fill="black" />
        <path
            d="M6.44822 42.3914L5.6542 43.2847C5.7158 43.0963 5.68842 42.8729 5.57206 42.7124C5.39409 42.5658 5.16136 42.5938 4.99023 42.7124C5.15451 42.6286 5.31195 42.51 5.47623 42.3914H6.45506H6.44822Z"
            fill="black" />
        <path
            d="M14.4638 42.3915C14.0942 42.6776 13.6424 42.8521 13.2112 43.0196C13.2112 42.9149 13.3618 42.7684 13.1907 42.7125L12.5541 43.0475C12.6568 43.0266 12.6088 42.7614 12.6568 42.6218C12.4103 42.5032 12.2598 42.8242 12.0476 42.88L11.6506 43.0475C11.63 43.0126 11.8148 42.8312 11.63 42.7614C11.3631 42.8103 11.1646 42.9917 10.9318 43.0824C10.836 42.9778 11.1166 42.8312 10.9524 42.7125L10.3363 43.0196C10.2679 42.8661 10.5211 42.7335 10.3089 42.6148C10.0625 42.7335 9.84347 42.901 9.61074 43.0406C9.56283 42.9359 9.69288 42.8242 9.69288 42.7056C9.4054 42.6567 9.17951 42.9429 8.91256 43.0406C8.91256 42.887 9.21373 42.7405 8.9947 42.5869L8.13223 42.9568L8.2349 42.6776C7.78998 42.545 7.38612 42.6846 7.09179 42.9568C6.90697 43.1801 6.92751 43.5291 6.61264 43.6687C6.62633 43.4942 6.51681 43.2918 6.332 43.1801L5.98975 43.243C6.2567 42.9987 6.61264 42.7125 6.8043 42.3845H14.457L14.4638 42.3915Z"
            fill="black" />
        <path
            d="M30.6862 42.3914C30.6725 43.0474 30.6177 43.7174 30.5698 44.3665C30.3028 45.9926 30.2412 47.7095 29.7621 49.2449C29.7895 49.6636 29.6799 50.0894 29.9264 50.4453C30.6177 51.0385 31.6171 51.0734 32.3426 51.3596C32.7876 51.541 33.1914 51.8063 33.6227 52.0156C33.4926 52.225 33.6227 52.4623 33.6227 52.7066C33.3283 52.7554 33.123 52.3716 32.8629 52.5879C32.9929 52.9299 33.3762 52.8741 33.65 52.9578C33.7527 52.9439 33.8691 52.9369 33.9033 52.8182L33.7869 52.1901C34.0402 52.211 34.0813 52.574 34.3208 52.6786C34.9369 53.2719 35.464 53.7395 35.7994 54.4723C36.1621 55.1004 36.4086 55.7914 36.6139 56.5311C36.7508 57.1034 36.8124 57.8083 36.6755 58.3876C36.2306 58.7924 35.6967 59.3647 35.0738 59.1344C34.6905 59.253 34.3072 59.0367 33.917 58.9878C33.8828 58.7505 33.6979 58.9878 33.5884 58.8692C32.7944 58.4574 32.1304 57.906 31.398 57.3617C31.2338 57.257 31.2474 56.9918 31.0147 56.929C30.9189 56.7056 30.6382 56.5591 30.5356 56.3008C29.7552 55.2889 29.3582 54.0535 29.0228 52.8182C28.8243 52.56 28.8722 52.1901 28.66 51.9389C28.6737 51.7225 28.5574 51.5829 28.441 51.4294C28.2425 51.5131 27.9071 51.3317 27.7633 51.6806C27.5306 52.3088 27.4279 53.0765 27.3184 53.6836L27.38 54.0047C27.9755 54.6956 28.7353 55.4005 28.5847 56.4334C28.5847 56.6149 28.7011 56.7545 28.7011 56.9429C28.6053 56.8592 28.5505 56.7405 28.4205 56.7196L28.3589 56.7684L28.5231 57.6059L28.222 57.3477C28.0577 57.6339 28.2836 57.8851 28.2425 58.1782C28.1261 58.1992 28.1056 57.9898 27.9618 58.0596C27.8455 58.3457 27.9824 58.6528 27.9413 58.9739C27.9071 58.8552 27.7976 58.7226 27.6812 58.6598C27.3321 58.9599 27.777 59.3298 27.6196 59.7416C27.4348 59.7416 27.5032 59.4833 27.3184 59.4833C27.1062 59.6369 27.3047 60.0277 27.2021 60.2371V60.3418C27.1131 60.2231 26.9488 59.9858 26.7571 59.9509C26.5792 60.3767 26.2438 60.7605 25.8604 61.0118C24.8884 61.1514 23.9028 61.1793 22.9582 61.2002C22.6638 61.4724 22.5475 61.8563 22.3969 62.1982H22.3421C22.4106 62.0935 22.4106 61.9051 22.3626 61.7725C22.2942 61.5701 22.082 61.5841 21.9177 61.5422C21.8014 61.5352 21.5892 61.6259 21.5755 61.7725V61.6259L22.4174 60.9769C22.4995 60.8931 22.3832 60.7884 22.301 60.7535H22.1984C21.9451 61.0536 21.5549 61.2142 21.3838 61.5492C21.4043 61.2979 21.3838 61.0397 21.1374 60.921C20.9663 61.0048 20.7062 60.8722 20.5761 61.0397C20.7472 60.8512 21.021 60.8931 21.2401 60.8164C21.4591 60.6628 21.8835 60.6349 21.8835 60.3488C21.815 60.3139 21.7192 60.2161 21.6371 60.2999C21.2743 60.5232 20.7609 60.3906 20.5145 60.8303C20.6103 60.607 20.5693 60.2999 20.4529 60.0975L20.316 59.9789C20.6788 59.9091 21.2264 60.1115 21.6029 59.8393C21.3496 59.5741 20.8568 59.7416 20.4803 59.6927C20.4118 59.8114 20.3365 59.6788 20.2339 59.7276C20.3365 59.5671 20.4871 59.4484 20.4324 59.2391C20.3844 59.1553 20.3023 59.0855 20.2339 59.0157C20.6377 58.9739 21.0826 59.4205 21.5755 59.4903C21.596 59.4415 21.6576 59.3926 21.6371 59.3228C21.2948 59.0855 20.9594 58.8482 20.5419 58.7715C20.7541 58.5551 20.6377 58.248 20.5761 58.0386C21.2674 58.0386 21.6029 58.7715 22.1162 59.1553C22.6981 59.6299 23.4715 59.2111 24.1218 59.1763C24.3682 59.0088 24.6557 58.8692 24.7173 58.5481C24.7652 57.4454 24.9364 56.4683 24.3545 55.5541C23.3141 54.6886 22.5132 53.6418 21.774 52.5321C21.0621 51.9947 21.11 51.0804 20.6582 50.4174C20.2407 48.9029 20.6582 47.3605 21.1579 45.9926C21.4043 45.5739 21.5755 45.1342 21.6576 44.6456C21.6097 44.6107 21.5755 44.5409 21.4933 44.5619C21.3975 44.7294 21.3222 44.8969 21.3222 45.1063C21.11 45.5669 20.8431 46.0066 20.6788 46.4951L18.639 44.9806L18.1051 44.4083H18.0229C17.3384 43.8291 16.8319 43.0195 16.1953 42.4123H30.6793L30.6862 42.3914Z"
            fill="black" />
        <path
            d="M4.84661 42.6077C4.84661 42.4053 4.81923 42.1331 4.56596 42.0703H4.20318C4.56596 41.5888 5.40105 41.9726 5.64747 41.4631L5.59956 41.4073C5.16832 41.4562 4.77131 41.5329 4.38799 41.6934C4.55227 41.6237 4.55227 41.3933 4.50436 41.2398C4.40168 41.1909 4.38799 40.9676 4.24425 41.0723H4.16211C4.34692 40.6675 4.83976 40.8699 5.17517 40.8908C6.48256 41.17 7.76257 40.8769 9.13842 40.8071C10.2678 40.5349 11.4931 40.5558 12.6362 40.2348C13.5808 39.5299 12.8552 38.0433 13.5945 37.2128C13.4987 36.8429 14.1763 36.5917 13.7382 36.3823C13.2249 37.0034 13.0058 37.7432 12.9579 38.5458C12.4103 36.7731 11.4178 35.1191 11.7532 33.0393C12.0681 32.0273 11.4178 31.134 11.2398 30.1848C10.9386 29.8847 10.7744 29.4729 10.4937 29.124C10.5416 28.768 10.5279 28.3772 10.4937 28.0213C10.5485 28.1888 10.747 28.3912 10.9386 28.447C11.0413 28.447 11.1098 28.3493 11.1919 28.2725C11.2741 28.0422 11.0619 27.8328 10.9386 27.6793C10.2747 27.1558 9.43275 26.6464 9.31639 25.7391C9.48751 25.3133 8.90569 24.5456 9.59703 24.5596C9.78184 24.5945 9.99404 24.4409 10.0967 24.2455C10.1172 24.0082 10.3089 23.7709 10.1515 23.5337C10.1789 23.2475 10.5485 23.3313 10.7333 23.1917C11.2261 22.9893 11.7943 22.9055 12.3076 22.8218C12.9921 22.8706 13.7177 22.7939 14.3475 23.1079C14.9567 23.2964 15.6206 23.6802 15.8054 24.3712C15.5864 24.4758 15.3126 24.6782 15.2715 24.9644L15.3537 25.0272C15.737 24.8388 16.1682 24.3851 16.6747 24.6852C16.8527 24.7759 16.8048 24.9574 16.7911 25.1109C16.6268 25.4459 16.264 25.4878 15.9492 25.5367C15.7986 25.5506 15.5864 25.3692 15.5316 25.5995C15.5659 25.8089 15.8602 25.76 16.0313 25.8507C16.2161 25.8577 16.4009 25.8577 16.531 25.746C17.0307 26.7929 18.0095 27.4908 18.9884 27.9724C19.6044 28.3423 20.3779 28.5656 20.8091 29.3124C21.9728 31.0502 23.5266 32.474 25.0872 33.8209C27.7089 35.6634 30.5016 38.1969 30.6385 41.6097C30.6659 41.9377 30.6727 42.2727 30.6659 42.6077H16.1819C15.9286 42.3704 15.6548 42.161 15.3468 42.0075C15.5453 41.5329 16.0382 41.177 16.5242 41.1212C16.6063 40.9537 16.9417 41.0234 16.8253 40.7862L16.7227 40.7303C15.826 40.842 15.2168 41.5399 14.765 42.3006C14.6692 42.4193 14.5596 42.517 14.4433 42.6077H6.79058C6.81112 42.5728 6.83165 42.5379 6.85219 42.503C6.71529 42.189 6.57155 42.5728 6.43465 42.6077H5.45581C5.66116 42.4612 5.87336 42.3146 6.11293 42.2657C6.19507 42.1611 6.32513 42.1471 6.2909 41.9796C6.12662 41.8261 5.97603 42.0424 5.81175 42.0424C5.53795 42.2308 5.24362 42.4193 4.98351 42.6147H4.83292L4.84661 42.6077Z"
            fill="black" />
        <path
            d="M9.94607 23.2686C9.91185 23.5687 9.93238 23.9944 9.54906 24.127C9.46692 24.1619 9.39847 24.1968 9.2958 24.1898C9.23419 23.7711 9.57644 23.4151 9.94607 23.2755V23.2686Z"
            fill="black" />
        <path
            d="M12.9304 23.5546C13.0331 23.757 13.259 23.9873 13.1289 24.2106C13.0126 24.0431 12.9441 23.7012 12.6498 23.6732C12.5129 23.743 12.6977 23.8617 12.6019 23.9594C12.4992 24.092 12.376 24.1478 12.2254 24.1618C12.157 24.0641 12.1296 23.9594 12.0611 23.8756L11.8352 24.099C11.6367 23.8966 11.979 23.75 12.0337 23.6104C12.2802 23.2196 12.6293 23.3941 12.9236 23.5476L12.9304 23.5546Z"
            fill="white" />
        <path d="M12.2051 23.8409V23.7292L12.2667 23.7781L12.2051 23.8409Z" fill="black" />
        <path
            d="M12.2873 24.9784C12.8965 25.3343 13.1292 25.9764 13.6837 26.3812C13.8137 26.4998 14.197 26.3533 14.0464 26.6673C13.2182 26.772 12.9375 25.7321 12.3215 25.3273C12.0272 25.1598 11.7739 24.9365 11.4248 24.9226V24.6992C11.7191 24.8667 11.9861 24.8388 12.2873 24.9854V24.9784Z"
            fill="white" />
        <path
            d="M13.1292 27.1768C13.2319 27.1977 13.2935 27.3652 13.184 27.442C12.0272 27.3582 11.8903 25.9415 11.0278 25.439V25.3203C12.0683 25.5227 12.0067 27.0581 13.1292 27.1768Z"
            fill="white" />
        <path
            d="M11.3697 26.5488C11.5888 27.156 11.9173 27.8609 12.5676 28.1191L12.5471 28.2936C11.3218 28.1191 11.534 26.5627 10.5073 26.0602C10.4388 26.0114 10.4936 25.9276 10.5552 25.9207C10.8495 26.1021 11.2808 26.144 11.3697 26.5488Z"
            fill="white" />
        <path
            d="M17.3591 27.4908C17.3591 27.9933 16.9142 28.3842 16.6609 28.8099C16.2297 29.1868 15.7368 29.4311 15.2851 29.7521C15.1482 29.8009 15.1003 29.6544 14.9839 29.6683C15.7505 29.1938 16.6746 28.6773 17.1058 27.777C17.2222 27.7072 17.188 27.4769 17.3659 27.4908H17.3591Z"
            fill="white" />
        <path
            d="M15.6479 27.7283C15.4289 28.154 15.0045 28.475 14.6075 28.7751C14.0736 28.9147 13.6287 29.3963 13.0195 29.2986C12.9236 29.3125 12.8689 29.3753 12.7593 29.3474C12.7114 29.3195 12.7046 29.2637 12.7046 29.2078C12.821 29.1101 12.8894 29.173 13.04 29.159C13.9709 28.9077 14.8128 28.3355 15.5042 27.6096C15.5863 27.6096 15.6206 27.6445 15.6411 27.7283H15.6479Z"
            fill="white" />
        <path
            d="M6.05113 35.8868C6.94782 35.6704 7.8582 35.9217 8.73436 36.0054C9.17244 36.1939 9.67897 36.2357 10.1307 36.3753L11.842 36.5777L11.9241 36.48C12.2253 37.5129 13.2178 38.49 12.6839 39.6206C12.2664 39.5718 11.7393 40.2557 11.4792 39.5997C11.0822 39.3833 10.6783 39.6486 10.2471 39.5997C10.3772 39.5718 10.4319 39.4322 10.5277 39.3415L10.4456 39.2577L9.63106 39.2926C9.67897 39.2228 9.82956 39.1461 9.80903 39.0274C9.58999 38.9227 9.26143 38.9925 9.04923 38.9716C9.03554 38.8808 9.21351 38.9018 9.19298 38.7692C8.91233 38.7203 8.65222 38.6505 8.35104 38.6645C8.28944 38.6017 8.70014 38.4481 8.43318 38.3155C8.24837 38.2946 8.04986 38.2318 7.87189 38.2527C7.89243 38.2108 7.98826 38.1829 7.95403 38.1062C7.87189 38.0643 7.94034 38.0224 7.95403 37.9666C7.96772 37.9317 7.91981 37.9038 7.89243 37.8828L7.22846 38.0015C7.01627 38.2737 6.85199 38.6436 6.46867 38.6575C6.48921 38.4551 6.45498 38.2178 6.24963 38.169C6.11958 38.1829 5.96899 38.1341 5.88685 38.2527L5.90738 38.169C6.23594 37.9666 6.57135 37.7991 6.88622 37.5757C6.89991 37.5129 6.87253 37.4571 6.83146 37.4362C6.366 37.5548 6.00321 37.9247 5.57198 38.148C5.70203 37.9945 5.58567 37.82 5.6062 37.6595C5.48984 37.478 5.29133 37.4222 5.12705 37.478C5.09283 37.5269 5.0586 37.5269 5.01069 37.5339C5.06545 37.4292 5.25711 37.4082 5.37347 37.3315C5.78417 37.2826 6.26332 37.2617 6.49605 36.9057L6.44814 36.8569C5.94845 36.7731 5.45561 37.0732 4.99015 37.2477C4.95593 37.0383 4.97646 36.7452 4.70951 36.6754H4.57261C4.96962 36.3055 5.56513 36.5847 6.03059 36.3683C6.05113 36.2916 5.96899 36.2706 5.93476 36.2218C5.55829 36.2427 5.14074 36.152 4.81218 36.3055C4.84641 36.2218 4.88063 36.0543 4.79165 35.9356C4.67528 35.7681 4.49047 35.7681 4.3125 35.7332C4.83956 35.4401 5.53775 35.6634 6.05113 35.8798V35.8868Z"
            fill="black" />
        <path
            d="M4.53192 36.2917C4.48401 36.4104 4.31288 36.5081 4.16914 36.536L3.83373 36.6546C3.7516 36.536 3.90218 36.3894 3.88849 36.2499C4.01855 36.0963 4.16914 36.0126 4.34711 35.9637C4.51823 35.9497 4.62775 36.1173 4.53192 36.2848V36.2917Z"
            fill="black" />
        <path
            d="M4.79202 37.0245C4.82625 37.5479 4.23073 37.2827 4.03223 37.5968C4.10068 37.3804 4.08014 37.0035 4.39501 36.9058C4.56614 36.8849 4.67566 36.9058 4.79202 37.0245Z"
            fill="black" />
        <path
            d="M5.37368 37.855C5.44213 38.3226 4.874 38.1062 4.67549 38.3714C4.64127 38.19 4.73025 37.9946 4.81239 37.8201C4.94245 37.6526 5.27101 37.6316 5.37368 37.855Z"
            fill="black" />
        <path
            d="M6.24971 38.5739C6.24971 38.9229 5.86639 38.9229 5.68842 39.1462C5.65419 38.9438 5.61997 38.7414 5.70896 38.539C5.83901 38.3994 6.17441 38.2738 6.24286 38.5739H6.24971Z"
            fill="black" />
        <path
            d="M4.28521 41.226C4.26468 41.6308 3.77184 41.4773 3.58702 41.7634H3.50488C3.70339 41.5401 3.64178 41.1353 3.94981 41.0027C4.07986 41.0236 4.2989 41.0236 4.29206 41.226H4.28521Z"
            fill="black" />
        <path
            d="M4.56594 42.1612C4.6207 42.5451 4.27161 42.6009 4.03204 42.8173H3.92936C3.8746 42.5451 3.97728 42.259 4.23054 42.0775C4.33321 42.0286 4.49749 42.0217 4.57279 42.1612H4.56594Z"
            fill="black" />
        <path
            d="M5.40761 43.0754C5.40761 43.3825 4.99007 43.4942 4.84632 43.7036C4.8121 43.4314 4.75049 43.0964 5.0106 42.873C5.16119 42.887 5.45553 42.8172 5.40761 43.0754Z"
            fill="black" />
        <path
            d="M6.33211 43.5919C6.4211 43.913 6.072 43.9688 5.98986 44.22C5.77767 44.1014 5.8735 43.8501 5.85296 43.6477C5.90772 43.4244 6.26366 43.3407 6.33211 43.5849V43.5919Z"
            fill="black" />
        <path
            d="M20.583 46.7255C20.1655 47.8213 20.0491 49.245 20.3503 50.4385C20.7678 51.7924 21.5618 53.0277 22.568 54.0886C21.8083 54.605 22.3216 55.5263 21.8904 56.1684L21.1101 57.0268C20.8568 57.0896 21.0758 56.7965 20.891 56.7197C20.6035 56.9221 20.5077 57.2641 20.3571 57.5502C20.3024 57.4455 20.275 57.2431 20.1107 57.2641L19.6932 57.8364C19.6932 57.7177 19.6932 57.5991 19.611 57.5153C19.3304 57.6479 19.2961 57.9829 19.0497 58.1714C19.036 58.0388 18.947 57.948 18.8786 57.8364L18.2968 58.4296C18.2283 58.3319 18.3173 58.1086 18.2146 58.0039C17.9682 58.1435 17.7492 58.3459 17.4754 58.4296C17.4617 58.2621 17.626 58.0737 17.4548 57.9411C16.8114 57.962 16.2159 58.1435 15.5998 58.0806C15.1139 58.1644 15.2371 58.7437 14.9017 58.967C14.8811 58.7437 14.888 58.4575 14.621 58.3947H14.3404C14.4704 58.3738 14.9017 57.9899 14.9906 57.6828C14.9564 57.5921 14.8606 57.641 14.7921 57.627C14.3951 57.9969 14.1282 58.4156 13.6353 58.4854C13.6353 58.283 13.5874 57.9829 13.3273 57.9131C13.6764 57.8503 14.135 57.6619 14.5046 57.4525C14.532 57.3827 14.4567 57.3339 14.4225 57.285C13.9707 57.4037 13.5395 57.5991 13.0672 57.6898L12.9029 57.6549C13.0877 57.4665 13.0672 57.2152 12.9851 56.9779L12.9235 56.9151C13.3547 56.8174 13.9023 57.0128 14.3198 56.8314C14.3472 56.7337 14.3061 56.6778 14.2377 56.629L12.8345 56.5941C12.9508 56.4754 13.1357 56.2381 13.033 56.0008C13.0124 55.938 12.9782 55.8822 12.9508 55.8334C13.4505 55.8194 13.916 56.1614 14.4088 56.2032V56.0637C14.046 55.8264 13.649 55.6868 13.252 55.5542C13.5464 55.4495 13.5121 55.1145 13.5121 54.8912L13.9571 54.947C14.5731 55.3727 14.9496 56.3638 15.8394 56.1684C16.6677 56.1125 17.5849 56.1963 18.0161 55.289C18.995 54.3398 17.9682 53.2231 17.8176 52.1763C17.5575 50.8084 16.6745 49.4893 17.1742 48.0097C17.5028 46.9558 17.7902 45.8671 17.9066 44.7295C18.7143 45.4623 19.6589 46.0486 20.5693 46.7255H20.583Z"
            fill="black" />
        <path
            d="M30.2347 51.8412C29.9404 52.1762 29.5845 51.8202 29.2559 51.8063C29.2011 51.7783 29.2354 51.7085 29.2217 51.6597C29.5023 51.4713 29.8035 51.9598 30.0362 51.6597C30.0362 51.4084 29.9062 51.0665 30.0362 50.885C30.2347 51.1223 30.2347 51.4922 30.2347 51.8342V51.8412Z"
            fill="white" />
        <path
            d="M31.405 51.2969C31.4256 51.583 31.6172 51.8692 31.4666 52.1553C31.2339 52.5322 30.8369 52.1553 30.522 52.1553C30.4673 52.1204 30.5015 52.0367 30.4878 51.9878C30.7411 51.925 31.1244 52.2251 31.3023 51.9529C31.3366 51.7366 31.0833 51.3597 31.405 51.3039V51.2969Z"
            fill="white" />
        <path
            d="M32.6439 52.1553C32.6987 52.3228 32.6713 52.5112 32.5002 52.609C32.2332 52.6857 32.0142 52.4763 31.7404 52.4624C31.6925 52.4205 31.7267 52.3298 31.7199 52.274C31.9047 52.3089 32.2538 52.4415 32.4454 52.274C32.4317 52.0157 32.3291 51.7366 32.4454 51.4993C32.6782 51.6179 32.5755 51.9739 32.6439 52.1553Z"
            fill="white" />
        <path
            d="M30.3782 52.3577C30.2961 52.6788 30.7 53.1534 30.1455 53.2092C29.8786 53.1534 29.5158 53.1254 29.3994 52.8881C29.5842 52.7695 29.7006 52.9021 29.8991 52.951C29.9402 53.0208 30.0292 53.0696 30.0976 53.0138C30.3372 52.7765 30.0839 52.4066 30.2003 52.1553C30.303 52.1274 30.3509 52.274 30.3782 52.3577Z"
            fill="white" />
        <path
            d="M31.7407 53.3209C31.4737 53.7257 30.9946 53.4256 30.6797 53.3558C30.6318 53.3279 30.6523 53.2721 30.6523 53.2372C30.8851 53.0697 31.3505 53.5931 31.5148 53.1534C31.5285 52.9301 31.371 52.7347 31.4327 52.5183C31.7954 52.5602 31.6517 53.0417 31.7338 53.3139L31.7407 53.3209Z"
            fill="white" />
        <path
            d="M32.9181 53.0347C32.8565 53.3348 33.1851 53.7326 32.836 53.8931C32.5759 53.7117 32.1857 53.942 32.0762 53.5791L32.1378 53.5233C32.3021 53.607 32.7059 53.7396 32.7538 53.5233C32.4937 53.3209 32.7333 51.9529 32.9181 53.0347Z"
            fill="white" />
        <path
            d="M34.8822 53.3766C34.8822 53.4255 34.8343 53.4464 34.8549 53.4953C34.6221 53.4813 34.3278 53.3487 34.2046 53.1254C34.2046 52.9718 34.4168 53.0416 34.4852 53.0695C34.6221 53.1742 34.8001 53.1952 34.8822 53.3766Z"
            fill="white" />
        <path
            d="M34.1776 54.0885C33.8969 54.3118 33.5478 54.0327 33.2193 54.0047C33.1714 53.9699 33.2056 53.907 33.1919 53.8582C33.3219 53.7884 33.5068 53.8861 33.671 53.8861C33.7669 53.9419 33.8353 53.9419 33.9175 53.8582C33.8832 53.6418 33.7669 53.3976 33.8353 53.2021C34.1981 53.265 34.0612 53.7814 34.1776 54.0815V54.0885Z"
            fill="white" />
        <path
            d="M30.6249 53.8442C30.6112 54.0397 30.9055 54.3049 30.5975 54.4584L30.4811 54.5491C30.1868 54.4584 29.8308 54.5073 29.6187 54.2909C29.7145 54.1095 29.9061 54.27 30.0636 54.27C30.1936 54.2909 30.3511 54.3398 30.4811 54.2141C30.4469 53.9629 30.3305 53.7116 30.3784 53.4604C30.6728 53.3766 30.4948 53.7326 30.6249 53.8442Z"
            fill="white" />
        <path
            d="M35.3822 54.3469C35.4506 54.5283 35.2795 54.5423 35.1837 54.5981C34.9715 54.3957 34.5676 54.4446 34.3828 54.2282C34.5608 53.9211 35.3616 54.5353 35.0262 53.8374L35.1084 53.6001C35.3206 53.8025 35.1563 54.1445 35.389 54.3469H35.3822Z"
            fill="white" />
        <path
            d="M31.9665 54.27C31.9528 54.4515 32.1445 54.6748 31.9186 54.8074C31.6996 54.9819 31.4189 54.8074 31.1862 54.7446C31.1178 54.6469 31.0014 54.6399 31.0219 54.4933C31.2889 54.3956 31.5695 54.7446 31.8023 54.5771C31.7406 54.3189 31.6722 54.0536 31.6585 53.7815C31.9871 53.6 31.8433 54.1095 31.9597 54.27H31.9665Z"
            fill="white" />
        <path
            d="M33.0344 54.1304C33.0618 54.4724 33.493 54.9818 33.0344 55.2121C32.7332 55.1424 32.391 55.1424 32.1377 54.9888C32.1377 54.919 32.1719 54.8213 32.2404 54.8143C32.521 54.7655 32.7743 54.9818 32.9728 54.8981C32.9728 54.6748 32.8564 54.3607 32.9386 54.1374H33.0344V54.1304Z"
            fill="white" />
        <path
            d="M34.2593 54.4095C34.3209 54.7445 34.5399 55.3029 34.1771 55.5123C33.9581 55.4983 33.698 55.4425 33.4789 55.3448C33.4173 55.3099 33.4652 55.1912 33.4995 55.1424C33.7322 55.1563 33.9512 55.2191 34.1497 55.3099C34.1977 54.9888 34.0334 54.7027 34.1703 54.3677L34.2524 54.4026L34.2593 54.4095Z"
            fill="white" />
        <path
            d="M35.5807 55.4564C35.6081 55.6448 35.4575 55.7983 35.3001 55.8611L34.6019 55.6308C34.5882 55.5261 34.6156 55.4284 34.7183 55.4075C34.8826 55.5052 35.0674 55.561 35.2796 55.575L35.3617 55.4913C35.3959 55.1842 35.1769 54.8561 35.3275 54.6328C35.5807 54.7654 35.5397 55.1702 35.5807 55.4494V55.4564Z"
            fill="white" />
        <path
            d="M30.9054 55.0028C30.8438 55.3238 31.1586 55.6728 30.8438 55.917C30.5768 55.8403 30.214 55.8124 30.0977 55.5471C30.3372 55.3936 30.5494 55.7705 30.7616 55.5471C30.7479 55.275 30.5631 54.9539 30.7 54.7376C30.8643 54.7166 30.878 54.8911 30.8985 54.9958L30.9054 55.0028Z"
            fill="white" />
        <path
            d="M13.3274 55.0657C13.2795 55.1844 13.211 55.2821 13.1083 55.3798L12.4102 55.296C12.4786 55.1634 12.7387 54.9261 12.9714 54.9261C13.1083 54.9122 13.2521 54.9261 13.3342 55.0657H13.3274Z"
            fill="black" />
        <path
            d="M32.2812 55.8404C32.199 55.9591 32.3291 56.0917 32.1648 56.1545C31.8157 56.2871 31.5487 56.0358 31.2202 56.0358C31.1517 55.9032 31.3092 55.8055 31.4392 55.8055C31.6514 55.8055 31.7883 56.0568 32.021 55.9242C32.1032 55.638 31.7336 55.2332 32.0827 55.0867C32.2675 55.2891 32.1785 55.5961 32.2812 55.8334V55.8404Z"
            fill="white" />
        <path
            d="M33.3151 56.4544C33.185 56.5731 32.9386 56.4753 32.7812 56.4335C32.6648 56.3288 32.2952 56.4335 32.4184 56.1683C32.6785 55.9589 32.9454 56.252 33.1987 56.3148C33.3424 56.0496 32.966 55.6448 33.2808 55.4285C33.3356 55.7495 33.5478 56.1543 33.3151 56.4544Z"
            fill="white" />
        <path
            d="M34.6019 56.0916C34.6361 56.3289 34.7867 56.6499 34.6019 56.8383C34.2596 56.8383 33.9448 56.7546 33.6436 56.6639C33.5957 56.6499 33.6299 56.5592 33.6162 56.4964C33.8489 56.3498 34.0954 56.5522 34.3144 56.6011C34.4924 56.3498 34.2049 55.9939 34.3349 55.7217C34.6019 55.6728 34.4718 55.9869 34.595 56.0916H34.6019Z"
            fill="white" />
        <path
            d="M36.3949 56.0288L36.3607 56.1265C36.1143 56.1544 35.9158 55.9869 35.7446 55.8682L35.7994 55.7217C36.0116 55.8054 36.3333 55.7496 36.3949 56.0288Z"
            fill="white" />
        <path
            d="M12.828 56.0637C12.8143 56.2033 12.7664 56.3498 12.6295 56.4126H11.8149C11.9929 56.1684 12.2256 55.8264 12.5542 55.8683C12.6569 55.9032 12.8212 55.9171 12.8348 56.0706L12.828 56.0637Z"
            fill="black" />
        <path
            d="M35.7996 56.4544C35.7449 56.7056 35.9845 57.0476 35.6559 57.1662C35.3616 57.1174 35.0809 57.0336 34.814 56.915C34.9782 56.5102 35.3958 56.9987 35.6285 56.7963C35.6422 56.5591 35.3479 56.1892 35.6491 56.0845L35.7928 56.4544H35.7996Z"
            fill="white" />
        <path
            d="M31.4394 56.7755C31.4531 56.8732 31.4258 56.9639 31.3573 57.0268C31.0904 56.8453 31.1725 56.4754 31.0767 56.2032C31.1109 56.1334 31.1793 56.1474 31.2409 56.1474L31.4394 56.7755Z"
            fill="white" />
        <path
            d="M32.5002 56.9222C32.5481 57.1455 32.5687 57.4596 32.2812 57.4945C32.0621 57.3688 31.583 57.4386 31.6446 57.0966C31.8636 56.985 32.0142 57.2013 32.2264 57.2153C32.3565 56.964 32.0279 56.4895 32.3428 56.3848L32.507 56.9291L32.5002 56.9222Z"
            fill="white" />
        <path
            d="M33.705 57.6618C33.3901 58.1085 32.9247 57.6688 32.5824 57.606C32.5277 57.5432 32.603 57.4664 32.6646 57.4176C32.9178 57.4455 33.2122 57.6409 33.4175 57.5223C33.5202 57.2082 33.219 56.95 33.397 56.6638C33.7461 56.7615 33.6434 57.3199 33.705 57.6618Z"
            fill="white" />
        <path
            d="M12.8279 57.2013C12.8416 57.3339 12.78 57.4316 12.691 57.5153L11.8765 57.4874C11.9791 57.2431 12.2392 57.1315 12.4378 56.9989C12.602 56.9779 12.8211 56.9989 12.8348 57.2013H12.8279Z"
            fill="black" />
        <path
            d="M34.7662 57.1664C34.7868 57.4316 34.8347 57.6759 34.91 57.9132C34.91 58.0179 34.8142 58.0877 34.7457 58.1644C34.4924 57.9969 33.9996 58.1784 33.9312 57.7945C34.1502 57.6968 34.3487 57.8504 34.5472 57.8783L34.6088 57.8294L34.5267 57.1385C34.5404 56.964 34.8552 56.9501 34.7731 57.1664H34.7662Z"
            fill="white" />
        <path
            d="M36.6209 57.292L36.5867 57.4386C36.4361 57.3688 36.2034 57.3409 36.0254 57.2362L36.1418 57.0059C36.306 57.1036 36.6004 57.0338 36.6209 57.292Z"
            fill="white" />
        <path
            d="M36.0805 57.8852C36.012 58.0596 36.1078 58.2271 36.1147 58.4086L35.9778 58.5133L35.1016 58.262C35.0674 58.1573 35.1564 57.9898 35.2796 58.0247C35.4097 58.1294 35.6082 58.0945 35.7451 58.1643C35.9573 58.0108 35.7656 57.7386 35.7451 57.5432C35.9573 56.9499 35.9915 57.7595 36.0805 57.8782V57.8852Z"
            fill="white" />
        <path
            d="M33.9243 58.7994C33.541 58.9669 33.76 58.4435 33.6231 58.29C33.5684 58.2062 33.6231 58.0876 33.7053 58.0317C33.9175 58.1853 33.8901 58.5273 33.9243 58.8064V58.7994Z"
            fill="white" />
        <path
            d="M13.3821 58.2901C13.2999 58.6949 12.7387 58.5065 12.458 58.7158C12.5401 58.4297 12.7387 58.1715 13.0398 58.1226C13.1767 58.1087 13.3068 58.1924 13.3821 58.2901Z"
            fill="black" />
        <path
            d="M20.3848 58.3459C20.2684 58.7018 19.8782 58.5692 19.6455 58.5971C19.6934 58.3459 19.9604 58.311 20.1247 58.1714C20.2205 58.1714 20.419 58.1574 20.3848 58.3459Z"
            fill="black" />
        <path
            d="M36.4432 58.311C36.4432 58.311 36.409 58.3319 36.3953 58.3459C36.3337 58.311 36.2995 58.2412 36.3611 58.2063H36.4432V58.311Z"
            fill="white" />
        <path
            d="M35.0742 59.0018C35.04 59.0507 34.9921 59.0646 34.9373 59.0646C34.8346 58.8483 34.7046 58.5133 34.8825 58.3179C35.0673 58.4714 34.9784 58.7925 35.081 59.0088L35.0742 59.0018Z"
            fill="white" />
        <path
            d="M14.6418 58.7368C14.676 58.974 14.409 59.0578 14.2858 59.1695C14.0736 59.1834 13.971 59.4137 13.7725 59.4556C13.8341 59.1415 13.9367 58.8624 14.19 58.6321C14.368 58.6111 14.5186 58.646 14.6418 58.7437V58.7368Z"
            fill="black" />
        <path
            d="M20.1042 59.1693C20.0836 59.3228 20.0836 59.5461 19.8783 59.5461C19.6387 59.4135 19.4607 59.6299 19.2622 59.6927C19.2485 59.4624 19.3786 59.3019 19.5086 59.1413C19.6935 59.1064 19.9536 58.9529 20.1042 59.1693Z"
            fill="black" />
        <path
            d="M20.323 60.4048C20.3093 60.8305 19.748 60.4955 19.5427 60.7328C19.4947 60.5932 19.6111 60.4467 19.6453 60.3071C19.7138 60.1605 19.8712 60.1047 20.0218 60.0837C20.1724 60.1186 20.3025 60.2373 20.323 60.4048Z"
            fill="black" />
        <path
            d="M21.0484 61.2562C21.2333 61.7029 20.6172 61.5703 20.4666 61.8774C20.3708 61.6191 20.4872 61.3679 20.6309 61.1655C20.761 61.0748 20.9937 61.0468 21.0484 61.2632V61.2562Z"
            fill="black" />
        <path
            d="M22.1441 61.9749C22.1098 62.2889 21.7128 62.1773 21.5006 62.2889C21.4664 62.0377 21.6307 61.919 21.8087 61.7795C21.9593 61.7515 22.1235 61.8213 22.1441 61.9749Z"
            fill="black" />
        <path d="M20.987 11.5715H12.376V13.442H20.987V11.5715Z" fill="#FFE000" stroke="black"
            stroke-width="0.5" />
        <path d="M29.3859 11.5715H20.7749V13.442H29.3859V11.5715Z" fill="#FFE000" stroke="black"
            stroke-width="0.5" />
        <path d="M38.0378 11.5715H29.4268V13.442H38.0378V11.5715Z" fill="#FFE000" stroke="black"
            stroke-width="0.5" />
        <path d="M12.424 11.5715H3.80615V13.442H12.4308V11.5715H12.424Z" fill="#FFE000"
            stroke="black" stroke-width="0.5" />
        <path d="M3.73779 7.74683V13.5186" stroke="black" stroke-width="0.5" />
        <path
            d="M55.0205 34.6724C57.2657 34.6724 58.046 34.2118 58.046 31.8738V18.8995C58.046 16.5545 57.2588 16.1009 55.0205 16.1009V15.5286H64.1038V16.1009C61.8586 16.1009 61.0783 16.5615 61.0783 18.8995V24.2455H71.0857V18.8995C71.0857 16.5545 70.2985 16.1009 68.0602 16.1009V15.5286H77.1435V16.1009C74.8983 16.1009 74.118 16.5615 74.118 18.8995V31.8738C74.118 34.2188 74.9052 34.6724 77.1435 34.6724V35.2447H68.0602V34.6724C70.3054 34.6724 71.0857 34.2118 71.0857 31.8738V25.446H61.0783V31.8738C61.0783 34.2188 61.8655 34.6724 64.1038 34.6724V35.2447H55.0205V34.6724Z"
            fill="white" />
        <path
            d="M87.9791 32.7532C87.9791 33.3534 88.0339 34.0932 88.7937 34.0932C89.2112 34.0932 89.5808 33.7513 89.8341 33.4372L90.1695 33.7513C89.4713 34.8679 88.5746 35.524 87.2262 35.524C86.2473 35.524 85.6313 34.5539 85.5697 33.6396C84.2555 34.6376 82.7701 35.524 81.0588 35.524C79.3476 35.524 77.917 34.184 77.917 32.3833C77.917 30.4711 79.2655 29.2427 80.8877 28.3843C82.2909 27.6445 84.276 27.1001 85.5149 26.6953V25.2088C85.5149 23.9246 85.2069 22.3822 83.1329 22.3822C82.4073 22.3822 81.0041 22.6404 80.9767 23.6105C80.9493 23.9246 81.0315 24.2387 81.0315 24.5527C81.0315 25.3832 80.6687 26.0672 79.7446 26.0672C78.93 26.0672 78.5673 25.467 78.5673 24.6644C78.5673 22.3752 81.5927 21.5238 83.3861 21.5238C86.836 21.5238 87.9791 23.2965 87.9791 26.5278V32.7602V32.7532ZM80.8603 16.8687C81.6475 16.8687 82.2636 17.4968 82.2636 18.2994C82.2636 19.102 81.6475 19.7301 80.8603 19.7301C80.0732 19.7301 79.4571 19.102 79.4571 18.2994C79.4571 17.4968 80.0732 16.8687 80.8603 16.8687ZM82.7701 34.1002C84.0022 34.1002 85.5149 33.0115 85.5149 32.3275V27.4142C83.6394 28.2168 80.388 29.1031 80.388 31.6715C80.388 33.2139 81.23 34.1002 82.7701 34.1002ZM86.4116 16.8687C87.1988 16.8687 87.8148 17.4968 87.8148 18.2994C87.8148 19.102 87.1988 19.7301 86.4116 19.7301C85.6245 19.7301 85.0084 19.102 85.0084 18.2994C85.0084 17.4968 85.6245 16.8687 86.4116 16.8687Z"
            fill="white" />
        <path
            d="M90.6763 34.6726C92.8051 34.5609 92.8872 34.1561 92.8872 32.0414V25.7811C92.8872 23.7223 92.634 23.464 90.6763 23.464V22.8917C92.2164 22.4939 93.7839 22.0333 95.2145 21.5168H95.3514V24.0573C96.166 23.143 97.4802 21.5168 98.856 21.5168C99.698 21.5168 100.513 22.0333 100.513 22.9755C100.513 23.7153 99.8691 24.2597 99.1641 24.2597C98.7123 24.2597 98.4385 24.0573 98.2126 23.8618C97.9867 23.6594 97.7951 23.464 97.4528 23.464C96.4466 23.464 95.3514 25.2926 95.3514 25.4391V32.0973C95.3514 34.3515 95.6594 34.6726 97.7335 34.6726V35.2449H90.6694V34.6726H90.6763Z"
            fill="white" />
        <path
            d="M101.573 34.6725C103.004 34.6725 103.593 34.4422 103.593 32.7602V24.9854C103.593 23.8967 103.175 23.4151 101.881 23.4151H101.573V22.8428C103.113 22.5846 104.681 21.9844 106.057 21.5308V23.7571C107.371 22.7033 108.665 21.5308 110.431 21.5308C112.642 21.5308 113.963 22.7591 113.963 26.2208V32.7672C113.963 34.4562 114.551 34.6795 115.982 34.6795V35.2518H109.424V34.6795C110.91 34.6795 111.498 34.4492 111.498 32.7672V26.137C111.498 24.1061 110.458 23.3104 109.034 23.3104C107.884 23.3104 106.905 23.9944 106.064 24.7412V32.7742C106.064 34.4632 106.652 34.6865 108.138 34.6865V35.2588H101.58V34.6865L101.573 34.6725Z"
            fill="white" />
        <path
            d="M122.649 35.5309C118.727 35.5309 115.948 32.5299 115.948 28.5867C115.948 24.6434 118.836 21.5307 122.649 21.5307C126.941 21.5307 129.405 24.2735 129.405 28.5867C129.405 32.4741 126.462 35.5309 122.649 35.5309ZM119.904 16.8687C120.691 16.8687 121.307 17.4968 121.307 18.2994C121.307 19.102 120.691 19.7301 119.904 19.7301C119.117 19.7301 118.501 19.102 118.501 18.2994C118.501 17.4968 119.117 16.8687 119.904 16.8687ZM123.183 34.6725C125.674 34.6725 126.715 31.818 126.715 29.7033C126.715 26.6465 125.846 22.3892 122.457 22.3892C119.596 22.3892 118.645 25.0482 118.645 27.5887C118.645 30.3594 119.767 34.6725 123.183 34.6725ZM125.455 16.8687C126.243 16.8687 126.859 17.4968 126.859 18.2994C126.859 19.102 126.243 19.7301 125.455 19.7301C124.668 19.7301 124.052 19.102 124.052 18.2994C124.052 17.4968 124.668 16.8687 125.455 16.8687Z"
            fill="white" />
        <path
            d="M138.796 25.5856H138.29C137.756 23.8408 136.975 22.3821 134.956 22.3821C133.834 22.3821 132.827 22.9823 132.827 24.099C132.827 27.0721 139.775 27.2396 139.775 31.4132C139.775 34.1001 137.783 35.5309 135.682 35.5309C134.196 35.5309 132.629 34.8469 132.15 34.8469C131.759 34.8469 131.814 35.0493 131.759 35.2447H131.198L131 30.7571H131.671C131.725 32.7601 133.354 34.6724 135.401 34.6724C136.606 34.6724 137.81 34.0164 137.81 32.6694C137.81 29.4101 130.863 29.466 130.863 25.0691C130.863 22.7241 132.909 21.5237 135.011 21.5237C135.49 21.5237 135.935 21.6353 136.387 21.754C136.804 21.8657 137.256 21.9843 137.646 21.9843C137.954 21.9843 138.153 21.8726 138.207 21.5237H138.714L138.796 25.5786V25.5856Z"
            fill="white" />
        <path
            d="M152.165 32.7532C152.165 33.3534 152.219 34.0932 152.979 34.0932C153.397 34.0932 153.766 33.7512 154.02 33.4371L154.355 33.7512C153.657 34.8678 152.76 35.5239 151.412 35.5239C150.433 35.5239 149.817 34.5538 149.755 33.6395C148.441 34.6375 146.956 35.5239 145.244 35.5239C143.533 35.5239 142.103 34.1839 142.103 32.3833C142.103 30.471 143.451 29.2426 145.073 28.3842C146.476 27.6444 148.462 27.1 149.7 26.6952V25.2087C149.7 23.9245 149.392 22.3821 147.318 22.3821C146.593 22.3821 145.19 22.6403 145.162 23.6105C145.135 23.9245 145.217 24.2386 145.217 24.5526C145.217 25.3832 144.854 26.0671 143.93 26.0671C143.116 26.0671 142.753 25.4669 142.753 24.6643C142.753 22.3751 145.778 21.5237 147.572 21.5237C151.022 21.5237 152.165 23.2964 152.165 26.5277V32.7601V32.7532ZM146.956 34.1001C148.188 34.1001 149.7 33.0114 149.7 32.3274V27.4141C147.825 28.2167 144.574 29.1031 144.574 31.6714C144.574 33.2138 145.416 34.1001 146.956 34.1001Z"
            fill="white" />
        <path
            d="M154.293 34.6725C155.724 34.6725 156.313 34.4422 156.313 32.7602V24.9854C156.313 23.8967 155.895 23.4151 154.601 23.4151H154.293V22.8428C155.834 22.5846 157.401 21.9844 158.777 21.5308V23.7571C160.091 22.7033 161.385 21.5308 163.151 21.5308C165.362 21.5308 166.683 22.7591 166.683 26.2208V32.7672C166.683 34.4562 167.272 34.6795 168.702 34.6795V35.2518H162.145V34.6795C163.63 34.6795 164.219 34.4492 164.219 32.7672V26.137C164.219 24.1061 163.185 23.3104 161.754 23.3104C160.605 23.3104 159.626 23.9944 158.784 24.7412V32.7742C158.784 34.4632 159.372 34.6865 160.858 34.6865V35.2588H154.3V34.6865L154.293 34.6725Z"
            fill="white" />
        <path
            d="M178.874 17.7271C178.874 16.7849 178.059 16.6104 177.279 16.6104H176.971V16.0381C178.456 15.7241 180.024 15.096 181.345 14.8098V31.6994C181.345 33.3535 181.454 33.7583 183.056 33.7583V34.3305C181.68 34.6446 180.311 35.0424 178.99 35.531V33.5559H178.935C177.73 35.0983 176.382 35.531 174.869 35.531C173.493 35.531 169.236 34.9308 169.236 28.9287C169.236 25.0134 171.953 21.5308 175.513 21.5308C176.916 21.5308 177.813 21.9565 178.874 22.8708V17.7271ZM176.047 33.7583C177.587 33.7583 178.874 33.186 178.874 32.7602V26.3045C178.874 25.6205 178.874 24.79 178.73 24.5039C178.086 23.0731 176.964 22.3892 175.506 22.3892C172.679 22.3892 171.693 25.5577 171.693 28.0493C171.693 30.7084 173.014 33.7652 176.04 33.7652L176.047 33.7583Z"
            fill="white" />
        <path
            d="M192.639 25.5856H192.132C191.598 23.8408 190.818 22.3821 188.799 22.3821C187.676 22.3821 186.67 22.9823 186.67 24.099C186.67 27.0721 193.618 27.2396 193.618 31.4132C193.618 34.1001 191.626 35.5309 189.524 35.5309C188.039 35.5309 186.472 34.8469 185.992 34.8469C185.602 34.8469 185.657 35.0493 185.602 35.2447H185.041L184.842 30.7571H185.513C185.568 32.7601 187.197 34.6724 189.244 34.6724C190.449 34.6724 191.653 34.0164 191.653 32.6694C191.653 29.4101 184.706 29.466 184.706 25.0691C184.706 22.7241 186.752 21.5237 188.854 21.5237C189.333 21.5237 189.778 21.6353 190.229 21.754C190.647 21.8657 191.099 21.9843 191.489 21.9843C191.797 21.9843 191.995 21.8726 192.05 21.5237H192.557L192.639 25.5786V25.5856Z"
            fill="white" />
        <path
            d="M57.0124 42.6358C57.0124 41.6936 56.1979 41.5191 55.4175 41.5191H55.1095V40.9468C56.5949 40.6328 58.4704 40.0047 59.4835 39.7185V52.5462H59.7093L63.3783 48.8891C63.83 48.4285 63.8848 48.1493 63.8848 47.9469C63.8848 47.3746 62.7075 47.2909 62.3173 47.2909V46.7186H68.4846V47.2909C66.9993 47.3188 65.7124 47.9469 64.6993 48.9799L61.6739 52.0088L65.8493 57.1245C67.2799 58.8693 68.0602 59.5812 69.2102 59.5812V60.1535H62.8512V59.5812C63.7479 59.5812 64.1654 59.5812 64.1654 59.1555C64.1654 58.8973 63.5494 58.0667 62.7622 57.0966L59.7093 53.4116H59.4835V57.6689C59.4835 59.3579 60.0721 59.5812 61.5575 59.5812V60.1535H55V59.5812C56.4306 59.5812 57.0193 59.3509 57.0193 57.6689V42.6358H57.0124Z"
            fill="white" />
        <path
            d="M75.8497 60.4397C71.9275 60.4397 69.1484 57.4386 69.1484 53.4954C69.1484 49.5522 72.037 46.4395 75.8497 46.4395C80.1346 46.4395 82.6057 49.1823 82.6057 53.4954C82.6057 57.3828 79.6623 60.4397 75.8497 60.4397ZM76.3836 59.5812C78.8752 59.5812 79.9156 56.7267 79.9156 54.6121C79.9156 51.5552 79.0463 47.2979 75.658 47.2979C72.7968 47.2979 71.8454 49.957 71.8454 52.4974C71.8454 55.2681 72.9679 59.5812 76.3836 59.5812Z"
            fill="white" />
        <path
            d="M83.1396 59.5812C84.5703 59.5812 85.1589 59.3509 85.1589 57.6689V49.8941C85.1589 48.8054 84.7414 48.3238 83.4477 48.3238H83.1396V47.7515C84.6798 47.4933 86.2473 46.8931 87.6231 46.4395V48.6658C88.9373 47.612 90.2311 46.4395 91.9971 46.4395C93.7631 46.4395 94.6598 47.2141 95.3306 48.8124C97.2335 47.2141 98.4724 46.4395 99.8962 46.4395C102.107 46.4395 103.428 47.6678 103.428 51.1295V57.6759C103.428 59.3649 104.017 59.5882 105.447 59.5882V60.1605H98.89V59.5882C100.375 59.5882 100.964 59.3579 100.964 57.6759V51.0457C100.964 49.0148 99.9236 48.2191 98.4998 48.2191C97.5757 48.2191 96.4531 48.7635 95.5291 49.6499V57.6829C95.5291 59.3718 96.1177 59.5952 97.5483 59.5952V60.1675H90.9908V59.5952C92.4762 59.5952 93.0649 59.3649 93.0649 57.6829V51.0527C93.0649 49.0217 92.0244 48.2261 90.6007 48.2261C89.4507 48.2261 88.4719 48.9101 87.63 49.6568V57.6899C87.63 59.3788 88.2186 59.6022 89.704 59.6022V60.1745H83.1465V59.6022L83.1396 59.5812Z"
            fill="white" />
        <path
            d="M106.255 59.5812C107.686 59.5812 108.275 59.3509 108.275 57.6689V49.8941C108.275 48.8054 107.857 48.3238 106.563 48.3238H106.255V47.7515C107.795 47.4933 109.363 46.8931 110.739 46.4395V48.6658C112.053 47.612 113.347 46.4395 115.113 46.4395C116.879 46.4395 117.775 47.2141 118.446 48.8124C120.349 47.2141 121.588 46.4395 123.012 46.4395C125.223 46.4395 126.544 47.6678 126.544 51.1295V57.6759C126.544 59.3649 127.133 59.5882 128.563 59.5882V60.1605H122.006V59.5882C123.491 59.5882 124.08 59.3579 124.08 57.6759V51.0457C124.08 49.0148 123.039 48.2191 121.616 48.2191C120.691 48.2191 119.569 48.7635 118.645 49.6499V57.6829C118.645 59.3718 119.233 59.5952 120.664 59.5952V60.1675H114.107V59.5952C115.592 59.5952 116.181 59.3649 116.181 57.6829V51.0527C116.181 49.0217 115.14 48.2261 113.716 48.2261C112.566 48.2261 111.588 48.9101 110.746 49.6568V57.6899C110.746 59.3788 111.334 59.6022 112.82 59.6022V60.1745H106.262V59.6022L106.255 59.5812Z"
            fill="white" />
        <path
            d="M140.555 57.271C140.555 58.4435 141.534 58.5831 142.575 58.611V59.1833C141.117 59.5532 139.631 59.9231 138.29 60.4396H138.18V58.0946C136.976 59.295 135.853 60.4396 134.032 60.4396C131.76 60.4396 130.192 59.2671 130.192 56.8941V48.8053C130.192 47.4304 129.097 47.2908 128.173 47.2908V46.7185L132.656 46.4324V55.9799C132.656 57.5223 133.443 58.6669 135.093 58.6669C136.551 58.6669 137.756 57.5223 138.091 56.8662V48.8053C138.091 47.4304 136.996 47.2908 136.072 47.2908V46.7185L140.555 46.4324V57.264V57.271Z"
            fill="white" />
        <path
            d="M143.444 59.5812C144.874 59.5812 145.463 59.3509 145.463 57.6689V49.8941C145.463 48.8054 145.046 48.3238 143.752 48.3238H143.444V47.7515C144.984 47.4933 146.551 46.8931 147.927 46.4395V48.6658C149.242 47.612 150.535 46.4395 152.301 46.4395C154.512 46.4395 155.833 47.6678 155.833 51.1295V57.6759C155.833 59.3649 156.422 59.5882 157.853 59.5882V60.1605H151.295V59.5882C152.78 59.5882 153.369 59.3579 153.369 57.6759V51.0457C153.369 49.0148 152.329 48.2191 150.905 48.2191C149.755 48.2191 148.776 48.9031 147.934 49.6499V57.6829C147.934 59.3718 148.523 59.5952 150.008 59.5952V60.1675H143.451V59.5952L143.444 59.5812Z"
            fill="white" />
    </g>
    <defs>
        <clipPath id="clip0_852_23604">
            <rect width="193.118" height="67" fill="white" transform="translate(0.5)" />
        </clipPath>
    </defs>
</svg>