<svg viewBox="0 0 183 67" fill="none" xmlns="http://www.w3.org/2000/svg">
    <g clip-path="url(#clip0_852_24049)">
        <path
            d="M7.0762 61.7541L8.25688 61.9484C12.7031 62.6807 19.4136 63.7941 21.6031 66.3871C21.76 66.5665 21.9244 66.7683 22.0813 66.9999C22.5446 66.3498 23.0827 65.8118 23.6132 65.4755C26.3856 63.5251 31.9004 62.6209 35.9282 61.9559L37.1238 61.7616C42.1156 60.9172 42.2127 56.1944 42.2127 56.1496V17.5532H1.9873V56.1496C1.9873 56.3439 2.18159 60.9321 7.0762 61.7616"
            fill="#1D1D1B" />
        <path
            d="M40.5461 0H39.6493L39.2533 0.814522H38.6928V0.22418H36.8247V2.78731L37.4374 3.38512V4.41635H36.5108V5.39527H34.6576V4.41635H33.7908V3.23567L34.3437 2.78731V0.22418H32.5428V0.814522H31.8778L31.4817 0H30.5925L30.1964 0.814522H29.621V0.22418H27.7753V2.78731L28.388 3.38512V4.41635H27.4614V5.39527H25.5634V4.41635H24.6965V3.23567L25.242 2.78731V0.22418H23.4635V0.814522H22.791L22.3875 0H21.4982L21.0947 0.814522H20.5043V0.22418H18.681V2.78731L19.3012 3.38512V4.41635H18.3597V5.39527H16.484V4.41635H15.6172V3.23567L16.1627 2.78731V0.22418H14.2871V0.814522H13.7042L13.3156 0H12.4189L12.0229 0.814522H11.4325V0.22418H9.59424V2.78731L10.2219 3.38512V4.42382H9.28039V5.39527H7.38981V4.41635H6.52298V3.23567L7.06848 2.78731V0.22418H5.148V0.814522H4.61744L4.22139 0H3.32467L2.92862 0.814522H2.36817V0.22418H0.5V2.78731L1.12023 3.38512V6.00803L3.58621 9.48282L3.62358 13.9515H2.47279V16.7537H41.7865V13.9216H40.3219L40.3518 9.54261L42.7804 5.9333L42.7729 3.29545L43.3857 2.78731V0.22418H41.4652V0.814522H40.9421L40.5461 0Z"
            fill="#1D1D1B" />
        <path
            d="M35.8084 61.1415C31.0259 61.9336 24.6293 62.9872 22.0961 65.7148C19.5703 62.9872 13.1737 61.9336 8.39118 61.1415L7.57666 61.007C10.1398 55.3502 15.4827 51.3523 22.1035 51.3523C28.7169 51.3523 34.4185 55.2904 36.9816 60.9547L35.8084 61.149V61.1415Z"
            fill="#D0D0D0" />
        <path
            d="M22.1037 51.3447C18.9353 51.3447 15.8939 52.2788 13.3158 54.0498C10.8498 55.7461 8.86958 58.1449 7.56934 60.9994L8.43617 61.1489C13.1365 61.926 19.5705 62.9946 22.0887 65.7147C24.6145 62.9946 31.056 61.926 35.7563 61.1489H35.8011L36.9743 60.9471C35.6965 58.1224 33.649 55.7312 31.056 54.0274C28.3957 52.2788 25.302 51.3522 22.0962 51.3522M22.0962 65.7147C19.5779 63.0021 13.1365 61.9335 8.44364 61.1489L7.57681 60.9994C8.86958 58.1449 10.8573 55.7387 13.3233 54.0498C15.9014 52.2788 18.9353 51.3447 22.1112 51.3447C25.3095 51.3447 28.4106 52.2713 31.0709 54.0199C33.6639 55.7237 35.7114 58.1224 36.9893 60.9396L35.7712 61.1414C31.0709 61.9186 24.6369 62.9872 22.1037 65.7072"
            fill="#D0D0D0" />
        <path d="M41.3905 18.3679H2.80908V43.9394H41.3905V18.3679Z" fill="#D0D0D0" />
        <path
            d="M2.80908 43.9394H41.3905V18.3679H2.80908V43.9394ZM2.80908 18.3679H41.3905V43.9394H2.80908V18.3679Z"
            fill="#D0D0D0" />
        <path
            d="M40.5908 23.9948C40.5908 23.9948 39.1934 24.5702 38.3266 24.4133C37.4822 24.2638 36.2044 24.2489 35.629 24.3834C35.6439 24.3311 35.6663 24.1742 35.6663 24.1742C35.4571 24.1891 30.0768 24.1966 27.8947 24.7346C27.8648 24.7346 27.0578 24.9065 26.6319 25.6313L26.4002 26.0648C26.2283 26.4085 26.1984 26.4832 25.7351 26.4608C25.7351 26.4608 25.1523 26.3936 24.9953 26.3711C24.9729 26.3114 24.8982 26.1096 24.8982 26.1096C24.7712 25.8331 24.5096 24.2041 24.4573 23.3223C24.3826 22.1267 24.1435 21.7231 24.1285 21.7007C23.1272 20.0194 20.721 20.4976 20.4818 20.6022C20.1904 20.7367 19.9363 20.9534 19.9289 20.9609C18.2475 21.5961 17.844 22.5825 17.8216 22.6273L17.7767 22.7544C17.7767 22.7544 19.3834 22.5451 19.6001 22.7843C18.6212 23.0981 17.0145 23.0981 17.0145 23.0981C17.306 23.9052 19.204 23.4418 19.63 23.3223C19.8317 23.2924 19.6823 23.412 19.6823 23.4194C19.0097 23.823 18.0906 24.0023 18.0906 24.0023C18.2176 24.2937 18.5688 24.4208 18.6286 24.4432C19.1592 25.0186 20.0335 25.1307 20.3025 25.1456C20.1306 26.0648 19.7196 26.2964 19.4058 26.3936C19.1667 26.4608 18.4642 26.4758 18.4642 26.4758C18.0009 26.4982 17.971 26.4234 17.7992 26.0797L17.5675 25.6463C17.1416 24.9214 16.342 24.757 16.3046 24.7496C14.1151 24.2115 8.54051 24.1966 8.48073 24.1966C8.48073 24.1966 8.55546 24.346 8.56293 24.3984C7.99501 24.2713 6.71718 24.2713 5.87277 24.4282C5.00594 24.5777 3.72064 24.0546 3.70569 24.0471L3.60107 24.0023V24.1144C3.70569 25.9004 4.66967 26.3188 4.81165 26.3786C5.5365 27.8208 6.76949 28.0226 6.96378 28.0525C7.65126 29.4424 9.12338 29.6367 9.27283 29.6516C10.2443 30.7352 11.1933 30.8024 11.3278 30.8099C12.2245 31.5721 13.4127 31.6394 13.4575 31.6468C14.698 32.2596 15.8637 31.9607 16.1776 31.8636C16.1925 31.9532 16.2673 32.1625 16.2673 32.1625C17.0295 32.2596 18.2699 32.0728 18.8603 31.8112C19.1891 31.6693 19.204 31.6842 19.2638 31.871C19.2638 31.871 19.4207 32.4016 19.4207 32.5884C19.4207 33.6645 18.539 34.6434 18.113 35.0544C17.8963 35.2636 17.7842 35.4878 17.7767 35.712C17.022 36.2351 16.3868 36.6535 16.3868 36.6535C16.2075 36.7507 16.058 36.8179 15.8936 36.7656C15.647 36.6909 15.5424 36.6236 15.5424 36.6236C15.4453 36.4966 15.1837 36.2052 14.7578 36.1603C14.5485 36.1305 14.2272 36.1603 13.8835 36.4368L13.8611 36.4592C13.8611 36.4592 13.8013 36.534 13.749 36.6012C13.6668 36.6087 13.5846 36.6162 13.5098 36.6535C12.8149 36.945 12.6654 37.7819 12.658 37.8791C12.658 37.9089 12.6505 37.9314 12.6505 37.9613C12.6505 38.178 12.785 38.3797 13.0092 38.4918C13.069 38.5217 13.1437 38.5292 13.2109 38.5367C13.1885 38.6487 13.181 38.7608 13.181 38.8654C13.181 39.1345 13.2334 39.3736 13.2632 39.4932C13.3305 39.7472 13.5472 39.9266 13.8162 39.949C14.0778 39.9639 14.3169 39.807 14.4066 39.5604C14.4066 39.5604 14.5187 39.5006 14.571 39.4782C14.5784 39.5305 14.6083 39.5754 14.6307 39.6277C14.6083 39.7398 14.5859 39.8593 14.5859 39.8593C14.5859 40.6215 15.3481 41.0101 15.7965 41.1222C16.0281 41.182 16.2747 41.0923 16.4242 40.898C16.5064 40.7934 16.5437 40.6738 16.5437 40.5393L16.4615 40.2255C16.4615 40.2255 16.4391 40.1806 16.4242 40.1507C16.4466 40.0387 16.4765 39.9266 16.4765 39.8145L16.5139 39.6127C16.5512 39.538 16.6558 39.3063 16.6857 39.0523C16.7903 38.8879 17.164 38.4993 17.3583 38.4769C17.4255 38.4694 17.4704 38.4769 17.4928 38.4769C17.4928 38.5068 17.4255 38.9476 17.5451 39.269C17.5376 39.2764 17.5301 39.2914 17.5301 39.2914C17.4181 39.4035 17.3359 39.5978 17.3359 39.7547L17.418 40.0088C17.5451 40.2479 17.8216 40.3675 18.0831 40.3077C18.6137 40.1806 18.9948 39.934 19.2115 39.5604C19.3535 39.3138 19.3908 39.0672 19.3908 38.8804C19.3908 38.7309 19.3609 38.6114 19.3535 38.574C19.3908 38.4694 19.4282 38.3648 19.4282 38.2527C19.4282 38.021 19.3609 37.7744 19.219 37.5129C19.1816 37.4456 19.0546 37.2588 18.7781 37.1094C18.8154 37.087 18.8379 37.0645 18.8677 37.0496C19.1143 37.1019 19.4207 37.0496 19.7421 36.8702C20.0559 36.6984 20.6462 36.3322 20.9153 36.1603C20.6612 37.3634 20.2203 39.7771 20.2203 39.7995V39.822L20.2278 39.8444C20.6462 40.5916 22.081 41.4062 22.1408 41.4435L22.1781 41.4585L22.2155 41.4435C23.1197 40.9578 23.8744 39.6426 23.9043 39.5903C23.9342 39.4334 23.9417 39.1942 23.9417 38.8953C23.9417 37.8492 23.8072 36.1603 23.7624 35.6597C24.0388 35.839 24.4199 36.2126 24.4274 36.2126C24.8011 36.519 25.085 36.6535 25.3241 36.6834C25.3764 36.8105 25.4586 36.9151 25.5707 36.9973C25.5707 36.9973 25.6455 37.0496 25.7277 37.1019C25.4586 37.2514 25.3241 37.4382 25.2868 37.5129C25.1523 37.7595 25.085 38.0136 25.085 38.2452C25.085 38.3573 25.1299 38.4619 25.1597 38.5665C25.1448 38.6263 25.1299 38.7384 25.1299 38.8804C25.1299 39.0672 25.1672 39.3138 25.3092 39.5604C25.5259 39.934 25.907 40.1806 26.4301 40.3077C26.6916 40.3675 26.9607 40.2479 27.0952 40.0162L27.1699 39.7248C27.1699 39.5604 27.1026 39.4035 26.9905 39.2914L27.013 38.985C27.013 38.985 26.9905 38.6861 26.9831 38.6712C26.998 38.5815 27.0204 38.5068 27.0204 38.4769C27.0503 38.4694 27.0877 38.4619 27.1549 38.4769C27.3492 38.4993 27.7154 38.8804 27.8275 39.0523C27.8499 39.3063 27.962 39.5455 27.9994 39.6127L28.0367 39.6725V39.822C28.0367 39.9714 28.0591 40.0835 28.0816 40.1732C28.0716 40.1981 28.0467 40.2628 28.0068 40.3675L27.9695 40.5393C27.9396 40.6738 28.0068 40.7934 28.089 40.898C28.2385 41.0923 28.4851 41.1745 28.7167 41.1222C29.1651 41.0101 29.9273 40.6215 29.9273 39.8593C29.9273 39.8593 29.8974 39.7472 29.8825 39.6277C29.9049 39.5754 29.9348 39.5305 29.9423 39.4782C29.9871 39.5006 30.0992 39.5604 30.0992 39.5604C30.1963 39.807 30.4354 39.9565 30.697 39.949C30.9585 39.934 31.1752 39.7547 31.2425 39.5006C31.2724 39.3811 31.3247 39.1419 31.3247 38.8729C31.3247 38.7683 31.3098 38.6562 31.2873 38.5441C31.3621 38.5441 31.4293 38.5292 31.4966 38.4993C31.7207 38.3872 31.8478 38.1854 31.8478 37.9687C31.8478 37.9388 31.8478 37.9164 31.8478 37.8865C31.8179 37.7296 31.661 36.945 30.9884 36.661C30.9137 36.6311 30.8315 36.6162 30.7493 36.6087C30.697 36.5414 30.6148 36.4443 30.6148 36.4443C30.271 36.1678 29.9497 36.1379 29.7405 36.1678C29.3295 36.2201 29.0605 36.5041 28.9633 36.6311C28.9633 36.6311 28.8587 36.7058 28.6121 36.7806C28.4402 36.8329 28.2983 36.7656 28.1189 36.6685C28.1189 36.6685 26.6244 35.6522 26.6169 35.6522C26.6169 35.6074 26.6393 35.4654 26.6393 35.443C26.6393 35.2113 26.5571 35.0021 26.4002 34.8153C25.9743 34.3295 25.3092 32.3792 25.2644 32.2671C25.2942 32.1774 25.3167 32.028 25.3466 31.8112C25.9668 32.0205 27.1699 32.2596 27.9246 32.1625C27.9246 32.1625 28.0068 31.9607 28.0143 31.871C28.3282 31.9682 29.4939 32.2596 30.7642 31.6468C30.7867 31.6468 31.9673 31.5796 32.8715 30.8249C33.006 30.8249 33.9551 30.7501 34.9265 29.6666C35.0685 29.6516 36.5481 29.4574 37.2356 28.0674C37.4224 28.045 38.6629 27.8433 39.3877 26.3936C39.5372 26.3412 40.5011 25.9078 40.5983 24.1293V24.0172L40.5908 23.9948Z"
            fill="#1D1D1B" />
        <path
            d="M6.2765 56.7251C5.62638 57.7115 5.08835 58.7651 4.64746 59.8711C5.12571 60.2522 5.70858 60.6034 6.46332 60.7828C6.8519 59.759 7.3974 58.7801 8.00269 57.8609L6.2765 56.7251Z"
            fill="#0098D3" />
        <path
            d="M6.2765 56.7252C5.64133 57.6892 5.09582 58.7503 4.64746 59.8712C5.2378 60.342 5.8132 60.626 6.46332 60.7829C6.82201 59.8488 7.32268 58.8923 8.00269 57.8611L6.2765 56.7252ZM6.46332 60.7754C5.8132 60.6185 5.2378 60.3345 4.64746 59.8638C5.09582 58.7429 5.64133 57.6817 6.2765 56.7178L8.00269 57.8536C7.32268 58.8848 6.81454 59.8414 6.46332 60.7754Z"
            fill="#0098D3" />
        <path
            d="M7.02344 55.6714L8.66743 56.9268C9.36239 56.0301 10.147 55.1931 11.0288 54.4459L9.69118 52.8691C8.69732 53.7136 7.80807 54.6476 7.03091 55.6639"
            fill="#0098D3" />
        <path
            d="M7.02344 55.6714L8.66743 56.9268C9.36239 56.0301 10.1545 55.1931 11.0288 54.4459L9.69118 52.8691C8.70479 53.7061 7.81554 54.6476 7.03091 55.6639M8.66743 56.9268L7.02344 55.6714C7.80807 54.6476 8.69732 53.7061 9.68371 52.8766L11.0213 54.4533C10.147 55.2006 9.35491 56.0376 8.65995 56.9343"
            fill="#0098D3" />
        <path
            d="M10.6929 52.0696L11.9184 53.7285C12.8301 53.056 13.8239 52.4656 14.8776 51.9799L14.0107 50.1042C12.8301 50.6498 11.7166 51.3073 10.6929 52.0696Z"
            fill="#0098D3" />
        <path
            d="M10.6929 52.0696L11.9184 53.7285C12.845 53.0485 13.8389 52.4581 14.8776 51.9874L14.0107 50.1042C12.8375 50.6423 11.7241 51.3073 10.6929 52.0696ZM11.9184 53.736L10.6929 52.077C11.7241 51.3148 12.8375 50.6572 14.0107 50.1117L14.8776 51.9948C13.8463 52.4731 12.845 53.056 11.9184 53.736Z"
            fill="#0098D3" />
        <path
            d="M15.1914 49.6112L15.9312 51.5466C16.9848 51.1431 18.0983 50.8367 19.2491 50.6499L18.9053 48.6099C17.6126 48.8266 16.3721 49.1703 15.1914 49.6187"
            fill="#0098D3" />
        <path
            d="M15.1914 49.6111L15.9312 51.5465C16.9998 51.1355 18.1207 50.8366 19.2491 50.6498L18.9053 48.6098C17.6574 48.819 16.4095 49.1553 15.1914 49.6186M15.9312 51.5465L15.1914 49.6111C16.4095 49.1478 17.6574 48.8115 18.9053 48.6023L19.2491 50.6423C18.1207 50.8291 16.9998 51.1355 15.9312 51.5391"
            fill="#0098D3" />
        <path
            d="M24.9655 50.6126C26.1163 50.7994 27.2297 51.0908 28.2833 51.4869L29.0082 49.5514C27.82 49.1105 26.5796 48.7743 25.2868 48.5725L24.958 50.6126H24.9655Z"
            fill="#0098D3" />
        <path
            d="M24.9655 50.6126C26.1237 50.7994 27.2446 51.0983 28.2833 51.4869L29.0082 49.5514C27.7976 49.1031 26.5422 48.7743 25.2868 48.5725L24.958 50.6126H24.9655ZM28.2908 51.4869C27.2521 51.0908 26.1312 50.7994 24.973 50.6126L25.3018 48.5725C26.5572 48.7743 27.8126 49.1031 29.0231 49.5514L28.2983 51.4869H28.2908Z"
            fill="#0098D3" />
        <path
            d="M30.2039 50.0447L29.3521 51.9203C30.4057 52.3986 31.3921 52.9814 32.3112 53.654L33.5367 51.9876C32.5055 51.2328 31.3921 50.5827 30.2114 50.0447"
            fill="#0098D3" />
        <path
            d="M30.2036 50.0447L29.3517 51.9278C30.4128 52.4135 31.4067 52.9964 32.3109 53.6614L33.5364 51.995C32.5127 51.2403 31.3918 50.5902 30.2111 50.0522M32.3034 53.6614C31.3992 52.9964 30.4054 52.4135 29.3442 51.9278L30.1961 50.0447C31.3768 50.5827 32.4977 51.2328 33.5215 51.9876L32.2959 53.654L32.3034 53.6614Z"
            fill="#0098D3" />
        <path
            d="M34.5378 52.7871L33.2002 54.3638C34.0745 55.1036 34.8666 55.9331 35.5616 56.8373L37.2055 55.5819C36.4209 54.5656 35.5242 53.624 34.5378 52.7871Z"
            fill="#0098D3" />
        <path
            d="M34.5378 52.7871L33.2002 54.3638C34.0745 55.0962 34.8666 55.9331 35.5616 56.8373L37.2055 55.5819C36.4209 54.5656 35.5242 53.624 34.5378 52.7871ZM35.5616 56.8373C34.8666 55.9331 34.0745 55.1036 33.2002 54.3638L34.5378 52.7871C35.5242 53.624 36.4209 54.5656 37.2055 55.5819L35.5616 56.8373Z"
            fill="#0098D3" />
        <path
            d="M36.2266 57.7714C36.8468 58.7055 37.4521 59.7218 37.8407 60.7829C38.6178 60.5886 39.1558 60.215 39.5967 59.8414C39.1633 58.713 38.6103 57.6444 37.9602 56.6431L36.234 57.7789L36.2266 57.7714Z"
            fill="#0098D3" />
        <path
            d="M36.2266 57.7712C36.7571 58.5708 37.4222 59.6394 37.8407 60.7827C38.6552 60.5735 39.2082 60.17 39.5967 59.8412C39.1633 58.7203 38.6103 57.6442 37.9527 56.6429L36.2266 57.7787V57.7712ZM37.8407 60.7753C37.4147 59.6319 36.7571 58.5708 36.2266 57.7638L37.9527 56.6279C38.6103 57.6293 39.1633 58.7053 39.5967 59.8262C39.2082 60.155 38.6552 60.5586 37.8407 60.7678"
            fill="#0098D3" />
        <path d="M7.10587 45.1125H2.80908V47.0405H7.10587V45.1125Z" fill="#0098D3" />
        <path
            d="M2.80908 47.0405H7.10587V45.1125H2.80908V47.0405ZM2.80908 45.1125H7.10587V47.0405H2.80908V45.1125Z"
            fill="#0098D3" />
        <path d="M12.8597 45.1125H8.34619V47.0405H12.8597V45.1125Z" fill="#0098D3" />
        <path
            d="M8.34619 47.0405H12.8597V45.1125H8.34619V47.0405ZM8.34619 45.1125H12.8597V47.0405H8.34619V45.1125Z"
            fill="#0098D3" />
        <path d="M18.6214 45.1125H14.1079V47.0405H18.6214V45.1125Z" fill="#0098D3" />
        <path
            d="M14.1079 47.0405H18.6214V45.1125H14.1079V47.0405ZM14.1079 45.1125H18.6214V47.0405H14.1079V45.1125Z"
            fill="#0098D3" />
        <path
            d="M19.8693 47.0106L20.3849 50.4928C20.7212 50.4555 21.0574 50.433 21.3937 50.4181C21.6627 50.4032 21.9317 50.4031 22.1933 50.4031C22.7463 50.4031 23.2918 50.433 23.8223 50.4779L24.3753 47.018V45.1274H19.8618V47.018L19.8693 47.0106Z"
            fill="#0098D3" />
        <path
            d="M19.8693 47.0106L20.3849 50.4854C20.6838 50.4555 21.0051 50.4331 21.3937 50.4107C21.6403 50.3957 21.9019 50.3957 22.1933 50.3957C22.7014 50.3957 23.232 50.4181 23.8223 50.4705L24.3753 47.0106V45.1125H19.8618V47.0106H19.8693ZM20.3849 50.4854L19.8693 47.0106V45.1125H24.3828V47.0106L23.8298 50.4705C23.2395 50.4181 22.7089 50.3957 22.2008 50.3957C21.9093 50.3957 21.6478 50.3957 21.4012 50.4107C21.0126 50.4331 20.6913 50.4555 20.3924 50.4854"
            fill="#0098D3" />
        <path d="M30.144 45.1125H25.623V47.0405H30.144V45.1125Z" fill="#0098D3" />
        <path
            d="M25.623 47.0405H30.144V45.1125H25.623V47.0405ZM25.623 45.1125H30.144V47.0405H25.623V45.1125Z"
            fill="#0098D3" />
        <path d="M35.8983 45.1125H31.3848V47.0405H35.8983V45.1125Z" fill="#0098D3" />
        <path
            d="M31.3848 47.0405H35.8983V45.1125H31.3848V47.0405ZM31.3848 45.1125H35.8983V47.0405H31.3848V45.1125Z"
            fill="#0098D3" />
        <path d="M41.3905 45.1125H37.146V47.0405H41.3905V45.1125Z" fill="#0098D3" />
        <path
            d="M37.146 47.0405H41.3905V45.1125H37.146V47.0405ZM37.146 45.1125H41.3905V47.0405H37.146V45.1125Z"
            fill="#0098D3" />
        <path d="M7.10587 51.5391H2.80908V53.4595H7.10587V51.5391Z" fill="#0098D3" />
        <path
            d="M2.80908 53.4595H7.10587V51.5391H2.80908V53.4595ZM2.80908 51.5391H7.10587V53.4595H2.80908V51.5391Z"
            fill="#0098D3" />
        <path d="M9.69127 51.5391H8.34619V52.6749C8.77213 52.2714 9.22049 51.8978 9.69127 51.5391Z"
            fill="#0098D3" />
        <path
            d="M8.34619 51.5391V52.6749C8.74972 52.2938 9.1906 51.9202 9.69127 51.5391H8.34619ZM8.34619 52.6749V51.5391H9.69127C9.19808 51.9276 8.75719 52.2938 8.34619 52.6749Z"
            fill="#0098D3" />
        <path d="M34.6274 51.5391C35.0758 51.8828 35.4943 52.2415 35.8978 52.6226V51.5391H34.6274Z"
            fill="#0098D3" />
        <path
            d="M34.6201 51.539C35.061 51.8827 35.4944 52.2414 35.8905 52.6225V51.539H34.6201ZM35.8979 52.615C35.4944 52.2414 35.0685 51.8752 34.6276 51.5315H35.8979V52.615Z"
            fill="#0098D3" />
        <path d="M41.3905 51.5391H37.146V53.4595H41.3905V51.5391Z" fill="#0098D3" />
        <path
            d="M37.146 53.4595H41.3905V51.5391H37.146V53.4595ZM37.146 51.5391H41.3905V53.4595H37.146V51.5391Z"
            fill="#0098D3" />
        <path
            d="M3.39209 58.3242C3.54154 58.6157 3.72836 58.9071 3.96001 59.191C4.0721 58.8996 4.19914 58.6082 4.32617 58.3242H3.39956H3.39209Z"
            fill="#0098D3" />
        <path
            d="M3.39209 58.3242C3.54902 58.6306 3.74331 58.922 3.96001 59.191C4.0721 58.9146 4.18419 58.6306 4.32617 58.3242H3.39956H3.39209ZM3.96001 59.191C3.74331 58.922 3.54902 58.6306 3.39209 58.3242H4.3187C4.18419 58.6306 4.06463 58.9146 3.95254 59.191"
            fill="#0098D3" />
        <path
            d="M40.3146 59.1014C40.5164 58.8473 40.6808 58.5858 40.8078 58.3242H39.9858C40.0979 58.5783 40.2025 58.8398 40.3072 59.1014"
            fill="#0098D3" />
        <path
            d="M40.8153 58.3241H39.9933C40.0979 58.5558 40.1951 58.7949 40.2922 59.0266L40.3221 59.0938C40.5164 58.8547 40.6808 58.5931 40.8228 58.3167M40.3146 59.1013L40.2847 59.0266C40.1876 58.7949 40.0905 58.5558 39.9858 58.3241H40.8078C40.6659 58.6006 40.5015 58.8622 40.3072 59.1013H40.3146Z"
            fill="#0098D3" />
        <path d="M4.33351 48.2361H2.80908V50.164H4.33351V48.2361Z" fill="#0098D3" />
        <path
            d="M2.80908 50.164H4.33351V48.2361H2.80908V50.164ZM2.80908 48.2361H4.33351V50.164H2.80908V48.2361Z"
            fill="#0098D3" />
        <path d="M41.3902 48.2361H40.0825V50.164H41.3902V48.2361Z" fill="#0098D3" />
        <path d="M40.0825 50.164V48.2361H41.3902V50.164H40.0825Z" fill="#0098D3" />
        <path d="M10.095 48.2361H5.58154V50.164H10.095V48.2361Z" fill="#0098D3" />
        <path
            d="M5.58154 50.164H10.095V48.2361H5.58154V50.164ZM5.58154 48.2361H10.095V50.164H5.58154V48.2361Z"
            fill="#0098D3" />
        <path
            d="M11.3429 50.164H11.739L11.8137 50.1192C14.2423 48.8339 15.8489 48.3781 15.8489 48.3781V48.2361H11.3354V50.164H11.3429Z"
            fill="#0098D3" />
        <path
            d="M11.3428 50.164H11.7463L11.821 50.1192C14.2198 48.8488 15.8413 48.3855 15.8563 48.3781V48.2361H11.3428V50.164ZM11.3428 50.164V48.2361H15.8563V48.3781C15.8563 48.3781 14.2198 48.8488 11.821 50.1192L11.7463 50.164H11.3428Z"
            fill="#0098D3" />
        <path
            d="M28.6198 48.4304C28.6198 48.4304 30.0172 48.819 32.4906 50.1192L32.5654 50.164H33.1258V48.2361H28.6123V48.4304H28.6198Z"
            fill="#0098D3" />
        <path
            d="M28.6198 48.4304C28.6198 48.4304 30.0471 48.8339 32.4906 50.1192L32.5654 50.164H33.1258V48.2361H28.6123V48.4304H28.6198ZM32.5728 50.164L32.4981 50.1192C30.0471 48.8339 28.6347 48.4378 28.6273 48.4304V48.2361H33.1407V50.164H32.5803H32.5728Z"
            fill="#0098D3" />
        <path d="M38.8948 48.2361H34.3813V50.164H38.8948V48.2361Z" fill="#0098D3" />
        <path
            d="M34.3813 50.164H38.8948V48.2361H34.3813V50.164ZM34.3813 48.2361H38.8948V50.164H34.3813V48.2361Z"
            fill="#0098D3" />
        <path
            d="M4.33351 54.842H2.80908V56.1498C2.80908 56.1498 2.80908 56.4188 2.87634 56.77H4.34098V54.842H4.33351Z"
            fill="#0098D3" />
        <path
            d="M2.80908 54.8345V56.1422C2.80908 56.1422 2.80908 56.3888 2.87634 56.7624H4.34098V54.8345H2.81655H2.80908ZM2.87634 56.7624C2.81655 56.3888 2.80908 56.1497 2.80908 56.1422V54.8345H4.33351V56.7624H2.86886H2.87634Z"
            fill="#0098D3" />
        <path
            d="M40.083 56.7624H41.3235C41.3833 56.4112 41.3907 56.1796 41.3907 56.1422V54.8345H40.083V56.7624Z"
            fill="#0098D3" />
        <path
            d="M40.083 56.7624H41.3235C41.3907 56.3888 41.3907 56.1497 41.3907 56.1422V54.8345H40.083V56.7624ZM40.083 56.7624V54.8345H41.3907V56.1422C41.3907 56.1422 41.3907 56.3813 41.3235 56.7624H40.083Z"
            fill="#0098D3" />
        <path d="M5.58154 55.9927C5.83561 55.5967 6.10463 55.2081 6.39606 54.8345H5.58154V55.9927Z"
            fill="#0098D3" />
        <path
            d="M6.39606 54.8345H5.58154V55.9853C5.82814 55.5967 6.10463 55.2081 6.39606 54.8345ZM5.58154 55.9927V54.8345H6.39606C6.10463 55.2156 5.82814 55.6042 5.58154 55.9927Z"
            fill="#0098D3" />
        <path d="M38.8944 54.842H37.9155C38.2667 55.2979 38.5881 55.7687 38.8944 56.2619V54.842Z"
            fill="#0098D3" />
        <path
            d="M37.9155 54.842C38.2667 55.2979 38.5881 55.7612 38.8944 56.2619V54.842H37.9155ZM38.8944 56.2619C38.5806 55.7612 38.2593 55.2979 37.9155 54.842H38.8944V56.2619Z"
            fill="#0098D3" />
        <path
            d="M24.5546 27.8358C24.5546 27.8358 23.882 25.8854 23.6877 23.8379C23.4935 21.7904 23.3066 20.8712 20.8182 21.3196C20.8182 21.3196 20.1457 21.4915 20.7136 22.149C21.147 22.6422 21.6776 23.2027 21.3189 24.6748C21.0873 25.6388 21.0349 26.954 19.4283 27.3052C19.107 27.3724 18.7334 27.4098 18.2775 27.3949C18.2775 27.3949 17.605 27.3949 17.2164 26.8867C16.8353 26.3711 16.5439 25.8331 16.5439 25.8331C16.5439 25.8331 16.4467 25.3548 14.6309 25.2577C12.8075 25.1605 11.2906 24.9289 9.78857 25.0858C9.78857 25.0858 10.0426 25.7882 11.4475 25.9227L10.6106 26.259C10.6106 26.259 10.8572 26.7223 12.1425 27.0436C12.1425 27.0436 11.8735 27.3052 11.582 27.3351C11.582 27.3351 12.6805 28.6802 14.5188 28.6802C14.5188 28.6802 14.3095 29.0314 14.3768 29.3826C14.3768 29.3826 15.4753 29.7189 16.9474 29.5321C16.9474 29.5321 16.656 30.0776 16.6933 30.3316C16.6933 30.3316 17.5303 30.2644 18.3597 29.9132C18.3597 29.9132 17.1267 31.2657 17.0894 31.3927C17.0894 31.3927 17.5975 31.587 19.0696 30.9743C19.0696 30.9743 19.2415 30.8547 19.4209 30.8547C19.5554 30.8547 19.6675 30.9294 19.7721 31.1686C19.9514 31.5721 20.198 32.2372 20.1606 32.8948C20.1382 33.2833 19.9066 34.7181 18.7857 35.555C18.7857 35.555 19.3013 35.712 19.3013 36.0407C19.3013 36.0407 21.1844 35.1739 21.5057 35.1141C21.5057 35.1141 22.1185 35.8166 22.5295 35.4654C22.948 35.1141 25.4513 32.3194 24.5471 27.8507M11.4625 25.594C11.4625 25.594 12.2247 25.6612 12.8225 25.5491C13.4203 25.437 14.601 25.5491 15.0344 26.2889C15.0344 26.2889 11.6493 26.7298 11.4625 25.594ZM12.2695 26.6327C12.2695 26.6327 13.0766 26.7746 13.906 26.7298C14.743 26.685 15.3856 26.6625 15.8863 27.3052C15.8863 27.3052 15.1241 27.3724 14.7803 27.4173C14.4291 27.4621 12.4264 27.4621 12.2695 26.6327ZM13.7192 27.7386C13.7192 27.7386 14.3693 27.8806 14.9447 27.8059C15.5201 27.7386 16.372 27.5966 17.0221 28.2243C17.0221 28.2243 16.5588 28.3364 16.372 28.4111C16.1852 28.4784 14.459 28.8072 13.7192 27.7386ZM15.3557 28.867C15.3557 28.867 15.8863 28.9865 16.9698 28.7325C16.9698 28.7325 17.4107 28.5232 17.9562 28.598C17.9562 28.598 17.6797 28.7773 17.5228 28.9417C17.3584 29.0986 16.0955 29.6367 15.3557 28.867ZM17.3808 29.547C17.3808 29.547 18.4643 29.009 18.6512 28.7923C18.6512 28.7923 18.6512 28.9791 18.6811 29.1435C18.6811 29.1435 18.8679 29.2033 19.1593 29.1211C19.1593 29.1211 18.2178 29.9879 17.3808 29.5545M21.8943 23.0009C21.5655 23.0009 21.304 22.7319 21.304 22.4106C21.304 22.0893 21.573 21.8203 21.8943 21.8203C22.2156 21.8203 22.4772 22.0893 22.4772 22.4106C22.4772 22.7319 22.2156 23.0009 21.8943 23.0009Z"
            fill="#0098D3" />
        <path
            d="M21.8945 21.8203C21.5657 21.8203 21.3041 22.0818 21.3041 22.4106C21.3041 22.7394 21.5731 23.0009 21.8945 23.0009C22.2158 23.0009 22.4773 22.7394 22.4773 22.4106C22.4773 22.0818 22.2158 21.8203 21.8945 21.8203ZM21.8945 23.0009C21.5657 23.0009 21.3041 22.7394 21.3041 22.4106C21.3041 22.0818 21.5731 21.8203 21.8945 21.8203C22.2158 21.8203 22.4773 22.0818 22.4773 22.4106C22.4773 22.7394 22.2158 23.0009 21.8945 23.0009ZM11.4626 25.594C11.6419 26.7074 14.9972 26.2889 15.0345 26.2889C14.6161 25.579 13.4653 25.4296 12.8226 25.5491C12.2323 25.6612 11.4775 25.594 11.4626 25.594ZM13.6596 26.3711C12.6956 26.3711 11.5672 26.2366 11.4626 25.594C11.4701 25.594 12.2323 25.6612 12.8226 25.5491C13.4653 25.4296 14.6161 25.579 15.0345 26.2889C15.0196 26.2889 14.3919 26.3711 13.6596 26.3711ZM12.2697 26.6327C12.4266 27.4472 14.3769 27.4696 14.7805 27.4173C15.1167 27.3724 15.879 27.3052 15.8864 27.3052C15.3708 26.6476 14.6908 26.685 13.9062 26.7298C13.0916 26.7746 12.2921 26.6401 12.2697 26.6327ZM14.4218 27.4322C13.7193 27.4322 12.3967 27.2902 12.2697 26.6327C12.2771 26.6327 13.0842 26.7672 13.9062 26.7298C14.6908 26.685 15.3708 26.6476 15.8864 27.3052C15.879 27.3052 15.1242 27.3724 14.7805 27.4173C14.7057 27.4248 14.5787 27.4322 14.4218 27.4322ZM13.7193 27.7386C14.4517 28.7848 16.1704 28.4859 16.3721 28.4112C16.5515 28.3439 17.0148 28.2318 17.0223 28.2243C16.402 27.6265 15.6025 27.7311 15.0271 27.7984H14.9523C14.3844 27.8806 13.7492 27.7386 13.7268 27.7386M15.5427 28.5083C14.9374 28.5083 14.1528 28.3588 13.7193 27.7386C13.7268 27.7386 14.3695 27.8806 14.9449 27.8059H15.0196C15.6025 27.7237 16.402 27.6265 17.0148 28.2243C17.0148 28.2243 16.5515 28.3364 16.3647 28.4112C16.2825 28.441 15.9537 28.5083 15.5352 28.5083M15.3559 28.867C15.6099 29.1285 15.9462 29.263 16.3647 29.2705H16.3796C16.9177 29.2705 17.4183 29.0389 17.5229 28.9417C17.6799 28.7773 17.9564 28.598 17.9564 28.598C17.8742 28.5905 17.7994 28.583 17.7247 28.583C17.2913 28.583 16.97 28.7325 16.9625 28.7325C15.9014 28.9791 15.3633 28.8745 15.3484 28.867M16.3796 29.2705H16.3647C15.9537 29.2705 15.6099 29.136 15.3559 28.867C15.3559 28.867 15.8939 28.9791 16.97 28.7325C16.97 28.7325 17.4183 28.5232 17.9564 28.598C17.9564 28.598 17.6799 28.7848 17.5229 28.9417C17.4258 29.0389 16.9177 29.2705 16.3796 29.2705ZM17.381 29.547C18.2104 29.9729 19.152 29.1211 19.1595 29.1136C18.868 29.1958 18.6812 29.1435 18.6812 29.1435C18.6513 28.9865 18.6513 28.7923 18.6513 28.7923C18.4645 29.0015 17.4034 29.5395 17.381 29.547ZM17.8816 29.6666C17.7172 29.6666 17.5454 29.6292 17.381 29.547C17.3959 29.547 18.4645 29.009 18.6513 28.7923C18.6513 28.7923 18.6513 28.9865 18.6812 29.1435C18.6812 29.1435 18.8755 29.1958 19.1595 29.1136C19.1595 29.1136 18.5467 29.6666 17.8816 29.6666ZM19.4434 30.8472C19.5854 30.8472 19.69 30.9444 19.7797 31.1611C20.0711 31.8037 20.1982 32.3866 20.1683 32.8873C20.1683 32.9022 20.0636 34.5985 18.7933 35.5476C18.7933 35.5476 19.3089 35.712 19.3089 36.0333C19.3239 36.0258 21.1995 35.1664 21.5133 35.1067C21.5133 35.1067 22.1261 35.8091 22.5371 35.4579C22.7463 35.2785 23.4787 34.479 24.0391 33.1937C24.764 31.5273 24.9358 29.7263 24.5473 27.8432C24.5473 27.8208 23.8747 25.8704 23.6804 23.8453C23.5758 22.6796 23.4637 21.8875 22.9481 21.4989C22.5371 21.1851 21.8795 21.1328 20.8109 21.3271C20.8109 21.3271 20.5718 21.3868 20.5045 21.5737C20.4448 21.7306 20.512 21.9249 20.7063 22.1565L20.7362 22.1939C21.1696 22.6871 21.6553 23.2475 21.3116 24.6823C21.2817 24.8018 21.2593 24.9289 21.2294 25.0559C21.0351 25.9676 20.8259 26.9988 19.421 27.3127C19.0847 27.3874 18.7036 27.4173 18.2702 27.4023C18.2702 27.4023 17.5902 27.4023 17.2091 26.8942C16.828 26.3861 16.5365 25.8406 16.5365 25.8406C16.5365 25.8406 16.417 25.3623 14.6235 25.2652C14.093 25.2353 13.5923 25.1979 13.1066 25.1605C11.9483 25.0709 10.8498 24.9812 9.78125 25.1008C9.78125 25.1008 10.0503 25.8032 11.4402 25.9377L10.6032 26.274C10.6032 26.274 10.8648 26.7447 12.1351 27.0586C12.1351 27.0586 11.8587 27.3201 11.5747 27.35C11.5822 27.365 12.6956 28.6951 14.5115 28.6951C14.5115 28.6951 14.3022 29.0463 14.3695 29.405C14.3844 29.405 15.4904 29.7413 16.9401 29.5545C16.9401 29.5545 16.6486 30.1 16.686 30.354C16.6935 30.354 17.5304 30.2868 18.3524 29.9356C18.3375 29.9505 17.1194 31.2881 17.0821 31.4152C17.0895 31.4152 17.6126 31.602 19.0623 30.9967C19.0623 30.9967 19.2342 30.8771 19.4135 30.8771H19.421M19.3089 36.0258C19.3089 35.7045 18.8008 35.5476 18.7933 35.5401C20.0636 34.5911 20.1683 32.9022 20.1683 32.8798C20.1982 32.3791 20.0711 31.8037 19.7797 31.1536C19.69 30.9369 19.5854 30.8398 19.4434 30.8398H19.4359C19.2566 30.8398 19.0847 30.9593 19.0847 30.9593C17.635 31.5571 17.1045 31.3778 17.1045 31.3778C17.1418 31.2508 18.3599 29.9057 18.3748 29.8982C17.5528 30.2494 16.7159 30.3167 16.7084 30.3167C16.6785 30.0626 16.9625 29.5246 16.9625 29.5171C15.5053 29.7039 14.4068 29.3677 14.3919 29.3677C14.3246 29.0164 14.5339 28.6652 14.5339 28.6577C12.7105 28.6577 11.6046 27.3201 11.5971 27.3127C11.8811 27.2828 12.1501 27.0287 12.1576 27.0212C10.8947 26.7074 10.6257 26.2441 10.6257 26.2366L11.4626 25.9003C10.0727 25.7658 9.80367 25.0709 9.80367 25.0634C10.8723 24.9513 11.9633 25.0335 13.129 25.1232C13.6147 25.1605 14.1154 25.1979 14.646 25.2278C16.4469 25.3249 16.559 25.7957 16.559 25.8032C16.559 25.8032 16.8504 26.3487 17.2315 26.8568C17.6126 27.365 18.2852 27.365 18.2926 27.365C18.726 27.3799 19.1071 27.35 19.4434 27.2753C20.8408 26.9615 21.0575 25.9302 21.2518 25.0186C21.2817 24.884 21.3041 24.7645 21.334 24.6449C21.6777 23.2102 21.192 22.6497 20.7586 22.1565L20.7287 22.1192C20.5045 21.8651 20.4448 21.6484 20.5494 21.484C20.639 21.342 20.8259 21.2897 20.8333 21.2897C21.8945 21.0954 22.5595 21.1477 22.9705 21.4616C23.4861 21.8501 23.5982 22.6422 23.7028 23.808C23.8897 25.8331 24.5622 27.7834 24.5697 27.8059C24.9583 29.6964 24.7789 31.4974 24.0615 33.1563C23.5011 34.4416 22.7688 35.2412 22.5595 35.4205C22.1485 35.7717 21.5432 35.0768 21.5358 35.0693C21.2219 35.1291 19.3463 35.9884 19.3313 35.9959"
            fill="#0098D3" />
        <path
            d="M24.7116 33.0815C24.4575 34.0082 23.9419 34.8376 23.9419 34.8376C24.3604 35.0319 24.8685 35.6073 24.8685 35.6073C25.414 36.2126 25.7652 35.7642 25.7951 35.5401C25.825 35.3159 25.6681 35.0618 25.6681 35.0618C25.0927 34.4266 24.7116 33.0815 24.7116 33.0815Z"
            fill="#0098D3" />
        <path
            d="M24.7116 33.0815C24.4575 34.0007 23.9494 34.8301 23.9419 34.8376C24.3529 35.0319 24.861 35.5998 24.8685 35.6073C25.1525 35.9212 25.3617 35.9361 25.4962 35.8987C25.6756 35.8464 25.7802 35.6596 25.7951 35.5475C25.825 35.3308 25.6681 35.0693 25.6681 35.0693C25.1076 34.4416 24.7191 33.1114 24.7116 33.089M25.3916 35.9137C25.2646 35.9137 25.0852 35.8464 24.8685 35.6073C24.8685 35.6073 24.3529 35.0319 23.9419 34.8376C23.9419 34.8301 24.4575 33.9932 24.7116 33.0815C24.7116 33.0965 25.1002 34.4341 25.6681 35.0618C25.6681 35.0618 25.825 35.3233 25.7951 35.5401C25.7802 35.6521 25.6756 35.839 25.4962 35.8913C25.4663 35.8987 25.429 35.9062 25.3916 35.9062"
            fill="#0098D3" />
        <path
            d="M9.6767 26.0423C9.06394 25.0185 7.4349 24.8616 6.60543 25.0185C5.77596 25.1755 4.71484 25.0783 4.71484 25.0783C4.96891 26.6476 9.6767 26.0423 9.6767 26.0423Z"
            fill="#0098D3" />
        <path
            d="M4.7145 25.0784C4.78923 25.5267 5.29737 26.0722 7.29258 26.147C7.44203 26.147 7.59896 26.1544 7.74094 26.1544C8.75722 26.1544 9.65394 26.0424 9.66889 26.0424C9.07855 25.056 7.48687 24.8467 6.59762 25.0186C5.77562 25.1755 4.72198 25.0784 4.70703 25.0784M7.74841 26.1544C7.59896 26.1544 7.4495 26.1544 7.30005 26.147C5.30485 26.0722 4.7967 25.5267 4.72198 25.0784C4.72945 25.0784 5.79057 25.1755 6.61256 25.0186C7.50181 24.8467 9.09349 25.056 9.68383 26.0424C9.67636 26.0424 8.77217 26.1544 7.75588 26.1544"
            fill="#0098D3" />
        <path
            d="M9.31772 27.6116C9.79597 27.5518 10.8571 27.4547 10.8571 27.4547C10.1547 26.558 9.25793 26.5879 8.10714 26.6551C6.95635 26.7149 5.83545 26.5281 5.83545 26.5281C6.05963 27.6789 8.84694 27.6789 9.32519 27.6116"
            fill="#0098D3" />
        <path
            d="M5.83545 26.5205C6.05963 27.6489 8.76474 27.6862 9.32519 27.604C9.79597 27.5443 10.8571 27.4471 10.8646 27.4471C10.1472 26.5355 9.20563 26.5878 8.11461 26.6475C6.97877 26.7148 5.85039 26.5205 5.84292 26.5205M8.8021 27.6339C7.82318 27.6339 6.01479 27.4396 5.83545 26.5205C5.85039 26.5205 6.9713 26.7073 8.10714 26.6475C9.19815 26.5878 10.1397 26.5355 10.8571 27.4471C10.8496 27.4471 9.79597 27.5443 9.31772 27.604C9.2131 27.619 9.02628 27.6339 8.79463 27.6339"
            fill="#0098D3" />
        <path
            d="M11.5296 28.9864C11.7837 28.8893 12.4263 28.7324 12.4263 28.7324C11.5296 27.8655 10.3414 28.0598 9.54932 28.157C8.74975 28.2541 7.85303 28.0598 7.85303 28.0598C8.87678 29.5319 11.2755 29.0836 11.5296 28.9864Z"
            fill="#0098D3" />
        <path
            d="M7.85318 28.0525C8.86199 29.5022 11.2458 29.0837 11.5297 28.9791C11.7838 28.882 12.419 28.725 12.4265 28.725C11.5746 27.8956 10.4611 28.0375 9.65409 28.1347L9.542 28.1496C8.7499 28.2393 7.85318 28.0525 7.8457 28.0525M10.3789 29.1211C9.53453 29.1211 8.45099 28.9193 7.85318 28.0525C7.86065 28.0525 8.75737 28.2393 9.54947 28.1496L9.66156 28.1347C10.4686 28.0301 11.5746 27.8956 12.4339 28.725C12.4339 28.725 11.7913 28.882 11.5372 28.9791C11.4251 29.0239 10.9618 29.1136 10.3864 29.1136"
            fill="#0098D3" />
        <path
            d="M13.734 29.2405C12.9643 29.1434 12.359 29.4348 12.359 29.4348C10.857 29.786 10.1172 29.6291 10.1172 29.6291C11.1409 30.6828 12.897 29.9504 13.1212 29.7263C13.3454 29.5021 13.7265 29.248 13.7265 29.248"
            fill="#0098D3" />
        <path
            d="M10.1247 29.6291C10.4759 29.9953 10.9541 30.1821 11.5295 30.1821H11.5445C12.2917 30.1821 13.0016 29.8608 13.1361 29.7188C13.3603 29.5021 13.734 29.248 13.7414 29.2405C12.9867 29.1509 12.3739 29.4348 12.3665 29.4348C10.8794 29.7786 10.1321 29.6291 10.1247 29.6291ZM11.537 30.1821H11.5221C10.9467 30.1821 10.4759 29.9953 10.1172 29.6291C10.1172 29.6291 10.8719 29.786 12.359 29.4348C12.359 29.4348 12.9717 29.1434 13.734 29.2405C13.734 29.2405 13.3454 29.5021 13.1287 29.7188C12.9942 29.8608 12.2843 30.1821 11.537 30.1821Z"
            fill="#0098D3" />
        <path
            d="M14.377 29.9805C13.6073 30.369 12.3594 30.653 12.3594 30.653C13.4803 31.617 15.6249 30.1075 15.6249 30.1075C15.0869 30.2047 14.377 29.9805 14.377 29.9805Z"
            fill="#0098D3" />
        <path
            d="M14.377 29.9804C13.6148 30.3615 12.3743 30.6454 12.3594 30.6454C13.4653 31.5945 15.6025 30.1149 15.6249 30.0999C15.5278 30.1149 15.4306 30.1224 15.326 30.1224C14.8627 30.1224 14.3845 29.9729 14.377 29.9729M13.3084 30.9668C12.9647 30.9668 12.6359 30.8771 12.3668 30.6454C12.3818 30.6454 13.6223 30.354 14.3845 29.9804C14.3845 29.9804 14.8702 30.1298 15.3335 30.1298C15.4381 30.1298 15.5353 30.1298 15.6324 30.1074C15.6175 30.1224 14.3845 30.9668 13.3159 30.9668"
            fill="#0098D3" />
        <path
            d="M16.1028 30.7425C16.073 30.5557 16.073 30.3315 16.073 30.3315C15.8488 30.5856 14.5635 31.2283 14.5635 31.2283C15.5573 31.7439 16.6782 30.7201 16.6782 30.7201C16.327 30.8098 16.1028 30.75 16.1028 30.75"
            fill="#0098D3" />
        <path
            d="M16.073 30.3315C15.8488 30.5856 14.5784 31.2208 14.5635 31.2283C15.5424 31.7364 16.6633 30.7276 16.6782 30.7201C16.327 30.8098 16.1028 30.75 16.1028 30.75C16.073 30.5632 16.073 30.339 16.073 30.339M15.1688 31.3702C14.967 31.3702 14.7652 31.3329 14.5709 31.2283C14.5859 31.2283 15.8562 30.5856 16.0804 30.3315C16.0804 30.3315 16.0804 30.5632 16.1103 30.7425C16.1103 30.7425 16.342 30.8023 16.6857 30.7126C16.6782 30.7201 15.9609 31.3702 15.1688 31.3702Z"
            fill="#0098D3" />
        <path
            d="M20.9977 39.6724C21.2443 39.9489 21.5582 40.2777 21.7898 40.3749L21.9841 36.3023C21.8122 36.1379 21.7001 35.9211 21.7001 35.9211C21.2518 37.6548 20.9902 39.665 20.9902 39.665"
            fill="#0098D3" />
        <path
            d="M21.7898 40.3749C21.5656 40.2777 21.2443 39.9489 20.9977 39.6724C21.2443 39.9489 21.5582 40.2777 21.7898 40.3749L21.9841 36.3023C21.8122 36.1379 21.7001 35.9286 21.7001 35.9211C21.2667 37.6025 21.0052 39.5828 20.9902 39.665C21.0052 39.5828 21.2593 37.6025 21.7001 35.9211C21.7001 35.9211 21.8122 36.1379 21.9841 36.3023L21.7898 40.3749Z"
            fill="#0098D3" />
        <path
            d="M22.552 36.3397L22.4399 40.4048C22.7837 40.0835 23.1947 39.4034 23.1947 39.4034C23.3217 37.4531 23.0826 35.7717 23.0826 35.7717C23.0378 35.8539 22.7912 36.1678 22.552 36.3397Z"
            fill="#0098D3" />
        <path
            d="M22.552 36.3396L22.4399 40.4047C22.7837 40.0908 23.1947 39.4108 23.1947 39.4034C23.3217 37.4754 23.0901 35.794 23.0826 35.7716C23.0452 35.8464 22.7986 36.1602 22.552 36.3396ZM22.4399 40.3972L22.552 36.3321C22.7986 36.1527 23.0452 35.8389 23.0826 35.7642C23.0826 35.7791 23.3142 37.4679 23.1947 39.3959C23.1947 39.4034 22.7837 40.0834 22.4399 40.3972Z"
            fill="#0098D3" />
        <path
            d="M37.6094 24.9961C36.7724 24.8391 35.1434 24.9961 34.5381 26.0198C34.5381 26.0198 39.2384 26.6326 39.4925 25.0633C39.4925 25.0633 38.4388 25.1605 37.6094 25.0035"
            fill="#0098D3" />
        <path
            d="M36.9891 24.9437C36.1073 24.9437 35.0089 25.2352 34.5381 26.0198C34.5456 26.0198 35.4498 26.1394 36.4735 26.1394C36.623 26.1394 36.7724 26.1394 36.9144 26.1319C38.9096 26.0572 39.4177 25.5117 39.4925 25.0633C39.485 25.0633 38.4239 25.153 37.6094 25.0035C37.43 24.9662 37.2133 24.9512 36.9891 24.9512M36.481 26.1319C35.4572 26.1319 34.553 26.0198 34.5456 26.0123C35.1284 25.0259 36.7276 24.8167 37.6168 24.9886C38.4388 25.1455 39.4925 25.0484 39.4999 25.0484C39.4252 25.4967 38.9245 26.0422 36.9219 26.1169C36.7724 26.1169 36.623 26.1244 36.481 26.1244"
            fill="#0098D3" />
        <path
            d="M36.1074 26.6251C34.9566 26.5578 34.0599 26.5279 33.3574 27.4247C33.3574 27.4247 34.4111 27.5218 34.8893 27.5816C35.3676 27.6414 38.1549 27.6414 38.3791 26.498C38.3791 26.498 37.2582 26.6923 36.1074 26.6251Z"
            fill="#0098D3" />
        <path
            d="M35.3304 26.5953C34.5681 26.5953 33.8956 26.7373 33.3576 27.4248C33.365 27.4248 34.4187 27.522 34.8895 27.5817C35.151 27.6191 35.9655 27.6266 36.7277 27.4921C37.4152 27.3725 38.2596 27.1035 38.3792 26.4907C38.3643 26.4907 37.2434 26.685 36.1075 26.6178C35.8385 26.6028 35.577 26.5879 35.3304 26.5879M35.3752 27.6041C35.1585 27.6041 34.9866 27.5967 34.882 27.5817C34.4112 27.522 33.3576 27.4248 33.3501 27.4248C34.0675 26.5057 35.009 26.5654 36.1 26.6252C37.2434 26.685 38.3643 26.4982 38.3717 26.4982C38.2522 27.111 37.4078 27.38 36.7203 27.4995C36.242 27.5817 35.7414 27.6116 35.3677 27.6116"
            fill="#0098D3" />
        <path
            d="M34.6651 28.1272C33.8655 28.03 32.6848 27.8357 31.7881 28.7026C31.7881 28.7026 32.4307 28.8595 32.6848 28.9566C32.9389 29.0538 35.3451 29.5021 36.3614 28.03C36.3614 28.03 35.4646 28.2243 34.6651 28.1272Z"
            fill="#0098D3" />
        <path
            d="M33.8432 29.0987C33.2529 29.0987 32.7821 28.9941 32.6775 28.9642C32.4309 28.8671 31.7882 28.7101 31.7808 28.7101C32.6326 27.8807 33.7461 28.0227 34.5531 28.1198L34.6577 28.1347C35.4498 28.2319 36.3466 28.0376 36.354 28.0376C36.3391 28.06 36.3241 28.0824 36.3092 28.0974C36.3241 28.075 36.3391 28.0525 36.354 28.0376C36.354 28.0376 35.7712 28.1646 35.136 28.1646C34.9791 28.1646 34.8147 28.1572 34.6577 28.1347L34.5531 28.1198C33.7386 28.0152 32.6326 27.8807 31.7808 28.7101C31.7808 28.7101 32.4234 28.8671 32.6775 28.9642C32.7746 29.0016 33.2529 29.0987 33.8432 29.0987C33.9703 29.0987 34.0973 29.0987 34.2318 29.0838C34.6353 29.0539 35.1285 28.9567 35.5769 28.7176C35.2406 28.897 34.8072 29.0389 34.2318 29.0838C34.0973 29.0912 33.9703 29.0987 33.8432 29.0987Z"
            fill="#0098D3" />
        <path
            d="M31.8481 29.4126C31.8481 29.4126 31.2428 29.1212 30.4731 29.2183C30.4731 29.2183 30.8617 29.4724 31.0784 29.6966C31.3026 29.9207 33.0662 30.6605 34.0899 29.5994C34.0899 29.5994 33.3576 29.7638 31.8481 29.4051"
            fill="#0098D3" />
        <path
            d="M30.787 29.1958C30.6824 29.1958 30.5778 29.1958 30.4731 29.2182C30.4731 29.2182 30.8617 29.4798 31.0784 29.6965C31.2204 29.8385 31.9303 30.1523 32.6701 30.1523H32.7C33.2679 30.1448 33.7312 29.958 34.0824 29.5993C34.0824 29.5993 33.3352 29.7563 31.8406 29.405C31.8406 29.405 31.3848 29.1958 30.7795 29.1958M32.6776 30.1598C31.9303 30.1598 31.2279 29.8385 31.0859 29.7039C30.8617 29.4798 30.4806 29.2257 30.4806 29.2257C30.5927 29.2107 30.6973 29.2033 30.7945 29.2033C31.3998 29.2033 31.8481 29.4125 31.8556 29.4125C33.3427 29.7637 34.0899 29.6068 34.0974 29.6068C33.7462 29.9655 33.2829 30.1523 32.7149 30.1598H32.6851"
            fill="#0098D3" />
        <path
            d="M28.5898 30.085C28.5898 30.085 30.727 31.5871 31.8554 30.6305C31.8554 30.6305 30.6075 30.3466 29.8378 29.958C29.8378 29.958 29.1353 30.1822 28.5898 30.085Z"
            fill="#0098D3" />
        <path
            d="M28.5898 30.085C28.6272 30.1149 30.742 31.5721 31.8554 30.6305C31.8405 30.6305 30.6 30.3391 29.8378 29.958C29.8303 29.958 29.1279 30.1822 28.5898 30.085ZM30.9064 30.9444C29.8303 30.9444 28.6048 30.0925 28.5898 30.085C29.1204 30.1822 29.8303 29.958 29.8378 29.958C30.6 30.3391 31.8405 30.6305 31.8554 30.6305C31.5864 30.8622 31.2576 30.9519 30.9138 30.9519"
            fill="#0098D3" />
        <path
            d="M28.1042 30.7203C28.1042 30.7203 27.88 30.7876 27.5288 30.6904C27.5288 30.6904 28.6497 31.7142 29.6436 31.1986C29.6436 31.1986 28.3658 30.5634 28.1416 30.3093C28.1416 30.3093 28.1416 30.5335 28.1117 30.7203"
            fill="#0098D3" />
        <path
            d="M27.5288 30.6903C27.5288 30.6903 28.2537 31.3479 29.0458 31.3479C29.2475 31.3479 29.4493 31.3106 29.6436 31.206C29.6286 31.206 28.3658 30.5633 28.1416 30.3167C28.1416 30.3167 28.1416 30.5409 28.1117 30.7277C28.1117 30.7277 27.8875 30.795 27.5363 30.6978M29.0458 31.3405C28.2537 31.3405 27.5438 30.6903 27.5288 30.6829C27.88 30.78 28.1042 30.7202 28.1042 30.7128C28.1341 30.5185 28.1341 30.3018 28.1341 30.3018C28.3583 30.5484 29.6212 31.191 29.6361 31.191C29.4418 31.2956 29.2401 31.333 29.0383 31.333"
            fill="#0098D3" />
        <path
            d="M27.2524 29.4946C28.7245 29.6889 29.823 29.3376 29.823 29.3376C29.8903 28.9864 29.681 28.6352 29.681 28.6352C31.5268 28.6352 32.6253 27.2901 32.6253 27.2901C32.3338 27.2602 32.0648 26.9987 32.0648 26.9987C33.3426 26.6774 33.5967 26.2141 33.5967 26.2141L32.7598 25.8778C34.1721 25.7508 34.4262 25.0483 34.4262 25.0483C32.9242 24.8914 31.4072 25.1156 29.5839 25.2127C27.7605 25.3099 27.6634 25.7881 27.6634 25.7881C27.6634 25.7881 27.372 26.3336 26.9909 26.8418C26.6097 27.3574 25.9372 27.3574 25.9372 27.3574C25.6607 27.3649 25.4141 27.3574 25.1899 27.335C25.459 28.5381 25.4814 30.1073 25.3469 31.0265C26.6546 31.5346 27.1179 31.3553 27.1179 31.3553C27.088 31.2282 25.8475 29.8757 25.8475 29.8757C26.6845 30.2269 27.5065 30.2867 27.5065 30.2867C27.5438 30.0326 27.2524 29.4871 27.2524 29.4871M31.3923 25.5266C31.9901 25.6461 32.7523 25.5789 32.7523 25.5789C32.5729 26.7073 29.1803 26.2664 29.1803 26.2664C29.6138 25.5266 30.7944 25.4145 31.3923 25.5266ZM30.3087 26.7073C31.1382 26.7521 31.9452 26.6176 31.9452 26.6176C31.7808 27.4471 29.7782 27.4471 29.4269 27.4022C29.0907 27.3574 28.321 27.2827 28.321 27.2827C28.8291 26.64 29.4793 26.6624 30.3013 26.7073M29.4718 27.7385C30.0472 27.8132 30.6898 27.6712 30.6898 27.6712C29.95 28.7324 28.2238 28.411 28.037 28.3438C27.8502 28.2765 27.3869 28.157 27.3869 28.157C28.037 27.5367 28.8814 27.6712 29.4643 27.7385M25.6159 29.0387C25.9148 29.1209 26.0119 28.9939 26.0119 28.9939C26.0418 28.8295 26.0418 28.6427 26.0418 28.6427C26.2286 28.8594 27.0506 29.4348 27.0506 29.4348C26.4528 29.7187 25.6159 29.0387 25.6159 29.0387ZM26.6471 28.4708C27.2001 28.4036 27.6335 28.6128 27.6335 28.6128C28.717 28.8669 29.2476 28.7473 29.2476 28.7473C28.5153 29.5095 27.2823 28.9266 27.0805 28.8146C26.804 28.6576 26.6471 28.4708 26.6471 28.4708Z"
            fill="#0098D3" />
        <path
            d="M30.9514 25.4892C30.3162 25.4892 29.5166 25.6985 29.1803 26.2664C29.2177 26.2664 32.5729 26.6923 32.7523 25.5789C32.7523 25.5789 31.9826 25.6462 31.3923 25.5341C31.2652 25.5117 31.1158 25.4967 30.9514 25.4967M30.5703 26.3486C29.8379 26.3486 29.1953 26.2664 29.1803 26.2664C29.5988 25.5565 30.7496 25.407 31.3923 25.5341C31.9826 25.6462 32.7448 25.5864 32.7523 25.5789C32.6477 26.2141 31.5268 26.3486 30.5703 26.3486ZM29.7483 26.6849C29.1953 26.6849 28.717 26.782 28.321 27.2827C28.3285 27.2827 29.0907 27.3499 29.4269 27.4022C29.7034 27.4396 31.7734 27.477 31.9452 26.6176C31.9378 26.6176 31.34 26.7222 30.6525 26.7222C30.5404 26.7222 30.4208 26.7222 30.3013 26.7148C30.107 26.7073 29.9201 26.6923 29.7408 26.6923M29.7856 27.4097C29.6138 27.4097 29.4867 27.4022 29.4344 27.3948C29.0982 27.3499 28.3359 27.2827 28.3285 27.2752C28.8441 26.6176 29.5241 26.655 30.3087 26.6998C31.1307 26.7447 31.9378 26.6101 31.9452 26.6101C31.8107 27.2976 30.4582 27.4097 29.7782 27.4097M28.7096 27.6713C28.2687 27.6713 27.7904 27.7684 27.3944 28.1495C27.3944 28.1495 27.8577 28.2691 28.0445 28.3363C28.2612 28.4185 29.9575 28.7174 30.6973 27.6638C30.6973 27.6638 30.0472 27.8058 29.4793 27.731H29.3971C29.1878 27.6937 28.9562 27.6713 28.717 27.6713M28.874 28.441C28.4555 28.441 28.1267 28.3737 28.037 28.3363C27.8577 28.2691 27.3944 28.1495 27.3869 28.1495C27.9997 27.5517 28.7992 27.6488 29.3821 27.7236H29.4643C30.0322 27.8058 30.6749 27.6638 30.6824 27.6638C30.2489 28.2915 29.4718 28.4335 28.8665 28.4335M26.6471 28.4708C26.6471 28.4708 26.8115 28.6651 27.0805 28.8221C27.0955 28.8221 28.4555 29.5693 29.2476 28.7548C29.2476 28.7548 28.7096 28.8669 27.6335 28.6203C27.6335 28.6203 27.3047 28.4634 26.8713 28.4634C26.7966 28.4634 26.7218 28.4634 26.6471 28.4783M28.2762 29.1359C27.6634 29.1359 27.0955 28.8221 27.0805 28.8221C26.804 28.6651 26.6471 28.4783 26.6471 28.4708C26.7218 28.4634 26.804 28.4559 26.8713 28.4559C27.3047 28.4559 27.6335 28.6128 27.6335 28.6128C28.7096 28.8669 29.2401 28.7473 29.2476 28.7473C28.9711 29.0388 28.6124 29.1359 28.2762 29.1359ZM25.6159 29.0388C25.6159 29.0388 26.1988 29.5021 26.7218 29.5021C26.8339 29.5021 26.946 29.4797 27.0432 29.4348C27.0357 29.4348 26.2212 28.8594 26.0344 28.6427C26.0344 28.6427 26.0344 28.8295 26.0045 28.9939C26.0045 28.9939 25.8998 29.1135 25.6084 29.0388M26.7293 29.5021C26.1988 29.5021 25.6308 29.0462 25.6234 29.0388C25.9148 29.121 26.0194 29.0014 26.0194 28.9939C26.0418 28.8295 26.0493 28.6427 26.0493 28.6427C26.2361 28.8594 27.0506 29.4273 27.0581 29.4348C26.9535 29.4871 26.8489 29.5021 26.7368 29.5021M25.1899 27.335C25.4664 28.568 25.4814 30.1298 25.3469 31.0265C26.6396 31.5272 27.1104 31.3553 27.1179 31.3553C27.088 31.2283 25.855 29.8906 25.8475 29.8757C26.6695 30.2194 27.499 30.2867 27.5065 30.2867C27.5438 30.0401 27.2599 29.4946 27.2524 29.4871C28.7096 29.6739 29.8155 29.3377 29.823 29.3377C29.8828 28.9939 29.681 28.6352 29.681 28.6352C31.5043 28.6352 32.6103 27.3051 32.6253 27.2902C32.3413 27.2603 32.0648 27.0062 32.0648 26.9987C33.3277 26.6849 33.5892 26.2216 33.5967 26.2141L32.7598 25.8703C34.1571 25.7433 34.4187 25.0484 34.4262 25.0409C33.3576 24.9288 32.2591 25.011 31.1008 25.1007C30.6151 25.138 30.1144 25.1754 29.5913 25.2053C27.7904 25.3024 27.6709 25.7732 27.6709 25.7807C27.6709 25.7807 27.3794 26.3337 26.9983 26.8343C26.6172 27.3425 25.9522 27.3499 25.9447 27.3499C25.6906 27.3574 25.444 27.3499 25.2049 27.3275M26.8563 31.3852C26.5948 31.3852 26.1166 31.3254 25.3469 31.0265C25.4814 30.1298 25.4664 28.568 25.1899 27.335C25.4365 27.3649 25.6757 27.3724 25.9297 27.3574C25.9297 27.3574 26.6023 27.3574 26.9834 26.8418C27.3645 26.3337 27.6559 25.7881 27.6559 25.7881C27.6559 25.7881 27.768 25.3099 29.5764 25.2128C30.107 25.1829 30.6076 25.1455 31.0859 25.1081C32.2441 25.0185 33.3426 24.9363 34.4112 25.0484C34.4112 25.0484 34.1422 25.7508 32.7448 25.8778L33.5818 26.2216C33.5818 26.2216 33.3202 26.6923 32.0499 27.0062C32.0499 27.0062 32.3263 27.2603 32.6103 27.2976C32.5954 27.3126 31.4894 28.6427 29.6661 28.6427C29.6661 28.6427 29.8753 29.0014 29.8081 29.3451C29.8006 29.3451 28.6946 29.6889 27.2375 29.4946C27.2449 29.5095 27.5289 30.0476 27.4915 30.2942C27.4841 30.2942 26.6546 30.2269 25.8326 29.8832C25.8475 29.8981 27.0731 31.2357 27.1029 31.3628C27.1029 31.3628 27.0207 31.3927 26.8489 31.3927"
            fill="#0098D3" />
        <path
            d="M6.24642 1.03863H5.64113V1.60656H4.43056L4.10176 0.814453H3.44417L3.1079 1.60656H1.94216V1.04611H1.31445V2.578H6.24642V1.03863Z"
            fill="#D7B46A" />
        <path
            d="M1.94216 1.04611H1.31445V2.578H6.24642V1.03863H5.64113V1.60656H4.43056L4.10176 0.814453H3.44417L3.1079 1.60656H1.94216V1.04611ZM1.31445 2.578V1.04611H1.94216V1.60656H3.1079L3.44417 0.814453H4.10176L4.43056 1.60656H5.64113V1.03863H6.24642V2.578H1.31445Z"
            fill="#D7B46A" />
        <path
            d="M15.3856 1.03863H14.7803V1.60656H13.5697L13.2409 0.814453H12.5833L12.2396 1.60656H11.0738V1.04611H10.4536V2.578H15.3856V1.03863Z"
            fill="#D7B46A" />
        <path
            d="M10.5435 2.4884H15.3035V1.12091H14.8701V1.68883H13.5176L13.1888 0.896725H12.6433L12.2995 1.68883H10.9918V1.12838H10.5435V2.4884ZM15.4754 2.66775H10.3716V0.956506H11.1712V1.51696H12.1874L12.5312 0.724854H13.3083L13.6371 1.51696H14.7057V0.949034H15.4829V2.66028L15.4754 2.66775Z"
            fill="#D7B46A" />
        <path
            d="M24.4202 1.03863H23.8075V1.60656H22.5969L22.2681 0.814453H21.6105L21.2742 1.60656H20.1085V1.04611H19.4883V2.578H24.4202V1.03863Z"
            fill="#D7B46A" />
        <path
            d="M20.1085 1.04611H19.4883V2.578H24.4202V1.03863H23.8075V1.60656H22.6044L22.2756 0.814453H21.618L21.2817 1.60656H20.1085V1.04611ZM19.4883 2.578V1.04611H20.1085V1.60656H21.2817L21.618 0.814453H22.2756L22.6044 1.60656H23.8075V1.03863H24.4202V2.578H19.4883Z"
            fill="#D7B46A" />
        <path
            d="M33.5145 1.03863H32.9017L32.9092 1.60656H31.6986L31.3698 0.814453H30.7122L30.3685 1.60656H29.2028V1.04611H28.5825V2.578H33.5145V1.03863Z"
            fill="#D7B46A" />
        <path
            d="M29.2028 1.04611H28.5825V2.578H33.5145V1.03863H32.9017V1.60656H31.6986L31.3698 0.814453H30.7122L30.3685 1.60656H29.1953V1.04611H29.2028ZM28.5825 2.578V1.04611H29.2028V1.60656H30.376L30.7197 0.814453H31.3773L31.7061 1.60656H32.9167V1.03863H33.522V2.578H28.59H28.5825Z"
            fill="#D7B46A" />
        <path
            d="M42.0179 1.03863L42.0254 1.60656H40.8148L40.486 0.814453H39.8284L39.4922 1.60656H38.3264V1.04611H37.6987V2.578H42.6382V1.03863H42.0179Z"
            fill="#D7B46A" />
        <path
            d="M38.3191 1.04611H37.6989V2.578H42.6308V1.03863H42.0181V1.60656H40.815L40.4862 0.814453H39.8286L39.4923 1.60656H38.3266V1.04611H38.3191ZM37.6989 2.578V1.04611H38.3191V1.60656H39.4848L39.8211 0.814453H40.4787L40.8075 1.60656H42.0181V1.03863H42.6234V2.578H37.6914H37.6989Z"
            fill="#D7B46A" />
        <path d="M12.1797 9.41553H4.46045V10.7681H12.1797V9.41553Z" fill="#D7B46A" />
        <path
            d="M4.46045 10.7682H12.1797V9.4082H4.46045V10.7682ZM4.46045 9.41568H12.1797V10.7757H4.46045V9.41568Z"
            fill="#D7B46A" />
        <path d="M21.2813 9.41553H13.562V10.7681H21.2813V9.41553Z" fill="#D7B46A" />
        <path
            d="M13.562 10.7682H21.2813V9.4082H13.562V10.7682ZM13.562 9.41568H21.2813V10.7757H13.562V9.41568Z"
            fill="#D7B46A" />
        <path d="M30.3833 9.41553H22.6641V10.7681H30.3833V9.41553Z" fill="#D7B46A" />
        <path
            d="M22.6641 10.7682H30.3833V9.4082H22.6641V10.7682ZM22.6641 9.41568H30.3833V10.7757H22.6641V9.41568Z"
            fill="#D7B46A" />
        <path d="M39.4625 9.41553H31.7656V10.7681H39.4625V9.41553Z" fill="#D7B46A" />
        <path
            d="M31.7656 10.7682H39.4625V9.4082H31.7656V10.7682ZM31.7656 9.41568H39.4625V10.7757H31.7656V9.41568Z"
            fill="#D7B46A" />
        <path d="M16.8353 11.7844H9.12354V13.6526H16.8353V11.7844Z" fill="#D7B46A" />
        <path
            d="M9.12354 13.6526H16.8353V11.7844H9.12354V13.6526ZM9.12354 11.7844H16.8353V13.6526H9.12354V11.7844Z"
            fill="#D7B46A" />
        <path d="M25.9444 11.7844H18.2251V13.6526H25.9444V11.7844Z" fill="#D7B46A" />
        <path
            d="M18.2251 13.6526H25.9444V11.7844H18.2251V13.6526ZM18.2251 11.7844H25.9444V13.6526H18.2251V11.7844Z"
            fill="#D7B46A" />
        <path d="M35.0385 11.7844H27.3267V13.6526H35.0385V11.7844Z" fill="#D7B46A" />
        <path
            d="M27.3267 13.6526H35.0385V11.7844H27.3267V13.6526ZM27.3267 11.7844H35.0385V13.6526H27.3267V11.7844Z"
            fill="#D7B46A" />
        <path d="M39.4776 11.7844H36.4287V13.6526H39.4776V11.7844Z" fill="#D7B46A" />
        <path
            d="M39.4849 11.7844H36.436V13.6526H39.4849V11.7844ZM39.4849 13.6526H36.436V11.7844H39.4849V13.6526Z"
            fill="#D7B46A" />
        <path d="M7.71868 11.7844H4.45312V13.6526H7.71868V11.7844Z" fill="#D7B46A" />
        <path
            d="M7.71868 11.7844H4.45312V13.6526H7.71868V11.7844ZM7.71868 13.6526H4.45312V11.7844H7.71868V13.6526Z"
            fill="#D7B46A" />
        <path d="M12.1799 14.6763H3.19775V16.0288H12.1799V14.6763Z" fill="#D7B46A" />
        <path
            d="M3.19775 16.0288H12.1799V14.6763H3.19775V16.0288ZM3.19775 14.6763H12.1799V16.0288H3.19775V14.6763Z"
            fill="#D7B46A" />
        <path d="M21.2813 14.6763H13.562V16.0288H21.2813V14.6763Z" fill="#D7B46A" />
        <path
            d="M13.562 16.0288H21.2813V14.6763H13.562V16.0288ZM13.562 14.6763H21.2813V16.0288H13.562V14.6763Z"
            fill="#D7B46A" />
        <path d="M30.3833 14.6763H22.6641V16.0288H30.3833V14.6763Z" fill="#D7B46A" />
        <path
            d="M22.6641 16.0288H30.3833V14.6763H22.6641V16.0288ZM22.6641 14.6763H30.3833V16.0288H22.6641V14.6763Z"
            fill="#D7B46A" />
        <path d="M41.0093 14.6763H31.7656V16.0288H41.0093V14.6763Z" fill="#D7B46A" />
        <path
            d="M31.7656 16.0288H41.0093V14.6763H31.7656V16.0288ZM31.7656 14.6763H41.0093V16.0288H31.7656V14.6763Z"
            fill="#D7B46A" />
        <path d="M9.96029 4.78247H9.62402V5.13369H9.96029V4.78247Z" fill="#D7B46A" />
        <path d="M9.62402 5.13369V4.78247H9.96777V5.13369H9.62402Z" fill="#D7B46A" />
        <path d="M7.06103 4.78247H6.71729V5.13369H7.06103V4.78247Z" fill="#D7B46A" />
        <path d="M6.72461 5.13369V4.78247H7.06088V5.13369H6.72461Z" fill="#D7B46A" />
        <path d="M19.062 4.78247H18.7183V5.13369H19.062V4.78247Z" fill="#D7B46A" />
        <path d="M18.7183 5.13369V4.78247H19.0545V5.13369H18.7183Z" fill="#D7B46A" />
        <path d="M16.1478 4.78247H15.8115V5.13369H16.1478V4.78247Z" fill="#D7B46A" />
        <path d="M15.8115 5.13369V4.78247H16.1478V5.13369H15.8115Z" fill="#D7B46A" />
        <path d="M28.1489 4.78247H27.8052V5.13369H28.1489V4.78247Z" fill="#D7B46A" />
        <path d="M27.8052 5.13369V4.78247H28.1489V5.13369H27.8052Z" fill="#D7B46A" />
        <path d="M25.2344 4.78247H24.8906V5.13369H25.2344V4.78247Z" fill="#D7B46A" />
        <path d="M24.8906 5.13369V4.78247H25.2344V5.13369H24.8906Z" fill="#D7B46A" />
        <path d="M37.1982 4.78247H36.8545V5.13369H37.1982V4.78247Z" fill="#D7B46A" />
        <path d="M36.8545 5.13369V4.78247H37.1982V5.13369H36.8545Z" fill="#D7B46A" />
        <path d="M34.314 4.78247H33.9702V5.13369H34.314V4.78247Z" fill="#D7B46A" />
        <path d="M33.9702 5.13369V4.78247H34.314V5.13369H33.9702Z" fill="#D7B46A" />
        <path d="M11.5672 8.47406L9.78122 6.10522H6.88929L5.08838 8.47406H11.5672Z" fill="#D7B46A" />
        <path
            d="M9.78088 6.10522H6.88148L5.08057 8.47406H11.5594L9.78088 6.10522ZM11.5668 8.47406H5.08804L6.88895 6.10522H9.78835L11.5668 8.47406Z"
            fill="#D7B46A" />
        <path d="M18.868 6.10522H15.9835L14.1826 8.47406H20.6465L18.868 6.10522Z" fill="#D7B46A" />
        <path
            d="M15.9835 6.10522L14.1826 8.47406H20.6465L18.868 6.10522H15.9835ZM14.1826 8.47406L15.9835 6.10522H18.868L20.6465 8.47406H14.1826Z"
            fill="#D7B46A" />
        <path d="M27.962 6.10522H25.0626L23.2617 8.47406H29.7405L27.962 6.10522Z" fill="#D7B46A" />
        <path
            d="M25.0626 6.10522L23.2617 8.47406H29.7405L27.962 6.10522H25.0626ZM23.2617 8.47406L25.0626 6.10522H27.962L29.7405 8.47406H23.2617Z"
            fill="#D7B46A" />
        <path d="M37.0113 6.10522H34.1567L32.3633 8.47406H38.7898L37.0113 6.10522Z" fill="#D7B46A" />
        <path
            d="M34.1569 6.10522L32.356 8.47406H38.7825L37.004 6.10522H34.1494H34.1569ZM32.3634 8.47406L34.1643 6.10522H37.0189L38.7974 8.47406H32.3709H32.3634Z"
            fill="#D7B46A" />
        <path d="M5.64102 5.68673V3.41504H1.93457V5.68673L3.77285 8.31711L5.64102 5.68673Z"
            fill="#D7B46A" />
        <path
            d="M5.64102 3.41494H1.93457V5.69411L3.77285 8.32449L5.63354 5.69411V3.41494H5.64102ZM3.78032 8.31702L1.94204 5.68664V3.40747H5.64102V5.68664L3.78032 8.31702Z"
            fill="#D7B46A" />
        <path d="M12.912 8.31711L14.7727 5.68673V3.41504H11.0737V5.68673L12.912 8.31711Z"
            fill="#D7B46A" />
        <path
            d="M14.7727 3.41494H11.0737V5.69411L12.912 8.32449L14.7727 5.69411V3.41494ZM12.912 8.31702L11.0737 5.68664V3.40747H14.7727V5.68664L12.912 8.31702Z"
            fill="#D7B46A" />
        <path d="M21.9467 8.31711L23.8074 5.68673V3.41504H20.1084V5.68673L21.9467 8.31711Z"
            fill="#D7B46A" />
        <path
            d="M23.8074 3.41494H20.1084V5.69411L21.9467 8.32449L23.8074 5.69411V3.41494ZM21.9467 8.31702L20.1084 5.68664V3.40747H23.8074V5.68664L21.9467 8.31702Z"
            fill="#D7B46A" />
        <path d="M31.0409 8.31711L32.9016 5.68673V3.41504H29.2026V5.68673L31.0409 8.31711Z"
            fill="#D7B46A" />
        <path
            d="M32.9016 3.41494H29.2026V5.69411L31.0409 8.32449L32.9016 5.69411V3.41494ZM31.0409 8.31702L29.2026 5.68664V3.40747H32.9016V5.68664L31.0409 8.31702Z"
            fill="#D7B46A" />
        <path d="M38.3193 5.68673L40.1576 8.31711L42.0183 5.68673V3.41504H38.3193V5.68673Z"
            fill="#D7B46A" />
        <path
            d="M38.3193 5.68664L40.1576 8.31702L42.0183 5.68664V3.40747H38.3193V5.68664ZM40.1576 8.31702L38.3193 5.68664V3.40747H42.0183V5.68664L40.1576 8.31702Z"
            fill="#D7B46A" />
        <path
            d="M20.8406 23.2925C20.8406 23.2925 21.0424 23.9052 20.594 24.4433C20.594 24.4433 20.1307 24.6525 19.1069 24.1743C19.1069 24.1743 20.7808 23.6736 20.8406 23.2925Z"
            fill="#D7B46A" />
        <path
            d="M20.8407 23.2925C20.7735 23.6661 19.122 24.1668 19.1071 24.1743C20.1234 24.645 20.5867 24.4433 20.5941 24.4433C21.035 23.9127 20.8482 23.3074 20.8407 23.2925ZM20.2803 24.4881C20.0337 24.4881 19.6526 24.4283 19.0996 24.1743C19.1146 24.1743 20.7735 23.6661 20.8333 23.2925C20.8333 23.2925 21.035 23.9052 20.5867 24.4433C20.5867 24.4433 20.4821 24.4881 20.2728 24.4881"
            fill="#D7B46A" />
        <path
            d="M20.1084 21.4766C20.1084 21.4766 19.802 21.9174 20.3325 22.4555C20.3325 22.4555 19.6899 21.9399 18.8081 22.179C18.8081 22.179 19.0846 21.7979 20.1084 21.484"
            fill="#D7B46A" />
        <path
            d="M19.2639 22.1192C19.8916 22.1192 20.3251 22.4555 20.3325 22.4555C19.8094 21.9249 20.1009 21.4915 20.1084 21.4766C19.0921 21.7904 18.8081 22.1715 18.8081 22.1715C18.9725 22.1267 19.1294 22.1117 19.2714 22.1117M20.3325 22.4555C20.3325 22.4555 19.6824 21.9473 18.8081 22.179C18.8081 22.179 19.0921 21.7904 20.1084 21.4766C20.1084 21.4766 19.8094 21.9249 20.3325 22.4555Z"
            fill="#D7B46A" />
        <path
            d="M30.6898 39.3735C30.6898 39.3735 30.914 38.5216 30.518 38.3498C30.518 38.3498 30.0771 38.1929 30.0098 38.6188C29.9575 38.9326 30.3012 38.985 30.3012 38.985C30.3012 38.985 30.5703 39.0447 30.6898 39.3735Z"
            fill="#D7B46A" />
        <path
            d="M30.3385 38.3201C30.2787 38.3201 30.2189 38.3275 30.1591 38.3649C30.0769 38.4097 30.0246 38.4994 30.0022 38.619C29.9872 38.7086 30.0022 38.7834 30.047 38.8432C30.1292 38.9552 30.2936 38.9851 30.2936 38.9851C30.2936 38.9851 30.5626 39.0524 30.6822 39.3737C30.6822 39.3513 30.8914 38.5218 30.5103 38.35C30.5103 38.35 30.4281 38.3201 30.331 38.3201M30.6897 39.3737C30.5701 39.0524 30.3011 38.9851 30.3011 38.9851C30.3011 38.9851 30.1367 38.9552 30.0545 38.8432C30.0097 38.7834 29.9947 38.7086 30.0097 38.619C30.0321 38.4994 30.0844 38.4097 30.1666 38.3649C30.316 38.2752 30.5178 38.35 30.5253 38.35C30.9139 38.5218 30.6971 39.3662 30.6971 39.3737H30.6897Z"
            fill="#D7B46A" />
        <path
            d="M28.5972 40.5916C28.5972 40.5916 29.3519 40.3973 29.3519 39.9116C29.3519 39.5529 28.6868 39.6351 28.6644 39.792C28.642 40.0087 28.7167 40.1806 28.7167 40.1806C28.7167 40.1806 28.769 40.3076 28.5972 40.5991"
            fill="#D7B46A" />
        <path
            d="M28.9934 39.6576C28.829 39.6576 28.672 39.7174 28.6646 39.7921C28.6422 40.0014 28.7169 40.1807 28.7169 40.1807C28.7169 40.1807 28.7692 40.3077 28.5973 40.5992C28.6123 40.5992 29.3521 40.3974 29.3521 39.9192C29.3521 39.7697 29.24 39.68 29.0457 39.6651C29.0307 39.6651 29.0158 39.6651 29.0008 39.6651M28.5973 40.5917C28.7692 40.3077 28.7169 40.1807 28.7169 40.1732C28.7169 40.1732 28.6422 39.9939 28.6646 39.7847C28.672 39.7099 28.829 39.6501 28.9934 39.6501C29.0083 39.6501 29.0233 39.6501 29.0382 39.6501C29.2325 39.6651 29.3446 39.7548 29.3446 39.9042C29.3446 40.3899 28.5973 40.5842 28.5898 40.5842"
            fill="#D7B46A" />
        <path
            d="M31.2503 37.9614C31.2503 37.9614 31.183 37.3785 30.7795 37.2066C30.5777 37.117 30.5254 37.3561 30.5254 37.3561C30.5254 37.3561 30.4582 37.6102 30.376 37.6924C30.376 37.6924 30.4806 37.8343 30.7347 37.8194C30.8841 37.8119 31.1681 37.8418 31.2503 37.9614Z"
            fill="#D7B46A" />
        <path
            d="M31.2503 37.9612C31.1681 37.8342 30.8617 37.8118 30.7347 37.8192C30.7272 37.8192 30.7122 37.8192 30.7048 37.8192C30.4806 37.8192 30.3834 37.6997 30.376 37.6922C30.3909 37.7071 30.4881 37.8192 30.7048 37.8192C30.7122 37.8192 30.7272 37.8192 30.7347 37.8192C30.8692 37.8118 31.1681 37.8342 31.2503 37.9612C31.2503 37.9388 31.1756 37.3709 30.7795 37.2065C30.7197 37.1841 30.6749 37.1766 30.63 37.2065C30.5478 37.2438 30.5254 37.3559 30.5254 37.3559C30.5254 37.3559 30.4881 37.4979 30.4358 37.6025C30.4881 37.4979 30.5254 37.3634 30.5254 37.3559C30.5254 37.3559 30.5478 37.2438 30.63 37.2065C30.6749 37.1841 30.7197 37.1841 30.7795 37.2065C31.183 37.3784 31.2503 37.9537 31.2503 37.9612Z"
            fill="#D7B46A" />
        <path
            d="M26.4453 38.8803C26.4453 38.8803 26.0492 39.0895 25.7428 38.7607C25.7428 38.7607 25.5411 39.4557 26.5798 39.7023C26.5798 39.7023 26.3257 39.4557 26.378 39.2689C26.4378 39.0447 26.4677 39.0746 26.4527 38.8728"
            fill="#D7B46A" />
        <path
            d="M25.743 38.7682C25.743 38.7682 25.6757 38.9999 25.8177 39.239C25.9447 39.4632 26.1988 39.6201 26.5724 39.7098C26.5724 39.7098 26.3184 39.4632 26.3707 39.2764C26.3856 39.2016 26.408 39.1568 26.4155 39.1194C26.4454 39.0447 26.4529 39.0148 26.4379 38.8803C26.4305 38.8803 26.0344 39.0895 25.7355 38.7607M26.5724 39.7098C26.1988 39.6201 25.9447 39.4632 25.8177 39.239C25.6757 38.9999 25.743 38.7682 25.743 38.7682C26.0419 39.0895 26.4379 38.8878 26.4454 38.8878C26.4603 39.0223 26.4454 39.0597 26.423 39.1269C26.408 39.1643 26.3931 39.2091 26.3781 39.2838C26.3258 39.4632 26.5799 39.7098 26.5799 39.7172"
            fill="#D7B46A" />
        <path
            d="M26.2957 36.1379C26.2957 36.1379 27.6109 37.0571 27.7827 37.1542C27.9546 37.2439 28.3208 37.4756 28.7766 37.341C29.2324 37.1991 29.3146 37.1393 29.4342 36.9824C29.5538 36.8254 29.8078 36.5863 30.1889 36.8927C30.1889 36.8927 30.3832 37.072 30.3085 37.2439C30.2338 37.4083 30.2562 37.4457 30.2263 37.498C30.1964 37.5428 30.1142 37.6101 30.0021 37.5353C29.89 37.4681 29.5762 37.2514 29.5986 37.4307C29.6285 37.6175 29.8527 37.6773 29.9274 37.6997C29.9946 37.7147 30.174 37.752 30.2263 37.9688C30.2263 37.9688 30.2861 38.1107 30.1441 38.1182C29.9946 38.1257 29.8975 38.2079 29.8601 38.2826C29.8228 38.3499 29.7555 38.4918 29.621 38.3797C29.4865 38.2677 29.3221 37.9688 28.9186 37.909C28.5225 37.8567 28.0966 37.8716 28.3432 38.036C28.5898 38.2004 28.8588 38.6039 28.9186 38.6861C28.9186 38.6861 29.0307 38.8132 29.0904 38.8206C29.1577 38.8356 29.2922 38.9477 29.2997 39.0224C29.3072 39.0897 29.4342 39.3886 29.2175 39.3736C29.0082 39.3587 28.7766 39.3512 28.6795 39.4409C28.6795 39.4409 28.5748 39.4409 28.5151 39.3213C28.4478 39.2017 28.388 39.0075 28.4104 38.8954C28.4254 38.7833 27.7902 37.9463 27.2223 37.8716C26.6544 37.7969 26.3704 38.1556 26.4078 38.3723C26.4451 38.589 26.3106 38.731 26.1761 38.731C26.0416 38.731 25.3915 38.5666 25.8099 37.7894C25.8099 37.7894 25.937 37.5204 26.5423 37.498C27.1476 37.483 26.8038 37.1318 26.7291 37.0795C26.6544 37.0272 26.0341 36.6087 25.9295 36.5191C25.8174 36.4369 25.8324 36.25 25.8847 36.1828C25.9295 36.1081 26.0715 36.0259 26.2882 36.1454"
            fill="#D7B46A" />
        <path
            d="M27.0952 37.8491C27.14 37.8491 27.1923 37.8491 27.2372 37.8565C27.6183 37.9089 28.0367 38.2974 28.2759 38.6188C28.373 38.7458 28.4253 38.8504 28.4253 38.8803C28.4029 38.9924 28.4702 39.1867 28.5374 39.3062C28.5972 39.4258 28.6943 39.4258 28.7018 39.4258C28.8064 39.3361 29.0455 39.3436 29.2398 39.3586H29.2548C29.2921 39.3586 29.322 39.3436 29.337 39.3287C29.3893 39.2689 29.3519 39.1493 29.337 39.0671C29.337 39.0447 29.322 39.0223 29.322 39.0073C29.3146 38.9326 29.1801 38.8205 29.1128 38.8056C29.053 38.7906 28.9409 38.6711 28.9409 38.6711C28.8662 38.559 28.6047 38.1853 28.3655 38.0209C28.3058 37.9836 28.2833 37.9537 28.2983 37.9313C28.3282 37.8565 28.6495 37.8565 28.9409 37.9014C29.2473 37.9387 29.4117 38.1256 29.5313 38.2601C29.5686 38.3049 29.606 38.3423 29.6434 38.3722C29.6807 38.4095 29.7181 38.417 29.7555 38.4095C29.8152 38.3946 29.8526 38.3199 29.875 38.2675C29.9124 38.1928 30.017 38.1106 30.159 38.1031C30.1963 38.1031 30.2262 38.0882 30.2412 38.0658C30.2711 38.0209 30.2412 37.9612 30.2412 37.9612C30.1963 37.7519 30.0245 37.7146 29.9497 37.6996C29.8377 37.6697 29.6434 37.595 29.6135 37.4306C29.6135 37.4007 29.6135 37.3783 29.6284 37.3708C29.6882 37.3335 29.875 37.453 29.9796 37.5128L30.0095 37.5352C30.0544 37.5651 30.0992 37.5726 30.1366 37.5651C30.1814 37.5576 30.2188 37.5278 30.2337 37.4979C30.2412 37.4754 30.2487 37.4605 30.2487 37.4381C30.2487 37.4007 30.2636 37.3484 30.3084 37.2438C30.3832 37.0794 30.1889 36.9 30.1889 36.8926C30.0469 36.7805 29.9124 36.7356 29.7853 36.7506C29.6583 36.7655 29.5387 36.8477 29.4341 36.9897C29.3146 37.1392 29.2324 37.2064 28.7765 37.3484C28.3581 37.4754 28.0068 37.2886 27.8275 37.1915C27.8126 37.184 27.7976 37.1765 27.7827 37.1691C27.6108 37.0794 26.3106 36.1677 26.2956 36.1528C26.0864 36.0407 25.9444 36.1154 25.8921 36.1901C25.8398 36.2574 25.8248 36.4442 25.9369 36.5264C26.0042 36.5787 26.2582 36.7506 26.4675 36.8926C26.602 36.9822 26.7141 37.0644 26.744 37.0794C26.7813 37.1093 26.9383 37.2587 26.9009 37.3708C26.8785 37.453 26.7589 37.4979 26.5571 37.4979C25.9593 37.5203 25.8248 37.7893 25.8248 37.7893C25.6679 38.0733 25.6455 38.3049 25.7426 38.4843C25.8547 38.6711 26.0938 38.7309 26.191 38.7309C26.2582 38.7309 26.318 38.701 26.3629 38.6487C26.4226 38.5814 26.4451 38.4843 26.4226 38.3796C26.4077 38.2825 26.4525 38.1704 26.5422 38.0733C26.6692 37.9387 26.8635 37.8715 27.0952 37.8715M28.7018 39.4333C28.7018 39.4333 28.5972 39.4333 28.5374 39.3137C28.4702 39.1942 28.4104 38.9924 28.4253 38.8878C28.4253 38.8504 28.373 38.7533 28.2759 38.6262C28.0367 38.3049 27.6183 37.9163 27.2372 37.864C26.9532 37.8267 26.6991 37.9014 26.5422 38.0583C26.4525 38.1555 26.4077 38.2675 26.4226 38.3647C26.4376 38.4693 26.4226 38.5665 26.3629 38.6337C26.318 38.686 26.2508 38.7159 26.191 38.7159C26.1013 38.7159 25.8547 38.6561 25.7426 38.4693C25.638 38.2974 25.6679 38.0658 25.8248 37.7743C25.8248 37.7743 25.9593 37.5053 26.5571 37.4829C26.7589 37.4829 26.8785 37.4306 26.9009 37.3559C26.9383 37.2438 26.7813 37.0943 26.744 37.0644C26.7141 37.042 26.602 36.9673 26.4675 36.8776C26.2582 36.7356 26.0042 36.5563 25.9369 36.5115C25.8248 36.4293 25.8472 36.2425 25.8921 36.1752C25.9444 36.093 26.0864 36.0183 26.2956 36.1378C26.3106 36.1453 27.6108 37.057 27.7827 37.1541C27.7976 37.1541 27.8126 37.1691 27.8275 37.1765C28.0143 37.2737 28.3581 37.4605 28.7765 37.3335C29.2324 37.199 29.3146 37.1317 29.4341 36.9748C29.5387 36.8328 29.6583 36.7506 29.7853 36.7356C29.9124 36.7207 30.0469 36.7655 30.1889 36.8776C30.1889 36.8776 30.3832 37.0644 30.3084 37.2288C30.2636 37.3335 30.2561 37.3858 30.2487 37.4231C30.2487 37.4456 30.2412 37.4605 30.2337 37.4829C30.2188 37.5128 30.1814 37.5427 30.1366 37.5502C30.0992 37.5576 30.0544 37.5502 30.0095 37.5203L29.9796 37.4979C29.89 37.4381 29.733 37.3484 29.6583 37.3484C29.6434 37.3484 29.6359 37.3484 29.6284 37.3559C29.6135 37.3634 29.606 37.3858 29.6135 37.4157C29.6434 37.5875 29.8377 37.6548 29.9497 37.6847C30.0245 37.6996 30.1963 37.7445 30.2412 37.9537C30.2412 37.9537 30.2711 38.0209 30.2412 38.0583C30.2262 38.0807 30.1963 38.0957 30.159 38.0957C30.0095 38.1031 29.9124 38.1853 29.875 38.2601C29.8526 38.3049 29.8152 38.3871 29.7555 38.4021C29.7181 38.4095 29.6807 38.4021 29.6434 38.3647C29.606 38.3348 29.5761 38.2974 29.5313 38.2526C29.4117 38.1181 29.2398 37.9387 28.9409 37.8939C28.6495 37.8565 28.3282 37.8491 28.2983 37.9238C28.2908 37.9462 28.3132 37.9761 28.3655 38.0135C28.6047 38.1704 28.8662 38.5515 28.9409 38.6636C28.9409 38.6636 29.053 38.7906 29.1128 38.7981C29.1801 38.813 29.3146 38.9251 29.322 38.9999C29.322 39.0148 29.322 39.0298 29.337 39.0596C29.3594 39.1418 29.3893 39.2614 29.337 39.3212C29.3146 39.3436 29.2847 39.3511 29.2398 39.3511C29.0455 39.3361 28.799 39.3287 28.7018 39.4183"
            fill="#D7B46A" />
        <path
            d="M18.1131 38.8655C18.1131 38.8655 18.4046 39.142 18.7857 38.8281C18.7857 38.8281 18.98 39.4558 17.9487 39.7099C17.9487 39.7099 18.2028 39.4633 18.1505 39.2765C18.0907 39.0523 18.0832 39.0673 18.1131 38.8655Z"
            fill="#D7B46A" />
        <path
            d="M18.1131 38.8655C18.0907 39.0448 18.0982 39.0598 18.1355 39.2092L18.1505 39.2765C18.2028 39.4558 17.9487 39.7024 17.9487 39.7099C18.3373 39.6128 18.5989 39.4558 18.7259 39.2391C18.8455 39.0299 18.7931 38.8281 18.7931 38.8281C18.4195 39.1345 18.1281 38.873 18.1131 38.8655ZM17.9487 39.7099C17.9487 39.7099 18.2028 39.4633 18.1505 39.2765L18.1355 39.2092C18.0982 39.0598 18.0907 39.0448 18.1131 38.8655C18.1131 38.8655 18.412 39.1345 18.7931 38.8281C18.7931 38.8281 18.8529 39.0224 18.7259 39.2391C18.5989 39.4558 18.3373 39.6128 17.9487 39.7099Z"
            fill="#D7B46A" />
        <path
            d="M13.8386 39.3662C13.8386 39.3662 13.6219 38.5143 14.0104 38.3425C14.0104 38.3425 14.4439 38.1855 14.5186 38.6115C14.5709 38.9253 14.2271 38.9776 14.2271 38.9776C14.2271 38.9776 13.9656 39.0374 13.8386 39.3662Z"
            fill="#D7B46A" />
        <path
            d="M14.1898 38.3125C14.0926 38.3125 14.0104 38.3424 14.0104 38.3424C13.6293 38.5068 13.8311 39.3437 13.8386 39.3661C13.9656 39.0448 14.2271 38.9776 14.2271 38.9776C14.2271 38.9776 14.3915 38.9477 14.4737 38.8356C14.5186 38.7758 14.5335 38.7011 14.5186 38.6114C14.4962 38.4918 14.4439 38.4096 14.3617 38.3573C14.3093 38.3274 14.2421 38.3125 14.1823 38.3125M13.8386 39.3661C13.8386 39.3661 13.6219 38.5143 14.0104 38.3424C14.0104 38.3424 14.2122 38.2677 14.3617 38.3573C14.4439 38.4022 14.4962 38.4918 14.5186 38.6114C14.5335 38.7011 14.5186 38.7758 14.4737 38.8356C14.3915 38.9477 14.2271 38.9776 14.2271 38.9776C14.2271 38.9776 13.9581 39.0448 13.8386 39.3661Z"
            fill="#D7B46A" />
        <path
            d="M15.9535 40.5169C15.9535 40.5169 15.1987 40.3227 15.1987 39.8369C15.1987 39.3512 15.8563 39.4409 15.8787 39.7248C15.9012 39.9341 15.8264 40.1059 15.8264 40.1059C15.8264 40.1059 15.7741 40.233 15.9535 40.5169Z"
            fill="#D7B46A" />
        <path
            d="M15.535 39.4932C15.535 39.4932 15.5201 39.4932 15.5126 39.4932C15.3631 39.5006 15.1987 39.5978 15.1987 39.8369C15.1987 40.3077 15.9385 40.5094 15.9535 40.5169C15.7816 40.233 15.8264 40.1059 15.8264 40.1059C15.8264 40.1059 15.9012 39.9341 15.8787 39.7248C15.8638 39.5828 15.6919 39.4932 15.535 39.4932ZM15.9535 40.5169C15.9535 40.5169 15.1987 40.3152 15.1987 39.8369C15.1987 39.5978 15.3631 39.5006 15.5126 39.4932C15.5126 39.4932 15.5275 39.4932 15.535 39.4932C15.6919 39.4932 15.8638 39.5828 15.8787 39.7248C15.9012 39.9341 15.8264 40.1059 15.8264 40.1059C15.8264 40.1059 15.7741 40.2404 15.9535 40.5169Z"
            fill="#D7B46A" />
        <path
            d="M13.2785 37.9613C13.2785 37.9613 13.3681 37.3709 13.7717 37.1991C13.9809 37.1094 13.9734 37.356 13.9734 37.356C13.9734 37.356 14.0631 37.5951 14.2051 37.6773C14.2051 37.6773 14.0482 37.8343 13.7866 37.8268C13.6446 37.8193 13.3532 37.8492 13.271 37.9688"
            fill="#C29E4C" />
        <path
            d="M13.8538 37.2589C13.8538 37.2589 13.8313 37.2589 13.8089 37.2739C13.5922 37.3636 13.4801 37.6027 13.4203 37.7745C13.5623 37.7297 13.7192 37.7297 13.8014 37.7297C13.9285 37.7297 14.0107 37.6998 14.0705 37.6625C13.9658 37.5504 13.9061 37.4009 13.8986 37.3785V37.3486C13.8986 37.3486 13.8836 37.2739 13.8687 37.2664C13.8687 37.2664 13.8687 37.2664 13.8612 37.2664M13.1289 38.3425L13.1887 37.9464C13.1887 37.9464 13.2933 37.3038 13.7342 37.117C13.8463 37.0721 13.921 37.0945 13.9584 37.117C14.0406 37.1767 14.0555 37.2814 14.0555 37.3262C14.0854 37.3934 14.1601 37.5354 14.2498 37.5877L14.347 37.6475L14.2648 37.7297C14.2648 37.7297 14.0854 37.9016 13.8164 37.9016C13.8089 37.9016 13.794 37.9016 13.7865 37.9016C13.6221 37.8866 13.3979 37.9315 13.3456 38.0062L13.1289 38.3425Z"
            fill="#D7B46A" />
        <path
            d="M18.2252 36.1379C18.2252 36.1379 16.9175 37.0571 16.7381 37.1542C16.5663 37.2439 16.2001 37.4756 15.7443 37.341C15.2884 37.1991 15.2062 37.1393 15.0867 36.9824C14.9671 36.8254 14.728 36.5639 14.3394 36.8703C14.3394 36.8703 14.1451 37.0571 14.2273 37.2215C14.2946 37.3859 14.3095 37.4307 14.3394 37.4681C14.3693 37.5054 14.4067 37.5876 14.5187 37.5129C14.6308 37.4382 14.9372 37.2514 14.9073 37.4307C14.8849 37.6175 14.6532 37.6773 14.5785 37.6997C14.5038 37.7147 14.3319 37.7595 14.2871 37.9688C14.2871 37.9688 14.2273 38.1033 14.3693 38.1107C14.5187 38.1257 14.6159 38.2004 14.6532 38.2751C14.6906 38.3424 14.7579 38.4844 14.8924 38.3723C15.0269 38.2602 15.1838 37.9538 15.5873 37.9015C15.9909 37.8492 16.4093 37.8641 16.1627 38.0285C15.9161 38.1929 15.6396 38.5965 15.5873 38.6787C15.5873 38.6787 15.4752 38.8057 15.4155 38.8132C15.3557 38.8281 15.2137 38.9402 15.2062 39.0149C15.2062 39.0822 15.1166 39.3288 15.3333 39.3138C15.5425 39.2989 15.7741 39.269 15.8713 39.3587C15.8713 39.3587 15.9834 39.3437 16.0432 39.2242C16.1029 39.1046 16.1179 39 16.1029 38.8954C16.0805 38.7833 16.7232 37.9463 17.2911 37.8716C17.859 37.7969 18.143 38.1556 18.1056 38.3723C18.0683 38.589 18.2028 38.731 18.3447 38.731C18.4867 38.731 19.1369 38.5666 18.7109 37.7894C18.7109 37.7894 18.5839 37.5204 17.9786 37.498C17.3733 37.483 17.7096 37.1318 17.7843 37.0795C17.8516 37.0272 18.4793 36.6087 18.5839 36.5191C18.6885 36.4369 18.6735 36.25 18.6287 36.1828C18.5839 36.1081 18.4344 36.0259 18.2252 36.1454"
            fill="#D7B46A" />
        <path
            d="M15.6175 39.2018C15.7221 39.2018 15.8118 39.2168 15.8865 39.2541C15.9089 39.2392 15.9463 39.2168 15.9687 39.1719C16.021 39.0822 16.036 39.0001 16.021 38.8954C16.021 38.873 16.0061 38.8132 16.1481 38.6115C16.3349 38.3499 16.8206 37.8343 17.2764 37.7745C17.5903 37.7372 17.8668 37.8119 18.0461 37.9987C18.1582 38.1108 18.2105 38.2528 18.1881 38.3798C18.1732 38.462 18.1881 38.5367 18.233 38.5816C18.2628 38.6115 18.3002 38.6339 18.3376 38.6339C18.4048 38.6339 18.6141 38.5816 18.7112 38.4247C18.7934 38.2827 18.771 38.0809 18.629 37.8194C18.629 37.8194 18.502 37.5877 17.9714 37.5728C17.8817 37.5728 17.5978 37.5653 17.5455 37.3785C17.4857 37.1842 17.7323 36.9974 17.7323 36.9974C17.7622 36.975 17.9116 36.8703 18.076 36.7582C18.2628 36.6312 18.4721 36.4892 18.5319 36.4444C18.5991 36.3921 18.5842 36.2651 18.5617 36.2277C18.5319 36.1829 18.4347 36.1305 18.2778 36.2127C18.1881 36.2725 16.9626 37.1394 16.7833 37.229L16.7459 37.2514C16.5516 37.3561 16.1854 37.5578 15.7221 37.4158C15.2663 37.2739 15.1542 37.2066 15.0197 37.0273C14.945 36.9376 14.8478 36.8255 14.7208 36.8106C14.6237 36.8031 14.519 36.8404 14.3995 36.9301C14.3995 36.9301 14.265 37.0721 14.3098 37.1767L14.3546 37.2888C14.3845 37.3561 14.392 37.3785 14.4069 37.3934C14.4144 37.4009 14.4219 37.4084 14.4294 37.4233C14.4294 37.4308 14.4443 37.4383 14.4518 37.4457C14.4518 37.4457 14.4593 37.4457 14.4742 37.4308C14.6909 37.2963 14.8478 37.2216 14.9375 37.2813C14.9674 37.2963 15.0048 37.3411 14.9973 37.4383C14.9749 37.5952 14.8404 37.7148 14.6087 37.782C14.5116 37.8044 14.4069 37.8418 14.3771 37.9838C14.3771 37.9987 14.3696 38.0137 14.3621 38.0211C14.3621 38.0211 14.3696 38.0211 14.3771 38.0211C14.5713 38.0361 14.6909 38.1482 14.7357 38.2378C14.7656 38.2976 14.788 38.3275 14.7955 38.3275C14.7955 38.3275 14.8105 38.3275 14.8329 38.3051C14.8628 38.2827 14.8927 38.2453 14.93 38.2005C15.0496 38.066 15.2364 37.8567 15.5727 37.8119C15.8791 37.7671 16.2602 37.7521 16.3125 37.9016C16.3349 37.9688 16.305 38.0361 16.2079 38.0959C15.9986 38.2378 15.7371 38.5965 15.6549 38.7161C15.61 38.7684 15.5054 38.873 15.4232 38.888C15.3933 38.8954 15.2887 38.9851 15.2812 39.0225C15.2812 39.0225 15.2812 39.0449 15.2812 39.0673C15.2812 39.0972 15.2588 39.1943 15.2812 39.2093C15.2812 39.2093 15.2962 39.2168 15.3261 39.2093H15.3784C15.4606 39.1943 15.5428 39.1869 15.625 39.1869M15.8342 39.4484L15.8043 39.4185C15.7446 39.3587 15.5428 39.3812 15.3859 39.3886H15.3336C15.2364 39.4036 15.1766 39.3662 15.1467 39.3288C15.072 39.2466 15.0944 39.1196 15.1094 39.0374C15.1094 39.0225 15.1094 39.0075 15.1094 39.0001C15.1243 38.873 15.2962 38.746 15.3784 38.7161C15.4083 38.7086 15.4681 38.6563 15.5129 38.604C15.5129 38.604 15.8043 38.1556 16.0883 37.9539C15.9911 37.9389 15.8193 37.9464 15.5951 37.9763C15.3261 38.0137 15.1766 38.1781 15.0645 38.3051C15.0197 38.3499 14.9823 38.3948 14.945 38.4247C14.8852 38.477 14.8254 38.4919 14.7582 38.4844C14.661 38.462 14.6087 38.3649 14.5788 38.3126C14.5489 38.2528 14.4667 38.193 14.3621 38.1855C14.2724 38.1855 14.2276 38.1332 14.2052 38.1033C14.1603 38.0211 14.1977 37.9315 14.2052 37.9165C14.2575 37.6699 14.4817 37.6176 14.5564 37.5952C14.6386 37.5728 14.7731 37.5279 14.8105 37.4383C14.7731 37.4532 14.6984 37.4906 14.5639 37.5728C14.4069 37.6699 14.3173 37.5653 14.2874 37.5279C14.2351 37.4756 14.2201 37.4308 14.1828 37.3486L14.1379 37.244C14.0333 37.0273 14.265 36.8106 14.2724 36.7956C14.4294 36.6686 14.5863 36.6163 14.7283 36.6312C14.9226 36.6536 15.0571 36.7956 15.1467 36.9152C15.2439 37.0422 15.3037 37.102 15.7595 37.244C16.1481 37.3635 16.4619 37.1917 16.6487 37.087L16.6861 37.0646C16.8206 36.9899 17.7099 36.3697 18.1657 36.0558H18.1732C18.4347 35.8989 18.629 36.011 18.6963 36.1156C18.7635 36.2202 18.7785 36.4593 18.629 36.564C18.5692 36.6088 18.36 36.7582 18.1657 36.8853C18.0088 36.9974 17.8593 37.0945 17.8294 37.1244C17.7696 37.1692 17.6874 37.2739 17.7024 37.3187C17.7024 37.3187 17.7248 37.3785 17.9714 37.386C18.6215 37.4084 18.771 37.7148 18.7785 37.7297C18.9503 38.0436 18.9727 38.3051 18.8532 38.4994C18.7187 38.7236 18.4422 38.7908 18.3301 38.7908C18.2404 38.7908 18.1508 38.7535 18.091 38.6787C18.0162 38.5891 17.9864 38.4695 18.0088 38.335C18.0162 38.2677 17.9789 38.1781 17.9116 38.1033C17.7771 37.9614 17.5529 37.9016 17.2914 37.9315C16.7833 37.9987 16.2079 38.746 16.1854 38.8655C16.2004 38.9926 16.1854 39.1121 16.1182 39.2392C16.036 39.3961 15.894 39.4185 15.8791 39.426H15.8342V39.4484Z"
            fill="#D7B46A" />
        <path
            d="M21.8944 22.0745C21.7076 22.0745 21.5581 22.2239 21.5581 22.4107C21.5581 22.5975 21.7076 22.7395 21.8944 22.7395C22.0812 22.7395 22.2232 22.5901 22.2232 22.4107C22.2232 22.2314 22.0737 22.0745 21.8944 22.0745ZM21.8495 22.6499C21.7374 22.6499 21.6403 22.5602 21.6403 22.4481C21.6403 22.3285 21.73 22.2389 21.8495 22.2389C21.9691 22.2389 22.0588 22.3285 22.0588 22.4481C22.0588 22.5602 21.9691 22.6499 21.8495 22.6499Z"
            fill="#BD733A" />
        <path
            d="M21.9988 22.1865C22.0661 22.2238 22.1184 22.2911 22.1333 22.3733C22.1184 22.2911 22.0735 22.2164 21.9988 22.1865ZM21.8494 22.321C21.7821 22.321 21.7298 22.3733 21.7298 22.4405C21.7298 22.5003 21.7821 22.5601 21.8494 22.5601C21.9166 22.5601 21.9689 22.5078 21.9689 22.4405C21.9689 22.3733 21.9166 22.321 21.8494 22.321ZM21.8942 22.8291C21.6626 22.8291 21.4683 22.6423 21.4683 22.4107C21.4683 22.179 21.6626 21.9922 21.8942 21.9922C22.1259 21.9922 22.3127 22.179 22.3127 22.4107C22.3127 22.6423 22.1259 22.8291 21.8942 22.8291Z"
            fill="#D7B46A" />
        <path
            d="M49.3413 17.9047C49.3413 17.5834 49.5879 17.3069 49.9391 17.3069H52.1361C52.4574 17.3069 52.7339 17.5834 52.7339 17.9047V24.6451L59.0259 17.5535C59.123 17.4264 59.2725 17.3069 59.4967 17.3069H61.9925C62.4633 17.3069 62.7174 17.83 62.3961 18.2036L55.8799 25.5418L62.8743 33.9037C63.1209 34.225 62.9266 34.778 62.426 34.778H59.7059C59.4593 34.778 59.3099 34.6809 59.2575 34.6061L52.7414 26.5655V34.1802C52.7414 34.5015 52.4649 34.778 52.1436 34.778H49.9466C49.5954 34.778 49.3488 34.5015 49.3488 34.1802V17.8972L49.3413 17.9047Z"
            fill="white" />
        <path
            d="M65.6465 17.7777C65.6465 17.5311 65.8482 17.3069 66.1173 17.3069H73.2611C76.2577 17.3069 78.7012 19.7056 78.7012 22.6723C78.7012 24.9664 77.1768 26.842 75.0023 27.7163L78.4248 34.0606C78.5966 34.3819 78.4248 34.7855 77.9988 34.7855H75.3759C75.1517 34.7855 75.0247 34.6584 74.9799 34.5613L71.662 27.9405H68.8896V34.3072C68.8896 34.5538 68.6654 34.778 68.4188 34.778H66.1247C65.8482 34.778 65.654 34.5538 65.654 34.3072V17.7777H65.6465ZM72.9847 25.2728C74.3073 25.2728 75.4581 24.122 75.4581 22.7246C75.4581 21.4019 74.3073 20.3034 72.9847 20.3034H68.912V25.2728H72.9847Z"
            fill="white" />
        <path
            d="M80.7491 34.1353L88.5132 17.3292C88.5879 17.1798 88.715 17.0527 88.9391 17.0527H89.1857C89.4323 17.0527 89.537 17.1798 89.6117 17.3292L97.3011 34.1353C97.4505 34.4566 97.2488 34.7854 96.8751 34.7854H94.7006C94.3269 34.7854 94.1476 34.6359 93.9757 34.2847L92.7502 31.5871H85.285L84.0595 34.2847C83.9623 34.5313 83.7382 34.7854 83.3346 34.7854H81.1601C80.7865 34.7854 80.5847 34.4641 80.7342 34.1353H80.7491ZM91.5396 28.8147L89.0438 23.3223H88.969L86.5255 28.8147H91.5471H91.5396Z"
            fill="white" />
        <path
            d="M102.143 17.4264C102.166 17.2246 102.315 17.0527 102.592 17.0527H102.988C103.189 17.0527 103.339 17.1499 103.414 17.2993L108.906 29.0837H108.981L114.473 17.2993C114.548 17.1499 114.675 17.0527 114.899 17.0527H115.295C115.572 17.0527 115.721 17.2246 115.743 17.4264L118.688 34.21C118.762 34.5612 118.561 34.7854 118.239 34.7854H115.968C115.743 34.7854 115.542 34.5836 115.497 34.4118L114.025 24.9439H113.95L109.578 34.7555C109.526 34.905 109.377 35.032 109.153 35.032H108.704C108.48 35.032 108.353 34.905 108.278 34.7555L103.854 24.9439H103.78L102.33 34.4118C102.308 34.5836 102.106 34.7854 101.882 34.7854H99.6323C99.311 34.7854 99.1092 34.5612 99.1616 34.21L102.136 17.4264H102.143Z"
            fill="white" />
        <path
            d="M121.916 17.7777C121.916 17.5311 122.118 17.3069 122.387 17.3069H132.55C132.826 17.3069 133.02 17.5311 133.02 17.7777V19.8252C133.02 20.0718 132.819 20.296 132.55 20.296H125.159V24.9888H131.324C131.571 24.9888 131.802 25.213 131.802 25.4596V27.5071C131.802 27.7537 131.578 27.9853 131.324 27.9853H125.159V34.2997C125.159 34.5463 124.935 34.7705 124.688 34.7705H122.394C122.118 34.7705 121.923 34.5463 121.923 34.2997V17.7702L121.916 17.7777Z"
            fill="white" />
        <path
            d="M143.721 17.0527C148.713 17.0527 152.711 21.073 152.711 26.0648C152.711 31.0565 148.713 35.032 143.721 35.032C138.729 35.032 134.754 31.064 134.754 26.0648C134.754 21.0656 138.722 17.0527 143.721 17.0527ZM143.721 31.7888C146.867 31.7888 149.468 29.2182 149.468 26.0723C149.468 22.9263 146.867 20.3033 143.721 20.3033C140.575 20.3033 138.005 22.9263 138.005 26.0723C138.005 29.2182 140.575 31.7888 143.721 31.7888Z"
            fill="white" />
        <path
            d="M155.977 17.7777C155.977 17.5311 156.178 17.3069 156.447 17.3069H163.591C166.588 17.3069 169.031 19.7056 169.031 22.6723C169.031 24.9664 167.507 26.842 165.332 27.7163L168.755 34.0606C168.927 34.3819 168.755 34.7855 168.329 34.7855H165.706C165.482 34.7855 165.355 34.6584 165.31 34.5613L161.992 27.9405H159.22V34.3072C159.22 34.5538 158.996 34.778 158.749 34.778H156.455C156.178 34.778 155.984 34.5538 155.984 34.3072V17.7777H155.977ZM163.322 25.2728C164.645 25.2728 165.796 24.122 165.796 22.7246C165.796 21.4019 164.645 20.3034 163.322 20.3034H159.25V25.2728H163.322Z"
            fill="white" />
        <path
            d="M171.58 32.3344L172.476 30.7875C172.678 30.4363 173.096 30.4363 173.328 30.6156C173.455 30.6904 175.473 32.1625 177.102 32.1625C178.402 32.1625 179.374 31.3106 179.374 30.242C179.374 28.9717 178.297 28.0973 176.205 27.2455C173.859 26.2964 171.512 24.8019 171.512 21.8502C171.512 19.6308 173.164 17.0527 177.132 17.0527C179.68 17.0527 181.63 18.353 182.123 18.7266C182.37 18.8761 182.445 19.302 182.273 19.5486L181.324 20.9684C181.122 21.2673 180.749 21.4691 180.45 21.2673C180.248 21.1403 178.35 19.8924 176.975 19.8924C175.6 19.8924 174.778 20.8414 174.778 21.641C174.778 22.8142 175.704 23.6137 177.722 24.4357C180.143 25.4072 182.938 26.8569 182.938 30.0776C182.938 32.6482 180.719 35.0245 177.192 35.0245C174.046 35.0245 172.2 33.5524 171.699 33.0741C171.475 32.85 171.348 32.7229 171.572 32.3269L171.58 32.3344Z"
            fill="white" />
        <path
            d="M49.3413 41.5483C49.3413 41.2269 49.5879 40.9504 49.9391 40.9504H52.1361C52.4574 40.9504 52.7339 41.2269 52.7339 41.5483V48.2886L59.0259 41.197C59.123 41.07 59.2725 40.9504 59.4967 40.9504H61.9925C62.4633 40.9504 62.7174 41.4735 62.3961 41.8472L55.8799 49.1853L62.8743 57.5473C63.1209 57.8686 62.9266 58.4216 62.426 58.4216H59.7059C59.4593 58.4216 59.3099 58.3244 59.2575 58.2497L52.7414 50.2091V57.8237C52.7414 58.1451 52.4649 58.4216 52.1436 58.4216H49.9466C49.5954 58.4216 49.3488 58.1451 49.3488 57.8237V41.5408L49.3413 41.5483Z"
            fill="white" />
        <path
            d="M71.6923 40.6963C76.6841 40.6963 80.6819 44.7166 80.6819 49.7083C80.6819 54.7001 76.6841 58.6755 71.6923 58.6755C66.7006 58.6755 62.7251 54.7076 62.7251 49.7083C62.7251 44.7091 66.6931 40.6963 71.6923 40.6963ZM71.6923 55.4324C74.8383 55.4324 77.4388 52.8618 77.4388 49.7158C77.4388 46.5698 74.8383 43.9469 71.6923 43.9469C68.5463 43.9469 65.9757 46.5698 65.9757 49.7158C65.9757 52.8618 68.5463 55.4324 71.6923 55.4324Z"
            fill="white" />
        <path
            d="M85.2999 41.0775C85.3223 40.8757 85.4718 40.7039 85.7482 40.7039H86.1443C86.3461 40.7039 86.4955 40.801 86.5702 40.9505L92.0627 52.7349H92.1374L97.6298 40.9505C97.7045 40.801 97.8316 40.7039 98.0557 40.7039H98.4518C98.7283 40.7039 98.8777 40.8757 98.9002 41.0775L101.844 57.8611C101.919 58.2123 101.717 58.4365 101.396 58.4365H99.1243C98.9002 58.4365 98.6984 58.2347 98.6536 58.0629L97.1814 48.595H97.1067L92.7352 58.4066C92.6829 58.5561 92.5334 58.6831 92.3093 58.6831H91.8609C91.6367 58.6831 91.5097 58.5561 91.435 58.4066L87.0111 48.595H86.9364L85.4867 58.0629C85.4643 58.2347 85.2625 58.4365 85.0383 58.4365H82.7891C82.4677 58.4365 82.266 58.2123 82.3183 57.8611L85.2924 41.0775H85.2999Z"
            fill="white" />
        <path
            d="M107.098 41.0775C107.12 40.8757 107.27 40.7039 107.546 40.7039H107.942C108.144 40.7039 108.293 40.801 108.368 40.9505L113.861 52.7349H113.935L119.428 40.9505C119.502 40.801 119.629 40.7039 119.854 40.7039H120.25C120.526 40.7039 120.676 40.8757 120.698 41.0775L123.642 57.8611C123.717 58.2123 123.515 58.4365 123.194 58.4365H120.922C120.698 58.4365 120.496 58.2347 120.451 58.0629L118.979 48.595H118.905L114.533 58.4066C114.481 58.5561 114.331 58.6831 114.107 58.6831H113.659C113.435 58.6831 113.308 58.5561 113.233 58.4066L108.809 48.595H108.734L107.285 58.0629C107.262 58.2347 107.06 58.4365 106.836 58.4365H104.587C104.266 58.4365 104.064 58.2123 104.116 57.8611L107.09 41.0775H107.098Z"
            fill="white" />
        <path
            d="M126.071 41.4212C126.071 41.1746 126.295 40.9504 126.542 40.9504H128.91C129.187 40.9504 129.381 41.1746 129.381 41.4212V51.6364C129.381 53.7586 130.831 55.4325 133.005 55.4325C135.18 55.4325 136.652 53.7586 136.652 51.6588V41.4212C136.652 41.1746 136.854 40.9504 137.13 40.9504H139.499C139.746 40.9504 139.977 41.1746 139.977 41.4212V51.8082C139.977 55.6044 136.958 58.6756 133.013 58.6756C129.067 58.6756 126.071 55.6044 126.071 51.8082V41.4212Z"
            fill="white" />
        <path
            d="M144.274 41.1522C144.274 40.9056 144.498 40.7039 144.745 40.7039H145.372L155.759 51.741H155.782V41.4287C155.782 41.1821 155.984 40.9579 156.253 40.9579H158.547C158.793 40.9579 159.018 41.1821 159.018 41.4287V58.2348C159.018 58.4813 158.793 58.6831 158.547 58.6831H157.949L147.51 47.22H147.487V57.9583C147.487 58.2049 147.285 58.429 147.016 58.429H144.745C144.498 58.429 144.274 58.2049 144.274 57.9583V41.1522Z"
            fill="white" />
    </g>
    <defs>
        <clipPath id="clip0_852_24049">
            <rect width="182.445" height="67" fill="white" transform="translate(0.5)" />
        </clipPath>
    </defs>
</svg>