<svg viewBox="0 0 194 52" fill="none" xmlns="http://www.w3.org/2000/svg">
    <g clip-path="url(#clip0_852_25740)">
        <path
            d="M0.090332 32.899V31.5999C0.090332 26.1132 0.090332 29.5317 0.090332 6.34991V5.98242H40.3541V32.9118C39.6634 43.4152 30.8212 51.6538 20.2244 51.6538C9.6275 51.6538 0.781058 43.4024 0.090332 32.899ZM0.952667 6.79859V31.5615V32.8306H0.961247C1.61765 42.8554 10.0222 50.7821 20.2544 50.7821C30.4866 50.7821 38.8911 42.8511 39.5475 32.8306H39.5561V6.79859H0.952667Z"
            fill="white" />
        <path
            d="M33.6397 36.0952C33.6397 36.0952 30.8725 40.0351 27.1314 36.0952C27.1314 36.0952 24.154 39.9924 20.4945 36.0098C20.4945 36.0098 17.1352 39.9924 13.9004 35.8816C13.9004 35.8816 10.923 39.8214 7.30631 36.0525C7.30631 36.0525 4.48335 39.6163 1.48877 36.3645C3.63388 44.6843 11.2362 50.8376 20.2542 50.8376C29.2723 50.8376 36.3254 45.1201 38.7665 37.2575C37.8012 37.9626 36.0036 38.5566 33.6397 36.0952Z"
            fill="white" />
        <path
            d="M38.475 10.8409C38.4321 11.0546 38.179 11.1785 38.0203 11.2938C37.9044 11.375 37.7585 11.5203 37.617 11.5673C36.3514 12.016 33.7987 11.9434 32.3314 11.7682C32.0826 11.7383 31.1087 11.5374 30.8727 11.6186C30.817 11.6357 30.7784 11.7468 30.7483 11.7938C31.1473 12.4433 34.6224 12.4903 35.8065 12.3707C36.4028 12.3109 37.1021 12.016 37.6942 12.0929C37.7285 12.2254 37.7585 12.345 37.6942 12.4946C37.1279 13.768 33.7815 13.6697 32.0783 13.4219C31.4862 13.3364 30.9585 13.2039 30.2893 13.1228C30.2464 13.1142 30.1563 13.0672 30.0876 13.0715C29.9117 13.0886 29.8173 13.221 29.7358 13.345C30.0662 13.5415 30.4823 13.6313 30.9199 13.721C32.3271 14.0116 33.8587 14.1398 35.4504 13.9945C35.7893 13.9646 36.1454 13.8492 36.4586 13.7936C36.7074 13.7509 36.7932 13.8663 36.7117 14.1184C36.6517 14.3021 36.4929 14.3748 36.3342 14.4688C35.1286 15.1824 32.7819 15.1269 31.0958 14.8448C30.5681 14.7551 30.0018 14.6312 29.4613 14.5201C29.3497 14.4987 29.1395 14.3962 29.0322 14.3962C28.8306 14.3962 28.7619 14.5286 28.7062 14.6953C29.4441 15.2123 30.9371 15.285 32.0311 15.3704C32.5717 15.4132 33.1937 15.5157 33.8158 15.473C34.0647 15.4516 35.5448 15.1525 35.652 15.2209C35.7121 15.2636 35.652 15.5114 35.6263 15.5713C35.5662 15.7336 35.4032 15.7977 35.2745 15.9003C34.2792 16.6652 31.9067 16.1909 30.5939 16.0755C30.2206 16.0413 29.9375 16.0499 29.5642 15.9986C29.0279 15.9259 28.423 15.708 27.8524 15.7507L27.8267 15.849C28.1871 16.3832 31.8123 16.819 32.9106 16.7763C33.4168 16.7549 34.2105 16.5199 34.5967 16.6994C34.558 17.1865 34.2062 17.2933 33.8158 17.4258C31.9796 18.054 29.7401 17.5583 28.0755 17.1224C27.5392 16.9814 27.0072 16.6225 26.3895 16.6695C26.8013 16.9814 27.1831 17.3617 27.6207 17.648C28.629 18.3061 29.7358 18.8445 30.6668 19.5795C30.7955 19.682 30.9886 19.8401 31.0443 20.0068C31.1816 20.4042 30.7569 20.6392 30.4394 20.6349C30.4823 20.6008 30.3408 20.6606 30.3408 20.6606C30.3236 20.8785 30.2807 20.9811 30.1134 21.0366C29.8688 21.1178 29.7058 21.0024 29.5599 20.9341C29.517 20.964 29.4441 21.0153 29.5342 21.0836C29.4613 21.2802 29.2982 21.4084 29.0322 21.3827C29.0065 21.3827 28.8907 21.3058 28.8821 21.3058C28.7963 21.3058 28.822 21.4981 28.7319 21.5579C28.6676 21.5964 28.29 21.7203 28.2042 21.7075C27.9725 21.6776 27.8009 21.4084 27.6508 21.2802C26.6983 20.4811 25.9561 19.5453 25.111 18.6479C24.9136 18.4385 24.609 18.0454 24.2572 18.3488C24.1199 18.4642 24.5575 18.977 24.6348 19.1009C24.8107 19.3915 25.4413 20.511 25.1882 20.9811C25.1195 21.1093 24.9222 21.0879 24.7849 21.1563C24.5661 21.2631 23.7295 21.8998 23.6008 22.0835C23.1932 22.6775 23.8024 23.2416 23.4764 23.6902C23.4163 23.7714 23.2533 23.9167 23.1503 23.9424C22.7513 24.0364 22.4253 23.8441 22.5197 23.5663C22.5626 23.4467 22.6999 23.3398 22.6698 23.1903C22.6398 23.0322 22.0306 22.5109 21.8375 22.5621C21.6616 22.6091 21.7045 22.7715 21.3871 22.8399C21.2798 22.6903 21.2112 22.545 21.1597 22.3399C20.9838 22.4211 20.8851 22.4339 20.6577 22.3912C20.7264 21.8998 20.6191 21.84 20.2287 21.6648C20.1386 21.6263 20.0056 21.528 19.8769 21.5409C19.6109 21.5622 19.7997 21.7588 19.3749 21.6178C19.3449 21.6947 19.2977 21.8015 19.2763 21.8955C19.2462 22.0024 19.2377 22.0408 19.199 22.122C19.006 22.0707 18.8558 22.0152 18.77 21.8699C18.6928 21.7417 18.7228 21.4768 18.7443 21.3186C18.7657 21.1477 18.8687 20.7332 18.9717 20.6905C19.0789 20.6478 19.302 20.7119 19.3749 20.7161C19.6238 20.7332 19.9841 20.8443 20.233 20.7674C20.3231 20.7375 20.4046 20.5452 20.4604 20.4683C20.4604 20.4854 20.4818 20.417 20.4861 20.3956C20.4947 20.2632 20.4046 20.1734 20.3359 20.1179C20.1257 19.9512 19.967 19.8316 19.8083 19.6179C19.7353 19.5239 19.5637 19.2205 19.4822 19.165C19.2763 19.024 18.6713 18.9898 18.4011 18.9129C18.3539 18.9001 18.3067 18.8445 18.1994 18.8616C17.9463 18.9043 17.9163 19.1992 17.5473 19.2633C17.0711 19.3487 17.3499 19.7504 17.4701 20.041C17.5602 20.2589 17.6417 20.4298 17.6674 20.7076C17.5816 20.7418 17.4829 20.7845 17.3886 20.8401L17.3414 20.87C17.3285 20.8785 17.3113 20.8871 17.2985 20.8956C17.2985 20.8956 17.2856 20.9084 17.2599 20.9255L17.2084 20.9597C17.1612 20.9939 17.1011 21.0409 17.0368 21.0922C16.9681 21.0836 16.9038 21.0452 16.7922 20.9982C16.3889 21.5836 16.5477 22.3912 16.8437 22.9766C16.9123 23.1176 16.9767 23.2074 17.0453 23.3783C16.2045 23.6603 15.6853 23.4296 15.4837 22.6775C15.3936 22.3399 15.4279 21.8442 15.2563 21.575C15.059 21.2674 14.6814 21.0708 14.6042 20.6478C14.424 19.7077 15.1662 19.2633 15.3593 18.5155C15.4279 18.2505 15.4065 18.0027 15.458 17.7121C15.518 17.3745 15.6424 17.0711 15.7368 16.7592C15.355 16.8447 14.8488 17.0412 14.4283 17.1609C13.5016 17.4258 12.6093 17.5497 11.5839 17.7121C10.1038 17.9471 8.26326 18.1052 6.95045 17.6096C6.73165 17.5284 6.12244 17.3275 6.14389 17.0583C6.16105 16.819 6.68446 16.9173 6.92471 16.9344C8.91966 17.084 10.7816 16.7763 12.3132 16.3062C12.7294 16.1781 13.1069 16.1524 13.3214 15.8319C12.9396 15.6525 12.4763 15.9088 12.1116 15.9815C11.3651 16.1353 10.6186 16.3362 9.87209 16.4344C9.17708 16.5242 8.42629 16.5669 7.70553 16.5584C7.06629 16.5541 6.46994 16.4943 5.94225 16.3319C5.75777 16.2763 4.48357 15.7166 4.98553 15.4559C5.13998 15.3747 6.43562 15.6311 6.74881 15.6567C8.38338 15.7807 11.2964 15.5072 11.9357 14.7295C11.867 14.5842 11.8713 14.503 11.6354 14.5286C11.4766 14.5457 11.2793 14.6568 11.1334 14.7038C10.713 14.832 10.2411 14.926 9.79916 15.0029C8.43487 15.238 6.25114 15.1269 5.06704 14.8277C4.79676 14.7594 4.53505 14.5927 4.31196 14.4773C4.13177 14.3833 3.96016 14.3406 3.86149 14.1782C3.80143 14.0799 3.74994 13.7851 3.88723 13.6996C3.99449 13.6355 5.66338 13.9774 6.00231 13.9988C6.9719 14.0714 10.61 13.9902 10.7087 13.4219C10.773 13.0544 10.1338 13.2552 9.95361 13.2723C7.77846 13.4646 4.2948 13.815 2.98199 12.5202C2.90906 12.4476 2.7589 12.1827 2.90477 12.0459H2.95625C3.36382 11.9049 4.11461 12.2852 4.54363 12.3707C5.96799 12.6527 7.64118 12.5715 8.92395 12.3194C9.13417 12.2767 9.37443 12.2724 9.52887 12.1698C9.60181 12.1228 9.58894 12.0545 9.62755 11.969C9.31865 11.7511 8.85531 11.9605 8.52067 11.9946C8.21178 12.0246 7.73127 12.0374 7.38805 12.0459C5.91222 12.0673 2.71171 11.5887 2.25265 10.7683C2.20117 10.6742 2.21833 10.5931 2.20117 10.4691C2.47146 10.2768 2.8018 10.4008 3.13215 10.4691C5.47461 10.952 8.89821 11.046 11.3393 10.5674C12.0129 10.4349 12.6951 10.2384 13.33 10.0418C14.3682 9.71706 16.0886 8.9308 17.5087 9.4393C17.7747 9.53331 18.1436 9.72988 18.341 9.9179C18.6456 10.2085 18.9116 10.952 18.6413 11.499C18.5941 11.593 18.474 11.6913 18.4139 11.7767C18.0879 12.2339 17.8176 12.4732 17.7618 13.2296C17.7404 13.4817 17.7575 13.7125 17.8347 13.909C18.0879 13.7466 18.311 13.5843 18.5641 13.4304C18.933 13.2125 19.4221 12.9476 19.9241 12.8792C21.2541 12.6997 22.2623 13.3663 23.0431 13.8577C23.3005 13.2766 23.0259 12.8407 22.7685 12.4775C22.2837 11.8024 21.6359 10.9477 22.318 9.99481C22.5111 9.72561 22.7728 9.55468 23.1246 9.44358C23.2104 9.41794 23.3305 9.38375 23.3992 9.36666C23.5193 9.33675 23.6265 9.30684 23.7295 9.28974C23.7724 9.2812 23.8925 9.26411 23.9054 9.26411C24.0513 9.24701 24.2443 9.24701 24.3602 9.23847C25.4156 9.16155 26.3637 9.46067 27.2303 9.64014C28.0884 9.81534 28.8949 9.88371 29.7487 10.0675C31.2589 10.3922 32.6532 10.6358 34.4293 10.7683C35.3818 10.8409 36.5401 10.8537 37.4239 10.6913C37.6813 10.6443 38.6166 10.264 38.505 10.8409H38.475ZM15.591 20.0453C15.5609 20.0837 15.4794 20.2717 15.4408 20.2974C15.3979 20.323 15.4923 20.4213 15.4923 20.4213C15.458 20.4213 15.5824 20.4683 15.591 20.4726C15.6253 20.4298 15.8527 20.1734 15.7154 20.0709C15.6725 20.041 15.6382 20.0709 15.591 20.0453ZM22.0606 19.1906L22.1121 19.5923C22.1679 19.8359 22.3824 20.3316 22.0606 20.4427C21.9791 20.4683 21.8761 20.4256 21.7818 20.4683C21.7131 20.4982 21.7131 20.652 21.6573 20.6948C21.5587 20.7631 21.3184 20.7802 21.2026 20.8443C21.2154 21.199 21.3742 21.2759 21.4042 21.6477C21.8676 21.5109 22.2022 21.84 22.5883 21.6477C22.7685 21.5579 23.1589 21.3357 23.1932 21.1221C23.219 20.964 22.4982 19.6436 22.3867 19.4684C22.3052 19.3402 22.1893 19.2761 22.0606 19.1906ZM23.4549 20.9811C23.4549 21.1093 23.4721 21.2674 23.4292 21.3571C23.3949 21.4298 22.9101 21.8186 22.8243 21.8571C22.6527 21.934 22.2665 22.0024 21.9448 21.9553C21.9147 21.9511 21.7431 21.8742 21.7045 21.8699C21.2626 21.8229 21.4342 22.4724 21.4385 22.4724C21.5029 22.5023 21.4857 22.3912 21.5458 22.404C21.5758 22.3528 21.5844 22.2972 21.623 22.2545C21.6445 22.2246 21.6959 22.1818 21.7217 22.1519C21.889 22.3698 22.0392 22.1818 22.1893 22.3143C22.4768 22.5707 22.7471 22.8869 22.9315 23.2544C22.8243 23.3869 22.79 23.4766 22.7299 23.6817C22.8028 23.6902 22.8886 23.733 22.983 23.7073C23.0688 23.6817 23.1632 23.4894 23.2104 23.4082C23.412 23.0407 22.9873 22.7117 23.1332 22.2801C23.3477 21.6434 24.077 21.481 24.3902 20.9768C24.3001 21.0024 24.2658 21.0024 24.1886 21.0281C24.2143 21.0281 24.1285 21.0537 24.1113 21.0537C23.944 21.0323 23.8925 20.8828 23.6823 20.9042C23.6394 20.9084 23.5236 20.964 23.4549 20.9811ZM19.8812 21.0323C19.8469 21.0323 19.3192 20.9939 19.4522 21.0067C19.3835 20.9982 19.2076 20.9469 19.1476 20.9554C18.8773 20.9896 18.9073 21.5067 18.9288 21.6178C18.8944 21.6434 18.9974 21.7075 18.9974 21.7075C19.0274 21.6178 19.0532 21.528 19.1004 21.4554C19.1433 21.3785 19.2076 21.2973 19.2505 21.2033C19.272 21.2033 19.332 21.2118 19.3492 21.2033C19.3578 21.2161 19.3878 21.293 19.4007 21.3016C19.6281 21.4725 19.6238 21.1648 19.8769 21.2033C19.9455 21.2118 20.0185 21.3272 20.0785 21.3528C20.6062 21.5879 20.7521 21.3742 20.8594 22.0793C20.8594 22.1733 20.9323 22.0793 20.9366 22.0793C20.9752 21.9212 21.091 21.5451 21.061 21.4298C21.0395 21.34 20.9151 21.2417 20.8851 21.152C20.7349 20.7247 20.9752 20.5238 21.2884 20.3999C21.2884 20.3957 21.2841 20.3273 21.2884 20.3273C21.1211 20.2333 21.0095 20.1863 20.8079 20.1264C20.6963 20.6649 20.5204 21.0751 19.8769 21.0281L19.8812 21.0323ZM16.8866 19.9512C16.4962 20.0837 16.286 20.37 16.08 20.6777C16.0286 20.7546 15.9857 20.8913 15.9041 20.9298C15.6896 21.0195 15.5695 20.964 15.4751 21.1563C15.4665 21.1734 15.4236 21.2802 15.4236 21.2845C15.4151 21.4511 15.5867 21.6263 15.6253 21.7844C15.7583 22.3186 15.6467 23.1262 16.2302 23.186C16.3889 23.2031 16.4147 23.1732 16.582 23.186C16.582 23.1647 16.5992 23.0621 16.5563 23.0835C16.3761 22.7972 16.1873 22.357 16.153 21.9553C16.0758 21.0836 16.5563 20.0752 17.1569 20.9512C17.41 20.7931 17.3242 20.7589 17.2599 20.4726C17.2084 20.2546 17.1655 19.9171 16.9081 19.9213C16.7879 19.9213 16.9681 19.9171 16.8823 19.947L16.8866 19.9512Z"
            fill="white" />
        <path
            d="M23.279 23.6348C23.279 23.6348 24.2014 25.0322 24.4545 26.2457C24.4545 26.2457 25.3126 29.254 23.8239 30.8607C23.8239 30.8607 24.18 31.9034 23.0044 32.3008C23.0044 32.3008 21.5586 33.0956 21.1596 32.1341C21.1596 32.1341 18.9802 32.3862 17.277 30.0446C17.277 30.0446 15.2434 27.9336 15.621 23.8998C15.621 23.8998 15.9556 21.7888 17.2555 20.9128C17.2555 20.9128 17.8218 20.3915 19.1432 20.6821L19.9627 20.8915C19.9627 20.8915 21.8718 21.729 23.279 23.6306V23.6348ZM20.3831 24.1134C20.2115 24.2074 20.1815 24.3655 20.1815 24.639C20.3316 24.639 20.4475 24.6518 20.5333 24.6903C20.7993 24.7971 21.1382 25.3612 21.1897 25.6688C21.2197 25.8611 20.988 26.0919 21.0867 26.1432C21.4857 26.2158 21.3999 26.0278 21.5415 25.7928C21.55 25.7757 21.6101 25.7757 21.6187 25.7671C21.683 26.015 21.49 26.1346 21.593 26.3184C21.6659 26.4508 21.8375 26.438 21.919 26.5918C21.9104 26.5918 21.889 26.6389 21.8418 26.6431C21.6401 26.6431 21.5972 26.5705 21.387 26.6688C21.3999 26.7158 21.387 26.7713 21.387 26.8183C21.6144 26.8952 21.7989 26.985 21.9147 27.1687C22.185 27.6131 22.3609 28.8353 23.2232 28.6259C23.279 28.6088 23.3777 28.5148 23.4249 28.4763C23.575 28.3438 23.6394 28.0404 23.5021 27.8225C23.4635 27.767 23.2962 27.6559 23.2232 27.6473C23.2018 27.643 23.1503 27.6644 23.1718 27.673C23.0731 27.7499 23.0388 27.7499 22.8929 27.8011C22.185 26.8269 21.9962 25.3697 21.2798 24.3912C21.1553 24.2203 20.855 24.0151 20.5247 24.0664C20.4904 24.0707 20.4131 24.0963 20.3745 24.1177L20.3831 24.1134ZM17.8176 21.9085C17.8176 21.9085 17.8176 21.9769 17.8176 21.9854C17.7532 22.0153 17.7017 22.0324 17.6417 22.0623L17.6502 22.1777C17.8476 22.0965 17.8476 22.0751 17.8819 22.1136C17.9463 22.1777 17.9935 22.3272 18.0063 22.4042C18.0149 22.4683 18.0278 22.4768 17.9591 22.5965C17.8905 22.7076 17.9548 22.7973 18.208 22.8999C17.9076 23.0793 16.9981 23.4596 17.2427 24.0451C17.3456 24.2929 17.6717 24.3826 17.9977 24.4211C18.0406 24.592 18.0793 24.686 18.1479 24.8228C18.9416 24.6689 19.5422 24.3057 20.1386 23.9468C20.13 23.9425 20.1386 23.857 20.1386 23.8442C20.1386 23.8442 20.0785 23.7032 20.0399 23.6434C20.0141 23.6049 19.8983 23.5152 19.8897 23.4938C19.8769 23.4639 19.9112 23.3485 19.9155 23.3699C19.9798 23.199 20.1815 22.7887 20.0399 22.5409C19.8511 22.2076 18.7743 22.6648 18.5297 22.7674C18.5383 22.6776 18.5726 22.4939 18.5383 22.4084L18.4525 22.3401C18.4525 22.3401 18.3367 22.3529 18.2766 22.3401C18.1522 22.3102 18.0149 22.0709 18.1265 21.9897C18.1779 21.9512 18.238 21.917 18.3024 21.8871C18.3024 21.8828 18.2981 21.8059 18.3024 21.8017C17.9892 21.8786 18.0192 21.9512 17.8991 21.7034C17.7275 21.7376 17.7489 21.7247 17.8218 21.9128L17.8176 21.9085ZM17.8647 23.3357C17.7961 23.8058 17.9634 24.0194 18.268 24.1861C18.2251 24.2032 18.1436 24.2801 18.0921 24.2886C17.7918 24.3185 17.41 23.9169 17.4872 23.5878C17.5044 23.5152 17.6073 23.481 17.6631 23.4383C17.6974 23.4126 17.7961 23.2887 17.839 23.2887C17.8819 23.2887 17.8991 23.3613 17.8647 23.34V23.3357ZM18.4225 22.9853C18.474 23.4383 18.6198 23.6989 18.8258 23.9895C18.7614 24.0194 18.7142 24.0365 18.6241 24.0664C18.5726 24.0792 18.534 24.1348 18.4482 24.1177C18.2809 24.0835 17.9076 23.4639 18.0707 23.1648C18.1007 23.1092 18.2938 23.0238 18.3495 22.9896C18.3495 22.9896 18.4225 22.9896 18.4268 22.9896L18.4225 22.9853ZM19.3792 23.6904C19.2762 23.763 19.1647 23.8357 19.0531 23.8912L18.9759 23.8656C18.9116 23.3998 18.8 23.1691 18.5383 22.9212C18.5984 22.887 18.7442 22.7802 18.7743 22.7887C19.1089 22.8785 19.4092 23.2802 19.3792 23.6904ZM19.8039 23.387C19.7868 23.4383 19.6194 23.528 19.5765 23.5622C19.5465 22.9853 19.4521 22.9768 19.0231 22.7332C19.0317 22.7289 19.0317 22.6648 19.0488 22.6563C19.1132 22.6178 19.3363 22.5537 19.4006 22.558C19.6409 22.558 19.9069 23.058 19.8039 23.387ZM19.4521 24.5407C19.2719 24.8698 19.6581 24.951 19.8297 24.9681C19.8511 24.9681 19.9198 25.1219 19.9326 25.1433C20.0485 25.3996 20.1429 25.6389 20.2587 25.8953C20.1085 25.9637 19.9798 26.0321 19.8297 26.0962C19.6666 26.1688 19.5894 26.2073 19.5894 26.2073C19.5079 26.0449 19.2333 25.5535 19.2247 25.5193C19.1818 25.3526 19.3577 25.2672 19.2505 25.092C19.2119 25.0322 19.1647 25.0492 19.1003 25.0151C18.7485 24.8399 18.2809 24.9082 18.0192 25.139C17.809 25.327 17.6631 25.5407 17.7189 25.9893C17.7618 26.3654 18.2766 27.6601 18.4997 27.7712C18.5769 27.8054 18.667 27.7926 18.7743 27.7969L18.8 27.9208C18.6284 27.8952 18.3796 27.908 18.3238 28.0447C18.3109 28.0704 18.3367 28.1216 18.3238 28.143C18.4825 28.1772 18.6327 28.19 18.7528 28.2669C18.9759 28.4165 19.5851 29.7198 19.4822 30.1984C19.4607 30.2924 19.3577 30.3608 19.3063 30.4249C19.3148 30.4249 19.3234 30.5061 19.332 30.5274C19.435 30.489 19.5637 30.4761 19.6838 30.4249C19.8254 30.365 20.0056 30.1898 20.0356 30.0232C20.1 29.6642 19.7653 29.1985 19.6581 28.8951C19.4607 28.3524 19.2634 27.8695 19.0274 27.3653C18.7914 27.3482 18.6541 27.3439 18.5254 27.1388C18.7485 27.1858 18.9888 27.2414 19.1304 27.1132C19.1218 27.1046 19.1304 27.0234 19.1304 27.0106C19.0145 26.9636 18.8901 26.9294 18.8043 26.8611C18.6198 26.7072 18.474 26.3611 18.3753 26.1346C18.2337 25.8099 18.135 25.4381 18.4782 25.2586C18.5169 25.2373 18.6327 25.1603 18.6799 25.1561C18.8258 25.1518 18.7314 25.3825 18.7314 25.3825C18.8515 25.5364 18.8901 25.562 19.1604 25.5834C19.2548 25.8184 19.3363 26.015 19.4393 26.2585C19.3749 26.2927 19.3148 26.3526 19.2634 26.3825C19.3148 26.3825 19.332 26.4893 19.465 26.4081C19.5422 26.6089 20.1772 28.1473 20.2458 28.19C20.2458 28.19 20.1858 28.2712 20.1772 28.3011C20.2415 28.3951 20.3188 28.3481 20.4217 28.3182C20.6019 28.7028 20.7864 29.0617 20.9494 29.4719C20.7006 29.6471 20.5247 29.8053 20.396 30.1001C20.2844 30.3394 20.233 30.9205 20.4947 31.053C20.8293 31.2239 21.1639 30.6855 20.5719 30.7283C20.5976 30.6684 20.6234 30.6257 20.6491 30.5787C20.928 30.0061 21.6101 29.6771 22.2579 29.4762C22.3738 29.4378 22.5025 29.3993 22.6612 29.3779C22.6398 29.442 22.4767 29.7027 22.5111 29.8309C22.5883 30.1343 23.146 29.9164 23.2404 29.7796C23.4292 29.5019 23.2876 29.1856 23.0902 29.0275C22.7942 28.784 22.2622 28.9677 21.9319 29.0532C21.7646 28.6686 21.5372 28.2926 21.3784 27.8994C21.4471 27.8567 21.5071 27.8396 21.5629 27.8011C21.5329 27.7926 21.5157 27.7285 21.5029 27.6986C21.4514 27.6986 21.3999 27.767 21.3784 27.6986C21.3398 27.5875 21.2369 27.3268 21.1768 27.1986C20.988 26.7799 20.7692 26.3483 20.5719 25.921C20.6663 25.8697 20.6791 25.8312 20.7478 25.7714C20.7049 25.6774 20.5762 25.7543 20.396 25.8227C20.2887 25.5919 20.0141 24.9766 20.0056 24.9595C19.9455 24.7715 20.233 24.4168 19.7138 24.3955C19.6194 24.3955 19.4993 24.4766 19.4607 24.545L19.4521 24.5407ZM21.2669 28.002C21.3227 28.0533 21.6101 28.737 21.6702 28.8566C21.7088 28.9378 21.7345 29.0233 21.7731 29.1087C21.5372 29.2156 21.2926 29.3053 21.0695 29.4079C20.8894 29.0233 20.7006 28.6601 20.5418 28.2541C20.7478 28.1686 20.9666 28.0533 21.1725 27.9806C21.194 28.002 21.2497 27.9849 21.2755 28.0063L21.2669 28.002ZM20.5847 27.0234C20.6834 27.2371 20.7521 27.3824 20.8379 27.5747C21.0138 27.9763 21.0395 27.8652 20.6362 28.0533C20.3574 27.455 20.0828 26.8482 19.8039 26.25C19.9112 26.2073 20.0313 26.1346 20.13 26.1004C20.293 26.3867 20.4389 26.7115 20.5847 27.0277V27.0234Z"
            fill="white" />
        <path
            d="M50.8481 16.0754V15.1011C50.8481 8.85375 52.886 5.854 55.8977 5.854C58.9095 5.854 60.9473 8.85803 60.9473 15.1011V16.0754C60.9473 22.3227 58.9095 25.3225 55.8977 25.3225C52.886 25.3225 50.8481 22.3227 50.8481 16.0754ZM57.5795 16.0754V15.1011C57.5795 10.234 56.9017 8.88367 55.8977 8.88367C54.8938 8.88367 54.216 10.234 54.216 15.1011V16.0754C54.216 20.9425 54.8938 22.2971 55.8977 22.2971C56.9017 22.2971 57.5795 20.9468 57.5795 16.0754Z"
            fill="white" />
        <path
            d="M63.8217 6.12329H67.241C69.0043 6.12329 70.5016 6.61043 71.5312 7.63598C72.5351 8.6359 73.1057 10.0973 73.1057 12.1527V12.3963C73.1057 14.8576 72.1275 16.4258 70.8791 17.3702L73.4318 25.0491H69.9009L67.7558 18.4513H67.1294V25.0491H63.8174V6.12329H63.8217ZM67.2968 15.4815C68.734 15.4815 69.7937 14.6439 69.7937 12.4262V12.2083C69.7937 9.82811 68.6525 9.2085 67.2152 9.2085H67.1337V15.4815H67.2968Z"
            fill="white" />
        <path
            d="M75.873 6.12329H78.9406L82.3599 15.9131V6.12329H85.5346V25.0533H82.6301L79.0478 14.8063V25.0533H75.873V6.12329Z"
            fill="white" />
        <path
            d="M88.3361 24.4038V21.0238C89.503 21.6989 90.2624 22.0792 91.2663 22.0792C92.326 22.0792 93.0854 21.4554 93.0854 20.2119C93.0854 19.588 92.8966 18.7248 91.2663 16.9686C88.9324 14.426 88.0615 13.1014 88.0615 10.9092C88.0615 7.90949 90.0436 5.98657 92.7593 5.98657C94.0078 5.98657 94.8787 6.25578 95.6123 6.58054V9.9606C94.5827 9.36663 93.9563 9.09315 93.0854 9.09315C92.163 9.09315 91.3736 9.68712 91.3736 10.7981C91.3736 11.5844 91.6439 12.1228 93.2184 13.9346C95.8268 16.9386 96.3931 18.2078 96.3931 20.2375C96.3931 23.2116 94.3038 25.1858 91.6953 25.1858C90.3911 25.1858 89.2799 24.8611 88.3275 24.4038H88.3361Z"
            fill="white" />
        <path
            d="M98.813 6.12329H102.125V14.238L104.866 6.12329H108.505L105.326 14.1269L108.556 25.0533H104.974L102.884 17.8061L102.125 19.917V25.0533H98.813V6.12329Z"
            fill="white" />
        <path
            d="M109.83 16.0754V15.1011C109.83 8.85375 111.864 5.854 114.875 5.854C117.887 5.854 119.925 8.85803 119.925 15.1011V16.0754C119.925 22.3227 117.887 25.3225 114.875 25.3225C111.864 25.3225 109.83 22.3227 109.83 16.0754ZM116.557 16.0754V15.1011C116.557 10.234 115.879 8.88367 114.875 8.88367C113.871 8.88367 113.194 10.234 113.194 15.1011V16.0754C113.194 20.9425 113.871 22.2971 114.875 22.2971C115.879 22.2971 116.557 20.9468 116.557 16.0754Z"
            fill="white" />
        <path d="M122.834 6.12329H126.146V21.9168H129.647V25.0533H122.834V6.12329Z" fill="white" />
        <path
            d="M132.225 6.12329H135.318C139.553 6.12329 141.972 9.17859 141.972 15.2636V15.9131C141.972 21.998 139.557 25.0533 135.318 25.0533H132.225V6.12329ZM135.537 9.15295V22.0237H135.674C137.249 22.0237 138.609 20.6434 138.609 15.9131V15.2636C138.609 10.5289 137.253 9.15295 135.674 9.15295H135.537Z"
            fill="white" />
        <path
            d="M144.302 24.4038V21.0238C145.469 21.6989 146.228 22.0792 147.237 22.0792C148.292 22.0792 149.056 21.4554 149.056 20.2119C149.056 19.588 148.867 18.7248 147.237 16.9686C144.898 14.426 144.032 13.1014 144.032 10.9092C144.032 7.90949 146.014 5.98657 148.73 5.98657C149.978 5.98657 150.849 6.25578 151.583 6.58054V9.9606C150.549 9.36663 149.927 9.09315 149.056 9.09315C148.133 9.09315 147.344 9.68712 147.344 10.7981C147.344 11.5844 147.614 12.1228 149.189 13.9346C151.797 16.9386 152.363 18.2078 152.363 20.2375C152.363 23.2116 150.274 25.1858 147.666 25.1858C146.361 25.1858 145.25 24.8611 144.298 24.4038H144.302Z"
            fill="white" />
        <path
            d="M153.968 6.12329H157.336L159.129 18.4556L160.922 6.12329H164.179L160.785 25.1089H157.366L153.972 6.12329H153.968Z"
            fill="white" />
        <path d="M166.68 6.12329H169.992V25.0533H166.68V6.12329Z" fill="white" />
        <path
            d="M173.248 6.12329H176.56V14.238L179.302 6.12329H182.94L179.765 14.1269L182.995 25.0533H179.413L177.324 17.8061L176.564 19.917V25.0533H173.252V6.12329H173.248Z"
            fill="white" />
        <path
            d="M185.029 24.4038V21.0238C186.196 21.6989 186.955 22.0792 187.964 22.0792C189.023 22.0792 189.783 21.4554 189.783 20.2119C189.783 19.588 189.594 18.7248 187.964 16.9686C185.63 14.426 184.759 13.1014 184.759 10.9092C184.759 7.90949 186.741 5.98657 189.457 5.98657C190.705 5.98657 191.572 6.25578 192.305 6.58054V9.9606C191.276 9.36663 190.649 9.09315 189.778 9.09315C188.856 9.09315 188.067 9.68712 188.067 10.7981C188.067 11.5844 188.337 12.1228 189.911 13.9346C192.52 16.9386 193.086 18.2078 193.086 20.2375C193.086 23.2116 190.997 25.1858 188.388 25.1858C187.084 25.1858 185.973 24.8611 185.02 24.4038H185.029Z"
            fill="white" />
        <path
            d="M51.1743 31.7878H54.4864V39.9025L57.2278 31.7878H60.8659L57.6912 39.7914L60.9217 50.7179H57.3394L55.25 43.4706L54.4907 45.5816V50.7179H51.1786V31.7878H51.1743Z"
            fill="white" />
        <path
            d="M62.2217 41.7399V40.7656C62.2217 34.5183 64.2595 31.5186 67.2713 31.5186C70.283 31.5186 72.3209 34.5226 72.3209 40.7656V41.7399C72.3209 47.9873 70.283 50.987 67.2713 50.987C64.2595 50.987 62.2217 47.983 62.2217 41.7399ZM68.953 41.7399V40.7656C68.953 35.8985 68.2752 34.5439 67.2713 34.5439C66.2674 34.5439 65.5895 35.8943 65.5895 40.7656V41.7399C65.5895 46.607 66.2674 47.9616 67.2713 47.9616C68.2752 47.9616 68.953 46.607 68.953 41.7399Z"
            fill="white" />
        <path
            d="M75.1953 31.7878H78.5331L80.8155 38.9838L83.0979 31.7878H86.4357V50.7179H83.2609V39.2231L80.8455 46.4447H80.7898L78.3744 39.2231V50.7179H75.1953V31.7878Z"
            fill="white" />
        <path
            d="M89.6401 31.7878H92.9779L95.2603 38.9838L97.5427 31.7878H100.885V50.7179H97.71V39.2231L95.2947 46.4447H95.2389L92.8235 39.2231V50.7179H89.6487V31.7878H89.6401Z"
            fill="white" />
        <path
            d="M104.025 45.2012V31.7878H107.337V45.526C107.337 47.231 107.934 47.8805 108.749 47.8805C109.564 47.8805 110.16 47.231 110.16 45.526V31.7878H113.472V45.2012C113.472 49.1753 111.465 50.9614 108.749 50.9614C106.033 50.9614 104.025 49.1753 104.025 45.2012Z"
            fill="white" />
        <path
            d="M116.617 31.7878H119.685L123.108 41.5776V31.7878H126.283V50.7179H123.379L119.796 40.4666V50.7179H116.621V31.7878H116.617Z"
            fill="white" />
        <path
            d="M55.2372 2.16211C55.2372 2.99964 54.555 3.6748 53.7184 3.6748C52.8819 3.6748 52.1997 2.99537 52.1997 2.16211C52.1997 1.32884 52.8819 0.649414 53.7184 0.649414C54.555 0.649414 55.2372 1.32457 55.2372 2.16211Z"
            fill="white" />
        <path
            d="M59.6346 2.16211C59.6346 2.99964 58.9525 3.6748 58.1159 3.6748C57.2793 3.6748 56.5972 2.99537 56.5972 2.16211C56.5972 1.32884 57.2793 0.649414 58.1159 0.649414C58.9525 0.649414 59.6346 1.32457 59.6346 2.16211Z"
            fill="white" />
        <path
            d="M114.198 2.16211C114.198 2.99964 113.52 3.6748 112.679 3.6748C111.838 3.6748 111.16 2.99537 111.16 2.16211C111.16 1.32884 111.838 0.649414 112.679 0.649414C113.52 0.649414 114.198 1.32457 114.198 2.16211Z"
            fill="white" />
        <path
            d="M118.595 2.16211C118.595 2.99964 117.913 3.6748 117.076 3.6748C116.24 3.6748 115.558 2.99537 115.558 2.16211C115.558 1.32884 116.24 0.649414 117.076 0.649414C117.913 0.649414 118.595 1.32457 118.595 2.16211Z"
            fill="white" />
    </g>
    <defs>
        <clipPath id="clip0_852_25740">
            <rect width="193" height="51" fill="white" transform="translate(0.090332 0.649414)" />
        </clipPath>
    </defs>
</svg>