<svg viewBox="0 0 171 67" fill="none" xmlns="http://www.w3.org/2000/svg">
    <g clip-path="url(#clip0_852_38440)">
        <path
            d="M8.27927 6.09941C8.27927 6.09941 6.75945 8.76021 9.46204 9.5135C12.8755 10.3579 16.5403 10.8986 19.9721 12.2654C20.9343 12.6238 19.8863 13.5169 19.249 13.4986C13.329 11.8827 7.67257 9.86584 0.870117 10.1392C2.38382 11.9556 4.63904 14.4402 5.13544 16.9188C7.5071 15.0356 11.1841 13.9968 14.0828 15.5216L10.6509 16.694C5.25188 18.6987 1.58713 24.3848 1.02333 29.8097C0.514674 35.8785 3.80559 41.1576 9.14337 43.9338C15.6026 47.3115 25.9411 45.8778 28.8705 52.6817C29.5752 54.3158 29.5201 57.5295 28.1473 59.4734C25.6899 62.5716 22.2151 63.4889 18.1091 63.0272C18.1091 63.0272 13.2923 62.3772 10.4242 60.2085C6.33046 57.1164 5.13544 52.9915 4.59614 48.3807L2.11417 48.3503C2.70249 54.1822 2.14481 60.0566 1.30523 65.5787L3.39499 65.7913C3.39499 65.7913 3.94041 64.3516 4.54099 63.4525C5.01287 62.9847 5.83407 62.8268 6.43464 63.2642C13.6783 68.197 25.4264 68.1605 32.2227 63.6226C36.8986 60.2085 38.5716 55.0327 37.205 49.6625C34.1102 38.8735 21.6145 40.0702 13.4761 36.3463C10.7796 35.2832 8.03414 32.671 8.01576 29.5303C7.97898 26.2741 9.30883 23.6315 12.0237 21.7787C13.1145 21.0862 14.3218 21.0133 14.3218 21.0133C12.1156 23.2792 10.7551 25.8671 11.1412 29.1719C11.4292 31.8327 13.7641 34.4084 16.3319 35.1799C18.869 35.8725 21.1304 34.864 23.0118 33.4304L22.7912 32.2943C21.7126 32.5859 20.2786 32.5981 19.1816 32.3186C16.9141 31.5168 16.0868 29.3055 16.2706 27.0578C16.4483 26.098 17.2328 25.4236 18.3543 25.7092C23.9249 27.9872 22.9199 35.3439 28.1841 37.9258C29.9368 38.5636 31.5792 37.9926 32.6823 37.2211C35.4339 35.2893 36.4328 32.7621 37.1866 29.7004C35.7036 31.3588 34.3553 33.1327 32.1737 33.5397C31.0828 33.7827 30.519 33.5579 29.8755 32.6042C27.7245 29.2083 27.0442 23.5344 21.9822 23.0241C21.0078 23.0423 20.7382 22.9329 18.9303 23.2306C20.2111 22.1918 21.7677 21.1651 23.4898 21.1348C26.0269 21.0497 28.6131 22.7628 29.612 24.4881C30.1268 25.4297 29.9552 26.9849 29.2688 27.884L30.4271 28.7405C32.3391 26.3045 36.4145 23.1881 36.3716 21.1287C36.0406 17.1193 29.9368 14.6954 26.3272 13.2678C26.3272 13.2678 26.9523 11.6762 26.6336 10.5098C25.9289 8.91208 24.4519 8.66301 22.9995 8.26207C20.3643 7.52701 16.1235 7.18681 14.1931 5.49192C12.2443 3.77272 13.1452 1.93811 13.6109 -0.00585938C8.54892 5.38257 8.27927 6.09333 8.27927 6.09333V6.09941ZM24.1823 14.4949C24.7829 14.7926 25.408 15.4244 25.7144 15.9893L20.1989 15.1024C21.2713 14.3309 22.9015 13.6991 24.1823 14.4949Z"
            fill="white" />
        <path
            d="M55.5592 26.0431C55.5041 25.9763 55.3202 25.8609 55.026 25.6786C54.7319 25.5024 54.3703 25.3202 53.9291 25.1258C53.494 24.9314 53.016 24.7613 52.495 24.6155C51.9741 24.4697 51.4532 24.4029 50.9384 24.4029C50.2582 24.4029 49.7312 24.5183 49.3696 24.7613C49.008 24.9982 48.818 25.3566 48.818 25.8244C48.818 26.116 48.8977 26.3529 49.0632 26.5473C49.2225 26.7417 49.4554 26.9179 49.7557 27.0698C50.056 27.2216 50.4237 27.3614 50.8772 27.4889C51.3245 27.6226 51.8332 27.7684 52.4215 27.9263C53.255 28.1511 53.9965 28.3941 54.6583 28.6614C55.3263 28.9226 55.8963 29.2567 56.362 29.6516C56.8339 30.0404 57.1955 30.5203 57.4467 31.0853C57.698 31.6442 57.8206 32.3245 57.8206 33.1143C57.8206 34.0802 57.6367 34.8942 57.2751 35.5625C56.9136 36.2307 56.4233 36.7714 55.8227 37.1845C55.2222 37.5915 54.5297 37.8892 53.7452 38.0714C52.9608 38.2597 52.1519 38.3508 51.3245 38.3508C50.6933 38.3508 50.0498 38.3022 49.3941 38.205C48.7384 38.1078 48.0888 37.9681 47.4576 37.7798C46.8263 37.5976 46.2074 37.3789 45.6068 37.1176C45.0062 36.8625 44.4547 36.5648 43.9521 36.2307L45.7049 32.7862C45.7845 32.8652 46.0051 33.0171 46.3606 33.2419C46.7222 33.4666 47.1573 33.6914 47.6782 33.9162C48.1991 34.1409 48.7813 34.3414 49.4309 34.5237C50.0805 34.6998 50.7362 34.7849 51.4042 34.7849C52.8137 34.7849 53.5185 34.3596 53.5185 33.5092C53.5185 33.1872 53.4082 32.9199 53.1998 32.7133C52.9914 32.5068 52.6973 32.3185 52.3235 32.1484C51.9558 31.9783 51.5145 31.8203 51.012 31.6745C50.5095 31.5287 49.9518 31.3708 49.3573 31.1946C48.5607 30.9516 47.8682 30.6904 47.2921 30.411C46.7038 30.1315 46.2196 29.8035 45.8274 29.4329C45.4352 29.0623 45.1472 28.6371 44.9633 28.1572C44.7795 27.6773 44.6875 27.1123 44.6875 26.4684C44.6875 25.5693 44.8591 24.7735 45.1962 24.0809C45.5394 23.3945 45.999 22.8052 46.5873 22.3314C47.1695 21.8575 47.8498 21.4991 48.6219 21.2561C49.388 21.0131 50.203 20.8916 51.061 20.8916C51.68 20.8916 52.2806 20.9463 52.8689 21.0617C53.4511 21.1771 54.0026 21.3229 54.5297 21.4991C55.0567 21.6753 55.5531 21.8757 56.025 22.1005C56.4968 22.3253 56.9197 22.55 57.2874 22.7748L55.5592 26.0553V26.0431Z"
            fill="white" />
        <path
            d="M63.3301 38.3872C62.0309 38.3872 61.0381 37.9802 60.3579 37.1722C59.6777 36.3582 59.3345 35.1614 59.3345 33.588V25.4841H63.226V32.7436C63.226 33.5151 63.3792 34.1044 63.6856 34.5175C63.992 34.9245 64.4271 35.131 64.9971 35.131C65.518 35.131 66.0205 34.9974 66.5046 34.7179C66.9888 34.4446 67.4239 33.9707 67.7977 33.2964V25.478H71.6892V33.8006C71.6892 34.1834 71.7627 34.4567 71.9098 34.6086C72.0569 34.7605 72.3143 34.8516 72.6881 34.888V38.1442C72.2775 38.2232 71.9282 38.2778 71.6279 38.3021C71.3215 38.3264 71.0641 38.3386 70.8374 38.3386C69.4769 38.3264 68.6924 37.7797 68.4779 36.7227L68.4044 35.9511C67.8222 36.7834 67.0929 37.403 66.2288 37.7979C65.3586 38.1928 64.3965 38.3872 63.324 38.3872H63.3301Z"
            fill="white" />
        <path
            d="M86.9304 38.1504H83.0389V31.0367C83.0389 30.2044 82.8795 29.5908 82.5609 29.2142C82.2422 28.8375 81.8255 28.6492 81.3045 28.6492C81.0288 28.6492 80.753 28.7039 80.465 28.8193C80.1831 28.9287 79.9073 29.0927 79.6622 29.2932C79.4048 29.4936 79.178 29.7306 78.9635 29.9979C78.7552 30.2712 78.5897 30.5689 78.4794 30.8909V38.1504H74.5879V25.4842H78.0933V27.6043C78.5652 26.8511 79.227 26.2679 80.085 25.8548C80.943 25.4478 81.9358 25.2412 83.0511 25.2412C83.8784 25.2412 84.5526 25.3931 85.0551 25.6847C85.5699 25.9823 85.9621 26.3711 86.2379 26.845C86.5136 27.3188 86.6975 27.8413 86.7894 28.4002C86.8752 28.959 86.9242 29.5058 86.9242 30.0404V38.1443L86.9304 38.1504Z"
            fill="white" />
        <path
            d="M94.5417 38.3871C93.6715 38.3871 92.8626 38.2231 92.121 37.895C91.3856 37.5609 90.7544 37.0992 90.2151 36.51C89.682 35.9146 89.2652 35.216 88.9649 34.4202C88.6647 33.6244 88.5176 32.7496 88.5176 31.808C88.5176 30.8664 88.6524 30.028 88.9282 29.2201C89.204 28.4182 89.5962 27.7257 90.0987 27.1364C90.6012 26.5471 91.1957 26.0854 91.8882 25.7513C92.5745 25.4111 93.3344 25.241 94.1618 25.241C95.032 25.241 95.8409 25.4537 96.5641 25.8667C97.2995 26.2859 97.8572 26.8448 98.2432 27.5556V20.5391H102.135V33.8066C102.135 34.1893 102.208 34.4627 102.355 34.6146C102.502 34.7665 102.766 34.8576 103.134 34.894V38.1502C102.729 38.2292 102.374 38.2838 102.073 38.3081C101.773 38.3324 101.504 38.3446 101.258 38.3446C99.8979 38.3081 99.1196 37.7735 98.9235 36.7287L98.8499 36.0483C98.3781 36.838 97.7591 37.4273 96.9992 37.81C96.2393 38.1988 95.4181 38.3871 94.5356 38.3871H94.5417ZM95.5835 35.137C96.1228 35.137 96.6315 34.9791 97.1218 34.6693C97.6059 34.3534 97.9858 33.9281 98.2678 33.3753V30.7206C98.0226 30.0766 97.6304 29.5542 97.085 29.1411C96.5457 28.728 95.9758 28.5275 95.3936 28.5275C94.9768 28.5275 94.5908 28.6187 94.2414 28.807C93.8921 28.9892 93.5918 29.2383 93.3283 29.5421C93.0648 29.8458 92.8687 30.2042 92.7277 30.6052C92.5929 31.0061 92.5255 31.4374 92.5255 31.8809C92.5255 32.8286 92.8074 33.6122 93.3773 34.2197C93.9473 34.8272 94.6827 35.137 95.5897 35.137H95.5835Z"
            fill="white" />
        <path
            d="M110.383 38.3873C109.844 38.3873 109.292 38.3508 108.71 38.2658C108.134 38.1868 107.564 38.0775 107 37.9438C106.43 37.8041 105.891 37.634 105.37 37.4335C104.849 37.2331 104.396 37.0083 104.01 36.7714L105.542 34.1652C106.388 34.6451 107.209 35.0157 108.005 35.2769C108.796 35.5321 109.556 35.6657 110.291 35.6657C110.855 35.6657 111.29 35.5746 111.591 35.3984C111.891 35.2223 112.038 34.9671 112.038 34.6269C112.038 34.2867 111.83 34.0316 111.425 33.8433C111.021 33.6549 110.322 33.4362 109.335 33.175C108.471 32.9563 107.748 32.7255 107.147 32.5007C106.547 32.2759 106.063 32.0269 105.695 31.7413C105.333 31.4619 105.064 31.1399 104.911 30.7876C104.745 30.4352 104.665 30.0161 104.665 29.5362C104.665 28.8922 104.8 28.303 105.07 27.7744C105.34 27.2459 105.707 26.7964 106.179 26.4258C106.645 26.0552 107.203 25.7637 107.84 25.5571C108.483 25.3445 109.182 25.2412 109.948 25.2412C110.843 25.2412 111.75 25.3749 112.687 25.6361C113.619 25.9034 114.526 26.2679 115.421 26.7356L113.889 29.1717C113.092 28.7343 112.381 28.4184 111.756 28.2179C111.131 28.0174 110.524 27.9142 109.942 27.9142C109.458 27.9142 109.06 27.9992 108.741 28.1693C108.422 28.3333 108.269 28.6067 108.269 28.9773C108.269 29.1534 108.312 29.2992 108.385 29.4207C108.471 29.5422 108.606 29.6577 108.79 29.7609C108.974 29.8642 109.225 29.9614 109.531 30.0525C109.838 30.1376 110.218 30.2408 110.671 30.3502C111.609 30.5932 112.406 30.8362 113.049 31.0731C113.705 31.3161 114.226 31.5834 114.636 31.8811C115.041 32.1787 115.335 32.5189 115.513 32.9017C115.69 33.2904 115.776 33.7461 115.776 34.2746C115.776 34.9003 115.654 35.4713 115.402 35.9755C115.145 36.4858 114.79 36.9111 114.311 37.2634C113.84 37.6158 113.276 37.8891 112.614 38.0835C111.952 38.2779 111.198 38.3751 110.377 38.3751L110.383 38.3873Z"
            fill="white" />
        <path
            d="M120.427 38.15L115.905 25.4839H119.894L122.695 35.064L125.52 25.4839H129.167L124.644 38.15H120.434H120.427Z"
            fill="white" />
        <path
            d="M133.64 38.3873C133.009 38.3873 132.421 38.2901 131.882 38.0897C131.336 37.8831 130.87 37.6098 130.478 37.2453C130.092 36.8868 129.78 36.4555 129.559 35.9695C129.332 35.4775 129.216 34.9429 129.216 34.3658C129.216 33.74 129.351 33.169 129.62 32.6526C129.89 32.1363 130.264 31.6989 130.754 31.3283C131.244 30.9577 131.814 30.6661 132.476 30.4596C133.144 30.2531 133.879 30.1437 134.695 30.1437C135.228 30.1437 135.749 30.1862 136.245 30.2774C136.754 30.3685 137.189 30.4961 137.563 30.6722V30.0951C137.563 28.6371 136.711 27.9021 135.007 27.9021C134.315 27.9021 133.647 28.0236 133.015 28.2544C132.378 28.4913 131.716 28.8376 131.018 29.3054L129.878 26.8936C130.723 26.3469 131.594 25.9338 132.507 25.6665C133.414 25.3871 134.382 25.2534 135.399 25.2534C137.336 25.2534 138.825 25.703 139.873 26.602C140.927 27.5072 141.454 28.8194 141.454 30.5568V33.8129C141.454 34.1957 141.528 34.469 141.675 34.6209C141.816 34.7728 142.079 34.8639 142.453 34.9003V38.1565C142.079 38.2355 141.736 38.2901 141.417 38.3144C141.099 38.3387 140.817 38.3509 140.578 38.3509C139.867 38.3387 139.321 38.1929 138.948 37.9135C138.568 37.6401 138.335 37.2453 138.243 36.735L138.169 36.1579C137.599 36.8808 136.925 37.4336 136.135 37.8163C135.344 38.2051 134.517 38.3934 133.64 38.3934V38.3873ZM134.78 35.6172C135.203 35.6172 135.614 35.5443 136.012 35.3985C136.404 35.2527 136.741 35.0644 136.999 34.8214C137.373 34.5298 137.556 34.2321 137.556 33.9041V32.6952C137.219 32.5676 136.852 32.4643 136.453 32.3975C136.055 32.3246 135.687 32.2881 135.344 32.2881C134.627 32.2881 134.039 32.4461 133.579 32.7681C133.113 33.084 132.887 33.5031 132.887 34.0195C132.887 34.4812 133.064 34.8639 133.42 35.1616C133.775 35.4592 134.229 35.6111 134.78 35.6111V35.6172Z"
            fill="white" />
        <path
            d="M144.077 20.5449H147.974V33.4237C147.974 34.3896 148.391 34.8695 149.243 34.8695C149.421 34.8695 149.629 34.8331 149.862 34.7723C150.095 34.7116 150.315 34.6265 150.505 34.5293L151.02 37.6397C150.536 37.8644 149.972 38.0467 149.347 38.1682C148.716 38.3018 148.127 38.3626 147.594 38.3626C146.473 38.3626 145.609 38.071 145.002 37.5C144.389 36.9228 144.089 36.0784 144.089 34.991V20.5449H144.077Z"
            fill="white" />
        <path
            d="M152.081 20.5449H155.972V33.4237C155.972 34.3896 156.395 34.8695 157.241 34.8695C157.418 34.8695 157.627 34.8331 157.86 34.7723C158.099 34.7116 158.313 34.6265 158.503 34.5293L159.018 37.6397C158.528 37.8644 157.97 38.0467 157.339 38.1682C156.707 38.3018 156.125 38.3626 155.586 38.3626C154.464 38.3626 153.6 38.071 152.994 37.5C152.381 36.9228 152.081 36.0784 152.081 34.991V20.5449Z"
            fill="white" />
        <path
            d="M165.465 38.3873C164.932 38.3873 164.374 38.3508 163.798 38.2658C163.222 38.1868 162.646 38.0775 162.088 37.9438C161.518 37.8041 160.979 37.634 160.458 37.4335C159.943 37.2331 159.484 37.0083 159.098 36.7714L160.63 34.1652C161.475 34.6451 162.291 35.0157 163.087 35.2769C163.884 35.5321 164.644 35.6657 165.379 35.6657C165.943 35.6657 166.378 35.5746 166.685 35.3984C166.985 35.2223 167.132 34.9671 167.132 34.6269C167.132 34.2867 166.93 34.0316 166.519 33.8433C166.115 33.6549 165.416 33.4362 164.429 33.175C163.565 32.9563 162.836 32.7255 162.241 32.5007C161.641 32.2759 161.157 32.0269 160.789 31.7413C160.428 31.4619 160.164 31.1399 159.999 30.7876C159.833 30.4352 159.76 30.0161 159.76 29.5362C159.76 28.8922 159.894 28.303 160.158 27.7744C160.421 27.2459 160.795 26.7964 161.267 26.4258C161.733 26.0552 162.291 25.7637 162.934 25.5571C163.577 25.3445 164.276 25.2412 165.036 25.2412C165.931 25.2412 166.844 25.3749 167.769 25.6361C168.701 25.9034 169.614 26.2679 170.509 26.7356L168.977 29.1717C168.18 28.7343 167.469 28.4184 166.85 28.2179C166.225 28.0174 165.618 27.9142 165.036 27.9142C164.552 27.9142 164.147 27.9992 163.835 28.1693C163.516 28.3333 163.357 28.6067 163.357 28.9773C163.357 29.1534 163.4 29.2992 163.479 29.4207C163.559 29.5422 163.694 29.6577 163.878 29.7609C164.068 29.8642 164.313 29.9614 164.625 30.0525C164.932 30.1376 165.312 30.2408 165.771 30.3502C166.709 30.5932 167.5 30.8362 168.155 31.0731C168.805 31.3161 169.332 31.5834 169.736 31.8811C170.135 32.1787 170.429 32.5189 170.613 32.9017C170.791 33.2904 170.882 33.7461 170.882 34.2746C170.882 34.9003 170.754 35.4713 170.502 35.9755C170.251 36.4858 169.89 36.9111 169.424 37.2634C168.952 37.6158 168.382 37.8891 167.72 38.0835C167.052 38.2779 166.305 38.3751 165.477 38.3751L165.465 38.3873Z"
            fill="white" />
        <path
            d="M53.4266 59.8499L50.0928 54.7653L48.7323 56.1686V59.856H44.8408V42.251H48.7323V52.4568L53.065 47.1959H57.2017L52.5993 52.6451L57.5632 59.856H53.4266V59.8499Z"
            fill="white" />
        <path
            d="M63.8876 60.0926C62.7967 60.0926 61.8284 59.9103 60.9766 59.558C60.1309 59.2056 59.4139 58.7257 58.8256 58.1182C58.2434 57.5168 57.8021 56.8182 57.5018 56.0224C57.1954 55.2205 57.0483 54.3943 57.0483 53.5256C57.0483 52.6569 57.2016 51.8246 57.5018 51.0288C57.8021 50.233 58.2434 49.5344 58.8256 48.9269C59.4077 48.3255 60.1309 47.8395 60.9766 47.4811C61.8346 47.1227 62.8028 46.9404 63.8876 46.9404C64.9723 46.9404 65.9344 47.1227 66.7801 47.4811C67.6258 47.8456 68.3367 48.3255 68.9251 48.9269C69.5072 49.5344 69.9607 50.2269 70.2672 51.0288C70.5736 51.8246 70.7329 52.6569 70.7329 53.5256C70.7329 54.3943 70.5797 55.2205 70.2794 56.0224C69.973 56.8182 69.5379 57.5168 68.9557 58.1182C68.3735 58.7257 67.6565 59.2056 66.8046 59.558C65.9467 59.9103 64.9845 60.0926 63.8998 60.0926H63.8876ZM61.0379 53.5378C61.0379 54.534 61.3014 55.3299 61.8407 55.9374C62.3739 56.5388 63.0541 56.8364 63.8876 56.8364C64.292 56.8364 64.6659 56.7575 65.0029 56.5995C65.3461 56.4416 65.6403 56.2107 65.8977 55.9252C66.1428 55.6336 66.345 55.2813 66.4921 54.8742C66.6453 54.4612 66.7127 54.0177 66.7127 53.5378C66.7127 52.5415 66.4492 51.7396 65.9099 51.1382C65.3767 50.5307 64.7026 50.233 63.8937 50.233C63.4831 50.233 63.1093 50.312 62.7599 50.476C62.4106 50.634 62.1103 50.8587 61.8652 51.1503C61.6139 51.4419 61.4117 51.7882 61.2708 52.2013C61.1237 52.6083 61.0501 53.0578 61.0501 53.5378H61.0379Z"
            fill="white" />
        <path
            d="M92.55 59.8496H88.6585V52.7359C88.6585 51.9037 88.5114 51.2962 88.2112 50.9135C87.9109 50.5368 87.5125 50.3485 87.0039 50.3485C86.4952 50.3485 85.9743 50.5611 85.484 50.9742C84.9877 51.3934 84.6322 51.9341 84.4055 52.5962V59.8557H80.514V52.742C80.514 51.9097 80.3669 51.3023 80.0666 50.9195C79.7663 50.5429 79.3618 50.3546 78.8593 50.3546C78.3568 50.3546 77.8359 50.5611 77.3395 50.9681C76.8431 51.3812 76.4815 51.9219 76.2548 52.5962V59.8557H72.3633V47.1956H75.8687V49.3158C76.3406 48.5443 76.9779 47.955 77.793 47.554C78.6019 47.1531 79.5457 46.9526 80.6181 46.9526C81.1329 46.9526 81.5987 47.0134 82.0031 47.147C82.4076 47.2807 82.7508 47.4508 83.0327 47.6816C83.3146 47.9064 83.5536 48.1676 83.7375 48.4653C83.9213 48.763 84.0561 49.0849 84.1419 49.419C84.6138 48.6293 85.2389 48.0218 86.0417 47.5966C86.8384 47.1774 87.7454 46.9587 88.7627 46.9587C89.5778 46.9587 90.2274 47.1106 90.7238 47.4022C91.2202 47.6998 91.6062 48.0886 91.8759 48.5625C92.1517 49.0363 92.3355 49.5588 92.4213 50.1177C92.5132 50.6826 92.5561 51.2294 92.5561 51.7579V59.8618L92.55 59.8496Z"
            fill="white" />
        <path
            d="M115.029 59.8496H111.137V52.7359C111.137 51.9037 110.99 51.2962 110.69 50.9135C110.389 50.5368 109.991 50.3485 109.489 50.3485C108.986 50.3485 108.465 50.5611 107.969 50.9742C107.472 51.3934 107.117 51.9341 106.89 52.5962V59.8557H102.992V52.742C102.992 51.9097 102.845 51.3023 102.545 50.9195C102.245 50.5429 101.84 50.3546 101.338 50.3546C100.835 50.3546 100.314 50.5611 99.818 50.9681C99.3216 51.3812 98.9662 51.9219 98.7333 52.5962V59.8557H94.8418V47.1956H98.3472V49.3158C98.8191 48.5443 99.4626 47.955 100.265 47.554C101.08 47.1531 102.018 46.9526 103.091 46.9526C103.605 46.9526 104.071 47.0134 104.476 47.147C104.88 47.2807 105.223 47.4508 105.505 47.6816C105.793 47.9064 106.026 48.1676 106.216 48.4653C106.4 48.763 106.535 49.0849 106.62 49.419C107.092 48.6293 107.724 48.0218 108.52 47.5966C109.317 47.1774 110.224 46.9587 111.247 46.9587C112.062 46.9587 112.712 47.1106 113.202 47.4022C113.699 47.6998 114.085 48.0886 114.354 48.5625C114.63 49.0363 114.814 49.5588 114.906 50.1177C114.992 50.6826 115.041 51.2294 115.041 51.7579V59.8618L115.029 59.8496Z"
            fill="white" />
        <path
            d="M121.206 60.0925C119.913 60.0925 118.92 59.6855 118.24 58.8715C117.56 58.0574 117.223 56.8607 117.223 55.2934V47.1895H121.108V54.4489C121.108 55.2205 121.267 55.8097 121.574 56.2228C121.88 56.6298 122.321 56.8364 122.885 56.8364C123.406 56.8364 123.909 56.7027 124.399 56.4294C124.883 56.156 125.312 55.6761 125.686 55.0078V47.1895H129.577V55.5121C129.577 55.9008 129.657 56.1681 129.798 56.32C129.945 56.4719 130.202 56.563 130.576 56.5995V59.8556C130.172 59.9346 129.816 59.9893 129.516 60.0136C129.216 60.0379 128.952 60.05 128.726 60.05C127.365 60.0318 126.574 59.4972 126.366 58.4341L126.293 57.6626C125.71 58.5009 124.981 59.1145 124.117 59.5033C123.247 59.8981 122.279 60.0986 121.206 60.0986V60.0925Z"
            fill="white" />
        <path
            d="M144.806 59.8496H140.915V52.7359C140.915 51.9037 140.761 51.2962 140.443 50.9135C140.13 50.5368 139.707 50.3485 139.192 50.3485C138.917 50.3485 138.635 50.4032 138.359 50.5186C138.071 50.634 137.801 50.792 137.556 50.9924C137.305 51.1929 137.072 51.4298 136.864 51.7032C136.649 51.9766 136.49 52.2742 136.38 52.5962V59.8557H132.482V47.1956H135.987V49.3158C136.459 48.5564 137.127 47.9732 137.985 47.5662C138.843 47.1531 139.836 46.9526 140.951 46.9526C141.779 46.9526 142.447 47.1045 142.961 47.3961C143.47 47.6938 143.862 48.0826 144.138 48.5564C144.414 49.0302 144.598 49.5527 144.683 50.1116C144.775 50.6765 144.818 51.2233 144.818 51.7518V59.8557L144.806 59.8496Z"
            fill="white" />
    </g>
    <defs>
        <clipPath id="clip0_852_38440">
            <rect width="170" height="67" fill="white" transform="translate(0.870117)" />
        </clipPath>
    </defs>
</svg>