<svg viewBox="0 0 176 67" fill="none" xmlns="http://www.w3.org/2000/svg">
    <g clip-path="url(#clip0_852_26271)">
        <path
            d="M61.5423 16.9647C61.6514 17.3374 61.7493 17.9022 61.8397 18.6551C61.9715 19.7846 62.0355 20.6581 62.0355 21.283C62.0355 21.4788 62.0129 21.6934 61.9715 21.9231L61.8058 21.972L60.6236 21.8892L60.4279 21.8553C59.946 20.4096 59.464 19.4307 58.9821 18.9149C58.1501 18.0377 57.1675 17.601 56.0418 17.601C54.9161 17.601 54.1179 17.8833 53.4854 18.4481C52.8567 19.0128 52.5404 19.7131 52.5404 20.5451C52.5404 21.2454 52.8529 21.9193 53.4741 22.5669C54.0878 23.2144 55.3904 23.8319 57.3858 24.423C58.056 24.6187 58.8617 24.935 59.8104 25.3717C60.7592 25.8084 61.4783 26.2828 61.9715 26.7986C62.6266 27.4763 63.0783 28.1314 63.3268 28.7639C63.5715 29.3926 63.6958 30.1795 63.6958 31.1207C63.6958 32.1523 63.5038 33.165 63.1198 34.1627C62.9127 34.6898 62.5776 35.1868 62.1183 35.6574C61.7907 35.9849 61.2787 36.3727 60.5897 36.817C59.9008 37.2612 59.1854 37.5813 58.4438 37.777C57.7058 37.9728 56.7533 38.0745 55.5937 38.0745C54.8257 38.0745 53.9108 37.9653 52.8491 37.7469L50.8763 37.1709C50.3267 37.0165 49.984 36.881 49.841 36.7605C49.7845 36.7153 49.7356 36.6137 49.6942 36.448V36.2673C49.6942 36.1468 49.6678 35.3976 49.6113 34.0159C49.5887 33.3043 49.5774 32.7998 49.5774 32.5062V31.8812L51.106 31.8473C51.6293 33.0671 51.9682 33.8051 52.1225 34.0573C52.4614 34.6183 52.8378 35.0738 53.2444 35.4164C53.6548 35.7628 54.1443 36.0376 54.7128 36.241C55.2813 36.4443 55.8987 36.5459 56.5651 36.5459C57.1562 36.5459 57.8075 36.4217 58.5153 36.1657C59.2269 35.9134 59.7991 35.4993 60.2283 34.9232C60.6613 34.3472 60.8759 33.7298 60.8759 33.0709C60.8759 32.2577 60.4994 31.5085 59.7426 30.8157C59.2833 30.3865 58.0447 29.818 56.0305 29.1065C54.0162 28.3949 52.6195 27.7587 51.8401 27.1977C51.0608 26.6405 50.4471 25.8913 49.9991 24.9538C49.5511 24.0164 49.3252 23.1165 49.3252 22.2506C49.3252 20.5075 49.9502 19.0279 51.2001 17.8118C52.4501 16.5958 54.2911 15.9858 56.7232 15.9858C57.2503 15.9858 58.0259 16.08 59.0574 16.2644C59.6824 16.3736 60.5069 16.6033 61.5385 16.9534L61.5423 16.9647Z"
            fill="white" />
        <path
            d="M79.0715 25.7897C79.7718 26.4711 80.2951 27.2505 80.6415 28.1314C80.9879 29.0124 81.161 29.8445 81.161 30.62C81.161 32.0883 80.9351 33.2705 80.4871 34.1703C79.8057 35.5294 78.8908 36.5309 77.7388 37.1785C76.5867 37.826 75.2502 38.146 73.7254 38.146C72.0161 38.146 70.5629 37.762 69.3732 36.994C68.1835 36.226 67.3326 35.3563 66.8243 34.3812C66.3161 33.406 66.0601 32.1938 66.0601 30.748C66.0601 30.0139 66.1805 29.276 66.4215 28.538C66.6624 27.8001 66.9938 27.1563 67.4154 26.6067C67.8371 26.0607 68.3002 25.5977 68.8047 25.2249C69.5388 24.6979 70.2767 24.3251 71.0184 24.0992C71.7601 23.8733 72.6561 23.7642 73.7066 23.7642C75.9994 23.7642 77.7877 24.4381 79.0715 25.7859V25.7897ZM70.0885 31.4671C70.1864 32.8263 70.2579 33.6131 70.3031 33.8202C70.4462 34.5543 70.6683 35.1868 70.977 35.7139C71.1841 36.0528 71.5304 36.354 72.0124 36.6175C72.4943 36.881 73.0703 37.0128 73.7367 37.0128C74.5348 37.0128 75.2087 36.7568 75.7584 36.2485C76.3043 35.7403 76.6996 34.9421 76.9406 33.8541C77.095 33.1425 77.1703 31.9716 77.1703 30.349C77.1703 28.3536 76.8427 26.9417 76.1838 26.1135C75.525 25.2852 74.6591 24.871 73.5861 24.871C72.7427 24.871 72.0425 25.1082 71.489 25.5788C70.9356 26.0495 70.5478 26.746 70.3294 27.6684C70.1864 28.2594 70.1036 29.5282 70.0847 31.4709L70.0885 31.4671Z"
            fill="white" />
        <path
            d="M82.4785 37.0315C82.7195 36.8659 83.0395 36.7604 83.4386 36.7153C84.1991 36.6287 84.6358 36.512 84.745 36.3689C84.9633 36.0828 85.0763 35.503 85.0763 34.6295V29.9987L85.0424 28.8994V25.5825L85.0085 21.7912V21.1361C85.0085 20.2401 84.937 19.5775 84.7939 19.1483C84.4061 18.9186 83.992 18.8019 83.5515 18.8019C83.288 18.8019 83.0395 18.7756 82.8061 18.7191C82.7722 18.4442 82.7571 18.2409 82.7571 18.1092C82.7571 18.0226 82.7684 17.9247 82.791 17.8117C83.6532 17.7139 84.553 17.4917 85.4829 17.1454C86.4128 16.799 87.1244 16.4489 87.6176 16.0837L88.0731 16.0686C88.171 16.0686 88.3103 16.0761 88.4948 16.0837C88.5588 19.8711 88.5927 22.4652 88.5927 23.8657C88.5927 24.2798 88.5814 24.6149 88.5588 24.8672V24.965L88.5927 25.2775V32.5513L88.6266 34.9495V35.3448C88.6266 35.8155 88.7019 36.1505 88.8562 36.3463C88.988 36.4894 89.2629 36.576 89.6883 36.6098C89.9179 36.6324 90.3697 36.6851 91.0436 36.7755C91.1001 37.0052 91.1265 37.1934 91.1265 37.3327C91.1265 37.4419 91.1152 37.5962 91.0926 37.792L89.7937 37.7318C89.0708 37.6828 88.1597 37.6565 87.0642 37.6565L86.4542 37.6414C85.8293 37.6414 84.9257 37.6904 83.7435 37.7883H82.5425L82.4785 37.0202V37.0315Z"
            fill="white" />
        <path
            d="M91.2358 37.0315C91.4768 36.8659 91.7968 36.7604 92.1959 36.7153C92.9564 36.6287 93.3931 36.512 93.5023 36.3689C93.7207 36.0828 93.8336 35.503 93.8336 34.6295V29.9987L93.7997 28.8994V25.5825L93.7658 21.7912V21.1361C93.7658 20.2401 93.6943 19.5775 93.5512 19.1483C93.1635 18.9186 92.7531 18.8019 92.3088 18.8019C92.0453 18.8019 91.7968 18.7756 91.5634 18.7191C91.5295 18.4442 91.5144 18.2409 91.5144 18.1092C91.5144 18.0226 91.5257 17.9247 91.5483 17.8117C92.4105 17.7139 93.3103 17.4917 94.2402 17.1454C95.1701 16.799 95.8817 16.4489 96.3749 16.0837L96.8305 16.0686C96.9283 16.0686 97.0676 16.0761 97.2521 16.0837C97.3161 19.8711 97.35 22.4652 97.35 23.8657C97.35 24.2798 97.3387 24.6149 97.3161 24.8672V24.965L97.35 25.2775V32.5513L97.3839 34.9495V35.3448C97.3839 35.8155 97.4592 36.1505 97.6136 36.3463C97.7416 36.4894 98.0202 36.576 98.4456 36.6098C98.6753 36.6324 99.1271 36.6851 99.801 36.7755C99.8537 37.0052 99.88 37.1934 99.88 37.3327C99.88 37.4419 99.8687 37.5962 99.8461 37.792L98.5473 37.7318C97.8244 37.6828 96.9171 37.6565 95.8215 37.6565L95.2116 37.6414C94.5866 37.6414 93.683 37.6904 92.5008 37.7883H91.2998L91.2358 37.0202V37.0315Z"
            fill="white" />
        <path
            d="M101.292 29.0463C101.578 28.1126 101.826 27.4952 102.048 27.1864C102.662 26.2866 103.317 25.5864 104.01 25.0819C104.706 24.5774 105.331 24.2423 105.892 24.0766C106.615 23.8696 107.203 23.7642 107.651 23.7642C108.682 23.7642 109.514 23.8432 110.147 24.0013C110.779 24.1595 111.314 24.3891 111.739 24.6828C112.353 25.1082 112.846 25.5412 113.219 25.9779C113.592 26.4146 113.897 26.9304 114.13 27.5215C114.367 28.1126 114.495 28.8279 114.518 29.6713L112.696 29.6412C112.191 29.6412 111.084 29.5922 109.375 29.4981C108.739 29.4454 108.302 29.4153 108.061 29.4153C107.982 29.4153 107.391 29.4266 106.288 29.4491H104.876C104.853 29.6035 104.842 29.7353 104.842 29.8445C104.842 30.428 104.913 31.0379 105.057 31.6817C105.2 32.3255 105.414 32.8903 105.697 33.3797C105.979 33.8691 106.333 34.287 106.755 34.6409C107.176 34.9911 107.613 35.2471 108.061 35.3977L109.013 35.7102C109.857 35.7102 110.422 35.6838 110.708 35.6273C111.235 35.5181 111.698 35.3788 112.097 35.2094C112.496 35.04 112.982 34.7539 113.55 34.3473C113.945 34.6334 114.273 34.8894 114.537 35.1191C113.573 36.1808 112.571 36.9526 111.536 37.427C110.501 37.9051 109.341 38.1423 108.061 38.1423C107.195 38.1423 106.487 38.067 105.941 37.9126C105.207 37.7168 104.545 37.4119 103.953 37.009C103.362 36.6024 102.854 36.0979 102.425 35.4956C101.999 34.8932 101.679 34.272 101.472 33.6357C101.198 32.8037 101.062 32.1335 101.062 31.629C101.062 30.6765 101.137 29.8143 101.292 29.0463ZM110.839 28.3498C110.828 27.7324 110.708 27.145 110.478 26.5841C110.248 26.0231 109.891 25.5864 109.409 25.2701C108.927 24.9576 108.437 24.7995 107.948 24.7995C107.214 24.7995 106.551 25.1233 105.96 25.7671C105.369 26.4146 105.034 27.2919 104.959 28.395L108.705 28.4289C108.946 28.4289 109.285 28.4138 109.725 28.3799C110.041 28.3498 110.267 28.3347 110.399 28.3347C110.497 28.3347 110.644 28.3385 110.843 28.346L110.839 28.3498Z"
            fill="white" />
        <path
            d="M116.559 37.7658L116.543 36.8472C116.72 36.7606 117.112 36.6326 117.718 36.4594C118.324 36.29 118.663 36.1657 118.731 36.0904C118.851 35.97 118.912 35.8006 118.912 35.5822V35.2208C118.957 34.2005 118.976 33.632 118.976 33.5115C118.976 33.4136 118.972 33.2743 118.961 33.1011L118.945 32.9054L118.961 32.6908V32.5439L118.863 29.7165L118.848 26.5615L118.814 26.249C118.618 26.249 118.324 26.2377 117.944 26.2151H116.909C116.841 26.2076 116.751 26.1888 116.63 26.1624C116.619 25.865 116.615 25.6278 116.615 25.4509C116.615 25.1421 116.69 24.8937 116.845 24.7054C117.172 24.7054 117.82 24.6678 118.784 24.5887C118.817 23.2861 119.028 22.0625 119.416 20.9179C119.804 19.7734 120.293 18.8548 120.888 18.1658L121.317 17.6877C122.04 17.074 122.707 16.6448 123.313 16.3963C123.923 16.1516 124.642 16.0273 125.474 16.0273C126.306 16.0273 126.957 16.1591 127.488 16.4227C128.019 16.6862 128.388 17.0213 128.587 17.4354C128.791 17.8458 128.892 18.226 128.892 18.5762C128.892 19.0167 128.712 19.4157 128.35 19.7847C127.989 20.1537 127.59 20.3344 127.149 20.3344C126.822 20.3344 126.498 20.2252 126.182 20.0068C125.963 19.8412 125.696 19.4986 125.383 18.979C125.071 18.4595 124.826 18.1282 124.653 17.9851C124.476 17.8533 124.246 17.7893 123.964 17.7893C123.625 17.7893 123.328 17.9211 123.076 18.1846C122.823 18.4482 122.65 18.8247 122.548 19.3179C122.451 19.8111 122.402 20.7975 122.402 22.2771L122.387 24.0842L122.402 24.5624L122.71 24.5774L124.653 24.5285C124.751 24.5285 124.902 24.5435 125.109 24.5774C125.263 24.7092 125.338 24.8184 125.338 24.905L125.304 25.2174V25.6617C125.304 25.7257 125.289 25.8537 125.255 26.0382C125.158 26.0909 125.041 26.121 124.913 26.121H124.766L123.524 26.1549C123.316 26.1549 123.158 26.1436 123.049 26.121H122.902C122.793 26.121 122.631 26.1436 122.413 26.1925L122.402 26.9982C122.402 27.0735 122.402 27.194 122.413 27.3597C122.428 27.9846 122.436 28.4101 122.436 28.6397L122.424 31.053L122.451 32.8112L122.436 34.2231C122.413 35.2208 122.511 35.8231 122.729 36.0302C123.045 36.3465 123.704 36.5611 124.706 36.6702C124.89 36.6815 125.06 36.7192 125.21 36.787C125.255 37.0505 125.278 37.2199 125.278 37.2952C125.278 37.4157 125.255 37.5851 125.21 37.8035H124.032C123.934 37.8035 123.294 37.7658 122.112 37.6905L121.227 37.6265C120.372 37.6265 119.713 37.6453 119.243 37.6868C118.991 37.7169 118.098 37.747 116.57 37.7771L116.559 37.7658Z"
            fill="white" />
        <path
            d="M126.795 25.3076C128.086 24.7617 129.02 24.2233 129.596 23.7C130.172 23.1767 130.786 22.3221 131.445 21.1399H132.363C132.461 21.426 132.51 21.7272 132.51 22.0435C132.51 22.612 132.503 23.0562 132.495 23.3762L132.446 24.3476C132.446 24.4041 132.454 24.5283 132.461 24.7241L132.838 24.7391C132.894 24.7391 133.406 24.7165 134.381 24.6751C134.46 24.6751 134.871 24.6638 135.616 24.6412C135.68 24.9349 135.714 25.1947 135.714 25.4206C135.714 25.6691 135.676 25.9627 135.597 26.2978C135.236 26.3618 134.961 26.3957 134.777 26.3957C134.69 26.3957 134.513 26.3731 134.25 26.3317H133.395L133.101 26.3166L132.311 26.3656L132.277 32.6416C132.265 33.8577 132.292 34.6182 132.352 34.9156C132.412 35.2168 132.54 35.5067 132.74 35.7778C132.992 35.8983 133.271 35.9585 133.579 35.9585C133.888 35.9585 134.095 35.9321 134.238 35.8757C134.381 35.823 134.622 35.6611 134.961 35.4013C135.025 35.3448 135.131 35.2695 135.274 35.1716C135.537 35.3787 135.752 35.5858 135.914 35.7928L135.978 35.9886C135.594 36.591 135.055 37.0654 134.359 37.4118C133.662 37.7581 132.921 37.9275 132.134 37.9275C131.113 37.9275 130.289 37.6038 129.653 36.96C129.016 36.3124 128.7 35.3147 128.7 33.9556L128.764 31.0679V26.3919L128.256 26.358L127.074 26.3919L126.859 26.3091C126.795 26.2112 126.761 26.1208 126.761 26.0343C126.761 25.9702 126.773 25.7255 126.795 25.3039V25.3076Z"
            fill="white" />
        <path
            d="M137.755 29.0463C138.041 28.1126 138.289 27.4952 138.511 27.1864C139.125 26.2866 139.78 25.5864 140.477 25.0819C141.173 24.5774 141.798 24.2423 142.359 24.0766C143.082 23.8696 143.669 23.7642 144.117 23.7642C145.149 23.7642 145.981 23.8432 146.617 24.0013C147.253 24.1595 147.784 24.3891 148.21 24.6828C148.823 25.1082 149.317 25.5412 149.689 25.9779C150.062 26.4146 150.367 26.9304 150.6 27.5215C150.834 28.1126 150.966 28.8279 150.988 29.6713L149.166 29.6412C148.662 29.6412 147.555 29.5922 145.845 29.4981C145.209 29.4454 144.772 29.4153 144.531 29.4153C144.456 29.4153 143.861 29.4266 142.758 29.4491H141.346C141.324 29.6035 141.312 29.7353 141.312 29.8445C141.312 30.428 141.384 31.0379 141.527 31.6817C141.67 32.3255 141.885 32.8903 142.167 33.3797C142.453 33.8691 142.807 34.287 143.229 34.6409C143.65 34.9911 144.087 35.2471 144.535 35.3977L145.488 35.7102C146.331 35.7102 146.896 35.6838 147.182 35.6273C147.709 35.5181 148.168 35.3788 148.571 35.2094C148.97 35.04 149.456 34.7539 150.024 34.3473C150.42 34.6334 150.747 34.8894 151.011 35.1191C150.047 36.1808 149.046 36.9526 148.014 37.427C146.979 37.9051 145.819 38.1423 144.539 38.1423C143.673 38.1423 142.965 38.067 142.419 37.9126C141.685 37.7168 141.023 37.4119 140.431 37.009C139.84 36.6024 139.332 36.0979 138.903 35.4956C138.477 34.8932 138.157 34.272 137.95 33.6357C137.676 32.8037 137.54 32.1335 137.54 31.629C137.54 30.6765 137.615 29.8143 137.77 29.0463H137.755ZM147.302 28.3498C147.291 27.7324 147.171 27.145 146.941 26.5841C146.711 26.0231 146.354 25.5864 145.872 25.2701C145.39 24.9576 144.9 24.7995 144.411 24.7995C143.677 24.7995 143.014 25.1233 142.423 25.7671C141.832 26.4146 141.497 27.2919 141.422 28.395L145.168 28.4289C145.409 28.4289 145.748 28.4138 146.188 28.3799C146.504 28.3498 146.73 28.3347 146.862 28.3347C146.96 28.3347 147.11 28.3385 147.306 28.346L147.302 28.3498Z"
            fill="white" />
        <path
            d="M167.317 34.6785L167.693 34.9232C167.791 34.9985 167.851 35.0926 167.874 35.2018L167.889 35.2846C167.625 36.2597 167.279 36.9299 166.853 37.2988C166.428 37.664 165.897 37.8485 165.261 37.8485C164.625 37.8485 164.06 37.6716 163.593 37.3139C163.126 36.9562 162.705 36.3313 162.32 35.4315C161.85 36.2635 161.187 36.8922 160.333 37.3139C159.478 37.7356 158.431 37.9464 157.193 37.9464C156.052 37.9464 155.216 37.7092 154.678 37.2311C154.139 36.7529 153.872 36.128 153.872 35.3486C153.872 34.9872 153.951 34.6182 154.109 34.2493C154.267 33.8766 154.527 33.5076 154.881 33.1386C155.239 32.7734 155.811 32.3706 156.598 31.9301C156.718 31.8623 157.136 31.6779 157.848 31.3729L161.94 29.7276C161.974 29.3135 161.989 28.8881 161.989 28.4626C161.989 26.983 161.808 25.9778 161.447 25.4394C161.229 25.1119 160.845 24.9462 160.295 24.9462C159.745 24.9462 159.245 25.0516 158.785 25.2587C158.326 25.4658 157.991 25.7369 157.784 26.0644C157.629 26.3054 157.498 26.7609 157.388 27.4273C157.313 27.9092 157.242 28.1878 157.174 28.2669C157.012 28.4739 156.711 28.6622 156.278 28.8316C155.845 29.001 155.551 29.1253 155.397 29.2006C154.806 29.4867 154.335 29.626 153.985 29.626C153.831 29.4942 153.755 29.3097 153.755 29.0688C153.755 28.4438 153.887 27.9092 154.151 27.4574C154.546 26.8211 155.137 26.2075 155.935 25.6089C156.73 25.0102 157.471 24.5923 158.16 24.3514C159.102 24.0464 160.254 23.8921 161.613 23.8921C162.49 23.8921 163.243 24.054 163.872 24.3777C164.5 24.7015 164.941 25.1797 165.186 25.8159C165.434 26.4522 165.555 27.5967 165.555 29.2495L165.521 31.9602L165.555 33.9481V34.4563C165.555 34.9157 165.615 35.2319 165.739 35.4013C165.863 35.5708 166.021 35.6573 166.217 35.6573C166.338 35.6573 166.439 35.6235 166.526 35.5595L167.019 34.7877L167.317 34.6709V34.6785ZM161.929 30.8646C161.304 31.0717 160.6 31.4218 159.817 31.9075C159.034 32.3969 158.488 32.8864 158.183 33.3796C157.965 33.741 157.855 34.1853 157.855 34.7124C157.855 35.183 157.998 35.5745 158.281 35.8795C158.567 36.1844 158.894 36.3388 159.267 36.3388C159.881 36.3388 160.4 36.1656 160.83 35.8117C161.409 35.3411 161.748 34.9646 161.85 34.686C161.948 34.4074 161.997 33.6168 161.997 32.3104C161.997 31.8285 161.974 31.3465 161.929 30.8646ZM158.247 19.4118C158.247 18.6551 158.51 18.0113 159.034 17.4729C159.561 16.9345 160.201 16.6672 160.958 16.6672C161.714 16.6672 162.373 16.9345 162.904 17.4654C163.435 17.9962 163.702 18.64 163.702 19.3968C163.702 20.1535 163.435 20.8011 162.904 21.3357C162.373 21.8741 161.722 22.1414 160.958 22.1414C160.193 22.1414 159.587 21.8703 159.053 21.3282C158.518 20.786 158.247 20.146 158.247 19.4118ZM160.958 20.8576C161.376 20.8576 161.726 20.7145 162.019 20.4246C162.309 20.1347 162.456 19.7883 162.456 19.3855C162.456 18.9826 162.309 18.6363 162.019 18.3464C161.729 18.0565 161.387 17.9134 160.991 17.9134C160.577 17.9134 160.223 18.0565 159.934 18.3388C159.644 18.6212 159.497 18.9713 159.497 19.3855C159.497 19.7996 159.64 20.1347 159.922 20.4246C160.208 20.7145 160.551 20.8576 160.958 20.8576Z"
            fill="white" />
        <path
            d="M48.1842 61.5863C48.38 61.4884 48.5795 61.4206 48.7753 61.3905C48.9711 61.3566 49.1141 61.3303 49.2007 61.3077C49.837 61.2437 50.2022 61.1872 50.3001 61.142C50.3754 60.9124 50.4243 60.5509 50.4469 60.0577L50.5448 53.119V52.1853L50.5599 51.4813V46.7752C50.5599 45.6608 50.5222 44.8551 50.4431 44.3657C50.4318 44.2452 50.3942 44.0645 50.3264 43.8235C50.1081 43.639 49.8935 43.511 49.6864 43.4395C49.4793 43.368 49.0388 43.2927 48.3725 43.2174C48.3612 43.0743 48.3574 42.9651 48.3574 42.8898C48.3574 42.7694 48.3687 42.5924 48.3913 42.3627C48.8167 42.2197 50.0177 41.8846 51.998 41.3613C52.544 41.2069 53.0296 41.0375 53.4551 40.853L54.1252 40.8869L54.1591 48.172C54.1591 48.2284 54.144 48.5786 54.1101 49.2224C54.0989 49.452 54.0951 49.9076 54.0951 50.5853L54.0612 53.0475V55.393C54.6109 55.0655 55.7479 54.3313 57.4722 53.1906C58.0633 52.7953 58.7297 52.3021 59.4638 51.711C59.7688 51.4738 59.9947 51.278 60.1377 51.1274C59.9646 51.0484 59.7914 50.9881 59.6295 50.9429C59.2153 50.8413 58.7184 50.6719 58.1386 50.4384C58.1273 50.2878 58.1235 50.1749 58.1235 50.0996C58.1235 49.9904 58.1386 49.8248 58.1725 49.5989L59.3848 49.5838C59.4826 49.5838 59.765 49.5989 60.2281 49.6252C60.6912 49.6516 61.158 49.6666 61.6286 49.6666C62.0127 49.6666 62.551 49.6403 63.2438 49.5913C63.9365 49.5424 64.3657 49.516 64.5314 49.516C64.7045 49.516 64.9681 49.5273 65.3182 49.5499C65.3295 49.6704 65.3333 49.757 65.3333 49.8135C65.3333 49.9226 65.3107 50.077 65.2693 50.2728L63.9742 50.6907C63.2626 50.9015 62.7242 51.1124 62.3515 51.327C61.4404 51.839 59.9043 52.8254 57.7433 54.2862C58.0068 54.561 58.2816 54.8358 58.564 55.1107L58.9894 55.506L60.2055 56.7258L62.8861 59.4252L64.4297 60.9726C64.6594 61.1345 65.1149 61.3642 65.7926 61.6616C65.8039 61.9741 65.8077 62.1585 65.8077 62.2113C65.8077 62.3016 65.8001 62.4334 65.7926 62.6141C65.6721 62.6141 65.3182 62.5877 64.7271 62.5313C64.3883 62.4861 64.0946 62.4673 63.8424 62.4673C61.5684 62.4673 59.6295 62.4936 58.0219 62.5501C58.0219 62.3844 58.0106 62.2564 57.988 62.1661L57.9729 61.9138C57.9729 61.8348 57.9993 61.7143 58.0558 61.5449C58.3306 61.4507 58.6958 61.3867 59.1551 61.3453C59.3396 61.334 59.5429 61.3152 59.7612 61.2851C59.5994 60.9877 59.3961 60.7166 59.1551 60.4643L54.8782 55.9201L53.9821 56.4058V59.8394C53.9821 59.9373 53.9934 60.118 54.016 60.3815L54.0311 60.9914C54.2494 61.142 54.4189 61.2361 54.5393 61.2776C54.7238 61.3416 55.0777 61.4018 55.5897 61.4545C55.7328 61.4658 55.8646 61.4846 55.9851 61.5185V61.9439L56.0189 62.2489C56.0189 62.3054 56.0039 62.3957 55.97 62.52L55.8533 62.5727C54.8443 62.535 54.0461 62.4936 53.4551 62.4447C53.1388 62.4221 52.8866 62.4108 52.6983 62.4108C52.6004 62.4108 52.3595 62.4183 51.9755 62.4258H51.038L49.6262 62.5463L49.197 62.5313L48.2256 62.5764C48.1804 62.3882 48.1616 62.2188 48.1616 62.0682C48.1616 61.9477 48.1654 61.7933 48.1767 61.6089L48.1842 61.5863Z"
            fill="white" />
        <path
            d="M79.2034 50.5589C79.9036 51.2365 80.4307 52.0196 80.7733 52.9006C81.1197 53.7816 81.2929 54.6136 81.2929 55.3892C81.2929 56.8575 81.067 58.0397 80.619 58.9395C79.9375 60.2986 79.0226 61.3001 77.8706 61.9476C76.7185 62.5952 75.382 62.919 73.8572 62.919C72.148 62.919 70.6947 62.535 69.505 61.7669C68.3153 60.9989 67.4644 60.1292 66.9562 59.1541C66.4479 58.179 66.1919 56.9705 66.1919 55.521C66.1919 54.7868 66.3124 54.0489 66.5533 53.311C66.7943 52.5731 67.1256 51.9293 67.5473 51.3796C67.9689 50.8337 68.432 50.3706 68.9365 49.9979C69.6707 49.4708 70.4086 49.0981 71.1503 48.8722C71.8919 48.6463 72.788 48.5371 73.8384 48.5371C76.1312 48.5371 77.9195 49.211 79.1996 50.5589H79.2034ZM70.2203 56.2401C70.3182 57.5992 70.3897 58.3861 70.4349 58.5931C70.578 59.3273 70.8001 59.9598 71.1088 60.4869C71.3159 60.8257 71.6623 61.1269 72.1442 61.3904C72.6261 61.654 73.2021 61.7858 73.8685 61.7858C74.6667 61.7858 75.3406 61.5297 75.8903 61.0215C76.4362 60.5132 76.8315 59.7113 77.0724 58.627C77.2268 57.9155 77.3021 56.7446 77.3021 55.1219C77.3021 53.1265 76.9745 51.7147 76.3157 50.8864C75.6568 50.0581 74.7947 49.644 73.7179 49.644C72.8746 49.644 72.1743 49.8812 71.6246 50.3518C71.0712 50.8224 70.6834 51.5189 70.465 52.4413C70.322 53.0324 70.2392 54.3012 70.2203 56.2438V56.2401Z"
            fill="white" />
        <path
            d="M83.2654 61.4394C83.352 61.3942 83.4725 61.3678 83.6269 61.3565C84.2744 61.3114 84.7865 61.1984 85.1705 61.0139C85.2458 60.9801 85.2947 60.9085 85.3098 60.7993C85.3248 60.6902 85.355 59.6962 85.4001 57.8138V56.8613L85.4152 55.1708L85.4001 53.4164V53.0211C85.4001 52.5053 85.2834 52.1288 85.0462 51.8803C84.809 51.6356 84.1954 51.3683 83.1977 51.0859V50.412C83.4047 50.3555 83.6532 50.2953 83.9356 50.2313C84.9446 50.0242 85.7766 49.7268 86.4317 49.3428C86.9362 49.0454 87.4332 48.6049 87.9264 48.01H88.83V48.2736L88.8789 49.5875L88.8638 50.1974L88.8977 50.4948C89.9368 49.6741 90.8065 49.1319 91.503 48.8684C92.1995 48.6049 92.9977 48.4731 93.8937 48.4731C94.7898 48.4731 95.5955 48.6613 96.4011 49.0303C97.2068 49.403 97.877 50.028 98.4154 50.9052C99.1947 50.156 99.8423 49.6251 100.369 49.324C100.731 49.1169 101.228 48.9362 101.856 48.778C102.485 48.6199 103.08 48.5409 103.641 48.5409C105.162 48.5409 106.367 49.0002 107.255 49.9188C108.144 50.8487 108.584 52.1062 108.584 53.6912V56.3003C108.584 56.8349 108.569 57.7611 108.535 59.075V60.34C108.535 60.5584 108.599 60.773 108.731 60.9801C109.157 61.1645 109.526 61.2813 109.831 61.334C110.049 61.3678 110.256 61.4431 110.455 61.5599C110.478 61.7594 110.504 61.9288 110.538 62.0606L110.523 62.3919C110.215 62.4484 109.996 62.4747 109.864 62.4747C109.778 62.4747 109.51 62.4484 109.066 62.3994C108.622 62.3505 108.061 62.3241 107.383 62.3241C105.731 62.3241 104.413 62.3731 103.438 62.471C103.362 62.1999 103.325 61.9815 103.325 61.8159L103.34 61.5862C103.483 61.5109 103.954 61.3227 104.752 61.0252C104.895 60.8822 104.978 60.7579 104.996 60.6487C105.049 60.3777 105.079 59.7904 105.079 58.8943L104.996 54.2673C104.985 53.4917 104.925 52.8479 104.816 52.3396C104.706 51.8314 104.545 51.4323 104.33 51.1424C104.115 50.8525 103.829 50.6153 103.468 50.4271C103.106 50.2426 102.73 50.1485 102.335 50.1485C101.721 50.1485 101.096 50.3217 100.46 50.6605C99.8234 51.0031 99.2587 51.5227 98.7655 52.2192L98.7316 52.6973L98.7806 54.8019L98.7467 56.5262V58.1714L98.7316 59.6322C98.7316 60.3551 98.8031 60.7843 98.9462 60.9123C99.1646 61.1194 99.7029 61.27 100.558 61.3565L101.066 61.5222C101.152 61.7782 101.198 61.9778 101.198 62.1208C101.198 62.1999 101.175 62.3317 101.134 62.5199L100.659 62.5048H100.004L99.6578 62.4898C98.8822 62.4145 98.0765 62.3693 97.2482 62.358L95.4938 62.3241C95.0684 62.3241 94.3305 62.3731 93.2801 62.471L92.9864 62.422L92.9525 61.4394C93.2801 61.3453 93.8711 61.27 94.7295 61.2097C94.7822 61.1984 94.8575 61.1758 94.9441 61.1419C95.0646 60.9989 95.1324 60.8784 95.155 60.7805C95.2114 60.5622 95.2378 60.1179 95.2378 59.4477L95.2227 56.1121L95.2717 55.2235C95.2717 53.5143 95.2114 52.4563 95.091 52.0535C94.9366 51.5264 94.6166 51.0972 94.1272 50.7621C93.6377 50.4271 93.0542 50.2614 92.3727 50.2614C91.4842 50.2614 90.7086 50.4722 90.0498 50.8939C89.3909 51.3156 89.0107 51.6921 88.9128 52.0196C88.9015 52.1514 88.8977 52.2493 88.8977 52.317L88.9316 52.4827V52.6446C88.9316 52.7425 88.8977 52.8968 88.8337 53.1039L88.8827 57.8213L88.8977 60.2873C88.8977 60.3739 88.9128 60.517 88.9467 60.7128L89.0295 60.9612C89.3344 61.0554 89.5942 61.1269 89.8126 61.1683C90.2154 61.2549 90.5166 61.349 90.7237 61.4544C90.7576 61.6389 90.7726 61.7707 90.7726 61.8497C90.7726 61.9928 90.7275 62.1924 90.6409 62.4559C90.4677 62.4672 90.3397 62.471 90.2644 62.471C90.1439 62.471 89.5942 62.4258 88.6191 62.3392L86.827 62.3241C85.9724 62.3241 84.9371 62.3806 83.721 62.4898L83.2466 62.4747C83.224 62.3015 83.2014 62.0982 83.1826 61.8686C83.1826 61.7707 83.209 61.6276 83.2654 61.4431V61.4394Z"
            fill="white" />
        <path
            d="M111.66 61.4394C111.747 61.3942 111.867 61.3678 112.022 61.3565C112.669 61.3114 113.181 61.1984 113.565 61.0139C113.641 60.9801 113.69 60.9085 113.705 60.7993C113.72 60.6902 113.75 59.6962 113.795 57.8138V56.8613L113.81 55.1708L113.795 53.4164V53.0211C113.795 52.5053 113.678 52.1288 113.441 51.8803C113.204 51.6356 112.59 51.3683 111.593 51.0859V50.412C111.8 50.3555 112.048 50.2953 112.331 50.2313C113.34 50.0242 114.172 49.7268 114.827 49.3428C115.331 49.0454 115.828 48.6049 116.321 48.01H117.225V48.2736L117.274 49.5875L117.259 50.1974L117.293 50.4948C118.332 49.6741 119.201 49.1319 119.898 48.8684C120.594 48.6049 121.389 48.4731 122.289 48.4731C123.188 48.4731 123.99 48.6613 124.796 49.0303C125.602 49.403 126.272 50.028 126.81 50.9052C127.586 50.156 128.237 49.6251 128.764 49.324C129.126 49.1169 129.623 48.9362 130.251 48.778C130.88 48.6199 131.475 48.5409 132.036 48.5409C133.557 48.5409 134.766 49.0002 135.65 49.9188C136.539 50.8487 136.983 52.1062 136.983 53.6912V56.3003C136.983 56.8349 136.968 57.7611 136.934 59.075V60.34C136.934 60.5584 137.002 60.773 137.13 60.9801C137.559 61.1645 137.924 61.2813 138.229 61.334C138.448 61.3678 138.655 61.4431 138.854 61.5599C138.877 61.7594 138.903 61.9288 138.937 62.0606L138.922 62.3919C138.613 62.4484 138.395 62.4747 138.263 62.4747C138.177 62.4747 137.909 62.4484 137.465 62.3994C137.021 62.3505 136.46 62.3241 135.782 62.3241C134.129 62.3241 132.812 62.3731 131.84 62.471C131.765 62.1999 131.724 61.9815 131.724 61.8159L131.739 61.5862C131.882 61.5109 132.352 61.3227 133.15 61.0252C133.293 60.8822 133.376 60.7579 133.399 60.6487C133.455 60.3777 133.482 59.7904 133.482 58.8943L133.399 54.2673C133.388 53.4917 133.327 52.8479 133.218 52.3396C133.109 51.8314 132.947 51.4323 132.732 51.1424C132.518 50.8525 132.232 50.6153 131.87 50.4271C131.509 50.2426 131.132 50.1485 130.737 50.1485C130.123 50.1485 129.498 50.3217 128.862 50.6605C128.226 51.0031 127.665 51.5227 127.172 52.2192L127.138 52.6973L127.187 54.8019L127.153 56.5262V58.1714L127.138 59.6322C127.138 60.3551 127.209 60.7843 127.352 60.9123C127.571 61.1194 128.109 61.27 128.964 61.3565L129.472 61.5222C129.559 61.7782 129.604 61.9778 129.604 62.1208C129.604 62.1999 129.581 62.3317 129.54 62.5199L129.065 62.5048H128.41L128.064 62.4898C127.288 62.4145 126.483 62.3693 125.654 62.358L123.9 62.3241C123.475 62.3241 122.737 62.3731 121.686 62.471L121.393 62.422L121.359 61.4394C121.686 61.3453 122.281 61.27 123.136 61.2097C123.192 61.1984 123.26 61.1758 123.35 61.1419C123.471 60.9989 123.539 60.8784 123.561 60.7805C123.614 60.5622 123.644 60.1179 123.644 59.4477L123.629 56.1121L123.678 55.2235C123.678 53.5143 123.618 52.4563 123.497 52.0535C123.343 51.5264 123.023 51.0972 122.533 50.7621C122.044 50.4271 121.46 50.2614 120.779 50.2614C119.89 50.2614 119.115 50.4722 118.456 50.8939C117.797 51.3156 117.417 51.6921 117.319 52.0196C117.308 52.1514 117.304 52.2493 117.304 52.317L117.338 52.4827V52.6446C117.338 52.7425 117.304 52.8968 117.24 53.1039L117.289 57.8213L117.304 60.2873C117.304 60.3739 117.319 60.517 117.353 60.7128L117.436 60.9612C117.741 61.0554 118 61.1269 118.219 61.1683C118.622 61.2549 118.923 61.349 119.13 61.4544C119.16 61.6389 119.179 61.7707 119.179 61.8497C119.179 61.9928 119.137 62.1924 119.051 62.4559C118.874 62.4672 118.75 62.471 118.674 62.471C118.554 62.471 118.004 62.4258 117.029 62.3392L115.237 62.3241C114.382 62.3241 113.347 62.3806 112.131 62.4898L111.653 62.4747C111.63 62.3015 111.608 62.0982 111.589 61.8686C111.589 61.7707 111.615 61.6276 111.672 61.4431L111.66 61.4394Z"
            fill="white" />
        <path
            d="M140.055 49.2449C140.175 49.1997 140.273 49.1696 140.349 49.147H145.247L145.608 49.1809L145.642 50.2802L145.593 51.8878L145.608 52.7236L145.593 55.2009V56.8914C145.593 57.9945 145.653 58.8642 145.774 59.5004C145.94 59.9823 146.203 60.3475 146.572 60.5922C146.941 60.837 147.385 60.9612 147.912 60.9612C148.406 60.9612 148.805 60.9123 149.113 60.8144C149.418 60.7165 149.772 60.532 150.171 60.2572C150.57 59.9823 150.826 59.7866 150.936 59.6661C151.252 59.3159 151.47 58.9922 151.594 58.6985L151.707 54.6136C151.73 54.1882 151.741 53.838 151.741 53.5632C151.741 53.2884 151.734 52.9232 151.719 52.4902C151.704 52.0572 151.692 51.8163 151.692 51.7598L151.707 51.1537L151.673 50.7922C151.41 50.6266 151.045 50.5249 150.574 50.4797L149.475 50.3969C149.411 50.363 149.347 50.3254 149.294 50.2802C149.249 50.0618 149.23 49.8962 149.23 49.787C149.23 49.6552 149.245 49.4708 149.279 49.2298C149.64 49.1771 149.953 49.147 150.216 49.147L152.754 49.1809C153.435 49.1809 154.271 49.1696 155.258 49.147L155.292 50.3781L155.228 51.9518L155.261 53.9209L155.246 56.7445L155.212 58.0095L155.228 58.8642C155.182 59.4327 155.164 59.7564 155.164 59.8317C155.164 60.1066 155.212 60.3061 155.31 60.4379C155.408 60.5697 155.502 60.6337 155.589 60.6337L157.099 60.5847L157.294 60.6186C157.328 61.0026 157.343 61.221 157.343 61.2775C157.343 61.3527 157.328 61.4732 157.294 61.6389C156.715 61.6615 156.297 61.6991 156.044 61.7556C154.87 62.0191 153.59 62.4069 152.201 62.9227L151.542 62.8888L151.527 60.212C151.395 60.3212 151.203 60.4906 150.951 60.7202C149.987 61.5749 149.159 62.1547 148.47 62.4559C147.781 62.7571 147.058 62.9076 146.301 62.9076C145.401 62.9076 144.626 62.7232 143.967 62.3504C143.308 61.9777 142.826 61.5184 142.521 60.9725C142.291 60.5471 142.137 59.9334 142.062 59.1352C142.039 58.9282 142.028 57.8552 142.028 55.92L142.043 55.3929C142.099 54.3199 142.126 53.5293 142.126 53.0135C142.126 52.1401 142.111 51.5527 142.077 51.2591C142.065 51.116 142.009 50.9541 141.911 50.7659C141.757 50.7019 141.576 50.6492 141.369 50.619C140.669 50.4986 140.228 50.3819 140.055 50.2727C139.999 50.2388 139.972 50.1673 139.972 50.0581C139.972 49.9941 139.98 49.9037 139.999 49.7945C140.014 49.6854 140.032 49.5046 140.055 49.2524V49.2449Z"
            fill="white" />
        <path
            d="M158.541 61.7142C158.827 61.5825 159.09 61.4959 159.331 61.4507C159.934 61.3528 160.284 61.27 160.382 61.2022C160.547 61.1043 160.657 60.9839 160.709 60.8408C160.773 60.6224 160.807 60.1368 160.807 59.3913V57.9607L160.822 56.7935L160.773 55.0655V54.0301C160.773 53.3374 160.717 52.7726 160.608 52.3359C160.563 52.1702 160.427 52.0084 160.197 51.8427C159.889 51.6243 159.369 51.4097 158.635 51.2027L158.62 50.412C158.763 50.3669 158.891 50.3368 159.008 50.3217C159.124 50.3066 159.565 50.1974 160.329 50.0017C160.931 49.7833 161.319 49.6289 161.496 49.5424C161.549 49.5085 161.639 49.4595 161.76 49.3955C161.892 49.2863 162.038 49.1772 162.204 49.068C162.532 48.8383 162.927 48.4392 163.386 47.867L164.275 47.803L164.241 49.6591C164.218 49.8473 164.207 49.9941 164.207 50.1033C164.207 50.1899 164.218 50.4422 164.241 50.8601C165.148 50.0732 165.976 49.5235 166.718 49.2148C167.689 48.8082 168.616 48.6049 169.489 48.6049C170.517 48.6049 171.42 48.8609 172.196 49.3692C172.972 49.8812 173.48 50.4685 173.721 51.1387C173.962 51.8088 174.082 53.1604 174.082 55.1897L174.014 60.5584C174.014 60.8107 174.06 61.0177 174.146 61.1834C174.255 61.2587 174.557 61.334 175.05 61.4168L175.856 61.5712C175.953 61.7105 176.002 61.8837 176.002 62.0907C176.002 62.2187 175.999 62.3995 175.987 62.6254L172.768 62.3957L171.816 62.4296H171.059L168.89 62.5764H168.333C168.322 62.4409 168.318 62.3317 168.318 62.2602C168.318 62.0681 168.33 61.8611 168.352 61.639C168.506 61.6051 168.887 61.5524 169.5 61.4733C169.666 61.4507 169.847 61.4131 170.043 61.3603C170.261 61.2738 170.389 61.1834 170.419 61.0968C170.506 60.9086 170.551 60.5547 170.551 60.0276C170.551 59.1052 170.543 58.3974 170.536 57.9042L170.551 55.9954C170.551 53.68 170.404 52.238 170.11 51.6658C169.696 50.8412 169.071 50.4309 168.243 50.4309C167.633 50.4309 166.997 50.5852 166.342 50.9015C165.687 51.214 165.009 51.6883 164.309 52.3246L164.275 52.6032L164.309 53.6386L164.275 54.7417L164.339 57.3696L164.305 57.7799C164.305 59.5645 164.376 60.5735 164.519 60.8031C164.663 61.0328 165.208 61.2888 166.161 61.5712C166.195 61.7594 166.21 61.895 166.21 61.9816C166.21 62.1133 166.172 62.3166 166.093 62.5915C165.754 62.6028 165.468 62.6065 165.239 62.6065C165.009 62.6065 164.644 62.5689 164.15 62.4973L162.389 62.4597C161.511 62.4597 160.243 62.4973 158.586 62.5764C158.541 62.4672 158.522 62.3543 158.522 62.2376C158.522 62.151 158.526 61.9778 158.537 61.7218L158.541 61.7142Z"
            fill="white" />
        <path fill-rule="evenodd" clip-rule="evenodd"
            d="M1.71045 16.3733V16.4411H41.0498C41.0498 16.4411 40.6808 42.2381 41.1138 54.7828C41.1816 56.7217 41.2569 58.6342 40.6582 59.8503C40.6695 59.8277 40.6884 59.8089 40.6997 59.7825C41.2983 58.5665 41.2192 56.6539 41.1552 54.715C40.7222 42.1704 41.1326 16.3357 41.1326 16.3357L1.71045 16.3733Z"
            fill="white" />
        <path fill-rule="evenodd" clip-rule="evenodd"
            d="M21.5968 54.3273C21.7662 54.2595 21.8151 54.0675 21.9845 54.0035C21.8716 53.8718 21.5403 54.0751 21.5968 54.3273Z"
            fill="white" />
        <path fill-rule="evenodd" clip-rule="evenodd"
            d="M16.7212 53.9358C17.0676 54.1278 17.365 53.7175 17.5005 53.4803C17.1542 53.2883 16.917 53.7626 16.7212 53.9358Z"
            fill="white" />
        <path fill-rule="evenodd" clip-rule="evenodd"
            d="M25.4482 44.166C25.8398 44.6366 25.1169 44.5162 25.9377 45.1148C26.6191 45.6117 27.9594 46.9445 28.6258 46.4664C28.6258 46.4212 28.6409 46.1501 28.6032 46.0221C28.5204 45.9054 28.4526 45.8301 28.3999 45.815C26.8864 44.9341 26.9015 44.8926 25.4482 44.166Z"
            fill="white" />
        <path fill-rule="evenodd" clip-rule="evenodd"
            d="M20.23 53.4162C20.3429 53.6082 20.5764 53.3785 20.7495 53.4162C20.6592 53.2467 20.3505 53.4011 20.23 53.4162Z"
            fill="white" />
        <path fill-rule="evenodd" clip-rule="evenodd"
            d="M15.422 53.1565C15.5086 53.1377 15.4747 52.9946 15.486 52.8967H15.1622C15.0944 53.1377 15.3806 53.0247 15.422 53.1565Z"
            fill="white" />
        <path fill-rule="evenodd" clip-rule="evenodd"
            d="M15.618 53.1564C15.8402 53.1376 16.1451 53.2053 16.2694 53.0886C16.2392 52.8364 15.9004 52.8966 15.6858 52.8289C15.6293 52.9042 15.5992 53.002 15.6218 53.1564H15.618Z"
            fill="white" />
        <path fill-rule="evenodd" clip-rule="evenodd"
            d="M20.8811 52.637H21.2726C21.2199 52.4901 20.8434 52.332 20.8811 52.637Z" fill="white" />
        <path fill-rule="evenodd" clip-rule="evenodd"
            d="M17.2407 52.2454C16.9019 52.0195 16.5367 51.8237 16.0698 51.7258C16.2807 52.0609 16.755 52.3885 17.2407 52.2454Z"
            fill="white" />
        <path fill-rule="evenodd" clip-rule="evenodd"
            d="M23.8707 49.7116C23.7125 49.5874 23.5958 49.4217 23.2871 49.4518C23.4528 49.5535 23.641 49.881 23.8707 49.7116Z"
            fill="white" />
        <path fill-rule="evenodd" clip-rule="evenodd"
            d="M25.1696 43.8648C25.0152 43.3679 24.6801 43.0554 24.3262 42.7617C22.6848 43.1796 20.6141 42.8634 18.8031 43.0215C18.3401 42.5509 17.6511 42.3062 16.9847 42.0464C17.0713 42.3928 16.7965 42.3777 16.8529 42.6939C16.9922 42.6412 17.0751 42.5283 17.3085 42.5659C18.2723 43.0215 18.7015 44.279 19.974 44.3844C20.2112 44.4032 20.4936 44.2978 20.7534 44.3204C21.2842 44.3618 21.8527 44.8362 22.312 44.3204C23.4716 44.4785 24.1644 44.023 25.1733 43.8648H25.1696Z"
            fill="white" />
        <path fill-rule="evenodd" clip-rule="evenodd"
            d="M12.6927 37.2988C12.6475 37.0202 12.881 36.8056 12.7567 36.6475C12.2334 36.7755 11.8268 36.2974 11.9096 35.6084C10.942 35.9962 11.6084 37.9953 12.689 37.2988H12.6927Z"
            fill="white" />
        <path fill-rule="evenodd" clip-rule="evenodd"
            d="M7.29773 26.9002C7.47468 26.7044 7.51233 25.8535 7.42574 25.4055C7.28644 25.654 7.26385 26.023 7.22996 26.3806C6.90995 26.3806 6.13438 26.3882 6.05908 26.8362C6.40922 26.7308 6.6577 26.5275 7.1622 26.5764C7.29773 26.5952 7.18102 26.8625 7.29397 26.9002H7.29773Z"
            fill="white" />
        <path fill-rule="evenodd" clip-rule="evenodd"
            d="M9.44338 25.0177C9.17231 25.1268 8.80335 24.9762 8.53228 24.8896C8.02025 25.4958 8.78076 26.8286 9.44338 26.0568C9.53374 25.684 9.48856 25.4017 9.44338 25.0177ZM8.60005 25.605C9.04807 25.7104 8.84476 25.2624 9.0556 25.2812C9.36808 25.2963 9.45091 25.6615 9.31538 25.9288C9.02548 26.0568 8.51722 26.0455 8.60005 25.605Z"
            fill="white" />
        <path
            d="M42.6009 2.5262C42.6009 2.5262 42.6084 0.820708 42.6084 -3.85782e-05H40.918V0.843297H40.3344V0.0601997C40.3344 0.0601997 39.013 0.0601997 38.3842 0.0601997V0.839532H37.7442L37.7367 -0.00380347H36.0462V2.46597H37.0213V3.82886H32.7331L32.7181 2.47349L33.7082 2.46597V-3.85782e-05H32.0178V0.843297H31.3665V0.0639646C31.3665 0.0639646 30.1128 0.0639646 29.484 0.0639646V0.843297H28.844L28.8365 -3.85782e-05H27.146V2.46973H28.1211V3.83262H23.8329V2.54503L24.8268 2.53373C24.8268 2.53373 24.808 0.820708 24.808 -0.00380347H23.1176V0.839532H22.534L22.5265 0.0564348C22.5265 0.0564348 21.1711 0.0564348 20.5198 0.0564348V0.835767H19.9363V-3.85782e-05H18.2458V2.46973H19.2209V3.83262H14.8687V2.47726L15.8438 2.46973V-3.85782e-05H14.2212V0.843297H13.6376L13.6301 0.0601997C13.6301 0.0601997 12.2747 0.0601997 11.6234 0.0601997V0.839532H11.0361L11.0436 -0.00380347H9.28161V2.46597H10.3207V3.82886H5.96851L5.95722 2.4622H6.94362C6.94362 2.4622 6.94362 0.816943 6.94362 -0.00756836H5.25318V0.835767H4.60562V0.0639646H2.71941V0.843297H2.07185V-3.85782e-05H0.370117V2.46973C0.693898 2.46973 1.22851 2.47726 1.22851 2.47726L1.21345 5.52306L3.42344 8.51238V13.5799H1.80831L1.80078 15.5301H0.94991C0.94991 15.5301 1.02144 41.8731 0.953675 54.6511C0.942381 56.5825 0.746606 58.3031 1.34522 59.7187C2.27515 61.9211 5.26824 62.6929 8.0392 63.0995C10.9193 63.5212 14.5336 63.1108 17.1389 63.8789C18.8896 64.3947 20.4332 65.7952 21.3631 66.9962H21.4272C23.1552 64.3532 28.1964 63.6492 32.5411 63.3555C37.0891 63.0506 41.5919 62.5988 41.8969 58.0922C42.1378 54.5796 41.8969 50.9803 41.8969 47.4338C41.8969 36.8582 41.8969 15.6017 41.8969 15.6017L41.1853 15.5904L41.2004 13.5724H39.6266L39.5664 8.32037L41.5768 5.7753V5.19175V2.5262L42.6084 2.51867L42.6009 2.5262ZM37.0853 5.84684L38.7758 7.99282L30.9109 7.92882L32.6654 5.8506H37.0853V5.84684ZM11.9472 3.56531C11.9472 3.56531 11.9359 4.84914 11.9359 5.45529C11.5255 5.45529 10.7612 5.46658 10.7612 5.46658V2.53373H14.3379V5.45905H13.103V3.57661L11.9434 3.56908L11.9472 3.56531ZM12.719 5.39505H12.3952C12.5044 4.96209 12.1655 4.0811 12.591 3.96439C12.8846 4.19028 12.6399 4.95456 12.7227 5.39505H12.719ZM14.0819 5.84684C13.6037 6.53958 12.5232 7.79705 12.5232 7.79705L11.0285 5.84684H14.0819ZM20.9114 3.57661V5.45905L19.6802 5.47035L19.6727 2.5375H23.3096V5.46282H22.0107V3.58037H20.9114V3.57661ZM21.4912 3.96439C21.6982 3.9531 21.717 5.12021 21.6493 5.38376C21.6041 5.38376 21.4046 5.39505 21.3594 5.39505C21.4384 4.95456 21.1711 3.96439 21.4874 3.96439H21.4912ZM22.9858 5.84684C22.5529 6.56217 21.9994 7.15702 21.4912 7.79705C20.9791 7.13819 20.4295 6.52075 19.9325 5.84684H22.9858ZM29.8153 3.56531C29.8153 3.56531 29.8078 4.84914 29.8078 5.45529H28.5729V2.52997H32.2136V5.45529H30.9787V3.57284L29.8153 3.56531ZM30.3914 3.96439C30.813 3.96439 30.5796 4.94703 30.5871 5.39505H30.2634C30.2897 4.94703 30.0977 3.96439 30.3951 3.96439H30.3914ZM31.886 5.91461L30.3274 7.80082L28.8741 5.88072L31.8898 5.91837L31.886 5.91461ZM12.3914 9.87903H3.879V8.38437H12.3274L12.3914 9.87903ZM7.90743 10.3308V11.6975H3.81499V10.3308H7.90743ZM12.3914 12.153V13.5837L3.84135 13.5762L3.81499 12.153H12.3914ZM8.36298 11.6975V10.3271L16.8114 10.3346V11.7012H8.36298V11.6975ZM12.783 8.38437H21.2314V9.87903H12.847L12.783 8.38437ZM21.2314 12.153V13.5837H12.847L12.783 12.153H21.2314ZM17.2669 11.6975L17.2895 10.3496C17.2895 10.3496 22.8766 10.3308 25.7154 10.3308V11.6975H17.2669ZM21.6832 8.38437H30.1316V9.87903H21.7472L21.6832 8.38437ZM30.1316 12.153V13.5837H21.7472L21.6832 12.153H30.1316ZM26.2349 11.6975L26.1709 10.3308H34.6193V11.6975H26.2349ZM39.0996 12.153V13.5837H30.6511L30.5871 12.153H39.0996ZM35.0711 11.6975V10.3308H39.0996V11.6975H35.0711ZM30.6549 9.87903L30.5909 8.38437H39.1033V9.87903H30.6549ZM37.0213 4.28817V5.45529H32.6691V4.28817H37.0213ZM27.5338 2.07818V0.455513H28.3771V1.29508L29.9396 1.28379V0.455513H30.9109L30.9184 1.29508H32.4056C32.4056 1.29508 32.4056 0.73788 32.4056 0.455513H33.2489V2.08195H27.53L27.5338 2.07818ZM28.1851 5.84684L29.7438 7.99282L22.0107 7.92882L23.7652 5.8506H28.1851V5.84684ZM28.1174 4.28817V5.45529H23.7652V4.28817H28.1174ZM18.6298 2.01418V0.455513C18.8896 0.455513 19.4732 0.459278 19.4732 0.459278V1.29885H20.9716V0.455513C21.318 0.455513 22.0672 0.459278 22.0672 0.459278L22.0785 1.29885H23.5091V0.455513H24.3525L24.3713 2.02171L18.6374 2.01418H18.6298ZM19.2812 5.84684L20.9076 7.99282H13.1105L14.8649 5.84684H19.2849H19.2812ZM19.2172 4.28817V5.45529H14.7972V4.28817H19.2172ZM9.66187 2.01418V0.455513C9.94423 0.455513 10.5692 0.459278 10.5692 0.459278V1.29885H12.0676V0.455513C12.414 0.455513 13.182 0.440454 13.182 0.440454L13.1745 1.29885H14.6052V0.455513H15.3845C15.3845 0.997658 15.3883 2.02171 15.3883 2.02171L9.66563 2.01418H9.66187ZM10.3772 5.84684L12.0036 7.99282H4.20278L5.89321 5.84684H10.3772ZM10.3132 4.28817V5.45529H5.89321V4.28817H10.3132ZM0.825669 2.07818V0.455513H1.605L1.6163 1.29508C1.6163 1.29508 2.6667 1.29885 3.16367 1.29885V0.455513H4.13877V1.28379C4.13877 1.28379 5.20047 1.29885 5.69744 1.29885V0.455513H6.47677V2.08195H0.825669V2.07818ZM1.79325 2.5375H5.49413L5.50543 5.45905H4.27054V3.57661H3.04695L3.03942 5.45905H1.80454L1.79701 2.5375H1.79325ZM3.81499 5.39505H3.49121C3.60039 4.96209 3.26155 4.0811 3.68699 3.96439C3.98065 4.19028 3.73593 4.95456 3.81876 5.39505H3.81499ZM2.12456 5.84684L5.17788 5.91084L3.61922 7.79705L2.12456 5.84684ZM41.1138 54.7829C41.1815 56.7218 41.2568 58.6344 40.6582 59.8504C39.2351 62.5762 34.3708 62.3955 30.4968 62.58C26.6604 62.7607 23.3924 63.8111 21.397 65.6973C19.6313 63.54 16.6495 62.7795 13.0126 62.644C9.13855 62.4972 4.67715 62.2788 2.678 60.242C1.48452 59.0222 1.70289 56.6352 1.70289 54.1993V16.4412H41.0422C41.0422 16.4412 40.6733 42.2383 41.1062 54.7829H41.1138ZM40.726 14.0355V15.4661H2.32033L2.32786 14.0355C2.32786 14.0355 27.9028 14.0355 40.726 14.0355ZM39.2953 7.79705L37.8007 5.84684L40.854 5.91084L39.2953 7.79705ZM39.3593 3.96439C39.5626 3.96439 39.5212 5.2181 39.5137 5.4214C39.4723 5.4214 39.2163 5.4327 39.1749 5.4327C39.1824 5.0148 39.0468 3.95686 39.3593 3.96439ZM41.1138 5.45905H39.8789V3.57661L38.708 3.56908V5.45905C38.708 5.45905 37.8873 5.45905 37.4769 5.45905V2.53373H41.1175V5.45905H41.1138ZM36.4378 2.07818V0.455513H37.2811L37.2924 1.29508L38.8435 1.30638V0.455513H39.8149L39.8224 1.31391L41.3735 1.29885V0.455513H42.1529V2.08195H36.434L36.4378 2.07818Z"
            fill="white" />
        <path fill-rule="evenodd" clip-rule="evenodd"
            d="M1.7105 16.4413V54.1956C1.7105 56.6315 1.49213 59.0184 2.6856 60.2382C4.68476 62.275 9.14239 62.4972 13.0202 62.6402C16.6571 62.7758 19.6389 63.5363 21.4046 65.6936C23.4 63.8036 26.668 62.757 30.5044 62.5762C34.3785 62.3918 39.2427 62.5725 40.6658 59.8467C41.2644 58.6344 41.1854 56.7181 41.1214 54.7791C40.6884 42.2345 41.0574 16.4375 41.0574 16.4375H1.7105V16.4413ZM38.2299 50.2312C38.0793 50.5775 37.6539 50.8524 37.3866 51.2063C37.0741 51.6166 36.9009 52.076 36.6073 52.3131C35.0975 53.5141 31.2461 53.4953 30.8884 51.2063C30.9637 51.0444 30.9938 50.8335 31.1482 50.7507C29.9698 49.4481 31.8899 48.5483 32.5111 47.8254C33.3055 47.6259 34.1488 47.8518 34.1337 48.6687C33.2264 48.9172 33.0683 50.3893 34.3295 50.2914C35.2218 50.2236 35.4816 48.7064 35.0448 47.8856C34.4538 46.7788 31.4795 45.4046 29.7175 45.2239C29.2846 45.1787 28.8478 45.2577 28.5466 45.2239C28.3923 45.3293 28.4751 45.6719 28.3509 45.8074C27.4699 45.2389 26.5061 44.7495 25.5573 44.2487C26.4007 45.077 27.1913 45.9505 28.4149 46.3947C28.6182 46.4249 28.4638 46.0973 28.6106 46.0672C29.1641 47.0084 29.1716 48.0814 29.6497 48.9925C30.1354 49.9187 30.4479 50.8599 30.4291 52.1776C28.0534 51.6693 26.5927 50.2537 24.7742 49.1883C24.7742 50.3328 24.1794 50.89 23.8631 51.7221C24.089 52.0684 24.4203 52.6256 24.1869 53.2167C23.8217 53.1715 23.7276 52.8515 23.4076 52.7612C23.1892 54.3198 21.7774 54.7151 20.614 55.1029C20.8361 54.5005 21.6682 54.1655 21.8489 53.7363C21.4009 53.5781 21.303 54.0638 20.8098 54.1278C20.2225 54.2031 19.4845 53.6346 18.9913 54.1278C19.221 53.277 20.294 53.2619 21.1373 53.0247C20.8361 52.8139 20.2036 52.8666 19.9664 53.0887C19.9589 52.7988 20.1246 52.6859 20.1622 52.4374C21.6795 52.2491 23.1591 52.908 23.2156 51.0707C22.7864 50.2236 22.0183 49.7154 21.5929 48.8607C21.3783 49.3163 21.4197 50.0316 21.3331 50.6152C20.4709 50.6829 20.1396 51.2853 19.7744 51.8501C19.8535 52.5579 19.541 52.8703 19.1231 53.0849C19.029 52.9645 19.1231 52.6558 18.9913 52.5654C18.1028 53.2995 17.7 54.5231 16.13 54.5796C16.0246 54.6926 16.0999 54.9824 15.9343 55.0352C15.5126 53.9659 16.9884 53.725 17.4289 53.0849C16.6985 53.1075 16.0811 53.612 15.4147 53.5405C14.9629 53.4916 14.6391 53.0511 14.2438 53.4087C14.2438 52.4788 15.3093 52.6106 16.258 52.6294C16.0246 52.3244 15.8891 51.9141 15.2829 51.9781C15.8175 50.8862 16.8002 52.1814 17.6887 52.1738C18.8822 52.1588 19.398 51.2251 19.7669 50.3554C19.5335 50.4796 19.2737 51.2289 19.2474 51.1347C19.9401 49.7869 18.4191 48.8833 18.1442 47.6899C15.426 46.9482 13.1445 46.0823 10.9947 44.5725C8.67554 42.9423 6.47685 40.9319 6.77051 37.0992C7.02276 33.8313 9.35322 31.4669 8.78473 28.1313C8.02798 27.5552 7.18841 26.6291 5.7314 27.1561C5.72763 26.2639 5.97235 25.7669 6.51073 25.4657C6.75168 25.3302 7.0717 25.3829 7.29006 25.2699C7.59126 25.1156 7.73809 24.6864 8.1334 24.3588C10.0234 22.8002 13.2311 23.9598 13.2687 26.4371C13.2875 27.8075 12.5797 29.0273 12.6174 30.5295C12.6776 32.9465 14.9215 33.0143 16.8416 33.7146C20.0869 34.8968 22.6245 36.6776 24.9022 38.6541C25.3277 39.0231 25.8547 39.7196 26.3329 39.825C28.2078 40.2316 30.5307 37.9651 30.4931 36.1204C30.4667 34.9909 29.405 33.9292 28.2191 34.7537C28.0836 34.9532 28.1551 35.3937 28.2831 35.533C28.5504 35.597 28.701 35.3711 28.8667 35.533C28.8516 35.6497 28.8892 35.9472 28.8026 36.1204C28.6483 36.4178 28.4111 36.1957 28.0233 36.4441C27.6581 36.6776 27.4623 37.3063 27.1122 37.3552C26.4383 37.4456 25.93 36.4968 25.034 36.7679C24.6199 35.9848 24.3525 35.6686 24.3827 34.8215C24.4806 32.0505 28.4563 31.2862 30.6851 32.4157C31.1745 32.6642 31.5209 33.1574 32.048 33.3908C32.3304 33.515 32.673 33.4736 32.8913 33.5866C33.4448 33.8652 33.6857 34.5617 33.9944 35.0135C34.9055 35.2281 35.459 35.8041 35.3611 37.0277C36.0727 37.4832 36.5696 38.1572 36.596 39.3017C37.5636 39.6368 37.8534 41.1917 37.3753 42.227C37.812 42.916 38.1961 43.9325 37.9589 45.0846C38.4295 45.6192 38.614 47.0009 38.0906 47.6183C38.2939 48.5219 38.5725 49.4104 38.2186 50.2199L38.2299 50.2312Z"
            fill="white" />
        <path fill-rule="evenodd" clip-rule="evenodd"
            d="M24.6499 45.5515C25.0415 46.0221 25.7154 46.5793 26.5361 47.1779C27.2176 47.6749 28.5315 48.6952 29.1979 48.2171V48.0853C29.2092 48.01 29.1828 47.9723 29.1339 47.9573C27.515 47.2834 25.9638 46.5342 24.6499 45.5515Z"
            fill="white" />
        <path fill-rule="evenodd" clip-rule="evenodd"
            d="M30.3049 51.594C30.1656 50.7884 29.262 50.4684 28.6822 50.0994C26.8412 48.9247 24.9474 47.5995 23.0273 46.4587C25.2825 48.0814 27.3043 50.5022 30.3049 51.594Z"
            fill="white" />
        <path fill-rule="evenodd" clip-rule="evenodd"
            d="M30.0451 50.1031C29.9773 49.5271 29.4578 49.561 29.07 49.3878C27.1988 48.5407 25.2185 46.8578 23.4791 45.7509C23.5092 45.7659 23.2494 45.5928 23.2833 45.7509C25.4632 47.2305 27.131 49.5723 30.0413 50.1031H30.0451Z"
            fill="white" />
        <path fill-rule="evenodd" clip-rule="evenodd"
            d="M9.52259 24.1782C8.99927 24.2648 8.57384 24.566 8.54749 24.8371C8.5249 25.0592 9.13481 25.1308 9.32682 25.1082C9.51883 25.0856 9.68448 24.9425 9.85014 25.0291C9.98944 25.1006 10.0497 25.6014 10.5429 25.4997C10.9796 25.4094 10.9947 24.9049 10.9947 24.7618C10.9947 24.5472 10.8403 24.1105 10.4939 24.0239C10.2718 23.9674 9.97438 24.1067 9.52259 24.182V24.1782Z"
            fill="white" />
    </g>
    <defs>
        <clipPath id="clip0_852_26271">
            <rect width="175.64" height="67" fill="white" transform="translate(0.370117)" />
        </clipPath>
    </defs>
</svg>