<svg viewBox="0 0 193 44" fill="none" xmlns="http://www.w3.org/2000/svg">
    <path
        d="M98.412 5.57299C98.8421 6.29209 98.8899 7.28085 98.5554 7.99995C98.2686 8.58422 97.7906 9.12355 97.1693 9.25838C96.5479 9.4831 96.07 9.16849 95.592 8.89883C94.9707 8.31456 94.6839 7.6404 94.7317 6.78647C94.8273 5.88759 95.3052 4.80894 96.3567 4.58422C97.2649 4.44939 97.9818 4.89883 98.412 5.57299ZM96.5957 5.57299C96.1656 5.70782 95.9266 6.02243 95.7354 6.33703C95.4486 6.9213 95.6876 7.59546 96.1178 7.99995C96.5001 8.26962 97.0259 8.31456 97.4083 7.95501C97.8384 7.59546 97.934 6.96625 97.7906 6.38198C97.5994 5.93254 97.1215 5.57299 96.5957 5.57299Z"
        fill="white" />
    <path
        d="M110.791 17.6179C112.512 15.5505 114.185 13.1235 115.666 10.7864L117.769 10.8314L112.99 17.0336C114.567 20.0448 116.431 22.8763 117.913 25.9325C116.861 25.8426 115.714 25.8426 114.663 25.9325C113.42 23.6853 112.273 21.3482 110.887 19.2359L110.934 25.8875L107.923 25.9325C108.019 20.7639 108.258 16.2696 108.019 10.7864C109.023 10.8314 109.931 10.8763 110.934 10.6965L110.791 17.6179Z"
        fill="white" />
    <path
        d="M136.41 10.7864C137.796 14.2471 139.23 17.7527 140.807 21.1684C142.336 17.7527 143.818 14.337 145.156 10.8314L146.781 10.7864C147.307 15.7752 147.737 21.0786 148.359 25.9774C147.45 25.7977 146.399 25.8426 145.443 25.9325L144.583 15.91H144.487L140.329 25.9325H139.66C138.274 22.6965 137.031 19.3707 135.549 16.1797C135.071 19.4156 134.784 22.5617 134.689 25.9325L132.968 25.8875C133.781 20.8988 134.259 15.7752 134.976 10.6965C135.358 10.8763 135.932 10.8314 136.41 10.7864Z"
        fill="white" />
    <path
        d="M57.9287 12.6743C56.8772 12.4945 55.7779 12.3147 54.7264 12.4046C54.3918 16.5394 54.5352 21.5282 54.583 25.9327C53.4837 25.7979 52.6234 25.8877 51.5718 25.9327C51.8108 21.5282 51.8586 16.854 51.7152 12.4495C50.5203 12.3597 49.5166 12.5394 48.2739 12.6743V10.7866L57.9765 10.8316L57.9287 12.6743Z"
        fill="white" />
    <path
        d="M62.4695 10.8316C62.0871 15.8653 62.1349 20.854 62.4217 25.9327L59.3149 25.8877C59.6973 20.6293 59.5539 16.09 59.4105 10.7866L62.4695 10.8316Z"
        fill="white" />
    <path
        d="M72.0285 21.1237L72.3153 20.8091L76.5691 10.7866L78.1942 10.8316C78.6244 16.09 79.1023 20.7192 79.7237 25.9327C78.5288 25.8428 77.8596 25.8428 76.6647 25.9327C76.4258 22.3821 76.3302 19.3709 75.9 15.9102C74.3227 19.1462 72.9845 22.5619 71.6462 25.9327H70.9292L67.01 16.3147L66.8188 16.2248C66.3408 19.3709 66.054 22.6068 65.9584 25.8877L64.2378 25.9327C65.0503 20.9439 65.6239 15.8653 66.1974 10.7866L67.7269 10.8316L72.0285 21.1237Z"
        fill="white" />
    <path
        d="M156.914 21.1237L157.248 20.7641L161.407 10.7866L162.936 10.8316L164.609 25.9327C163.701 25.8428 162.554 25.7979 161.646 25.9776L160.785 15.9552L160.403 16.3597L156.579 25.9327H155.91C154.428 22.7417 153.281 19.3709 151.752 16.2248C151.274 19.5057 150.987 22.5619 150.892 25.9327C150.27 25.8428 149.792 25.8428 149.171 25.9327C149.983 20.9439 150.557 15.7304 151.131 10.7866L152.612 10.8316L156.914 21.1237Z"
        fill="white" />
    <path
        d="M169.389 10.7866C169.007 14.3821 169.007 18.4271 169.389 21.9327C169.532 23.0113 170.202 24.09 171.301 24.5844C172.496 24.9889 174.025 24.854 174.886 23.8653C175.794 22.6518 176.128 21.2136 176.128 19.5956C176.272 16.7641 176.128 13.9327 176.033 10.8316L177.849 10.8765C177.371 15.0113 178.231 19.6855 176.893 23.5956C175.937 25.2136 174.264 26.3372 172.305 26.2473C170.202 26.3821 168.242 25.5731 167.19 23.9102C166.473 22.6068 166.378 20.9889 166.426 19.3259L166.33 10.7866C167.286 10.9215 168.433 10.9215 169.389 10.7866Z"
        fill="white" />
    <path
        d="M190.419 21.1686C190.658 17.8877 190.467 14.5619 190.371 10.8315L191.948 10.8765C191.709 16.045 191.709 20.6742 191.757 25.9327L190.18 25.9776C187.599 22.472 185.066 18.9214 182.102 15.5057L181.911 15.6855C181.863 19.1012 181.816 22.6967 182.007 25.9776L180.334 25.9327C180.573 20.7641 180.812 15.8653 180.573 10.8315L182.341 10.8765L190.419 21.1686Z"
        fill="white" />
    <path
        d="M131.439 14.2022C132.825 17.2135 132.49 21.2135 130.435 23.8202C128.905 25.573 126.802 26.4719 124.556 26.3371C122.453 26.2921 120.493 25.3932 119.298 23.7303C117.434 21.1685 117.434 17.2135 118.677 14.382C119.681 12.1348 122.166 10.427 124.795 10.382C127.663 10.2472 130.339 11.7303 131.439 14.2022ZM124.508 11.7303C123.074 11.955 122.118 13.3483 121.593 14.4719C120.828 17.7079 120.302 21.7977 122.931 24.3595C123.6 24.8539 124.413 25.1236 125.369 24.9887C126.372 24.764 127.376 24.0899 127.902 23.191C129.479 20.0449 129.718 15.3258 127.28 12.4944C126.516 11.9101 125.608 11.5955 124.508 11.7303Z"
        fill="white" />
    <path
        d="M102.57 25.6179C102.666 25.7078 102.57 25.8426 102.618 25.9325L99.4155 25.8876C99.1287 24.3595 98.5552 22.9213 98.125 21.4381C96.7389 21.2584 95.1617 21.3033 93.7278 21.3932C93.1542 22.8764 92.8197 24.4044 92.3895 25.9325C91.8637 25.9325 91.338 25.7078 90.86 25.9325L87.7055 25.8876C86.5584 23.5505 85.5547 21.1685 84.312 18.9213L84.1208 19.0561L84.312 25.9325L81.3486 25.8876C81.5876 20.9438 81.5398 15.5056 81.3964 10.6966C84.073 11.146 87.8011 9.66287 89.4739 12.1797C90.2387 13.4381 90.2387 15.2359 89.5695 16.5393C89.0438 17.3932 88.1835 18.2471 87.1319 18.4269C88.279 20.719 89.4739 23.146 90.86 25.1685C92.6285 20.3595 94.5403 15.5505 96.022 10.6067L97.4559 10.6516L102.57 25.6179ZM84.312 11.9999L84.2642 17.8876C84.9333 18.0674 85.6025 17.8426 86.1282 17.528C87.4665 16.2696 87.2753 13.9775 86.5584 12.4943C85.937 11.9999 85.1245 11.955 84.312 11.9999ZM96.022 15.0112C95.4006 16.6741 94.6837 18.382 94.3969 19.9999H97.5993C97.1213 18.337 96.6433 16.6741 96.022 15.0112Z"
        fill="white" />
    <path
        d="M39.0495 35.1011C35.3214 34.2022 32.836 38.3371 28.9168 37.3933C27.1483 36.8539 25.3799 36.4045 23.8026 35.5056C21.6996 34.5168 19.3576 34.8764 17.2546 35.6404C15.2949 36.1798 13.6221 37.7079 11.2323 37.3933C7.79096 37.573 5.68794 34.8315 2.29442 34.9213C0.525975 32.8539 1.09953 26.7865 1.09953 26.7865C1.4341 26.7865 1.81647 26.8315 2.10324 26.7416C4.58863 26.5168 6.40488 27.7753 8.26892 28.9438C9.7028 29.6629 11.997 29.8876 13.5265 29.1236L18.0193 27.191C21.0782 25.8427 24.2806 27.2359 26.9571 28.8539C28.391 29.8427 30.5896 29.6629 32.2147 29.1685L32.5971 29.0337L34.0309 28.1798C35.7994 26.6966 38.5715 26.7416 40.7702 26.8764C40.7702 26.8764 41.2959 33.3933 39.0495 35.1011Z"
        fill="white" />
    <path
        d="M34.174 5.12348C34.2696 5.88752 33.3614 6.0673 32.9313 6.51674C34.5085 6.51674 36.277 6.74145 36.9461 8.2246C36.9461 9.79763 34.9865 9.52797 34.0784 10.292L33.8394 10.5167C35.2255 11.1909 38.5712 9.3482 38.4278 12.4493C38.4756 13.2134 37.9499 13.8875 37.2807 14.292C36.7072 14.5617 36.038 14.6516 35.3211 14.6066C34.6519 14.2471 33.9828 13.1235 32.9313 13.8426C32.071 14.0224 31.7364 14.6965 31.4018 15.3707C31.354 20.0898 32.0232 25.483 32.2621 30.1122C30.6371 30.6066 28.3907 30.7415 26.9568 29.7527L26.909 27.3257L27.7215 15.3707C27.7693 14.7415 27.1958 14.3819 26.7656 13.9774C26.1443 13.8875 25.5229 13.4381 24.8538 13.7527C24.567 14.9662 23.0853 14.5617 22.1772 14.5167C21.6992 14.2021 21.2691 13.8426 21.0301 13.3033C20.7911 12.2695 21.4125 11.5504 21.8426 10.7415C23.1331 10.8763 24.3758 10.4718 25.5229 10.6066C24.6626 9.88752 23.3243 9.70775 22.4162 8.89876C22.3206 7.82011 23.2287 7.14595 24.1368 6.74146C24.9494 6.69651 25.8097 6.83134 26.5744 6.60662C26.1921 6.11224 24.7582 5.79763 25.2839 4.89876C26.8134 3.77516 28.4863 2.69651 30.4459 2.96617C31.832 3.46056 33.2181 4.04483 34.174 5.12348Z"
        fill="white" />
    <path
        d="M15.5815 5.39334L14.4344 6.60682C15.8683 6.69671 17.4934 6.60682 18.2103 8.08997C18.7361 9.93267 16.0595 9.43828 15.247 10.6068C16.7286 11.1461 19.7398 9.663 19.7398 12.2248C19.931 12.7641 19.7398 13.3933 19.3574 13.8428C18.7839 14.5169 17.9713 14.5619 17.2066 14.7866C16.7286 14.6068 15.9161 14.5169 15.9161 13.9327C15.1514 13.7529 14.2911 13.7529 13.5263 14.3821C11.9013 15.8203 13.2395 18.0226 12.8572 19.9551L13.5263 30.2023C11.9968 30.9664 9.65485 30.6518 8.22097 29.9327L8.26876 27.1911L9.0335 15.4608C9.17689 14.6518 8.41215 14.3821 7.8864 13.9327C7.31285 13.8877 6.73929 13.5282 6.16574 13.8428C5.92676 14.1124 5.83117 14.5619 5.40101 14.6967C4.44509 14.6518 3.48917 14.8315 2.86782 14.1574C1.86411 13.0787 2.62884 11.8653 3.1068 10.7866C4.39729 10.9214 5.68778 10.5619 6.88268 10.6967V10.6068C5.83117 9.97761 4.49288 9.70795 3.68035 8.76413C3.77595 8.04503 4.25391 7.41581 4.92305 7.01132C5.83117 6.60682 7.02607 6.96637 8.02978 6.69671C7.59962 6.02255 6.02235 6.02255 6.6437 4.98885C8.17317 3.86525 9.84603 2.7866 11.8057 3.05626C13.144 3.64053 14.8646 4.04503 15.5815 5.39334Z"
        fill="white" />
    <path
        d="M41.5345 0.494429L41.4867 31.1012C40.5786 36.809 34.7953 41.3933 29.0597 42.6517C20.3131 44.6742 10.3715 43.5057 3.7279 37.8427C1.48149 35.7753 0.286592 33.1236 0.334388 30.3371L0.477776 0.449485L0.573368 0.404541H41.3911L41.5345 0.494429ZM13.5261 29.1236L18.0189 27.1911C21.0778 25.8427 24.2802 27.236 26.9567 28.854C28.3906 29.8427 30.5892 29.663 32.2143 29.1686L32.5966 29.0338L34.0305 28.1798C35.799 26.6967 38.5711 26.7416 40.7698 26.8764V1.03375H1.14692L1.09912 26.7866C1.43369 26.7866 1.81606 26.8315 2.10284 26.7416C4.58823 26.5169 6.40447 27.7753 8.26851 28.9439C9.70239 29.663 11.9966 29.8877 13.5261 29.1236ZM23.8022 35.5057C21.6992 34.5169 19.3572 34.8764 17.2542 35.6405C15.2945 36.1798 13.6217 37.7079 11.2319 37.3933C7.79055 37.5731 5.68753 34.8315 2.29402 34.9214C2.5808 35.6854 3.24994 36.3596 3.82349 37.0338C8.65088 41.4382 15.0555 42.8315 21.7948 42.9214C28.5818 42.8315 35.6078 40.7641 39.0491 35.1012C35.321 34.2023 32.8356 38.3371 28.9164 37.3933C27.1479 36.854 25.3795 36.4045 23.8022 35.5057Z"
        fill="white" />
</svg>